<svg xmlns="http://www.w3.org/2000/svg" viewBox="0 0 300 300" width="300" height="300">
<style>
      text { font-family: Arial, sans-serif; }
    </style>
<polyline points="272.67,148.40 272.66,148.36 272.66,148.29 272.65,148.22 272.66,148.12 272.66,148.01 272.66,147.89 272.66,147.77 272.66,147.63 272.67,147.50 272.67,147.35 272.66,147.21 272.66,147.07 272.66,146.93 272.66,146.79 272.65,146.65 272.65,146.52 272.65,146.38 272.64,146.25 272.64,146.12 272.64,145.99 272.64,145.85 272.64,145.72 272.63,145.59 272.63,145.46 272.63,145.33 272.62,145.21 272.61,145.09 272.60,144.96 272.60,144.84 272.59,144.72 272.59,144.60 272.58,144.47 272.58,144.34 272.57,144.22 272.57,144.09 272.56,143.97 272.56,143.84 272.55,143.72 272.55,143.59 272.54,143.46 272.54,143.33 272.53,143.20 272.53,143.07 272.52,142.94 272.51,142.80 272.51,142.67 272.50,142.53 272.49,142.40 272.49,142.27 272.49,142.14 272.49,142.01 272.49,141.88 272.49,141.76 272.48,141.63 272.47,141.51 272.45,141.38 272.44,141.25 272.42,141.13 272.41,141.00 272.40,140.88 272.40,140.75 272.40,140.63 272.39,140.50 272.39,140.38 272.39,140.25 272.38,140.12 272.37,139.98 272.36,139.85 272.35,139.72 272.34,139.59 272.33,139.47 272.32,139.34 272.31,139.21 272.31,139.09 272.30,138.96 272.30,138.83 272.30,138.70 272.29,138.57 272.29,138.45 272.29,138.31 272.28,138.18 272.28,138.05 272.28,137.92 272.28,137.79 272.28,137.66 272.28,137.54 272.28,137.41 272.28,137.29 272.27,137.16 272.27,137.04 272.27,136.92 272.27,136.80 272.26,136.67 272.26,136.55 272.25,136.43 272.25,136.31 272.24,136.19 272.23,136.08 272.22,135.97 272.22,135.85 272.21,135.74 272.21,135.62 272.21,135.50 272.21,135.38 272.20,135.26 272.20,135.14 272.19,135.02 272.18,134.90 272.17,134.78 272.16,134.65 272.16,134.52 272.15,134.39 272.15,134.26 272.14,134.12 272.13,133.99 272.12,133.87 272.11,133.74 272.10,133.62 272.09,133.50 272.09,133.37 272.08,133.25 272.08,133.13 272.08,133.00 272.08,132.88 272.08,132.75 272.09,132.63 272.09,132.50 272.10,132.38 272.10,132.26 272.11,132.14 272.11,132.02 272.11,131.90 272.11,131.77 272.11,131.65 272.11,131.53 272.10,131.40 272.10,131.27 272.09,131.15 272.09,131.02 272.09,130.90 272.10,130.77 272.09,130.65 272.08,130.53 272.07,130.40 272.06,130.27 272.04,130.14 272.01,130.01 271.99,129.88 271.96,129.75 271.93,129.63 271.90,129.50 271.87,129.38 271.83,129.27 271.77,129.19 271.71,129.11 271.60,129.08 271.49,129.04 271.36,129.04 271.23,129.03 271.08,129.04 270.94,129.05 270.80,129.05 270.65,129.06 270.52,129.06 270.38,129.06 270.24,129.06 270.10,129.07 269.96,129.07 269.81,129.07 269.66,129.07 269.52,129.08 269.37,129.08 269.23,129.08 269.09,129.08 268.95,129.08 268.81,129.09 268.67,129.09 268.53,129.10 268.39,129.10 268.25,129.10 268.11,129.10 267.97,129.10 267.83,129.10 267.69,129.10 267.55,129.11 267.41,129.11 267.27,129.11 267.13,129.11 266.99,129.12 266.86,129.12 266.72,129.12 266.59,129.12 266.46,129.12 266.33,129.12 266.19,129.12 266.05,129.12 265.92,129.12 265.78,129.13 265.65,129.14 265.51,129.16 265.38,129.17 265.25,129.19 265.13,129.21 264.99,129.22 264.86,129.23 264.72,129.23 264.58,129.23 264.44,129.22 264.30,129.22 264.17,129.22 264.04,129.22 263.91,129.22 263.78,129.23 263.65,129.23 263.52,129.24 263.38,129.24 263.25,129.25 263.12,129.25 262.98,129.26 262.84,129.26 262.70,129.26 262.56,129.27 262.42,129.28 262.28,129.28 262.14,129.28 262.00,129.28 261.86,129.27 261.73,129.27 261.60,129.27 261.46,129.27 261.33,129.27 261.19,129.27 261.06,129.26 260.92,129.26 260.78,129.26 260.64,129.26 260.51,129.26 260.37,129.26 260.23,129.26 260.09,129.27 259.95,129.27 259.81,129.27 259.68,129.27 259.54,129.27 259.41,129.27 259.28,129.27 259.14,129.27 259.01,129.28 258.87,129.28 258.74,129.28 258.61,129.29 258.47,129.29 258.34,129.29 258.20,129.29 258.06,129.29 257.94,129.27 257.81,129.25 257.71,129.20 257.60,129.16 257.49,129.12 257.38,129.08 257.25,129.06 257.12,129.05 256.98,129.05 256.84,129.05 256.70,129.06 256.56,129.08 256.43,129.09 256.30,129.10 256.17,129.11 256.05,129.11 255.92,129.11 255.79,129.10 255.66,129.10 255.53,129.09 255.40,129.09 255.27,129.08 255.14,129.09 255.01,129.09 254.88,129.09 254.75,129.09 254.61,129.09 254.48,129.09 254.35,129.09 254.21,129.08 254.08,129.09 253.94,129.09 253.81,129.09 253.67,129.09 253.54,129.09 253.40,129.09 253.27,129.09 253.13,129.09 252.99,129.09 252.85,129.09 252.71,129.09 252.57,129.09 252.42,129.10 252.28,129.11 252.13,129.11 251.98,129.12 251.83,129.12 251.69,129.12 251.55,129.12 251.41,129.12 251.27,129.12 251.14,129.11 251.01,129.10 250.88,129.09 250.75,129.09 250.62,129.09 250.49,129.09 250.36,129.09 250.22,129.09 250.09,129.09 249.95,129.09 249.82,129.09 249.68,129.09 249.53,129.09 249.39,129.09 249.25,129.09 249.10,129.08 248.96,129.08 248.82,129.09 248.68,129.09 248.53,129.09 248.39,129.09 248.25,129.09 248.11,129.09 247.97,129.10 247.83,129.10 247.70,129.12 247.56,129.13 247.42,129.13 247.29,129.14 247.14,129.15 247.00,129.15 246.85,129.15 246.70,129.16 246.56,129.16 246.42,129.16 246.28,129.16 246.15,129.17 246.01,129.16 245.88,129.16 245.75,129.16 245.61,129.15 245.48,129.15 245.34,129.15 245.20,129.15 245.06,129.15 244.92,129.16 244.79,129.17 244.64,129.18 244.50,129.19 244.36,129.20 244.22,129.20 244.08,129.21 243.94,129.21 243.81,129.22 243.67,129.22 243.53,129.22 243.39,129.21 243.25,129.21 243.10,129.21 242.96,129.20 242.82,129.20 242.68,129.20 242.54,129.19 242.39,129.20 242.25,129.20 242.10,129.19 241.96,129.19 241.81,129.18 241.66,129.18 241.51,129.17 241.36,129.17 241.22,129.17 241.08,129.17 240.94,129.17 240.80,129.17 240.67,129.18 240.54,129.19 240.40,129.19 240.27,129.20 240.13,129.20 240.00,129.21 239.85,129.22 239.71,129.22 239.56,129.23 239.42,129.23 239.27,129.23 239.13,129.23 238.98,129.24 238.84,129.25 238.70,129.26 238.56,129.27 238.42,129.28 238.27,129.29 238.13,129.30 237.98,129.31 237.84,129.32 237.69,129.33 237.56,129.33 237.42,129.34 237.30,129.35 237.17,129.37 237.05,129.41 236.93,129.45 236.80,129.50 236.66,129.55 236.52,129.58 236.38,129.62 236.24,129.63 236.09,129.64 235.95,129.65 235.80,129.66 235.66,129.66 235.52,129.67 235.38,129.67 235.24,129.67 235.10,129.67 234.95,129.68 234.81,129.68 234.67,129.68 234.52,129.68 234.38,129.67 234.24,129.67 234.11,129.67 233.97,129.68 233.83,129.68 233.69,129.69 233.55,129.69 233.42,129.70 233.28,129.71 233.14,129.71 233.00,129.71 232.86,129.71 232.71,129.72 232.57,129.72 232.42,129.73 232.28,129.73 232.13,129.74 231.98,129.75 231.84,129.75 231.69,129.75 231.55,129.75 231.41,129.75 231.27,129.75 231.13,129.76 230.99,129.76 230.84,129.76 230.70,129.77 230.55,129.78 230.40,129.79 230.26,129.80 230.11,129.81 229.97,129.82 229.83,129.82 229.70,129.82 229.56,129.82 229.42,129.82 229.28,129.81 229.15,129.80 229.01,129.79 228.87,129.78 228.74,129.77 228.61,129.77 228.47,129.77 228.34,129.78 228.20,129.78 228.06,129.79 227.92,129.80 227.77,129.81 227.63,129.82 227.48,129.83 227.34,129.85 227.19,129.86 227.04,129.87 226.88,129.87 226.73,129.88 226.58,129.88 226.43,129.88 226.29,129.89 226.14,129.89 226.00,129.89 225.86,129.89 225.72,129.90 225.58,129.90 225.44,129.91 225.30,129.93 225.16,129.94 225.02,129.95 224.88,129.96 224.73,129.97 224.59,129.97 224.44,129.98 224.30,129.98 224.15,129.98 224.00,129.98 223.85,129.98 223.70,129.98 223.56,129.98 223.41,129.99 223.26,129.99 223.12,130.00 222.98,130.00 222.85,130.00 222.71,129.99 222.59,129.99 222.46,129.99 222.33,129.98 222.20,129.98 222.06,129.98 221.92,129.98 221.78,130.00 221.63,130.00 221.49,130.02 221.35,130.03 221.21,130.04 221.07,130.05 220.93,130.05 220.80,130.06 220.66,130.05 220.52,130.05 220.38,130.05 220.25,130.04 220.11,130.03 219.97,130.02 219.83,130.02 219.69,130.01 219.55,130.01 219.41,130.01 219.26,130.01 219.12,130.01 218.97,130.01 218.83,130.00 218.69,130.00 218.55,130.00 218.42,130.00 218.28,130.00 218.15,130.02 218.01,130.03 217.87,130.05 217.73,130.06 217.59,130.08 217.45,130.09 217.30,130.09 217.16,130.10 217.02,130.11 216.88,130.11 216.75,130.12 216.62,130.13 216.49,130.14 216.35,130.15 216.21,130.15 216.07,130.15 215.93,130.14 215.78,130.14 215.63,130.13 215.48,130.12 215.33,130.12 215.18,130.11 215.05,130.12 214.92,130.13 214.80,130.14 214.67,130.15 214.54,130.15 214.42,130.16 214.29,130.16 214.16,130.16 214.04,130.17 213.92,130.17 213.79,130.17 213.66,130.18 213.53,130.18 213.39,130.18 213.25,130.19 213.11,130.20 212.97,130.21 212.83,130.22 212.70,130.23 212.56,130.25 212.42,130.26 212.29,130.27 212.15,130.28 212.01,130.29 211.87,130.29 211.73,130.29 211.59,130.29 211.44,130.28 211.29,130.28 211.14,130.28 211.00,130.28 210.85,130.28 210.71,130.27 210.57,130.27 210.43,130.27 210.29,130.26 210.15,130.26 210.01,130.25 209.87,130.24 209.74,130.23 209.60,130.21 209.46,130.20 209.32,130.19 209.18,130.19 209.02,130.19 208.87,130.19 208.72,130.20 208.56,130.22 208.40,130.23 208.24,130.25 208.09,130.26 207.93,130.28 207.77,130.29 207.62,130.30 207.47,130.32 207.33,130.33 207.18,130.35 207.04,130.37 206.89,130.37 206.75,130.38 206.60,130.38 206.45,130.38 206.30,130.38 206.15,130.37 205.99,130.37 205.84,130.36 205.68,130.36 205.52,130.36 205.37,130.36 205.21,130.36 205.06,130.37 204.91,130.38 204.76,130.38 204.61,130.39 204.46,130.40 204.31,130.40 204.17,130.41 204.02,130.42 203.88,130.42 203.74,130.43 203.60,130.43 203.46,130.44 203.32,130.45 203.18,130.46 203.05,130.48 202.91,130.49 202.76,130.49 202.62,130.49 202.46,130.49 202.30,130.49 202.14,130.49 201.98,130.49 201.83,130.49 201.68,130.49 201.53,130.48 201.39,130.47 201.24,130.46 201.10,130.45 200.95,130.45 200.80,130.46 200.66,130.47 200.51,130.49 200.37,130.51 200.22,130.53 200.07,130.54 199.92,130.55 199.77,130.56 199.62,130.56 199.46,130.57 199.31,130.57 199.15,130.57 199.00,130.57 198.85,130.57 198.70,130.57 198.55,130.56 198.40,130.56 198.25,130.56 198.11,130.56 197.97,130.57 197.82,130.57 197.69,130.59 197.55,130.60 197.36,130.62 197.17,130.64 196.98,130.66 197.01,130.72 196.96,130.73 196.90,130.74 196.80,130.75 196.70,130.76 196.57,130.77 196.44,130.78 196.29,130.78 196.13,130.78 195.97,130.77 195.81,130.76 195.65,130.75 195.49,130.73 195.33,130.72 195.17,130.71 195.01,130.70 194.85,130.69 194.70,130.70 194.55,130.70 194.40,130.71 194.24,130.72 194.10,130.74 193.95,130.75 193.80,130.77 193.66,130.78 193.52,130.80 193.37,130.81 193.22,130.82 193.07,130.84 192.92,130.84 192.76,130.85 192.61,130.85 192.45,130.84 192.30,130.85 192.15,130.85 192.00,130.86 191.86,130.87 191.71,130.88 191.57,130.89 191.41,130.90 191.25,130.91 191.09,130.91 190.93,130.91 190.76,130.91 190.59,130.91 190.42,130.90 190.25,130.90 190.08,130.90 189.92,130.90 189.77,130.89 189.61,130.89 189.46,130.88 189.31,130.86 189.16,130.85 189.02,130.84 188.88,130.83 188.73,130.83 188.60,130.83 188.46,130.82 188.32,130.83 188.18,130.83 188.04,130.83 187.90,130.83 187.76,130.84 187.61,130.84 187.47,130.83 187.33,130.83 187.19,130.83 187.04,130.83 186.89,130.85 186.75,130.87 186.60,130.88 186.45,130.89 186.29,130.89 186.13,130.88 185.97,130.88 185.81,130.88 185.65,130.88 185.48,130.88 185.32,130.89 185.15,130.89 185.00,130.89 184.84,130.90 184.69,130.90 184.54,130.90 184.40,130.90 184.26,130.89 184.12,130.89 183.98,130.89 183.84,130.88 183.70,130.88 183.57,130.87 183.43,130.87 183.29,130.86 183.15,130.85 183.01,130.86 182.86,130.86 182.72,130.86 182.57,130.86 182.42,130.87 182.27,130.88 182.10,130.90 181.94,130.92 181.77,130.94 181.60,130.96 181.44,130.97 181.27,130.98 181.11,130.99 180.94,131.00 180.77,131.01 180.61,131.01 180.44,131.02 180.28,131.02 180.13,131.03 179.97,131.04 179.82,131.04 179.67,131.04 179.53,131.04 179.39,131.04 179.25,131.03 179.12,131.03 178.99,131.02 178.86,131.01 178.73,131.00 178.60,130.99 178.47,130.97 178.34,130.95 178.21,130.94 178.08,130.92 177.94,130.91 177.80,130.91 177.65,130.91 177.50,130.91 177.35,130.91 177.20,130.91 177.05,130.91 176.90,130.92 176.75,130.92 176.60,130.93 176.45,130.94 176.30,130.94 176.15,130.95 176.00,130.95 175.85,130.96 175.70,130.96 175.55,130.96 175.41,130.96 175.27,130.95 175.13,130.95 175.00,130.95 174.87,130.95 174.73,130.95 174.59,130.96 174.44,130.96 174.29,130.97 174.14,130.98 173.99,130.98 173.83,130.98 173.68,130.97 173.53,130.97 173.38,130.96 173.23,130.96 173.09,130.96 172.94,130.96 172.79,130.96 172.64,130.97 172.48,130.99 172.33,131.00 172.19,131.02 172.04,131.03 171.90,131.05 171.76,131.06 171.62,131.07 171.48,131.07 171.34,131.08 171.19,131.08 171.04,131.09 170.89,131.09 170.73,131.10 170.58,131.11 170.44,131.11 170.29,131.12 170.15,131.12 170.01,131.13 169.88,131.13 169.74,131.14 169.60,131.14 169.45,131.14 169.30,131.15 169.14,131.16 168.98,131.16 168.81,131.17 168.65,131.18 168.49,131.19 168.33,131.20 168.18,131.21 168.02,131.22 167.88,131.23 167.74,131.24 167.60,131.25 167.46,131.25 167.32,131.26 167.19,131.26 167.04,131.26 166.90,131.26 166.75,131.26 166.60,131.27 166.44,131.27 166.28,131.27 166.12,131.28 165.96,131.29 165.79,131.30 165.63,131.31 165.46,131.31 165.30,131.32 165.15,131.33 165.00,131.34 164.86,131.34 164.72,131.35 164.60,131.35 164.47,131.34 164.35,131.34 164.23,131.33 164.12,131.33 164.00,131.32 163.87,131.33 163.75,131.33 163.61,131.34 163.48,131.34 163.34,131.34 163.19,131.34 163.05,131.35 162.91,131.35 162.76,131.35 162.62,131.34 162.47,131.34 162.32,131.34 162.17,131.34 162.02,131.34 161.87,131.34 161.72,131.34 161.57,131.34 161.42,131.35 161.27,131.36 161.12,131.37 160.97,131.38 160.82,131.39 160.67,131.40 160.52,131.41 160.38,131.41 160.23,131.41 160.09,131.40 159.95,131.39 159.82,131.38 159.68,131.38 159.55,131.38 159.41,131.38 159.27,131.39 159.13,131.41 158.99,131.43 158.85,131.45 158.70,131.47 158.55,131.49 158.39,131.51 158.23,131.52 158.08,131.53 157.92,131.54 157.77,131.53 157.62,131.53 157.48,131.52 157.33,131.51 157.18,131.50 157.03,131.49 156.88,131.48 156.73,131.48 156.58,131.48 156.43,131.48 156.28,131.49 156.13,131.49 155.98,131.50 155.83,131.51 155.68,131.52 155.52,131.53 155.37,131.55 155.22,131.58 155.07,131.62 154.92,131.66 154.78,131.70 154.63,131.74 154.48,131.77 154.34,131.79 154.19,131.81 154.04,131.82 153.89,131.83 153.75,131.83 153.60,131.83 153.46,131.83 153.32,131.83 153.17,131.83 153.02,131.83 152.88,131.82 152.73,131.82 152.58,131.81 152.44,131.81 152.29,131.81 152.15,131.81 152.02,131.81 151.88,131.80 151.74,131.80 151.61,131.80 151.47,131.79 151.33,131.79 151.19,131.78 151.04,131.78 150.89,131.78 150.74,131.78 150.59,131.79 150.44,131.80 150.28,131.81 150.13,131.82 149.97,131.83 149.82,131.83 149.66,131.83 149.51,131.82 149.35,131.80 149.21,131.79 149.06,131.78 148.92,131.77 148.78,131.76 148.63,131.75 148.49,131.75 148.34,131.76 148.19,131.78 148.04,131.79 147.88,131.81 147.73,131.83 147.57,131.84 147.42,131.85 147.27,131.86 147.12,131.86 146.97,131.86 146.82,131.87 146.67,131.87 146.52,131.88 146.38,131.88 146.24,131.88 146.10,131.88 145.96,131.88 145.82,131.87 145.69,131.87 145.55,131.87 145.41,131.87 145.26,131.87 145.12,131.87 144.97,131.88 144.82,131.89 144.68,131.90 144.53,131.91 144.38,131.92 144.23,131.93 144.08,131.94 143.93,131.95 143.78,131.96 143.64,131.96 143.49,131.97 143.35,131.97 143.21,131.98 143.07,131.97 142.93,131.97 142.80,131.97 142.66,131.97 142.52,131.97 142.37,131.97 142.22,131.97 142.07,131.97 141.92,131.98 141.77,131.98 141.62,131.99 141.47,131.99 141.32,132.00 141.17,132.00 141.02,132.02 140.87,132.03 140.72,132.04 140.57,132.05 140.42,132.06 140.27,132.07 140.12,132.08 139.98,132.10 139.84,132.10 139.71,132.11 139.57,132.12 139.43,132.12 139.28,132.12 139.14,132.12 138.99,132.12 138.85,132.13 138.71,132.13 138.57,132.13 138.43,132.13 138.29,132.13 138.15,132.13 138.01,132.13 137.86,132.12 137.72,132.12 137.58,132.11 137.43,132.09 137.28,132.08 137.14,132.07 136.99,132.07 136.84,132.06 136.69,132.07 136.54,132.08 136.39,132.09 136.24,132.11 136.09,132.12 135.94,132.14 135.79,132.15 135.64,132.17 135.49,132.18 135.34,132.18 135.18,132.18 135.03,132.19 134.88,132.20 134.73,132.20 134.58,132.21 134.42,132.22 134.27,132.23 134.12,132.24 133.96,132.25 133.81,132.26 133.65,132.27 133.50,132.28 133.34,132.30 133.18,132.31 133.02,132.33 132.86,132.34 132.70,132.35 132.54,132.36 132.38,132.37 132.23,132.38 132.08,132.39 131.93,132.41 131.79,132.43 131.65,132.46 131.51,132.50 131.37,132.53 131.23,132.57 131.10,132.61 130.97,132.65 130.84,132.69 130.71,132.74 130.58,132.78 130.44,132.82 130.31,132.87 130.18,132.91 130.04,132.95 129.91,132.99 129.78,133.03 129.65,133.06 129.53,133.10 129.40,133.13 129.27,133.17 129.14,133.20 129.00,133.24 128.87,133.27 128.73,133.31 128.59,133.34 128.45,133.37 128.31,133.40 128.18,133.43 128.04,133.46 127.90,133.49 127.75,133.52 127.61,133.56 127.46,133.60 127.32,133.63 127.17,133.68 127.02,133.72 126.87,133.76 126.72,133.80 126.58,133.84 126.43,133.88 126.30,133.91 126.16,133.95 126.03,133.99 125.90,134.02 125.76,134.06 125.63,134.10 125.50,134.13 125.36,134.18 125.22,134.22 125.09,134.26 124.95,134.29 124.81,134.33 124.67,134.37 124.53,134.41 124.39,134.45 124.25,134.49 124.11,134.52 123.98,134.56 123.84,134.59 123.70,134.62 123.57,134.66 123.43,134.69 123.30,134.72 123.16,134.76 123.02,134.80 122.88,134.84 122.75,134.88 122.61,134.92 122.47,134.95 122.33,134.99 122.18,135.02 122.04,135.05 121.89,135.09 121.74,135.12 121.59,135.16 121.44,135.19 121.30,135.22 121.16,135.25 121.02,135.28 120.88,135.31 120.75,135.34 120.61,135.36 120.48,135.40 120.34,135.43 120.21,135.46 120.07,135.50 119.93,135.54 119.79,135.57 119.65,135.61 119.51,135.65 119.37,135.70 119.23,135.74 119.09,135.79 118.96,135.84 118.83,135.89 118.70,135.93 118.56,135.98 118.43,136.02 118.29,136.06 118.15,136.10 118.01,136.14 117.87,136.18 117.74,136.21 117.61,136.24 117.48,136.28 117.35,136.32 117.22,136.36 117.09,136.40 116.95,136.44 116.82,136.49 116.68,136.53 116.55,136.57 116.43,136.57 116.30,136.57 116.22,136.51 116.13,136.46 116.09,136.36 116.05,136.26 116.06,136.08 116.07,135.90 116.07,135.73 116.00,135.71 115.96,135.71 115.92,135.72 115.83,135.71 115.75,135.71 115.63,135.70 115.50,135.70 115.35,135.71 115.21,135.71 115.05,135.74 114.90,135.76 114.75,135.79 114.60,135.83 114.45,135.87 114.30,135.91 114.15,135.95 114.01,136.00 113.86,136.04 113.72,136.08 113.57,136.12 113.43,136.16 113.29,136.20 113.14,136.24 113.00,136.28 112.85,136.32 112.70,136.36 112.56,136.40 112.41,136.44 112.25,136.48 112.10,136.52 111.94,136.55 111.79,136.58 111.64,136.61 111.50,136.64 111.36,136.67 111.22,136.71 111.07,136.74 110.93,136.78 110.79,136.81 110.66,136.84 110.53,136.88 110.40,136.91 110.27,136.95 110.13,137.00 109.99,137.04 109.86,137.09 109.72,137.14 109.58,137.18 109.45,137.22 109.31,137.26 109.18,137.30 109.05,137.34 108.92,137.37 108.78,137.41 108.65,137.44 108.51,137.48 108.38,137.51 108.24,137.54 108.10,137.57 107.96,137.60 107.82,137.63 107.68,137.67 107.55,137.70 107.41,137.74 107.28,137.78 107.14,137.82 107.00,137.85 106.87,137.88 106.73,137.91 106.59,137.94 106.46,137.97 106.32,138.01 106.18,138.04 106.05,138.09 105.91,138.13 105.77,138.18 105.63,138.23 105.50,138.28 105.36,138.32 105.23,138.36 105.10,138.39 104.97,138.42 104.84,138.46 104.71,138.49 104.57,138.52 104.44,138.55 104.30,138.59 104.16,138.62 104.02,138.66 103.87,138.71 103.73,138.75 103.59,138.79 103.44,138.83 103.30,138.87 103.16,138.91 103.02,138.94 102.88,138.98 102.73,139.01 102.59,139.05 102.46,139.08 102.32,139.11 102.19,139.15 102.06,139.19 101.93,139.22 101.80,139.26 101.66,139.29 101.53,139.32 101.39,139.35 101.25,139.38 101.10,139.41 100.96,139.44 100.81,139.48 100.67,139.52 100.53,139.56 100.39,139.60 100.26,139.64 100.13,139.67 99.99,139.71 99.85,139.75 99.71,139.79 99.57,139.82 99.44,139.86 99.30,139.90 99.16,139.93 99.02,139.97 98.88,140.01 98.74,140.04 98.60,140.08 98.47,140.12 98.33,140.15 98.19,140.19 98.04,140.23 97.90,140.27 97.75,140.31 97.61,140.35 97.46,140.40 97.32,140.44 97.18,140.48 97.04,140.53 96.90,140.57 96.76,140.61 96.62,140.64 96.48,140.68 96.34,140.72 96.20,140.76 96.06,140.80 95.92,140.84 95.78,140.88 95.65,140.92 95.51,140.96 95.37,141.00 95.24,141.03 95.10,141.06 94.96,141.10 94.82,141.13 94.67,141.16 94.53,141.20 94.38,141.23 94.23,141.27 94.08,141.30 93.93,141.34 93.77,141.38 93.62,141.42 93.46,141.47 93.31,141.51 93.16,141.55 93.00,141.60 92.86,141.64 92.71,141.67 92.57,141.72 92.43,141.76 92.29,141.80 92.14,141.84 92.00,141.88 91.85,141.92 91.71,141.95 91.56,141.99 91.42,142.02 91.28,142.05 91.15,142.09 91.01,142.12 90.88,142.15 90.74,142.19 90.61,142.23 90.48,142.27 90.34,142.31 90.21,142.36 90.06,142.40 89.92,142.44 89.77,142.48 89.62,142.53 89.47,142.57 89.32,142.62 89.18,142.66 89.03,142.70 88.88,142.74 88.73,142.78 88.57,142.82 88.42,142.86 88.26,142.90 88.11,142.94 87.96,142.97 87.81,143.01 87.67,143.05 87.52,143.09 87.38,143.13 87.24,143.17 87.10,143.21 86.97,143.24 86.83,143.28 86.69,143.32 86.55,143.36 86.40,143.40 86.25,143.44 86.09,143.48 85.93,143.52 85.78,143.56 85.62,143.59 85.46,143.63 85.31,143.67 85.15,143.71 85.01,143.75 84.86,143.80 84.71,143.84 84.57,143.89 84.43,143.93 84.29,143.98 84.16,144.02 84.02,144.06 83.89,144.09 83.75,144.12 83.62,144.15 83.49,144.17 83.35,144.21 83.21,144.24 83.08,144.27 82.94,144.30 82.80,144.33 82.66,144.36 82.52,144.40 82.37,144.43 82.22,144.47 82.07,144.51 81.93,144.55 81.79,144.59 81.65,144.63 81.51,144.67 81.38,144.70 81.24,144.74 81.11,144.77 80.97,144.80 80.83,144.84 80.68,144.88 80.54,144.92 80.40,144.96 80.26,145.00 80.11,145.04 79.97,145.09 79.83,145.13 79.68,145.18 79.54,145.22 79.40,145.27 79.25,145.32 79.11,145.36 78.97,145.41 78.83,145.45 78.69,145.50 78.56,145.54 78.42,145.59 78.29,145.64 78.16,145.69 78.03,145.74 77.90,145.79 77.77,145.84 77.63,145.89 77.50,145.93 77.37,145.97 77.24,146.01 77.11,146.05 76.99,146.08 76.87,146.12 76.75,146.13 76.62,146.15 76.48,146.15 76.34,146.16 76.20,146.18 76.05,146.20 75.90,146.23 75.74,146.26 75.59,146.29 75.43,146.33 75.29,146.37 75.15,146.42 75.00,146.47 74.86,146.51 74.72,146.56 74.58,146.61 74.44,146.66 74.30,146.71 74.16,146.76 74.03,146.81 73.89,146.87 73.76,146.92 73.62,146.97 73.48,147.02 73.34,147.07 73.21,147.12 73.07,147.16 72.93,147.21 72.79,147.25 72.65,147.28 72.52,147.32 72.38,147.36 72.25,147.39 72.11,147.43 71.98,147.46 71.84,147.49 71.71,147.52 71.59,147.55 71.46,147.59 71.33,147.62 71.20,147.66 71.07,147.70 70.93,147.75 70.79,147.80 70.64,147.84 70.49,147.88 70.35,147.92 70.20,147.95 70.06,147.99 69.91,148.02 69.77,148.06 69.63,148.10 69.49,148.14 69.35,148.17 69.21,148.20 69.07,148.22 68.91,148.24 68.75,148.25 68.60,148.26 68.44,148.28 68.29,148.31 68.15,148.34 68.02,148.38 67.89,148.43 67.77,148.48 67.65,148.54 67.53,148.60 67.41,148.66 67.30,148.72 67.18,148.77 67.06,148.83 66.95,148.88 66.83,148.94 66.71,149.00 66.58,149.05 66.46,149.10 66.33,149.14 66.19,149.18 66.06,149.23 65.92,149.28 65.79,149.32 65.66,149.37 65.51,149.42 65.37,149.46 65.22,149.51 65.07,149.56 64.92,149.60 64.77,149.65 64.63,149.69 64.48,149.73 64.33,149.76 64.18,149.80 64.03,149.82 63.88,149.85 63.74,149.86 63.60,149.86 63.47,149.85 63.34,149.84 63.26,149.84 63.18,149.83 63.11,149.82 63.05,149.80 62.95,149.80 62.86,149.79 62.73,149.80 62.60,149.82 62.46,149.86 62.31,149.90 62.17,149.95 62.02,150.00 61.88,150.05 61.73,150.11 61.59,150.16 61.45,150.21 61.31,150.25 61.17,150.29 61.02,150.32 60.86,150.36 60.71,150.39 60.55,150.42 60.40,150.46 60.25,150.50 60.11,150.54 59.96,150.57 59.82,150.61 59.67,150.65 59.53,150.68 59.38,150.71 59.24,150.75 59.10,150.79 58.95,150.83 58.81,150.88 58.66,150.92 58.51,150.97 58.36,151.01 58.21,151.05 58.06,151.09 57.91,151.13 57.75,151.17 57.60,151.21 57.45,151.25 57.30,151.29 57.15,151.33 57.01,151.37 56.87,151.40 56.72,151.44 56.58,151.47 56.44,151.50 56.30,151.54 56.16,151.57 56.02,151.61 55.87,151.65 55.72,151.70 55.57,151.75 55.42,151.79 55.26,151.84 55.11,151.89 54.97,151.93 54.82,151.98 54.67,152.02 54.52,152.06 54.38,152.09 54.23,152.13 54.09,152.16 53.95,152.20 53.80,152.23 53.66,152.26 53.51,152.30 53.37,152.33 53.23,152.36 53.10,152.41 52.96,152.45 52.83,152.50 52.69,152.56 52.55,152.60 52.41,152.64 52.27,152.67 52.13,152.70 52.00,152.74 51.87,152.78 51.75,152.83 51.63,152.89 51.51,152.96 51.40,153.03 51.30,153.12 51.20,153.22 51.13,153.34 51.05,153.46 51.00,153.59 50.95,153.72 50.90,153.86 50.86,153.99 50.81,154.11 50.77,154.24 50.72,154.36 50.68,154.49 50.61,154.60 50.55,154.71 50.46,154.79 50.36,154.88 50.25,154.93 50.13,154.99 50.01,155.02 49.88,155.06 49.76,155.10 49.64,155.13 49.52,155.18 49.39,155.23 49.27,155.29 49.15,155.35 49.02,155.40 48.89,155.46 48.76,155.50 48.63,155.55 48.49,155.58 48.35,155.62 48.22,155.65 48.09,155.68 47.96,155.72 47.84,155.76 47.70,155.81 47.57,155.86 47.42,155.91 47.27,155.96 47.12,155.99 46.96,156.03 46.80,156.06 46.65,156.08 46.50,156.09 46.34,156.11 46.19,156.12 46.04,156.13 45.89,156.14 45.75,156.14 45.61,156.15 45.47,156.15 45.33,156.16 45.18,156.17 45.04,156.19 44.89,156.20 44.75,156.24 44.62,156.27 44.52,156.35 44.42,156.43 44.35,156.54 44.29,156.65 44.26,156.79 44.23,156.93 44.22,157.07 44.21,157.22 44.22,157.37 44.22,157.51 44.24,157.66 44.27,157.80 44.29,157.95 44.32,158.09 44.34,158.24 44.37,158.39 44.39,158.54 44.41,158.69 44.43,158.83 44.45,158.97 44.45,159.10 44.44,159.24 44.40,159.37 44.35,159.50 44.29,159.63 44.22,159.75 44.15,159.87 44.08,159.99 43.98,160.08 43.88,160.17 43.75,160.22 43.62,160.26 43.47,160.27 43.31,160.27 43.15,160.27 43.00,160.26 42.84,160.26 42.68,160.26 42.51,160.26 42.35,160.25 42.20,160.23 42.05,160.20 41.91,160.14 41.77,160.08 41.65,160.00 41.53,159.92 41.41,159.82 41.29,159.73 41.18,159.64 41.06,159.55 40.93,159.48 40.81,159.41 40.66,159.37 40.52,159.33 40.37,159.32 40.22,159.31 40.07,159.31 39.91,159.32 39.77,159.33 39.62,159.33 39.47,159.34 39.33,159.35 39.18,159.37 39.03,159.38 38.88,159.39 38.73,159.41 38.57,159.42 38.42,159.43 38.27,159.44 38.12,159.45 37.99,159.47 37.85,159.48 37.72,159.50 37.59,159.51 37.46,159.54 37.32,159.56 37.18,159.58 37.04,159.59 36.89,159.60 36.74,159.60 36.61,159.61 36.48,159.61 36.36,159.65 36.24,159.69 36.13,159.76 36.02,159.82 35.91,159.89 35.79,159.96 35.67,160.03 35.55,160.09 35.43,160.14 35.31,160.19 35.17,160.23 35.03,160.26 34.89,160.29 34.75,160.32 34.61,160.35 34.47,160.37 34.35,160.41 34.22,160.44 34.10,160.50 33.98,160.55 33.88,160.63 33.78,160.71 33.69,160.81 33.59,160.90 33.49,160.99 33.39,161.09 33.29,161.18 33.19,161.28 33.10,161.38 33.01,161.49 32.94,161.61 32.87,161.74 32.84,161.87 32.80,162.01 32.79,162.15 32.78,162.29 32.79,162.43 32.81,162.58 32.83,162.73 32.85,162.88 32.86,163.03 32.88,163.17 32.90,163.31 32.91,163.44 32.91,163.56 32.91,163.67 32.85,163.74 32.79,163.82 32.68,163.86 32.57,163.90 32.43,163.93 32.29,163.96 32.13,163.98 31.97,163.99 31.81,164.00 31.65,164.00 31.49,164.00 31.33,164.00 31.18,164.00 31.03,164.00 30.88,164.01 30.74,164.01 30.60,164.01 30.46,164.01 30.32,164.01 30.17,164.02 30.03,164.02 29.88,164.02 29.73,164.03 29.59,164.03 29.45,164.02 29.31,164.01 29.17,164.00 29.03,163.98 28.90,163.97 28.76,163.96 28.62,163.95 28.47,163.94 28.32,163.95 28.17,163.95 28.02,163.99 27.87,164.02 27.75,164.10 27.62,164.17 27.54,164.28 27.46,164.39 27.42,164.51 27.37,164.64 27.36,164.78 27.34,164.92 27.34,165.08 27.33,165.23 27.33,165.38 27.33,165.54 27.32,165.69 27.31,165.84 27.29,165.98 27.28,166.13 27.28,166.27 27.27,166.42 27.30,166.55 27.32,166.69 27.39,166.82 27.45,166.96 27.53,167.09 27.61,167.22 27.70,167.34 27.78,167.47 27.87,167.59 27.95,167.71 28.03,167.84 28.11,167.96 28.20,168.09 28.28,168.21 28.37,168.34 28.47,168.47 28.56,168.59 28.66,168.72 28.76,168.84 28.86,168.96 28.96,169.07 29.06,169.18 29.16,169.29 29.26,169.39 29.37,169.49 29.48,169.58 29.60,169.66 29.72,169.74 29.85,169.82 29.97,169.89 30.11,169.94 30.24,170.00 30.38,170.04 30.51,170.08 30.65,170.12 30.78,170.15 30.92,170.18 31.05,170.21 31.21,170.22 31.37,170.23 31.53,170.22 31.70,170.22 31.86,170.21 32.02,170.19 32.19,170.18 32.35,170.17 32.52,170.15 32.68,170.14 32.85,170.12 33.01,170.11 33.17,170.10 33.34,170.09 33.49,170.09 33.65,170.09 33.81,170.09 33.96,170.09 34.12,170.10 34.27,170.11 34.43,170.12 34.59,170.12 34.75,170.12 34.91,170.12 35.07,170.12 35.23,170.13 35.39,170.16 35.54,170.18 35.69,170.22 35.83,170.26 35.97,170.29 36.11,170.32 36.25,170.35 36.39,170.37 36.54,170.39 36.69,170.41 36.84,170.42 36.99,170.43 37.15,170.43 37.30,170.43 37.45,170.43 37.61,170.43 37.76,170.42 37.92,170.42 38.07,170.41 38.23,170.40 38.38,170.40 38.53,170.39 38.68,170.38 38.83,170.38 38.98,170.37 39.13,170.36 39.28,170.36 39.43,170.35 39.59,170.35 39.74,170.35 39.89,170.36 40.04,170.37 40.20,170.38 40.35,170.38 40.50,170.39 40.66,170.40 40.81,170.41 40.96,170.42 41.11,170.43 41.26,170.44 41.41,170.45 41.57,170.46 41.72,170.46 41.88,170.46 42.04,170.46 42.20,170.46 42.35,170.47 42.51,170.47 42.66,170.47 42.81,170.46 42.97,170.46 43.13,170.45 43.28,170.44 43.44,170.43 43.59,170.42 43.74,170.40 43.97,170.39 44.20,170.38 44.43,170.36 44.49,170.27 44.56,170.26 44.63,170.25 44.75,170.25 44.87,170.24 45.01,170.25 45.15,170.26 45.30,170.27 45.46,170.28 45.62,170.29 45.78,170.29 45.94,170.29 46.10,170.29 46.26,170.29 46.41,170.29 46.57,170.29 46.73,170.29 46.90,170.29 47.06,170.30 47.22,170.31 47.38,170.32 47.54,170.34 47.70,170.35 47.86,170.37 48.03,170.39 48.19,170.40 48.35,170.41 48.51,170.41 48.67,170.41 48.84,170.41 49.00,170.41 49.17,170.41 49.33,170.41 49.49,170.41 49.65,170.40 49.81,170.40 49.96,170.40 50.12,170.39 50.27,170.38 50.43,170.38 50.58,170.37 50.74,170.36 50.89,170.35 51.04,170.33 51.19,170.32 51.34,170.29 51.48,170.27 51.63,170.25 51.77,170.23 51.90,170.26 52.03,170.29 52.13,170.37 52.24,170.45 52.32,170.55 52.41,170.65 52.51,170.74 52.60,170.82 52.73,170.87 52.85,170.91 53.00,170.93 53.14,170.94 53.29,170.95 53.44,170.96 53.60,170.97 53.75,170.97 53.90,170.97 54.05,170.96 54.20,170.96 54.35,170.96 54.51,170.95 54.66,170.94 54.81,170.93 54.96,170.92 55.10,170.90 55.25,170.88 55.40,170.87 55.54,170.85 55.69,170.85 55.84,170.84 56.00,170.85 56.15,170.85 56.30,170.85 56.45,170.86 56.60,170.86 56.74,170.86 56.89,170.86 57.03,170.86 57.18,170.86 57.32,170.85 57.47,170.85 57.61,170.84 57.76,170.83 57.91,170.82 58.06,170.81 58.21,170.80 58.35,170.79 58.50,170.79 58.65,170.78 58.79,170.78 58.93,170.77 59.07,170.76 59.21,170.74 59.36,170.73 59.50,170.72 59.65,170.70 59.80,170.69 59.95,170.68 60.10,170.67 60.25,170.66 60.39,170.66 60.54,170.65 60.68,170.65 60.83,170.64 60.97,170.64 61.11,170.64 61.25,170.65 61.38,170.65 61.52,170.65 61.65,170.65 61.79,170.65 61.93,170.65 62.08,170.64 62.24,170.63 62.38,170.62 62.53,170.61 62.69,170.60 62.84,170.59 63.00,170.57 63.16,170.56 63.32,170.55 63.47,170.55 63.62,170.55 63.77,170.55 63.92,170.56 64.06,170.57 64.20,170.57 64.35,170.57 64.50,170.56 64.64,170.55 64.79,170.54 64.94,170.53 65.09,170.52 65.24,170.52 65.39,170.51 65.54,170.51 65.69,170.50 65.84,170.50 65.99,170.49 66.13,170.49 66.29,170.49 66.44,170.49 66.59,170.49 66.74,170.49 66.88,170.49 67.03,170.48 67.17,170.47 67.32,170.46 67.46,170.45 67.61,170.44 67.75,170.43 67.89,170.42 68.04,170.42 68.18,170.42 68.32,170.42 68.46,170.41 68.60,170.41 68.75,170.41 68.89,170.41 69.03,170.41 69.18,170.40 69.32,170.40 69.47,170.39 69.62,170.38 69.77,170.36 69.92,170.35 70.06,170.33 70.21,170.31 70.35,170.30 70.49,170.29 70.63,170.29 70.77,170.29 70.91,170.28 71.05,170.28 71.20,170.27 71.35,170.27 71.51,170.26 71.66,170.25 71.81,170.23 71.96,170.22 72.11,170.20 72.25,170.19 72.40,170.18 72.54,170.18 72.69,170.18 72.84,170.19 72.99,170.20 73.14,170.21 73.30,170.21 73.45,170.21 73.61,170.21 73.77,170.21 73.92,170.20 74.08,170.20 74.24,170.19 74.39,170.19 74.55,170.18 74.70,170.17 74.85,170.16 75.00,170.15 75.15,170.14 75.30,170.13 75.46,170.13 75.61,170.12 75.76,170.12 75.91,170.11 76.05,170.11 76.20,170.10 76.32,170.09 76.43,170.08 76.50,170.07 76.57,170.05 76.61,170.04 76.64,170.03 76.69,170.03 76.74,170.03 76.83,170.04 76.92,170.05 77.06,170.06 77.19,170.08 77.36,170.09 77.52,170.10 77.70,170.10 77.87,170.10 78.04,170.10 78.21,170.09 78.37,170.08 78.53,170.07 78.69,170.06 78.84,170.05 78.99,170.05 79.14,170.05 79.29,170.05 79.44,170.05 79.58,170.05 79.73,170.05 79.87,170.04 80.01,170.03 80.16,170.02 80.31,170.01 80.46,170.01 80.61,170.01 80.76,170.02 80.90,170.02 81.05,170.03 81.20,170.04 81.34,170.04 81.49,170.04 81.64,170.03 81.79,170.03 81.93,170.03 82.08,170.03 82.23,170.03 82.39,170.03 82.54,170.03 82.69,170.03 82.84,170.03 82.98,170.02 83.13,170.01 83.27,170.01 83.41,170.00 83.56,169.99 83.71,169.98 83.85,169.96 84.00,169.95 84.14,169.94 84.29,169.94 84.43,169.93 84.57,169.93 84.72,169.92 84.87,169.92 85.01,169.91 85.16,169.91 85.30,169.91 85.45,169.90 85.60,169.89 85.74,169.88 85.88,169.87 86.01,169.87 86.14,169.86 86.27,169.85 86.39,169.85 86.53,169.85 86.66,169.84 86.80,169.84 86.95,169.84 87.09,169.84 87.24,169.84 87.38,169.84 87.53,169.85 87.67,169.85 87.81,169.85 87.95,169.85 88.09,169.85 88.23,169.85 88.38,169.85 88.52,169.84 88.67,169.83 88.82,169.82 88.97,169.80 89.12,169.79 89.27,169.78 89.41,169.78 89.56,169.78 89.70,169.78 89.84,169.78 89.99,169.77 90.13,169.77 90.28,169.76 90.42,169.76 90.56,169.75 90.69,169.75 90.83,169.75 90.96,169.75 91.09,169.75 91.23,169.75 91.36,169.75 91.50,169.74 91.64,169.73 91.79,169.72 91.93,169.71 92.08,169.70 92.22,169.69 92.36,169.67 92.50,169.66 92.65,169.65 92.78,169.64 92.92,169.64 93.06,169.63 93.20,169.63 93.34,169.62 93.48,169.61 93.62,169.60 93.76,169.59 93.91,169.59 94.05,169.58 94.20,169.58 94.35,169.58 94.50,169.58 94.65,169.58 94.79,169.58 94.92,169.58 95.05,169.58 95.18,169.58 95.30,169.57 95.41,169.57 95.53,169.56 95.66,169.56 95.79,169.55 95.92,169.54 96.07,169.53 96.21,169.52 96.38,169.52 96.54,169.51 96.71,169.51 96.87,169.51 97.03,169.51 97.19,169.52 97.34,169.52 97.49,169.52 97.65,169.51 97.80,169.51 97.94,169.52 98.09,169.52 98.23,169.52 98.38,169.51 98.52,169.51 98.66,169.50 98.80,169.49 98.94,169.49 99.08,169.48 99.22,169.47 99.36,169.47 99.49,169.46 99.63,169.45 99.77,169.45 99.91,169.44 100.05,169.43 100.20,169.42 100.35,169.42 100.50,169.41 100.64,169.41 100.79,169.41 100.94,169.41 101.08,169.41 101.23,169.41 101.38,169.41 101.53,169.41 101.67,169.40 101.82,169.40 101.97,169.40 102.12,169.39 102.26,169.39 102.41,169.38 102.55,169.37 102.70,169.36 102.84,169.35 102.99,169.34 103.13,169.34 103.28,169.33 103.43,169.33 103.57,169.32 103.71,169.32 103.85,169.32 103.99,169.32 104.13,169.33 104.27,169.33 104.41,169.33 104.55,169.33 104.70,169.33 104.84,169.33 104.98,169.33 105.13,169.33 105.27,169.34 105.41,169.34 105.54,169.33 105.69,169.33 105.83,169.32 105.97,169.31 106.12,169.31 106.26,169.30 106.41,169.30 106.56,169.30 106.70,169.30 106.85,169.30 107.00,169.30 107.14,169.30 107.28,169.31 107.42,169.30 107.56,169.30 107.70,169.29 107.84,169.27 107.97,169.26 108.11,169.25 108.25,169.25 108.39,169.25 108.53,169.25 108.68,169.24 108.83,169.24 108.98,169.24 109.13,169.23 109.29,169.23 109.44,169.22 109.59,169.22 109.74,169.21 109.89,169.20 110.04,169.20 110.19,169.19 110.34,169.17 110.49,169.16 110.65,169.15 110.80,169.14 110.96,169.13 111.11,169.12 111.27,169.11 111.43,169.10 111.58,169.09 111.74,169.07 111.89,169.06 112.05,169.05 112.20,169.04 112.35,169.03 112.50,169.02 112.65,169.01 112.80,169.01 112.95,169.00 113.09,168.99 113.24,168.98 113.39,168.97 113.53,168.96 113.67,168.96 113.81,168.95 113.95,168.96 114.09,168.96 114.25,168.97 114.40,168.97 114.56,168.98 114.72,168.98 114.87,168.98 115.03,168.99 115.18,168.99 115.33,168.99 115.48,168.99 115.63,169.00 115.77,169.00 115.92,169.00 116.06,169.00 116.20,168.99 116.35,168.98 116.50,168.97 116.65,168.95 116.81,168.94 116.97,168.93 117.14,168.91 117.29,168.92 117.45,168.92 117.60,168.93 117.76,168.94 117.91,168.94 118.06,168.95 118.21,168.95 118.37,168.94 118.52,168.94 118.67,168.94 118.83,168.94 118.98,168.94 119.13,168.94 119.28,168.94 119.43,168.94 119.58,168.94 119.73,168.94 119.87,168.95 120.02,168.95 120.16,168.95 120.31,168.95 120.45,168.96 120.59,168.95 120.73,168.95 120.88,168.95 121.03,168.95 121.19,168.95 121.34,168.94 121.50,168.94 121.65,168.94 121.80,168.93 121.95,168.93 122.10,168.92 122.24,168.92 122.38,168.92 122.52,168.92 122.67,168.92 122.81,168.92 122.95,168.92 123.09,168.93 123.22,168.93 123.36,168.93 123.49,168.93 123.62,168.93 123.77,168.92 123.91,168.91 124.06,168.90 124.22,168.88 124.38,168.87 124.54,168.86 124.69,168.85 124.85,168.84 125.01,168.84 125.16,168.83 125.32,168.83 125.47,168.82 125.63,168.82 125.78,168.82 125.92,168.82 126.06,168.81 126.20,168.81 126.34,168.81 126.49,168.80 126.63,168.80 126.78,168.80 126.92,168.79 127.06,168.79 127.20,168.78 127.34,168.77 127.47,168.76 127.61,168.75 127.75,168.75 127.90,168.75 128.05,168.75 128.20,168.75 128.35,168.75 128.49,168.75 128.64,168.75 128.78,168.75 128.93,168.74 129.08,168.74 129.23,168.74 129.38,168.74 129.54,168.73 129.69,168.72 129.84,168.71 130.00,168.70 130.15,168.69 130.31,168.68 130.46,168.66 130.61,168.66 130.76,168.65 130.92,168.64 131.08,168.64 131.23,168.63 131.39,168.62 131.54,168.62 131.69,168.61 131.84,168.61 132.00,168.61 132.15,168.60 132.30,168.59 132.45,168.58 132.60,168.58 132.74,168.57 132.88,168.57 133.01,168.56 133.15,168.56 133.28,168.56 133.42,168.55 133.55,168.56 133.68,168.56 133.82,168.56 133.95,168.57 134.10,168.57 134.24,168.58 134.38,168.58 134.53,168.58 134.67,168.57 134.82,168.56 134.95,168.56 135.09,168.55 135.22,168.54 135.35,168.54 135.48,168.54 135.61,168.54 135.75,168.54 135.88,168.54 136.03,168.54 136.18,168.54 136.34,168.54 136.49,168.54 136.65,168.54 136.81,168.54 136.97,168.52 137.13,168.51 137.29,168.50 137.45,168.49 137.60,168.49 137.75,168.48 137.90,168.48 138.05,168.48 138.19,168.48 138.34,168.49 138.48,168.49 138.63,168.50 138.78,168.50 138.93,168.50 139.08,168.50 139.24,168.49 139.39,168.49 139.54,168.49 139.70,168.49 139.85,168.48 140.00,168.47 140.16,168.46 140.30,168.45 140.45,168.44 140.60,168.43 140.75,168.41 140.90,168.40 141.06,168.38 141.21,168.37 141.36,168.35 141.50,168.35 141.65,168.34 141.80,168.35 141.95,168.35 142.09,168.35 142.24,168.35 142.39,168.34 142.53,168.34 142.68,168.33 142.83,168.32 142.97,168.33 143.11,168.33 143.26,168.33 143.40,168.34 143.55,168.34 143.69,168.33 143.84,168.33 143.99,168.32 144.13,168.31 144.28,168.31 144.43,168.31 144.58,168.31 144.73,168.31 144.89,168.31 145.04,168.31 145.19,168.31 145.34,168.31 145.49,168.31 145.64,168.31 145.78,168.31 145.93,168.31 146.07,168.31 146.21,168.31 146.36,168.31 146.50,168.30 146.65,168.30 146.80,168.29 146.95,168.28 147.10,168.28 147.26,168.27 147.42,168.27 147.57,168.27 147.73,168.26 147.89,168.26 148.04,168.26 148.20,168.25 148.35,168.25 148.51,168.24 148.66,168.23 148.81,168.23 148.96,168.23 149.11,168.23 149.25,168.23 149.39,168.23 149.53,168.23 149.66,168.22 149.80,168.22 149.93,168.21 150.09,168.20 150.24,168.19 150.39,168.18 150.55,168.18 150.71,168.17 150.86,168.17 151.02,168.16 151.17,168.16 151.32,168.15 151.48,168.14 151.62,168.14 151.77,168.13 151.91,168.13 152.06,168.12 152.20,168.12 152.33,168.12 152.47,168.11 152.61,168.11 152.75,168.10 152.89,168.10 153.03,168.09 153.18,168.08 153.32,168.07 153.47,168.06 153.63,168.04 153.78,168.03 153.93,168.02 154.09,168.01 154.24,168.00 154.39,167.99 154.54,167.99 154.69,167.98 154.85,167.98 155.00,167.98 155.15,167.98 155.31,167.98 155.46,167.98 155.61,167.97 155.76,167.97 155.91,167.96 156.05,167.95 156.20,167.94 156.34,167.93 156.49,167.91 156.63,167.91 156.77,167.90 156.91,167.90 157.05,167.91 157.19,167.92 157.33,167.92 157.48,167.92 157.62,167.93 157.77,167.92 157.92,167.92 158.08,167.92 158.23,167.91 158.39,167.91 158.54,167.91 158.70,167.91 158.86,167.90 159.02,167.89 159.17,167.89 159.33,167.88 159.48,167.87 159.64,167.86 159.79,167.85 159.94,167.84 160.09,167.84 160.24,167.83 160.39,167.82 160.55,167.81 160.70,167.80 160.85,167.79 161.01,167.78 161.16,167.78 161.31,167.78 161.46,167.78 161.61,167.78 161.76,167.78 161.91,167.77 162.06,167.77 162.21,167.76 162.35,167.75 162.50,167.75 162.64,167.75 162.78,167.75 162.92,167.76 163.05,167.76 163.19,167.77 163.33,167.78 163.48,167.77 163.62,167.77 163.77,167.76 163.92,167.76 164.07,167.77 164.23,167.77 164.38,167.77 164.53,167.78 164.69,167.78 164.84,167.78 164.98,167.79 165.13,167.80 165.27,167.80 165.41,167.81 165.57,167.81 165.72,167.80 165.88,167.80 166.03,167.79 166.19,167.78 166.35,167.77 166.52,167.77 166.68,167.77 166.84,167.77 167.00,167.77 167.16,167.78 167.32,167.78 167.48,167.78 167.64,167.77 167.79,167.76 167.94,167.74 168.09,167.73 168.24,167.72 168.38,167.71 168.52,167.70 168.66,167.69 168.81,167.68 168.96,167.68 169.11,167.67 169.27,167.66 169.43,167.66 169.59,167.65 169.75,167.65 169.90,167.64 170.05,167.64 170.19,167.63 170.33,167.63 170.47,167.64 170.60,167.64 170.74,167.65 170.88,167.65 171.03,167.66 171.18,167.66 171.34,167.65 171.49,167.63 171.66,167.61 171.82,167.59 171.99,167.57 172.16,167.56 172.32,167.55 172.49,167.55 172.65,167.54 172.81,167.54 172.96,167.54 173.12,167.53 173.27,167.52 173.43,167.50 173.58,167.49 173.73,167.48 173.88,167.47 174.03,167.46 174.19,167.46 174.34,167.46 174.50,167.46 174.66,167.46 174.81,167.46 174.97,167.46 175.12,167.46 175.27,167.46 175.42,167.44 175.57,167.43 175.73,167.43 175.89,167.42 176.04,167.42 176.20,167.42 176.36,167.42 176.52,167.41 176.68,167.42 176.84,167.42 176.99,167.42 177.15,167.42 177.30,167.41 177.45,167.40 177.60,167.39 177.75,167.38 177.90,167.37 178.05,167.36 178.20,167.35 178.35,167.33 178.51,167.32 178.66,167.32 178.81,167.31 178.96,167.30 179.11,167.29 179.27,167.29 179.42,167.28 179.58,167.27 179.73,167.26 179.89,167.25 180.04,167.25 180.18,167.24 180.33,167.24 180.47,167.24 180.62,167.25 180.76,167.25 180.91,167.26 181.06,167.27 181.20,167.27 181.35,167.27 181.50,167.27 181.65,167.26 181.80,167.26 181.96,167.25 182.11,167.25 182.27,167.25 182.42,167.26 182.58,167.26 182.73,167.26 182.88,167.26 183.02,167.26 183.16,167.26 183.30,167.27 183.44,167.27 183.58,167.27 183.72,167.28 183.87,167.27 184.02,167.27 184.16,167.27 184.30,167.27 184.44,167.27 184.58,167.27 184.72,167.28 184.85,167.28 184.98,167.29 185.11,167.31 185.24,167.32 185.37,167.33 185.52,167.33 185.66,167.34 185.81,167.33 185.96,167.33 186.12,167.33 186.27,167.33 186.43,167.34 186.59,167.34 186.75,167.35 186.90,167.36 187.06,167.36 187.21,167.36 187.37,167.35 187.52,167.33 187.68,167.32 187.84,167.30 188.00,167.29 188.17,167.28 188.33,167.26 188.50,167.24 188.68,167.24 188.85,167.23 189.02,167.23 189.19,167.23 189.35,167.23 189.51,167.23 189.67,167.22 189.82,167.22 189.97,167.20 190.12,167.19 190.26,167.17 190.41,167.15 190.56,167.13 190.71,167.12 190.86,167.12 191.01,167.12 191.17,167.12 191.33,167.13 191.49,167.12 191.65,167.12 191.81,167.11 191.96,167.10 192.11,167.08 192.26,167.07 192.40,167.06 192.55,167.04 192.69,167.04 192.83,167.03 192.98,167.02 193.12,167.02 193.28,167.01 193.43,167.00 193.59,166.99 193.74,166.98 193.90,166.97 194.05,166.96 194.20,166.96 194.35,166.95 194.50,166.95 194.65,166.94 194.80,166.94 194.95,166.94 195.10,166.95 195.25,166.95 195.40,166.95 195.55,166.95 195.70,166.95 195.85,166.94 196.00,166.93 196.15,166.92 196.29,166.92 196.42,166.91 196.55,166.91 196.68,166.90 196.82,166.89 196.95,166.89 197.09,166.88 197.23,166.86 197.38,166.86 197.53,166.85 197.70,166.84 197.86,166.83 198.02,166.83 198.17,166.83 198.33,166.82 198.49,166.82 198.65,166.82 198.81,166.82 198.96,166.82 199.12,166.82 199.28,166.82 199.43,166.81 199.59,166.81 199.74,166.80 199.90,166.79 200.06,166.78 200.21,166.77 200.35,166.76 200.50,166.75 200.65,166.74 200.80,166.74 200.95,166.73 201.11,166.73 201.27,166.72 201.43,166.72 201.59,166.71 201.76,166.71 201.92,166.71 202.08,166.70 202.25,166.70 202.41,166.70 202.57,166.70 202.73,166.70 202.88,166.70 203.03,166.72 203.18,166.73 203.33,166.74 203.47,166.75 203.62,166.75 203.76,166.76 203.90,166.76 204.04,166.76 204.18,166.75 204.33,166.75 204.46,166.75 204.60,166.74 204.74,166.74 204.87,166.73 205.00,166.73 205.14,166.74 205.28,166.74 205.43,166.74 205.58,166.73 205.74,166.73 205.91,166.72 206.07,166.71 206.23,166.70 206.38,166.69 206.54,166.68 206.69,166.67 206.84,166.67 206.99,166.66 207.13,166.66 207.28,166.66 207.42,166.66 207.56,166.67 207.70,166.67 207.84,166.68 207.98,166.68 208.12,166.68 208.27,166.67 208.41,166.67 208.57,166.67 208.72,166.68 208.88,166.68 209.03,166.68 209.17,166.68 209.32,166.68 209.46,166.68 209.61,166.68 209.75,166.67 209.90,166.67 210.04,166.66 210.19,166.65 210.33,166.64 210.47,166.62 210.60,166.62 210.74,166.61 210.89,166.61 211.03,166.60 211.18,166.60 211.33,166.61 211.48,166.61 211.63,166.61 211.78,166.60 211.93,166.60 212.08,166.60 212.24,166.59 212.40,166.58 212.56,166.57 212.72,166.56 212.88,166.55 213.03,166.54 213.19,166.54 213.34,166.53 213.49,166.53 213.64,166.53 213.79,166.53 213.94,166.52 214.09,166.52 214.25,166.52 214.40,166.52 214.56,166.51 214.72,166.50 214.88,166.49 215.04,166.48 215.19,166.46 215.34,166.45 215.49,166.44 215.64,166.42 215.79,166.41 215.94,166.40 216.09,166.39 216.24,166.38 216.40,166.37 216.55,166.37 216.71,166.36 216.86,166.36 217.02,166.35 217.17,166.35 217.32,166.35 217.47,166.35 217.63,166.35 217.78,166.35 217.93,166.35 218.09,166.35 218.24,166.35 218.39,166.34 218.54,166.34 218.70,166.34 218.85,166.34 219.00,166.34 219.16,166.33 219.31,166.33 219.47,166.34 219.62,166.34 219.78,166.34 219.93,166.34 220.08,166.34 220.23,166.34 220.38,166.34 220.52,166.34 220.67,166.33 220.81,166.33 220.96,166.31 221.10,166.30 221.24,166.29 221.38,166.28 221.52,166.28 221.67,166.27 221.82,166.26 221.97,166.26 222.13,166.26 222.29,166.27 222.45,166.27 222.61,166.27 222.76,166.27 222.92,166.27 223.07,166.27 223.21,166.27 223.36,166.27 223.51,166.27 223.65,166.26 223.80,166.25 223.95,166.25 224.10,166.24 224.25,166.23 224.39,166.22 224.54,166.22 224.69,166.21 224.83,166.21 224.98,166.20 225.13,166.20 225.27,166.19 225.42,166.18 225.56,166.18 225.71,166.17 225.85,166.16 226.00,166.15 226.14,166.14 226.29,166.13 226.44,166.11 226.58,166.10 226.73,166.09 226.88,166.09 227.02,166.09 227.17,166.09 227.32,166.09 227.46,166.10 227.61,166.11 227.76,166.11 227.90,166.12 228.05,166.12 228.19,166.12 228.33,166.12 228.48,166.13 228.62,166.13 228.76,166.13 228.90,166.12 229.04,166.11 229.18,166.09 229.32,166.08 229.46,166.05 229.60,166.02 229.72,165.96 229.84,165.90 229.89,165.81 229.93,165.71 229.92,165.59 229.91,165.46 229.86,165.32 229.82,165.18 229.77,165.05 229.72,164.91 229.67,164.78 229.62,164.65 229.58,164.52 229.53,164.39 229.49,164.26 229.44,164.12 229.40,163.99 229.35,163.85 229.32,163.71 229.29,163.57 229.26,163.44 229.23,163.30 229.19,163.16 229.16,163.02 229.12,162.89 229.08,162.76 229.04,162.63 229.00,162.49 228.96,162.36 228.93,162.23 228.90,162.10 228.86,161.97 228.83,161.85 228.80,161.72 228.77,161.60 228.73,161.47 228.70,161.35 228.67,161.22 228.63,161.09 228.60,160.96 228.56,160.83 228.53,160.71 228.49,160.58 228.45,160.45 228.41,160.32 228.37,160.19 228.33,160.05 228.29,159.92 228.26,159.79 228.22,159.66 228.19,159.53 228.16,159.40 228.14,159.28 228.11,159.15 228.08,159.02 228.05,158.90 228.01,158.78 227.96,158.65 227.89,158.54 227.83,158.42 227.75,158.32 227.67,158.21 227.60,158.10 227.54,157.99 227.50,157.88 227.47,157.77 227.48,157.66 227.49,157.54 227.51,157.43 227.53,157.31 227.54,157.19 227.56,157.08 227.57,156.97 227.58,156.86 227.59,156.75 227.60,156.64 227.59,156.53 227.58,156.43 227.58,156.33 227.58,156.22 227.59,156.12 227.60,156.02 227.63,155.91 227.66,155.81 227.70,155.70 227.74,155.58 227.77,155.46 227.80,155.34 227.82,155.21 227.84,155.08 227.84,154.95 227.84,154.82 227.83,154.69 227.82,154.55 227.79,154.42 227.77,154.30 227.73,154.17 227.70,154.04 227.66,153.91 227.62,153.79 227.58,153.66 227.55,153.53 227.51,153.40 227.48,153.26 227.44,153.14 227.41,153.01 227.37,152.88 227.34,152.75 227.30,152.62 227.26,152.50 227.23,152.36 227.19,152.23 227.16,152.09 227.13,151.95 227.11,151.81 227.09,151.67 227.06,151.53 227.04,151.40 227.02,151.26 226.99,151.12 226.96,150.99 226.94,150.85 226.91,150.72 226.89,150.58 226.88,150.44 226.87,150.31 226.86,150.17 226.85,150.03 226.84,149.90 226.82,149.76 226.80,149.62 226.78,149.48 226.75,149.35 226.72,149.21 226.69,149.08 226.66,148.95 226.63,148.81 226.60,148.68 226.57,148.55 226.54,148.42 226.50,148.29 226.47,148.16 226.43,148.03 226.40,147.90 226.37,147.77 226.35,147.64 226.35,147.51 226.35,147.38 226.35,147.25 226.36,147.12 226.35,146.99 226.34,146.86 226.30,146.74 226.25,146.62 226.18,146.51 226.11,146.39 226.03,146.29 225.94,146.18 225.86,146.07 225.77,145.96 225.67,145.85 225.58,145.74 225.48,145.63 225.37,145.53 225.27,145.42 225.17,145.32 225.08,145.21 224.99,145.10 224.90,144.98 224.82,144.87 224.74,144.76 224.66,144.64 224.59,144.52 224.51,144.40 224.44,144.28 224.37,144.17 224.29,144.05 224.21,143.93 224.14,143.81 224.06,143.69 223.99,143.57 223.92,143.46 223.84,143.34 223.76,143.22 223.68,143.11 223.60,143.00 223.52,142.89 223.44,142.77 223.36,142.66 223.28,142.55 223.20,142.44 223.12,142.33 223.04,142.21 222.95,142.10 222.87,141.99 222.79,141.88 222.70,141.76 222.62,141.65 222.53,141.54 222.45,141.43 222.37,141.32 222.30,141.21 222.22,141.10 222.14,140.99 222.07,140.88 221.99,140.77 221.92,140.66 221.84,140.54 221.76,140.42 221.68,140.30 221.59,140.18 221.51,140.06 221.42,139.94 221.33,139.83 221.24,139.71 221.16,139.59 221.08,139.48 220.99,139.36 220.92,139.24 220.84,139.12 220.77,139.00 220.70,138.88 220.63,138.76 220.57,138.64 220.51,138.52 220.45,138.40 220.39,138.28 220.33,138.16 220.26,138.04 220.20,137.93 220.14,137.81 220.07,137.69 220.00,137.58 219.94,137.47 219.86,137.35 219.79,137.24 219.72,137.13 219.65,137.02 219.58,136.91 219.51,136.81 219.43,136.69 219.36,136.58 219.30,136.46 219.23,136.35 219.17,136.24 219.10,136.12 219.04,136.00 218.97,135.88 218.91,135.76 218.84,135.64 218.77,135.52 218.70,135.39 218.62,135.27 218.55,135.14 218.48,135.01 218.41,134.89 218.35,134.76 218.29,134.64 218.24,134.52 218.18,134.40 218.13,134.29 218.08,134.18 218.03,134.06 217.98,133.95 217.93,133.82 217.87,133.69 217.81,133.57 217.74,133.45 217.67,133.33 217.60,133.21 217.53,133.09 217.46,132.97 217.39,132.85 217.31,132.73 217.24,132.61 217.16,132.50 217.08,132.38 217.00,132.27 216.92,132.15 216.85,132.04 216.78,131.93 216.70,131.81 216.64,131.69 216.57,131.58 216.50,131.47 216.43,131.36 216.40,131.27 216.36,131.17 216.40,131.11 216.45,131.06 216.58,131.05 216.71,131.03 216.87,131.05 217.03,131.07 217.19,131.09 217.36,131.12 217.52,131.14 217.68,131.15 217.84,131.16 218.00,131.17 218.16,131.16 218.31,131.16 218.46,131.16 218.61,131.15 218.76,131.15 218.90,131.14 219.05,131.14 219.20,131.14 219.35,131.13 219.50,131.13 219.65,131.12 219.81,131.11 219.96,131.10 220.11,131.10 220.26,131.09 220.42,131.08 220.57,131.08 220.73,131.07 220.88,131.07 221.04,131.06 221.19,131.05 221.34,131.04 221.49,131.03 221.63,131.02 221.78,131.01 221.92,131.00 222.07,131.00 222.22,130.99 222.37,130.98 222.51,130.98 222.66,130.98 222.80,130.98 222.94,130.98 223.08,130.99 223.23,130.99 223.37,131.00 223.51,131.00 223.66,131.00 223.81,131.00 223.95,131.00 224.10,131.01 224.25,131.02 224.40,131.02 224.54,131.03 224.68,131.03 224.83,131.04 224.97,131.04 225.12,131.05 225.26,131.06 225.41,131.07 225.55,131.08 225.70,131.09 225.84,131.09 225.98,131.10 226.12,131.10 226.26,131.10 226.40,131.09 226.54,131.09 226.69,131.08 226.83,131.07 226.98,131.06 227.13,131.05 227.28,131.03 227.43,131.01 227.58,131.00 227.73,130.99 227.88,130.98 228.03,130.97 228.18,130.96 228.34,130.96 228.49,130.95 228.64,130.95 228.79,130.94 228.94,130.94 229.09,130.93 229.24,130.93 229.39,130.92 229.55,130.91 229.70,130.91 229.85,130.90 230.00,130.89 230.15,130.89 230.30,130.88 230.45,130.88 230.60,130.88 230.75,130.88 230.91,130.88 231.06,130.89 231.21,130.88 231.37,130.87 231.52,130.84 231.67,130.80 231.82,130.73 231.97,130.67 232.10,130.59 232.23,130.51 232.37,130.43 232.50,130.35 232.64,130.29 232.78,130.23 232.92,130.19 233.07,130.15 233.23,130.13 233.38,130.12 233.52,130.11 233.67,130.11 233.81,130.11 233.96,130.11 234.10,130.11 234.25,130.11 234.39,130.08 234.54,130.04 234.68,129.99 234.82,129.94 234.98,129.90 235.13,129.86 235.28,129.84 235.44,129.83 235.59,129.82 235.74,129.82 235.88,129.82 236.03,129.82 236.17,129.83 236.32,129.83 236.46,129.83 236.60,129.83 236.75,129.81 236.90,129.78 237.03,129.73 237.17,129.68 237.31,129.63 237.45,129.58 237.59,129.54 237.74,129.49 237.89,129.48 238.04,129.46 238.19,129.46 238.35,129.46 238.51,129.46 238.67,129.47 238.82,129.48 238.98,129.48 239.13,129.48 239.29,129.49 239.45,129.48 239.60,129.48 239.76,129.47 239.92,129.47 240.07,129.47 240.23,129.46 240.38,129.46 240.54,129.45 240.69,129.45 240.85,129.44 241.00,129.43 241.15,129.43 241.30,129.43 241.44,129.43 241.59,129.43 241.74,129.44 241.89,129.44 242.04,129.45 242.19,129.45 242.34,129.45 242.49,129.45 242.64,129.45 242.80,129.44 242.96,129.44 243.13,129.43 243.29,129.41 243.46,129.40 243.62,129.38 243.78,129.37 243.93,129.36 244.08,129.36 244.23,129.35 244.37,129.35 244.52,129.36 244.67,129.36 244.82,129.36 244.97,129.36 245.12,129.36 245.27,129.36 245.41,129.36 245.56,129.37 245.71,129.37 245.85,129.37 246.00,129.37 246.15,129.37 246.29,129.38 246.44,129.38 246.59,129.38 246.75,129.39 246.90,129.39 247.06,129.40 247.22,129.41 247.38,129.41 247.54,129.41 247.71,129.41 247.87,129.40 248.03,129.40 248.19,129.39 248.35,129.39 248.51,129.38 248.66,129.38 248.81,129.37 248.95,129.36 249.10,129.35 249.24,129.35 249.38,129.34 249.52,129.34 249.66,129.33 249.79,129.32 249.93,129.32 250.06,129.31 250.20,129.30 250.34,129.29 250.47,129.28 250.61,129.27 250.75,129.26 250.89,129.25 251.03,129.24 251.17,129.23 251.31,129.22 251.45,129.21 251.59,129.21 251.73,129.20 251.87,129.20 252.02,129.20 252.16,129.19 252.30,129.20 252.45,129.20 252.59,129.21 252.73,129.22 252.86,129.22 252.99,129.22 253.13,129.22 253.26,129.21 253.39,129.20 253.53,129.19 253.67,129.18 253.80,129.16 253.94,129.16 254.07,129.15 254.21,129.15 254.34,129.15 254.48,129.16 254.61,129.17 254.75,129.18 254.89,129.18 255.03,129.19 255.17,129.19 255.31,129.19 255.44,129.19 255.58,129.18 255.71,129.18 255.85,129.17 255.98,129.17 256.11,129.16 256.24,129.15 256.37,129.15 256.50,129.14 256.64,129.14 256.77,129.13 256.90,129.13 257.04,129.13 257.18,129.13 257.32,129.13 257.45,129.15 257.58,129.17 257.69,129.20 257.81,129.24 257.93,129.27 258.04,129.30 258.17,129.32 258.29,129.34 258.41,129.35 258.54,129.35 258.67,129.35 258.80,129.35 258.93,129.35 259.06,129.35 259.20,129.35 259.33,129.34 259.47,129.34 259.60,129.33 259.74,129.33 259.87,129.33 260.01,129.33 260.15,129.33 260.29,129.32 260.43,129.32 260.57,129.32 260.71,129.32 260.85,129.32 260.99,129.31 261.13,129.31 261.27,129.30 261.41,129.30 261.54,129.31 261.67,129.31 261.80,129.32 261.94,129.32 262.07,129.33 262.21,129.32 262.35,129.32 262.49,129.32 262.62,129.31 262.75,129.30 262.88,129.30 263.00,129.29 263.13,129.29 263.26,129.29 263.38,129.29 263.51,129.29 263.63,129.30 263.75,129.30 263.88,129.30 263.99,129.30 264.11,129.29 264.23,129.29 264.34,129.29 264.46,129.29 264.58,129.29 264.71,129.28 264.84,129.28 264.96,129.27 265.09,129.27 265.22,129.26 265.35,129.25 265.48,129.24 265.60,129.22 265.74,129.21 265.87,129.20 266.01,129.19 266.15,129.19 266.29,129.18 266.42,129.18 266.57,129.17 266.71,129.15 266.85,129.14 266.99,129.12 267.13,129.11 267.27,129.11 267.41,129.10 267.55,129.10 267.68,129.10 267.82,129.10 267.95,129.11 268.08,129.11 268.22,129.10 268.35,129.10 268.48,129.11 268.62,129.11 268.75,129.11 268.89,129.12 269.03,129.12 269.16,129.12 269.29,129.13 269.42,129.13 269.55,129.13 269.67,129.13 269.80,129.13 269.93,129.13 270.06,129.13 270.19,129.13 270.32,129.13 270.45,129.12 270.59,129.12 270.72,129.11 270.86,129.10 270.99,129.10 271.13,129.09 271.26,129.08 271.38,129.08 271.50,129.08 271.60,129.10 271.71,129.13 271.77,129.20 271.84,129.28 271.88,129.39 271.91,129.50 271.92,129.63 271.93,129.75 271.93,129.88 271.94,130.00 271.94,130.13 271.95,130.26 271.96,130.38 271.97,130.50 271.98,130.62 272.00,130.75 272.01,130.86 272.02,130.98 272.03,131.09 272.04,131.21 272.05,131.32 272.05,131.44 272.05,131.55 272.06,131.66 272.06,131.77 272.07,131.88 272.08,132.00 272.08,132.11 272.09,132.22 272.09,132.34 272.09,132.46 272.10,132.58 272.11,132.70 272.11,132.82 272.12,132.94 272.12,133.07 272.12,133.19 272.12,133.31 272.12,133.43 272.12,133.55 272.12,133.67 272.11,133.79 272.11,133.90 272.11,134.02 272.12,134.13 272.13,134.25 272.14,134.36 272.15,134.48 272.16,134.60 272.17,134.72 272.18,134.84 272.19,134.96 272.21,135.08 272.22,135.21 272.24,135.33 272.25,135.45 272.25,135.57 272.26,135.68 272.26,135.80 272.26,135.92 272.26,136.04 272.27,136.16 272.27,136.28 272.28,136.40 272.28,136.53 272.29,136.65 272.29,136.77 272.30,136.89 272.31,137.01 272.32,137.13 272.33,137.25 272.34,137.37 272.35,137.49 272.35,137.62 272.36,137.74 272.36,137.86 272.36,137.98 272.36,138.11 272.37,138.23 272.37,138.35 272.38,138.47 272.39,138.59 272.39,138.71 272.39,138.83 272.38,138.96 272.38,139.08 272.38,139.20 272.38,139.32 272.38,139.44 272.39,139.56 272.39,139.68 272.39,139.80 272.39,139.91 272.40,140.03 272.40,140.15 272.41,140.27 272.42,140.39 272.43,140.52 272.44,140.64 272.45,140.77 272.46,140.89 272.47,141.01 272.49,141.13 272.50,141.25 272.51,141.37 272.53,141.49 272.54,141.61 272.55,141.72 272.56,141.84 272.57,141.96 272.58,142.07 272.58,142.19 272.58,142.31 272.58,142.42 272.58,142.54 272.57,142.66 272.57,142.77 272.56,142.89 272.56,143.01 272.55,143.13 272.55,143.26 272.55,143.38 272.55,143.50 272.54,143.62 272.54,143.74 272.54,143.86 272.55,143.99 272.55,144.11 272.56,144.24 272.56,144.36 272.57,144.48 272.57,144.60 272.57,144.72 272.57,144.84 272.57,144.96 272.57,145.08 272.58,145.20 272.58,145.32 272.59,145.44 272.59,145.56 272.60,145.68 272.61,145.80 272.62,145.93 272.63,146.05 272.64,146.18 272.65,146.30 272.65,146.42 272.65,146.55 272.65,146.67 272.65,146.79 272.65,146.90 272.65,147.02 272.65,147.14 272.66,147.26 272.69,147.49 272.73,147.71" stroke="#3b55ff" fill="none" stroke-width="10" stroke-linejoin="round" stroke-linecap="round"/>
</svg>