<svg xmlns="http://www.w3.org/2000/svg" viewBox="0 0 300 300" width="300" height="300">
<style>
      text { font-family: Arial, sans-serif; }
    </style>
<polyline points="106.44,193.01 106.34,193.01 106.22,193.01 106.10,193.02 105.96,193.00 105.81,192.99 105.65,192.98 105.49,192.97 105.32,192.96 105.15,192.95 104.99,192.95 104.83,192.94 104.69,192.94 104.54,192.93 104.40,192.94 104.25,192.94 104.11,192.95 103.97,192.96 103.84,192.97 103.70,192.98 103.57,192.99 103.43,193.00 103.30,193.01 103.16,193.02 103.02,193.02 102.88,193.03 102.73,193.03 102.58,193.04 102.44,193.04 102.29,193.04 102.14,193.05 101.99,193.06 101.84,193.07 101.69,193.08 101.53,193.09 101.37,193.10 101.21,193.10 101.05,193.11 100.90,193.11 100.75,193.11 100.59,193.11 100.42,193.12 100.25,193.13 100.08,193.15 99.90,193.17 99.72,193.19 99.54,193.21 99.36,193.23 99.18,193.24 99.00,193.26 98.82,193.27 98.65,193.28 98.46,193.27 98.28,193.26 98.08,193.24 97.88,193.23 97.67,193.22 97.46,193.21 97.26,193.21 97.05,193.20 96.84,193.21 96.64,193.22 96.45,193.23 96.26,193.24 96.07,193.25 95.89,193.27 95.71,193.29 95.52,193.31 95.34,193.33 95.15,193.35 94.96,193.36 94.78,193.38 94.59,193.38 94.41,193.38 94.23,193.38 94.05,193.37 93.88,193.37 93.71,193.37 93.54,193.36 93.38,193.36 93.23,193.37 93.08,193.38 92.94,193.43 92.80,193.48 92.70,193.57 92.59,193.66 92.54,193.80 92.48,193.93 92.48,194.09 92.47,194.25 92.48,194.41 92.50,194.58 92.53,194.75 92.55,194.91 92.58,195.08 92.61,195.25 92.64,195.41 92.66,195.57 92.68,195.73 92.71,195.89 92.73,196.05 92.75,196.20 92.79,196.37 92.82,196.53 92.87,196.69 92.91,196.86 92.95,197.02 92.99,197.19 93.04,197.36 93.09,197.53 93.14,197.70 93.19,197.86 93.25,198.02 93.32,198.18 93.39,198.34 93.46,198.50 93.54,198.67 93.62,198.84 93.69,199.00 93.77,199.17 93.85,199.33 93.92,199.49 94.01,199.65 94.09,199.80 94.18,199.96 94.26,200.12 94.34,200.28 94.42,200.43 94.50,200.59 94.57,200.75 94.64,200.91 94.71,201.07 94.78,201.23 94.85,201.39 94.93,201.55 95.01,201.71 95.09,201.88 95.17,202.04 95.25,202.21 95.33,202.38 95.40,202.55 95.48,202.72 95.55,202.89 95.62,203.05 95.68,203.22 95.75,203.39 95.81,203.56 95.87,203.73 95.92,203.90 95.97,204.07 96.00,204.24 96.04,204.41 96.08,204.59 96.11,204.76 96.14,204.93 96.16,205.10 96.19,205.28 96.22,205.45 96.24,205.63 96.26,205.81 96.27,205.99 96.27,206.17 96.27,206.35 96.26,206.53 96.25,206.70 96.23,206.88 96.22,207.06 96.21,207.23 96.20,207.40 96.19,207.58 96.19,207.75 96.18,207.92 96.19,208.10 96.19,208.27 96.20,208.46 96.22,208.64 96.22,208.83 96.23,209.02 96.23,209.20 96.23,209.39 96.23,209.58 96.23,209.76 96.22,209.95 96.22,210.14 96.22,210.32 96.23,210.51 96.23,210.68 96.23,210.86 96.24,211.04 96.26,211.22 96.27,211.40 96.28,211.58 96.30,211.75 96.32,211.92 96.34,212.09 96.35,212.26 96.36,212.44 96.37,212.62 96.37,212.81 96.38,213.00 96.38,213.19 96.39,213.37 96.39,213.56 96.39,213.74 96.40,213.92 96.41,214.10 96.41,214.28 96.42,214.46 96.44,214.63 96.45,214.80 96.46,214.97 96.47,215.14 96.48,215.32 96.49,215.49 96.50,215.66 96.51,215.83 96.51,216.00 96.52,216.17 96.52,216.33 96.52,216.50 96.52,216.66 96.52,216.82 96.53,216.98 96.54,217.14 96.55,217.31 96.55,217.47 96.56,217.65 96.56,217.83 96.57,218.01 96.57,218.19 96.57,218.37 96.57,218.55 96.56,218.73 96.56,218.92 96.56,219.10 96.56,219.27 96.56,219.45 96.56,219.63 96.56,219.81 96.56,219.99 96.55,220.18 96.55,220.36 96.56,220.55 96.56,220.74 96.57,220.93 96.58,221.11 96.59,221.30 96.60,221.48 96.61,221.66 96.62,221.84 96.64,222.02 96.65,222.19 96.67,222.37 96.69,222.55 96.71,222.73 96.72,222.91 96.73,223.08 96.74,223.26 96.74,223.42 96.74,223.59 96.73,223.76 96.73,223.93 96.73,224.10 96.74,224.26 96.75,224.43 96.77,224.61 96.77,224.80 96.78,224.98 96.78,225.18 96.79,225.38 96.79,225.57 96.79,225.76 96.79,225.95 96.80,226.14 96.81,226.32 96.82,226.51 96.83,226.69 96.84,226.87 96.85,227.05 96.85,227.23 96.86,227.40 96.87,227.58 96.88,227.75 96.90,227.92 96.91,228.08 96.93,228.24 96.94,228.41 96.96,228.57 96.98,228.73 96.99,228.89 97.01,229.06 97.02,229.23 97.01,229.42 97.01,229.60 97.00,229.79 97.00,229.98 96.99,230.17 96.98,230.36 96.97,230.53 96.96,230.71 96.97,230.87 96.98,231.03 97.00,231.18 97.02,231.34 97.03,231.50 97.05,231.67 97.05,231.85 97.05,232.03 97.05,232.22 97.04,232.40 97.04,232.59 97.03,232.78 97.03,232.96 97.03,233.15 97.03,233.32 97.04,233.50 97.06,233.69 97.07,233.87 97.09,234.06 97.11,234.25 97.14,234.45 97.16,234.64 97.17,234.83 97.19,235.03 97.18,235.22 97.17,235.42 97.15,235.62 97.14,235.82 97.12,236.02 97.11,236.21 97.11,236.39 97.11,236.57 97.12,236.75 97.13,236.92 97.15,237.10 97.18,237.27 97.22,237.45 97.25,237.62 97.28,237.79 97.32,237.97 97.34,238.15 97.37,238.34 97.38,238.52 97.40,238.70 97.41,238.88 97.42,239.05 97.45,239.22 97.47,239.38 97.47,239.56 97.46,239.73 97.45,239.91 97.43,240.09 97.44,240.26 97.44,240.43 97.46,240.61 97.48,240.79 97.49,240.98 97.50,241.16 97.50,241.35 97.50,241.54 97.51,241.73 97.51,241.92 97.52,242.10 97.53,242.29 97.54,242.48 97.55,242.67 97.56,242.86 97.57,243.05 97.58,243.24 97.59,243.43 97.58,243.61 97.57,243.79 97.54,243.98 97.52,244.16 97.50,244.33 97.48,244.51 97.48,244.68 97.47,244.84 97.47,245.01 97.47,245.18 97.47,245.36 97.46,245.53 97.46,245.71 97.46,245.89 97.46,246.06 97.46,246.24 97.46,246.42 97.46,246.60 97.46,246.77 97.46,246.95 97.46,247.13 97.47,247.31 97.47,247.48 97.48,247.65 97.50,247.82 97.51,248.00 97.52,248.18 97.54,248.35 97.55,248.54 97.57,248.73 97.57,248.92 97.57,249.11 97.57,249.31 97.57,249.50 97.57,249.70 97.56,249.90 97.57,250.08 97.57,250.26 97.57,250.44 97.57,250.62 97.58,250.80 97.58,250.97 97.59,251.14 97.60,251.31 97.61,251.49 97.62,251.66 97.62,251.83 97.63,252.01 97.64,252.19 97.65,252.37 97.67,252.55 97.69,252.73 97.70,252.91 97.71,253.09 97.71,253.26 97.71,253.44 97.70,253.62 97.69,253.80 97.67,253.97 97.66,254.14 97.64,254.31 97.62,254.47 97.62,254.63 97.61,254.79 97.61,254.94 97.61,255.09 97.62,255.24 97.62,255.39 97.63,255.54 97.63,255.68 97.63,255.83 97.63,255.98 97.63,256.13 97.63,256.29 97.62,256.45 97.61,256.62 97.61,256.80 97.61,256.98 97.61,257.17 97.62,257.36 97.64,257.56 97.66,257.75 97.68,257.95 97.70,258.16 97.72,258.35 97.74,258.54 97.75,258.73 97.76,258.92 97.76,259.10 97.77,259.29 97.78,259.47 97.79,259.66 97.81,259.85 97.82,260.03 97.83,260.21 97.84,260.39 97.85,260.57 97.86,260.75 97.87,260.92 97.88,261.10 97.89,261.27 97.89,261.44 97.89,261.60 97.88,261.77 97.88,261.95 97.88,262.13 97.88,262.31 97.88,262.49 97.88,262.67 97.88,262.86 97.87,263.04 97.87,263.23 97.87,263.40 97.87,263.57 97.87,263.75 97.88,263.93 97.89,264.10 97.90,264.28 97.91,264.46 97.92,264.64 97.93,264.82 97.94,264.99 97.95,265.16 97.97,265.34 97.98,265.52 98.00,265.70 98.01,265.88 98.02,266.05 98.03,266.22 98.03,266.39 98.04,266.56 98.05,266.73 98.06,266.90 98.06,267.07 98.07,267.24 98.08,267.42 98.09,267.60 98.11,267.79 98.12,267.99 98.14,268.18 98.15,268.38 98.17,268.58 98.18,268.78 98.19,268.97 98.20,269.16 98.21,269.34 98.21,269.53 98.21,269.71 98.21,269.90 98.20,270.09 98.19,270.27 98.18,270.46 98.18,270.64 98.19,270.82 98.19,270.99 98.19,271.17 98.20,271.34 98.20,271.52 98.21,271.70 98.22,271.88 98.23,272.06 98.24,272.24 98.23,272.42 98.22,272.60 98.19,272.78 98.17,272.95 98.15,273.13 98.12,273.31 98.10,273.48 98.08,273.66 98.08,273.83 98.07,274.01 98.06,274.18 98.06,274.36 98.06,274.53 98.05,274.69 98.05,274.86 98.05,275.02 98.06,275.18 98.06,275.35 98.07,275.53 98.08,275.70 98.12,275.88 98.15,276.06 98.23,276.22 98.30,276.38 98.42,276.51 98.54,276.65 98.70,276.76 98.86,276.87 99.05,276.95 99.24,277.03 99.44,277.07 99.64,277.11 99.86,277.12 100.07,277.12 100.28,277.10 100.50,277.08 100.71,277.06 100.92,277.03 101.13,277.02 101.34,277.00 101.55,277.00 101.76,277.00 101.97,277.01 102.19,277.01 102.40,277.01 102.61,277.01 102.82,277.01 103.03,277.00 103.23,277.00 103.44,276.99 103.64,276.99 103.85,276.99 104.06,277.00 104.27,277.00 104.48,277.00 104.69,277.01 104.90,277.01 105.10,277.02 105.31,277.02 105.51,277.03 105.71,277.02 105.90,277.01 106.10,276.99 106.29,276.98 106.49,276.97 106.68,276.96 106.88,276.96 107.08,276.95 107.28,276.95 107.48,276.95 107.69,276.96 107.89,276.98 108.09,276.99 108.29,277.00 108.49,277.00 108.69,277.01 108.89,277.02 109.09,277.03 109.29,277.03 109.49,277.03 109.70,277.03 109.90,277.03 110.11,277.02 110.31,277.02 110.52,277.02 110.72,277.01 110.93,277.01 111.14,277.01 111.35,277.00 111.57,276.99 111.78,276.99 112.00,276.99 112.22,276.98 112.44,276.98 112.65,276.97 112.86,276.96 113.06,276.95 113.27,276.95 113.48,276.93 113.69,276.92 113.91,276.90 114.12,276.89 114.33,276.88 114.53,276.87 114.74,276.85 114.94,276.83 115.14,276.81 115.34,276.79 115.54,276.78 115.74,276.76 115.95,276.75 116.15,276.74 116.35,276.76 116.55,276.77 116.74,276.80 116.93,276.83 117.14,276.85 117.35,276.86 117.56,276.86 117.78,276.85 118.00,276.84 118.22,276.83 118.44,276.83 118.67,276.83 118.88,276.85 119.09,276.86 119.31,276.88 119.52,276.89 119.73,276.89 119.94,276.89 120.14,276.89 120.34,276.88 120.54,276.88 120.73,276.87 120.93,276.87 121.13,276.87 121.34,276.88 121.54,276.89 121.74,276.90 121.93,276.91 122.13,276.90 122.34,276.90 122.54,276.89 122.75,276.89 122.96,276.88 123.16,276.87 123.37,276.87 123.58,276.86 123.78,276.86 123.98,276.86 124.19,276.86 124.40,276.86 124.61,276.85 124.82,276.83 125.03,276.82 125.24,276.80 125.44,276.78 125.64,276.76 125.84,276.75 126.04,276.74 126.23,276.71 126.42,276.68 126.62,276.65 126.81,276.62 127.02,276.59 127.22,276.56 127.43,276.53 127.64,276.50 127.86,276.46 128.08,276.43 128.29,276.41 128.51,276.39 128.72,276.38 128.93,276.37 129.13,276.38 129.33,276.38 129.53,276.40 129.72,276.42 129.92,276.43 130.11,276.45 130.31,276.46 130.50,276.47 130.71,276.48 130.91,276.49 131.12,276.50 131.32,276.51 131.52,276.52 131.72,276.53 131.93,276.54 132.13,276.55 132.33,276.57 132.53,276.58 132.72,276.59 132.92,276.60 133.11,276.60 133.31,276.60 133.50,276.59 133.69,276.57 133.89,276.55 134.09,276.54 134.29,276.53 134.49,276.52 134.69,276.52 134.90,276.52 135.10,276.52 135.31,276.53 135.52,276.53 135.72,276.53 135.94,276.52 136.15,276.51 136.35,276.50 136.56,276.49 136.76,276.49 136.97,276.48 137.16,276.48 137.36,276.48 137.55,276.48 137.75,276.49 137.94,276.50 138.14,276.51 138.34,276.51 138.53,276.52 138.73,276.51 138.93,276.50 139.12,276.48 139.32,276.46 139.52,276.44 139.73,276.42 139.94,276.40 140.15,276.38 140.37,276.36 140.59,276.35 140.81,276.34 141.03,276.33 141.25,276.34 141.46,276.34 141.68,276.36 141.90,276.38 142.11,276.39 142.32,276.41 142.52,276.42 142.73,276.44 142.93,276.45 143.13,276.46 143.32,276.46 143.52,276.46 143.71,276.46 143.91,276.45 144.10,276.44 144.30,276.44 144.50,276.43 144.70,276.43 144.91,276.42 145.11,276.42 145.32,276.41 145.52,276.40 145.73,276.39 145.94,276.39 146.15,276.38 146.35,276.38 146.56,276.39 146.77,276.39 146.98,276.40 147.19,276.40 147.39,276.40 147.59,276.40 147.79,276.40 147.99,276.40 148.19,276.39 148.39,276.39 148.59,276.39 148.79,276.38 148.98,276.38 149.16,276.37 149.35,276.37 149.53,276.36 149.70,276.36 149.88,276.37 150.05,276.37 150.23,276.38 150.41,276.38 150.59,276.38 150.78,276.39 150.98,276.39 151.17,276.39 151.37,276.38 151.58,276.38 151.78,276.37 151.99,276.37 152.20,276.37 152.40,276.37 152.60,276.36 152.80,276.36 153.00,276.36 153.20,276.36 153.41,276.36 153.62,276.36 153.82,276.35 154.03,276.36 154.24,276.37 154.44,276.38 154.65,276.39 154.86,276.39 155.06,276.39 155.27,276.38 155.47,276.37 155.67,276.35 155.87,276.33 156.07,276.32 156.27,276.31 156.46,276.30 156.66,276.30 156.85,276.29 157.04,276.29 157.23,276.29 157.41,276.29 157.60,276.29 157.78,276.29 157.98,276.29 158.17,276.29 158.37,276.29 158.57,276.30 158.77,276.30 158.98,276.30 159.19,276.30 159.40,276.30 159.61,276.30 159.82,276.29 160.03,276.28 160.24,276.28 160.44,276.27 160.64,276.27 160.84,276.28 161.03,276.29 161.23,276.30 161.42,276.31 161.62,276.32 161.82,276.33 162.02,276.34 162.22,276.34 162.42,276.33 162.63,276.32 162.84,276.30 163.06,276.27 163.28,276.24 163.50,276.21 163.71,276.19 163.92,276.17 164.14,276.16 164.36,276.16 164.58,276.17 164.80,276.18 165.00,276.20 165.21,276.21 165.42,276.22 165.62,276.22 165.82,276.23 166.02,276.23 166.23,276.23 166.43,276.23 166.63,276.24 166.83,276.24 167.03,276.24 167.24,276.24 167.44,276.23 167.63,276.23 167.84,276.22 168.04,276.22 168.25,276.21 168.45,276.21 168.66,276.20 168.87,276.18 169.08,276.17 169.29,276.16 169.50,276.16 169.70,276.15 169.90,276.15 170.09,276.15 170.28,276.15 170.48,276.15 170.67,276.15 170.86,276.14 171.05,276.14 171.25,276.14 171.45,276.15 171.65,276.16 171.85,276.16 172.05,276.17 172.25,276.18 172.45,276.18 172.65,276.18 172.85,276.17 173.05,276.15 173.25,276.13 173.45,276.11 173.65,276.09 173.85,276.08 174.05,276.06 174.25,276.06 174.45,276.05 174.65,276.06 174.85,276.06 175.04,276.05 175.24,276.05 175.44,276.04 175.64,276.03 175.84,276.00 176.04,275.98 176.25,275.96 176.45,275.93 176.66,275.91 176.88,275.89 177.09,275.87 177.31,275.86 177.53,275.86 177.75,275.85 177.96,275.85 178.17,275.85 178.38,275.86 178.58,275.87 178.78,275.90 178.98,275.92 179.18,275.96 179.37,276.01 179.57,276.06 179.76,276.11 179.96,276.16 180.17,276.21 180.37,276.24 180.58,276.26 180.78,276.26 180.99,276.25 181.18,276.22 181.37,276.18 181.55,276.11 181.73,276.04 181.89,275.94 182.04,275.83 182.17,275.70 182.30,275.57 182.39,275.42 182.49,275.27 182.55,275.10 182.61,274.93 182.63,274.76 182.66,274.58 182.67,274.40 182.67,274.21 182.67,274.03 182.66,273.84 182.64,273.66 182.62,273.47 182.60,273.28 182.58,273.09 182.56,272.90 182.54,272.71 182.51,272.51 182.48,272.32 182.45,272.13 182.42,271.94 182.40,271.76 182.37,271.58 182.35,271.39 182.32,271.21 182.30,271.04 182.27,270.86 182.24,270.69 182.21,270.51 182.18,270.34 182.15,270.17 182.12,270.00 182.09,269.83 182.05,269.65 182.01,269.48 181.97,269.30 181.92,269.13 181.88,268.95 181.84,268.77 181.80,268.59 181.77,268.41 181.76,268.23 181.76,268.05 181.77,267.87 181.79,267.69 181.81,267.51 181.82,267.33 181.83,267.15 181.84,266.97 181.84,266.78 181.84,266.59 181.84,266.40 181.85,266.21 181.85,266.02 181.86,265.83 181.89,265.65 181.91,265.46 181.95,265.28 181.99,265.10 182.03,264.91 182.08,264.73 182.14,264.54 182.19,264.35 182.25,264.17 182.32,263.98 182.39,263.80 182.47,263.62 182.56,263.45 182.64,263.28 182.74,263.13 182.84,262.97 182.94,262.82 183.04,262.67 183.15,262.53 183.26,262.38 183.38,262.24 183.50,262.10 183.64,261.97 183.78,261.84 183.93,261.72 184.08,261.60 184.24,261.50 184.40,261.39 184.56,261.29 184.73,261.18 184.90,261.08 185.07,260.98 185.24,260.88 185.42,260.78 185.59,260.67 185.77,260.57 185.95,260.48 186.13,260.38 186.31,260.28 186.49,260.19 186.67,260.10 186.86,260.01 187.05,259.94 187.24,259.87 187.44,259.81 187.63,259.76 187.83,259.71 188.03,259.66 188.22,259.61 188.41,259.57 188.61,259.53 188.81,259.49 189.01,259.44 189.21,259.40 189.41,259.37 189.61,259.33 189.81,259.30 190.00,259.26 190.20,259.23 190.39,259.20 190.58,259.17 190.78,259.14 190.98,259.10 191.18,259.07 191.39,259.04 191.60,259.01 191.80,258.98 192.01,258.95 192.21,258.92 192.41,258.89 192.60,258.87 192.80,258.84 193.00,258.82 193.19,258.80 193.39,258.78 193.59,258.76 193.79,258.75 193.99,258.74 194.19,258.73 194.39,258.72 194.59,258.72 194.79,258.71 195.01,258.71 195.22,258.71 195.43,258.72 195.64,258.72 195.84,258.73 196.05,258.75 196.25,258.77 196.44,258.80 196.64,258.83 196.83,258.86 197.03,258.89 197.22,258.93 197.42,258.97 197.61,259.00 197.80,259.04 198.00,259.08 198.20,259.12 198.39,259.16 198.59,259.20 198.79,259.25 199.00,259.30 199.20,259.35 199.40,259.40 199.61,259.44 199.80,259.50 200.00,259.55 200.19,259.60 200.39,259.65 200.59,259.71 200.79,259.77 200.99,259.83 201.19,259.90 201.39,259.96 201.59,260.03 201.79,260.10 201.98,260.16 202.17,260.23 202.36,260.30 202.55,260.38 202.73,260.45 202.91,260.53 203.08,260.62 203.26,260.70 203.43,260.79 203.60,260.88 203.77,260.98 203.94,261.07 204.10,261.16 204.27,261.25 204.43,261.35 204.60,261.46 204.76,261.57 204.92,261.68 205.08,261.79 205.24,261.90 205.41,262.01 205.56,262.13 205.72,262.25 205.87,262.39 206.02,262.52 206.16,262.66 206.31,262.80 206.44,262.95 206.57,263.09 206.69,263.24 206.81,263.38 206.93,263.52 207.05,263.67 207.16,263.81 207.28,263.96 207.39,264.11 207.50,264.27 207.61,264.42 207.73,264.58 207.84,264.75 207.95,264.91 208.06,265.08 208.17,265.25 208.27,265.41 208.38,265.57 208.48,265.74 208.58,265.90 208.67,266.06 208.75,266.23 208.83,266.40 208.91,266.57 208.97,266.75 209.04,266.93 209.10,267.12 209.17,267.31 209.23,267.51 209.29,267.71 209.35,267.90 209.41,268.10 209.46,268.30 209.51,268.50 209.53,268.70 209.56,268.89 209.56,269.09 209.56,269.29 209.55,269.50 209.54,269.70 209.53,269.89 209.53,270.08 209.52,270.27 209.51,270.45 209.51,270.63 209.50,270.80 209.50,270.98 209.50,271.15 209.49,271.33 209.49,271.51 209.47,271.68 209.45,271.86 209.42,272.03 209.39,272.20 209.36,272.37 209.32,272.54 209.27,272.70 209.22,272.85 209.17,273.02 209.13,273.19 209.09,273.36 209.06,273.54 209.02,273.72 208.99,273.90 208.96,274.08 208.93,274.25 208.89,274.43 208.86,274.60 208.82,274.76 208.78,274.92 208.75,275.08 208.71,275.24 208.68,275.41 208.65,275.58 208.62,275.75 208.59,275.93 208.57,276.10 208.54,276.28 208.53,276.46 208.51,276.64 208.50,276.82 208.49,276.99 208.47,277.18 208.46,277.36 208.45,277.54 208.44,277.72 208.43,277.90 208.43,278.08 208.42,278.27 208.42,278.45 208.41,278.63 208.41,278.81 208.42,279.00 208.42,279.18 208.42,279.36 208.43,279.54 208.43,279.71 208.43,279.89 208.43,280.06 208.43,280.23 208.44,280.39 208.45,280.56 208.47,280.72 208.50,280.89 208.52,281.06 208.54,281.23 208.57,281.41 208.61,281.59 208.65,281.78 208.69,281.96 208.74,282.14 208.79,282.33 208.83,282.51 208.87,282.70 208.92,282.88 208.96,283.07 208.98,283.26 209.01,283.45 209.02,283.64 209.03,283.83 209.02,284.02 209.01,284.21 208.99,284.40 208.98,284.58 208.95,284.76 208.93,284.93 208.90,285.10 208.87,285.27 208.82,285.43 208.78,285.59 208.72,285.77 208.67,285.94 208.60,286.11 208.53,286.28 208.44,286.45 208.36,286.61 208.27,286.75 208.18,286.90 208.10,287.02 208.02,287.14 207.96,287.26 207.90,287.38 207.85,287.50 207.79,287.63 207.71,287.76 207.63,287.89 207.50,287.99 207.37,288.09 207.20,288.17 207.03,288.25 206.84,288.33 206.66,288.40 206.46,288.47 206.27,288.54 206.08,288.61 205.88,288.69 205.69,288.76 205.50,288.83 205.32,288.91 205.14,288.98 204.96,289.06 204.78,289.14 204.61,289.21 204.44,289.28 204.27,289.36 204.09,289.43 203.91,289.50 203.73,289.58 203.55,289.66 203.37,289.74 203.19,289.82 203.01,289.89 202.84,289.97 202.66,290.05 202.48,290.13 202.29,290.21 202.12,290.28 201.94,290.36 201.76,290.42 201.59,290.49 201.41,290.56 201.24,290.62 201.07,290.69 200.90,290.76 200.73,290.84 200.56,290.91 200.39,290.98 200.21,291.06 200.02,291.14 199.84,291.22 199.66,291.30 199.47,291.37 199.29,291.44 199.11,291.51 198.93,291.57 198.76,291.64 198.58,291.71 198.40,291.77 198.22,291.85 198.04,291.92 197.86,291.99 197.68,292.07 197.50,292.15 197.32,292.23 197.14,292.31 196.96,292.39 196.78,292.47 196.60,292.55 196.42,292.63 196.24,292.71 196.06,292.78 195.88,292.85 195.70,292.92 195.52,292.99 195.34,293.06 195.17,293.13 195.00,293.20 194.82,293.28 194.65,293.35 194.48,293.43 194.31,293.50 194.14,293.57 193.97,293.64 193.79,293.71 193.61,293.78 193.43,293.86 193.25,293.93 193.07,294.00 192.90,294.08 192.72,294.15 192.55,294.23 192.37,294.31 192.20,294.38 192.02,294.46 191.84,294.53 191.66,294.61 191.49,294.69 191.31,294.76 191.13,294.84 190.96,294.92 190.79,294.99 190.61,295.07 190.44,295.15 190.26,295.22 190.08,295.29 189.89,295.37 189.72,295.44 189.54,295.52 189.35,295.59 189.17,295.66 188.99,295.73 188.81,295.80 188.63,295.87 188.45,295.93 188.28,296.01 188.11,296.08 187.94,296.15 187.78,296.23 187.61,296.31 187.44,296.38 187.28,296.45 187.11,296.52 186.94,296.58 186.77,296.64 186.60,296.71 186.42,296.77 186.24,296.83 186.06,296.89 185.86,296.96 185.66,297.03 185.44,297.10 185.23,297.18 185.01,297.23 184.79,297.27 184.61,297.25 184.42,297.23 184.26,297.14 184.11,297.04 183.99,296.89 183.87,296.74 183.77,296.56 183.67,296.39 183.58,296.21 183.49,296.03 183.39,295.86 183.30,295.69 183.21,295.51 183.12,295.34 183.03,295.18 182.94,295.01 182.84,294.84 182.75,294.67 182.66,294.51 182.57,294.34 182.50,294.17 182.42,294.00 182.35,293.83 182.28,293.66 182.22,293.48 182.16,293.31 182.10,293.14 182.05,292.97 182.00,292.80 181.94,292.63 181.88,292.46 181.82,292.29 181.76,292.13 181.69,291.96 181.63,291.79 181.57,291.61 181.53,291.43 181.48,291.25 181.46,291.07 181.43,290.88 181.43,290.70 181.42,290.51 181.42,290.32 181.42,290.13 181.42,289.94 181.42,289.76 181.43,289.57 181.44,289.39 181.45,289.22 181.47,289.04 181.50,288.87 181.52,288.70 181.56,288.54 181.59,288.37 181.62,288.20 181.65,288.04 181.69,287.87 181.72,287.70 181.76,287.52 181.79,287.35 181.82,287.17 181.86,286.99 181.89,286.82 181.92,286.65 181.95,286.48 181.98,286.31 182.01,286.14 182.03,285.97 182.06,285.79 182.08,285.61 182.11,285.42 182.14,285.24 182.17,285.05 182.20,284.87 182.24,284.69 182.28,284.50 182.32,284.32 182.36,284.14 182.39,283.96 182.43,283.78 182.45,283.60 182.47,283.42 182.48,283.25 182.49,283.07 182.49,282.90 182.49,282.72 182.48,282.56 182.47,282.39 182.47,282.22 182.46,282.06 182.47,281.89 182.47,281.72 182.47,281.54 182.47,281.37 182.48,281.19 182.48,281.01 182.48,280.83 182.47,280.64 182.47,280.46 182.47,280.28 182.47,280.11 182.47,279.93 182.45,279.76 182.43,279.59 182.38,279.44 182.32,279.28 182.22,279.14 182.11,278.99 181.97,278.88 181.82,278.76 181.64,278.69 181.46,278.61 181.24,278.58 181.03,278.56 180.81,278.57 180.58,278.58 180.36,278.62 180.14,278.66 179.92,278.70 179.70,278.74 179.49,278.76 179.27,278.79 179.06,278.80 178.84,278.82 178.63,278.82 178.41,278.83 178.21,278.83 178.00,278.84 177.79,278.85 177.58,278.86 177.37,278.87 177.16,278.89 176.96,278.90 176.75,278.92 176.54,278.94 176.33,278.95 176.12,278.97 175.90,278.98 175.69,278.99 175.48,279.00 175.27,279.01 175.05,279.01 174.84,279.01 174.63,279.01 174.42,279.02 174.21,279.02 173.99,279.02 173.78,279.02 173.57,279.03 173.36,279.04 173.15,279.05 172.95,279.06 172.74,279.08 172.53,279.09 172.32,279.10 172.12,279.12 171.91,279.12 171.71,279.13 171.50,279.13 171.30,279.13 171.09,279.12 170.89,279.12 170.68,279.11 170.47,279.11 170.27,279.11 170.07,279.10 169.87,279.10 169.67,279.10 169.46,279.11 169.26,279.11 169.04,279.12 168.83,279.13 168.63,279.12 168.42,279.11 168.22,279.11 168.02,279.10 167.82,279.10 167.62,279.09 167.41,279.09 167.21,279.09 167.01,279.09 166.81,279.09 166.61,279.08 166.41,279.07 166.20,279.07 166.00,279.06 165.80,279.07 165.60,279.07 165.40,279.08 165.20,279.09 164.99,279.11 164.78,279.13 164.57,279.15 164.35,279.16 164.14,279.17 163.93,279.18 163.73,279.19 163.52,279.20 163.32,279.20 163.12,279.20 162.92,279.19 162.73,279.18 162.53,279.17 162.33,279.16 162.14,279.15 161.94,279.14 161.75,279.14 161.56,279.13 161.37,279.13 161.18,279.12 160.98,279.12 160.78,279.12 160.58,279.12 160.39,279.12 160.18,279.12 159.98,279.12 159.78,279.13 159.57,279.14 159.35,279.16 159.13,279.18 158.91,279.21 158.68,279.23 158.47,279.25 158.26,279.26 158.06,279.26 157.86,279.27 157.65,279.27 157.44,279.27 157.23,279.27 157.01,279.28 156.81,279.28 156.60,279.27 156.41,279.27 156.21,279.26 156.02,279.25 155.82,279.24 155.63,279.23 155.43,279.22 155.22,279.22 155.02,279.22 154.81,279.22 154.60,279.23 154.39,279.24 154.18,279.25 153.98,279.26 153.77,279.27 153.56,279.28 153.36,279.29 153.15,279.29 152.94,279.30 152.73,279.29 152.52,279.29 152.31,279.28 152.11,279.27 151.91,279.27 151.70,279.27 151.50,279.27 151.30,279.27 151.09,279.27 150.89,279.27 150.69,279.26 150.49,279.25 150.29,279.23 150.09,279.22 149.90,279.22 149.71,279.22 149.53,279.22 149.35,279.23 149.16,279.23 148.97,279.23 148.77,279.22 148.57,279.22 148.36,279.21 148.15,279.20 147.94,279.20 147.73,279.19 147.52,279.20 147.30,279.20 147.09,279.21 146.88,279.22 146.68,279.22 146.47,279.23 146.26,279.24 146.05,279.24 145.85,279.25 145.65,279.26 145.45,279.27 145.26,279.28 145.05,279.29 144.85,279.31 144.64,279.32 144.43,279.33 144.22,279.34 144.01,279.35 143.79,279.35 143.57,279.36 143.36,279.36 143.14,279.37 142.94,279.37 142.73,279.37 142.53,279.37 142.33,279.38 142.14,279.38 141.94,279.38 141.75,279.38 141.55,279.38 141.36,279.38 141.17,279.38 140.96,279.38 140.76,279.39 140.55,279.40 140.34,279.40 140.13,279.41 139.92,279.42 139.71,279.43 139.50,279.43 139.30,279.44 139.10,279.44 138.90,279.45 138.70,279.45 138.51,279.46 138.31,279.46 138.12,279.47 137.92,279.47 137.72,279.48 137.52,279.49 137.32,279.50 137.12,279.52 136.91,279.53 136.71,279.55 136.51,279.55 136.30,279.55 136.10,279.55 135.90,279.55 135.70,279.55 135.50,279.55 135.30,279.56 135.10,279.56 134.90,279.56 134.70,279.56 134.51,279.56 134.31,279.55 134.11,279.56 133.92,279.56 133.72,279.57 133.53,279.58 133.33,279.59 133.14,279.60 132.93,279.60 132.73,279.61 132.53,279.61 132.32,279.61 132.12,279.61 131.91,279.61 131.71,279.61 131.50,279.60 131.29,279.60 131.07,279.60 130.86,279.60 130.64,279.59 130.43,279.59 130.22,279.58 130.01,279.58 129.80,279.58 129.59,279.59 129.38,279.60 129.17,279.61 128.96,279.62 128.75,279.62 128.53,279.63 128.32,279.63 128.11,279.64 127.90,279.65 127.69,279.66 127.50,279.66 127.30,279.67 127.09,279.68 126.89,279.68 126.68,279.68 126.48,279.68 126.27,279.69 126.06,279.69 125.85,279.69 125.64,279.69 125.44,279.69 125.24,279.69 125.05,279.69 124.85,279.69 124.66,279.68 124.46,279.67 124.27,279.66 124.07,279.64 123.88,279.64 123.69,279.63 123.49,279.63 123.30,279.62 123.10,279.62 122.91,279.62 122.72,279.62 122.53,279.62 122.35,279.61 122.17,279.61 121.99,279.59 121.82,279.58 121.63,279.56 121.45,279.54 121.25,279.53 121.06,279.52 120.85,279.52 120.65,279.53 120.43,279.54 120.22,279.55 120.00,279.56 119.79,279.57 119.57,279.59 119.36,279.60 119.14,279.60 118.93,279.61 118.72,279.61 118.50,279.61 118.29,279.61 118.08,279.60 117.87,279.60 117.67,279.60 117.46,279.60 117.25,279.61 117.04,279.62 116.84,279.62 116.64,279.63 116.44,279.64 116.24,279.65 116.04,279.66 115.83,279.66 115.63,279.67 115.42,279.68 115.22,279.69 115.02,279.69 114.82,279.69 114.61,279.70 114.41,279.70 114.20,279.71 114.00,279.71 113.79,279.72 113.59,279.72 113.39,279.73 113.19,279.74 112.99,279.76 112.78,279.78 112.58,279.80 112.38,279.82 112.17,279.83 111.97,279.85 111.77,279.85 111.57,279.86 111.37,279.86 111.17,279.86 110.97,279.86 110.77,279.86 110.57,279.86 110.37,279.87 110.18,279.86 109.98,279.86 109.79,279.85 109.60,279.84 109.40,279.84 109.21,279.83 109.03,279.84 108.84,279.84 108.67,279.86 108.49,279.87 108.32,279.90 108.15,279.91 107.99,279.92 107.83,279.93 107.68,279.91 107.53,279.90 107.38,279.89 107.23,279.88 107.06,279.87 106.89,279.87 106.71,279.87 106.52,279.87 106.33,279.86 106.13,279.86 105.94,279.86 105.75,279.85 105.56,279.85 105.38,279.85 105.19,279.84 105.00,279.84 104.82,279.84 104.63,279.83 104.46,279.84 104.28,279.84 104.12,279.84 103.96,279.85 103.80,279.85 103.64,279.86 103.47,279.86 103.31,279.87 103.14,279.87 102.98,279.87 102.81,279.88 102.65,279.88 102.50,279.88 102.34,279.89 102.19,279.89 102.04,279.90 101.89,279.89 101.73,279.88 101.56,279.88 101.39,279.87 101.20,279.85 101.01,279.84 100.82,279.83 100.63,279.81 100.43,279.81 100.23,279.80 100.03,279.79 99.83,279.78 99.64,279.77 99.45,279.75 99.26,279.74 99.08,279.72 98.91,279.71 98.74,279.69 98.58,279.66 98.41,279.62 98.24,279.57 98.06,279.51 97.88,279.44 97.69,279.37 97.51,279.29 97.33,279.20 97.15,279.10 96.98,278.99 96.81,278.88 96.65,278.76 96.50,278.62 96.35,278.49 96.22,278.35 96.09,278.21 95.97,278.07 95.85,277.92 95.74,277.76 95.63,277.61 95.53,277.44 95.43,277.27 95.35,277.10 95.27,276.93 95.21,276.75 95.15,276.58 95.12,276.40 95.09,276.23 95.08,276.06 95.07,275.89 95.07,275.72 95.07,275.55 95.07,275.38 95.08,275.20 95.09,275.03 95.10,274.85 95.11,274.67 95.11,274.50 95.11,274.32 95.12,274.14 95.11,273.96 95.11,273.78 95.11,273.60 95.11,273.42 95.10,273.25 95.10,273.07 95.10,272.89 95.09,272.71 95.09,272.53 95.09,272.35 95.09,272.17 95.08,271.99 95.09,271.81 95.09,271.63 95.09,271.45 95.09,271.27 95.08,271.09 95.08,270.91 95.08,270.74 95.07,270.56 95.06,270.39 95.06,270.21 95.05,270.03 95.04,269.85 95.02,269.67 95.01,269.49 94.99,269.31 94.97,269.13 94.96,268.93 94.95,268.74 94.94,268.56 94.94,268.37 94.93,268.19 94.93,268.01 94.93,267.84 94.92,267.66 94.91,267.48 94.90,267.31 94.88,267.13 94.86,266.95 94.84,266.77 94.82,266.59 94.80,266.41 94.77,266.23 94.75,266.06 94.73,265.89 94.72,265.72 94.70,265.55 94.69,265.38 94.67,265.21 94.65,265.04 94.64,264.86 94.62,264.68 94.60,264.50 94.59,264.33 94.58,264.15 94.58,263.97 94.57,263.79 94.57,263.62 94.56,263.44 94.55,263.27 94.54,263.09 94.53,262.92 94.52,262.74 94.51,262.56 94.49,262.38 94.49,262.21 94.48,262.03 94.47,261.87 94.47,261.70 94.46,261.53 94.46,261.36 94.45,261.18 94.44,261.00 94.44,260.82 94.44,260.63 94.44,260.44 94.44,260.25 94.44,260.06 94.44,259.88 94.44,259.70 94.43,259.51 94.44,259.34 94.44,259.16 94.44,258.98 94.45,258.81 94.45,258.62 94.45,258.44 94.44,258.26 94.43,258.07 94.42,257.89 94.41,257.71 94.41,257.53 94.40,257.34 94.40,257.16 94.39,256.97 94.40,256.79 94.40,256.60 94.40,256.42 94.41,256.23 94.41,256.04 94.40,255.85 94.40,255.67 94.39,255.48 94.38,255.30 94.37,255.12 94.36,254.94 94.34,254.76 94.33,254.59 94.32,254.41 94.31,254.23 94.30,254.05 94.29,253.86 94.28,253.68 94.27,253.49 94.26,253.31 94.26,253.13 94.25,252.94 94.25,252.76 94.24,252.58 94.24,252.40 94.23,252.22 94.23,252.04 94.23,251.86 94.24,251.68 94.25,251.50 94.26,251.31 94.26,251.13 94.26,250.95 94.26,250.76 94.25,250.59 94.25,250.41 94.24,250.24 94.24,250.06 94.23,249.89 94.22,249.72 94.21,249.54 94.20,249.36 94.20,249.17 94.20,248.99 94.20,248.80 94.20,248.61 94.20,248.43 94.20,248.25 94.19,248.07 94.19,247.88 94.18,247.70 94.18,247.52 94.17,247.33 94.16,247.14 94.15,246.96 94.14,246.77 94.13,246.58 94.12,246.40 94.11,246.21 94.10,246.03 94.08,245.84 94.06,245.66 94.04,245.47 94.02,245.28 94.00,245.09 93.99,244.90 93.99,244.71 93.99,244.52 93.99,244.33 93.99,244.13 94.00,243.94 94.00,243.74 94.00,243.55 94.00,243.35 93.98,243.15 93.97,242.96 93.95,242.77 93.94,242.59 93.92,242.41 93.91,242.23 93.91,242.06 93.91,241.88 93.93,241.69 93.94,241.50 93.95,241.31 93.96,241.12 93.96,240.94 93.96,240.75 93.95,240.57 93.95,240.38 93.94,240.20 93.93,240.03 93.93,239.85 93.92,239.67 93.92,239.49 93.92,239.31 93.92,239.12 93.92,238.94 93.91,238.77 93.91,238.59 93.90,238.41 93.89,238.23 93.89,238.05 93.88,237.87 93.88,237.69 93.88,237.51 93.88,237.31 93.87,237.12 93.87,236.93 93.87,236.74 93.87,236.55 93.87,236.36 93.86,236.18 93.85,235.99 93.83,235.81 93.81,235.62 93.80,235.44 93.78,235.25 93.77,235.06 93.76,234.87 93.76,234.69 93.75,234.50 93.74,234.31 93.72,234.13 93.70,233.94 93.69,233.75 93.67,233.56 93.64,233.38 93.62,233.20 93.59,233.01 93.58,232.84 93.58,232.67 93.58,232.50 93.59,232.33 93.60,232.16 93.61,231.98 93.61,231.81 93.62,231.63 93.62,231.44 93.62,231.25 93.63,231.06 93.63,230.87 93.64,230.69 93.65,230.51 93.65,230.34 93.66,230.17 93.66,230.00 93.66,229.82 93.66,229.64 93.66,229.47 93.65,229.28 93.64,229.09 93.63,228.90 93.62,228.71 93.61,228.51 93.60,228.32 93.58,228.13 93.57,227.94 93.55,227.75 93.53,227.57 93.51,227.39 93.50,227.21 93.49,227.03 93.49,226.85 93.50,226.67 93.50,226.49 93.51,226.31 93.52,226.12 93.53,225.94 93.54,225.76 93.54,225.59 93.55,225.41 93.55,225.23 93.55,225.05 93.54,224.86 93.54,224.67 93.53,224.49 93.51,224.30 93.50,224.12 93.49,223.94 93.48,223.75 93.47,223.57 93.46,223.38 93.45,223.19 93.43,223.01 93.42,222.82 93.40,222.64 93.37,222.45 93.35,222.27 93.33,222.09 93.32,221.92 93.30,221.74 93.29,221.57 93.27,221.40 93.27,221.22 93.27,221.04 93.27,220.86 93.27,220.67 93.27,220.48 93.28,220.29 93.28,220.11 93.28,219.94 93.28,219.76 93.28,219.58 93.28,219.40 93.28,219.21 93.27,219.03 93.27,218.84 93.26,218.65 93.25,218.46 93.24,218.27 93.23,218.09 93.23,217.90 93.22,217.72 93.21,217.54 93.20,217.36 93.20,217.17 93.19,216.99 93.19,216.81 93.19,216.62 93.19,216.43 93.19,216.24 93.19,216.05 93.18,215.87 93.17,215.68 93.17,215.49 93.17,215.30 93.16,215.12 93.16,214.93 93.16,214.74 93.17,214.56 93.17,214.38 93.17,214.19 93.18,214.01 93.18,213.83 93.19,213.65 93.18,213.47 93.17,213.29 93.16,213.11 93.14,212.94 93.13,212.76 93.12,212.59 93.11,212.41 93.10,212.23 93.10,212.06 93.09,211.88 93.08,211.71 93.07,211.53 93.07,211.36 93.06,211.19 93.04,211.02 93.03,210.85 93.02,210.68 93.02,210.51 93.01,210.33 93.01,210.15 93.01,209.97 93.01,209.79 93.01,209.61 93.00,209.43 93.00,209.25 92.99,209.07 92.99,208.90 92.98,208.72 92.98,208.55 92.98,208.38 92.98,208.20 92.98,208.03 92.99,207.85 93.00,207.67 93.00,207.49 93.01,207.30 93.01,207.11 93.02,206.93 93.02,206.75 93.02,206.56 93.01,206.38 93.01,206.20 93.01,206.01 93.01,205.83 93.01,205.64 93.01,205.45 93.00,205.25 92.98,205.05 92.94,204.86 92.91,204.66 92.85,204.47 92.79,204.28 92.72,204.10 92.65,203.92 92.58,203.75 92.52,203.58 92.46,203.40 92.40,203.23 92.35,203.05 92.29,202.87 92.24,202.69 92.19,202.51 92.15,202.33 92.11,202.14 92.08,201.97 92.05,201.79 92.02,201.61 91.99,201.43 91.96,201.25 91.93,201.06 91.89,200.87 91.85,200.68 91.80,200.50 91.75,200.32 91.72,200.13 91.69,199.94 91.67,199.75 91.66,199.56 91.65,199.37 91.64,199.18 91.63,198.99 91.62,198.80 91.61,198.61 91.60,198.43 91.59,198.24 91.59,198.06 91.58,197.88 91.57,197.70 91.57,197.52 91.56,197.33 91.56,197.15 91.56,196.97 91.56,196.79 91.56,196.61 91.56,196.43 91.57,196.25 91.58,196.07 91.59,195.89 91.60,195.71 91.61,195.53 91.62,195.36 91.62,195.18 91.62,195.00 91.62,194.82 91.61,194.64 91.60,194.45 91.58,194.27 91.56,194.08 91.53,193.90 91.51,193.71 91.48,193.52 91.46,193.33 91.45,193.14 91.43,192.95 91.42,192.77 91.42,192.59 91.42,192.41 91.42,192.23 91.42,192.05 91.42,191.88 91.42,191.70 91.41,191.52 91.40,191.33 91.39,191.15 91.38,190.96 91.38,190.77 91.36,190.56 91.35,190.36 91.33,190.14 91.32,189.93 91.31,189.72 91.29,189.50 91.29,189.31 91.28,189.11 91.27,188.92 91.27,188.73 91.26,188.54 91.25,188.36 91.25,188.18 91.25,188.00 91.25,187.82 91.25,187.64 91.26,187.47 91.27,187.29 91.28,187.11 91.28,186.94 91.29,186.77 91.30,186.60 91.30,186.43 91.31,186.27 91.32,186.09 91.33,185.92 91.33,185.74 91.33,185.56 91.33,185.37 91.32,185.18 91.31,184.98 91.29,184.78 91.27,184.58 91.25,184.38 91.24,184.19 91.23,184.01 91.23,183.82 91.22,183.64 91.22,183.47 91.22,183.29 91.22,183.11 91.22,182.94 91.22,182.76 91.21,182.59 91.20,182.41 91.19,182.24 91.18,182.06 91.17,181.89 91.16,181.72 91.15,181.54 91.15,181.36 91.14,181.18 91.14,181.00 91.14,180.82 91.14,180.64 91.13,180.46 91.13,180.28 91.12,180.10 91.11,179.92 91.10,179.74 91.08,179.57 91.07,179.39 91.05,179.21 91.04,179.03 91.04,178.85 91.04,178.66 91.05,178.48 91.06,178.31 91.07,178.13 91.08,177.96 91.09,177.79 91.10,177.61 91.11,177.43 91.12,177.25 91.13,177.06 91.13,176.88 91.14,176.70 91.15,176.51 91.16,176.32 91.17,176.13 91.16,175.94 91.16,175.74 91.15,175.54 91.14,175.34 91.13,175.14 91.11,174.94 91.11,174.76 91.10,174.57 91.09,174.38 91.07,174.19 91.06,174.01 91.04,173.82 91.02,173.64 91.01,173.46 90.99,173.28 90.98,173.09 90.98,172.92 90.97,172.74 90.97,172.56 90.97,172.39 90.98,172.22 90.98,172.05 90.99,171.88 91.00,171.72 91.01,171.56 91.01,171.39 91.01,171.22 91.00,171.04 90.98,170.86 90.95,170.67 90.92,170.49 90.89,170.30 90.85,170.11 90.81,169.92 90.78,169.74 90.74,169.56 90.71,169.39 90.68,169.21 90.67,169.03 90.65,168.86 90.65,168.68 90.64,168.51 90.64,168.35 90.63,168.18 90.63,168.02 90.63,167.86 90.64,167.70 90.65,167.55 90.66,167.38 90.67,167.21 90.68,167.03 90.68,166.85 90.68,166.66 90.68,166.48 90.69,166.28 90.69,166.09 90.71,165.90 90.72,165.71 90.73,165.53 90.74,165.35 90.76,165.18 90.77,165.00 90.77,164.83 90.78,164.66 90.78,164.50 90.78,164.33 90.78,164.17 90.78,164.00 90.77,163.84 90.77,163.68 90.76,163.51 90.75,163.34 90.75,163.16 90.74,162.98 90.74,162.80 90.73,162.61 90.73,162.43 90.72,162.24 90.71,162.06 90.70,161.88 90.69,161.70 90.68,161.52 90.67,161.34 90.66,161.16 90.65,160.98 90.64,160.80 90.60,160.60 90.55,160.40 90.53,160.21 90.50,160.01 90.50,159.82 90.50,159.62 90.51,159.42 90.52,159.22 90.52,159.02 90.53,158.82 90.53,158.63 90.53,158.44 90.52,158.25 90.52,158.07 90.52,157.90 90.51,157.72 90.50,157.55 90.48,157.37 90.47,157.20 90.46,157.03 90.45,156.86 90.44,156.69 90.44,156.52 90.44,156.35 90.45,156.17 90.45,156.00 90.46,155.83 90.47,155.66 90.48,155.48 90.49,155.31 90.50,155.12 90.52,154.94 90.52,154.75 90.52,154.57 90.52,154.38 90.52,154.20 90.52,154.02 90.53,153.84 90.55,153.66 90.58,153.48 90.65,153.31 90.72,153.14 90.85,153.00 90.98,152.86 91.15,152.74 91.32,152.62 91.52,152.51 91.71,152.40 91.91,152.29 92.10,152.18 92.28,152.07 92.46,151.96 92.64,151.85 92.81,151.73 92.98,151.62 93.15,151.50 93.30,151.39 93.46,151.27 93.62,151.16 93.77,151.04 93.93,150.93 94.10,150.82 94.27,150.73 94.44,150.63 94.62,150.53 94.80,150.44 94.98,150.36 95.17,150.28 95.35,150.22 95.54,150.16 95.74,150.13 95.93,150.09 96.13,150.08 96.32,150.07 96.51,150.09 96.70,150.11 96.88,150.13 97.07,150.15 97.26,150.17 97.45,150.19 97.63,150.22 97.82,150.24 98.00,150.26 98.18,150.28 98.35,150.31 98.52,150.35 98.69,150.39 98.86,150.43 99.03,150.48 99.19,150.52 99.35,150.57 99.51,150.61 99.67,150.66 99.82,150.71 99.98,150.77 100.13,150.84 100.28,150.90 100.43,150.97 100.59,151.04 100.75,151.11 100.92,151.18 101.09,151.24 101.24,151.30 101.38,151.36 101.49,151.41 101.60,151.45 101.70,151.50 101.79,151.54 101.90,151.60 102.01,151.66 102.16,151.75 102.31,151.84 102.47,151.93 102.64,152.03 102.82,152.12 103.00,152.21 103.17,152.30 103.34,152.40 103.51,152.49 103.68,152.58 103.86,152.67 104.03,152.76 104.21,152.85 104.39,152.93 104.58,152.99 104.77,153.06 104.96,153.11 105.15,153.16 105.35,153.21 105.54,153.25 105.74,153.29 105.93,153.32 106.12,153.36 106.31,153.39 106.51,153.41 106.70,153.43 106.89,153.44 107.08,153.44 107.27,153.44 107.46,153.43 107.65,153.42 107.84,153.41 108.02,153.39 108.21,153.37 108.38,153.35 108.56,153.32 108.72,153.28 108.89,153.24 109.06,153.19 109.23,153.13 109.40,153.06 109.58,152.98 109.76,152.90 109.94,152.82 110.13,152.73 110.32,152.64 110.51,152.54 110.71,152.45 110.90,152.35 111.09,152.25 111.24,152.15 111.40,152.05 111.49,151.93 111.59,151.80 111.60,151.63 111.61,151.46 111.54,151.28 111.47,151.10 111.36,150.92 111.25,150.74 111.13,150.57 111.01,150.39 110.90,150.22 110.80,150.04 110.71,149.86 110.62,149.69 110.55,149.51 110.48,149.33 110.42,149.15 110.37,148.96 110.35,148.78 110.32,148.60 110.31,148.43 110.30,148.25 110.30,148.09 110.30,147.94 110.30,147.79 110.29,147.65 110.28,147.51 110.27,147.37 110.26,147.21 110.26,147.06 110.27,146.90 110.29,146.73 110.32,146.56 110.34,146.38 110.37,146.19 110.40,146.00 110.43,145.81 110.47,145.62 110.50,145.42 110.54,145.22 110.58,145.02 110.61,144.82 110.64,144.63 110.67,144.43 110.70,144.23 110.72,144.03 110.76,143.85 110.79,143.66 110.82,143.49 110.85,143.32 110.89,143.14 110.92,142.97 110.96,142.78 111.00,142.60 111.04,142.41 111.08,142.22 111.12,142.04 111.15,141.85 111.18,141.67 111.21,141.48 111.25,141.29 111.28,141.10 111.33,140.91 111.37,140.72 111.43,140.55 111.48,140.37 111.53,140.21 111.59,140.05 111.63,139.88 111.67,139.72 111.70,139.55 111.74,139.37 111.76,139.19 111.79,139.02 111.82,138.84 111.85,138.66 111.89,138.47 111.92,138.29 111.96,138.11 112.00,137.93 112.03,137.76 112.07,137.58 112.09,137.40 112.12,137.23 112.13,137.05 112.15,136.87 112.14,136.70 112.14,136.52 112.14,136.35 112.13,136.18 112.11,136.01 112.09,135.84 112.06,135.66 112.03,135.48 111.99,135.30 111.96,135.12 111.92,134.94 111.88,134.76 111.85,134.58 111.82,134.40 111.79,134.22 111.77,134.04 111.75,133.86 111.74,133.68 111.72,133.50 111.71,133.32 111.70,133.14 111.69,132.97 111.68,132.79 111.67,132.62 111.66,132.44 111.65,132.27 111.65,132.09 111.64,131.92 111.64,131.73 111.63,131.54 111.63,131.36 111.63,131.17 111.63,130.99 111.63,130.81 111.63,130.63 111.63,130.45 111.64,130.27 111.64,130.09 111.65,129.91 111.66,129.73 111.66,129.56 111.66,129.38 111.66,129.21 111.67,129.04 111.66,128.91 111.66,128.78 111.67,128.65 111.68,128.52 111.69,128.35 111.69,128.19 111.69,127.99 111.68,127.80 111.68,127.59 111.67,127.39 111.68,127.20 111.68,127.01 111.69,126.82 111.70,126.64 111.70,126.45 111.70,126.27 111.70,126.09 111.69,125.91 111.68,125.73 111.67,125.55 111.65,125.37 111.64,125.19 111.62,125.00 111.61,124.81 111.60,124.63 111.59,124.45 111.58,124.28 111.58,124.11 111.58,123.94 111.59,123.78 111.60,123.61 111.61,123.44 111.61,123.27 111.62,123.10 111.62,122.93 111.63,122.75 111.64,122.58 111.65,122.40 111.66,122.23 111.68,122.05 111.71,121.87 111.73,121.69 111.76,121.51 111.78,121.33 111.80,121.15 111.83,120.97 111.86,120.79 111.89,120.61 111.93,120.43 111.97,120.24 112.04,120.07 112.10,119.89 112.17,119.72 112.25,119.55 112.33,119.38 112.40,119.21 112.49,119.04 112.57,118.87 112.66,118.72 112.76,118.56 112.89,118.42 113.02,118.28 113.18,118.18 113.35,118.07 113.55,118.01 113.76,117.94 113.97,117.91 114.19,117.89 114.41,117.87 114.63,117.86 114.85,117.85 115.06,117.84 115.28,117.83 115.49,117.81 115.70,117.80 115.91,117.78 116.12,117.78 116.32,117.79 116.52,117.79 116.71,117.80 116.91,117.81 117.11,117.81 117.31,117.82 117.51,117.83 117.71,117.83 117.90,117.84 118.11,117.85 118.31,117.86 118.51,117.86 118.70,117.87 118.90,117.88 119.09,117.89 119.29,117.89 119.48,117.90 119.67,117.90 119.87,117.90 120.06,117.90 120.26,117.90 120.45,117.90 120.65,117.89 120.85,117.88 121.05,117.87 121.25,117.86 121.45,117.85 121.65,117.86 121.84,117.86 122.03,117.87 122.23,117.87 122.43,117.87 122.62,117.88 122.82,117.88 123.03,117.89 123.23,117.89 123.44,117.89 123.64,117.89 123.85,117.89 124.05,117.89 124.26,117.90 124.46,117.90 124.66,117.91 124.86,117.91 125.06,117.91 125.26,117.91 125.46,117.90 125.66,117.89 125.86,117.89 126.06,117.88 126.26,117.87 126.46,117.87 126.65,117.86 126.85,117.86 127.05,117.86 127.25,117.85 127.46,117.84 127.66,117.85 127.86,117.85 128.06,117.86 128.26,117.86 128.45,117.86 128.65,117.87 128.84,117.86 129.04,117.85 129.23,117.83 129.43,117.80 129.63,117.78 129.83,117.76 130.03,117.75 130.23,117.74 130.43,117.74 130.63,117.74 130.83,117.75 131.03,117.75 131.23,117.76 131.43,117.76 131.64,117.77 131.84,117.78 132.05,117.79 132.26,117.80 132.47,117.81 132.68,117.82 132.90,117.83 133.12,117.83 133.34,117.82 133.56,117.82 133.77,117.81 133.99,117.80 134.19,117.80 134.39,117.80 134.60,117.80 134.80,117.80 135.00,117.79 135.20,117.79 135.40,117.78 135.60,117.78 135.80,117.77 136.00,117.76 136.20,117.76 136.40,117.75 136.60,117.75 136.80,117.74 137.00,117.73 137.20,117.73 137.40,117.71 137.60,117.70 137.81,117.68 138.01,117.67 138.22,117.65 138.42,117.63 138.63,117.63 138.83,117.62 139.03,117.62 139.22,117.63 139.42,117.64 139.61,117.66 139.80,117.67 139.99,117.68 140.19,117.68 140.38,117.68 140.58,117.67 140.78,117.66 140.98,117.65 141.18,117.64 141.38,117.63 141.58,117.63 141.79,117.62 142.00,117.62 142.21,117.61 142.42,117.61 142.62,117.61 142.83,117.61 143.03,117.60 143.23,117.60 143.43,117.59 143.63,117.58 143.83,117.58 144.03,117.57 144.22,117.56 144.42,117.55 144.62,117.54 144.81,117.54 145.01,117.54 145.21,117.53 145.41,117.54 145.61,117.54 145.82,117.54 146.02,117.54 146.23,117.54 146.44,117.54 146.64,117.54 146.85,117.54 147.05,117.54 147.26,117.54 147.46,117.54 147.67,117.53 147.87,117.54 148.07,117.54 148.27,117.55 148.47,117.55 148.68,117.55 148.88,117.54 149.08,117.53 149.29,117.53 149.49,117.52 149.69,117.52 149.89,117.52 150.09,117.52 150.28,117.53 150.48,117.54 150.68,117.54 150.87,117.54 151.07,117.54 151.26,117.54 151.46,117.54 151.66,117.54 151.86,117.54 152.06,117.54 152.26,117.54 152.46,117.54 152.66,117.54 152.86,117.54 153.05,117.54 153.25,117.54 153.44,117.53 153.64,117.52 153.83,117.51 154.03,117.50 154.23,117.49 154.42,117.48 154.62,117.48 154.81,117.47 155.01,117.46 155.20,117.46 155.40,117.45 155.60,117.45 155.81,117.45 156.02,117.45 156.23,117.45 156.44,117.46 156.65,117.46 156.86,117.46 157.07,117.46 157.28,117.46 157.49,117.46 157.70,117.46 157.90,117.46 158.10,117.46 158.30,117.47 158.50,117.48 158.70,117.48 158.91,117.49 159.12,117.49 159.32,117.49 159.53,117.48 159.73,117.47 159.94,117.47 160.15,117.46 160.35,117.45 160.56,117.44 160.76,117.43 160.97,117.43 161.18,117.42 161.38,117.41 161.58,117.41 161.78,117.40 161.97,117.39 162.17,117.38 162.36,117.37 162.56,117.36 162.75,117.35 162.95,117.34 163.15,117.32 163.35,117.30 163.55,117.29 163.75,117.28 163.96,117.27 164.16,117.26 164.35,117.25 164.55,117.25 164.75,117.25 164.95,117.25 165.15,117.24 165.35,117.24 165.55,117.24 165.75,117.23 165.95,117.23 166.16,117.22 166.36,117.21 166.57,117.20 166.77,117.20 166.98,117.20 167.18,117.20 167.38,117.20 167.58,117.20 167.78,117.21 167.99,117.21 168.19,117.21 168.40,117.21 168.60,117.21 168.81,117.21 169.01,117.21 169.22,117.21 169.42,117.21 169.62,117.22 169.82,117.22 170.03,117.22 170.23,117.22 170.43,117.22 170.63,117.22 170.83,117.23 171.03,117.23 171.23,117.24 171.43,117.24 171.63,117.25 171.83,117.25 172.02,117.26 172.22,117.27 172.42,117.28 172.61,117.29 172.82,117.29 173.02,117.29 173.23,117.29 173.44,117.29 173.65,117.28 173.87,117.27 174.08,117.26 174.29,117.26 174.50,117.25 174.71,117.24 174.92,117.23 175.13,117.22 175.33,117.21 175.54,117.20 175.74,117.19 175.94,117.18 176.14,117.17 176.34,117.16 176.55,117.15 176.75,117.14 176.95,117.14 177.16,117.14 177.36,117.13 177.56,117.12 177.78,117.11 177.99,117.09 178.21,117.07 178.42,117.05 178.64,117.04 178.85,117.03 179.06,117.03 179.27,117.03 179.47,117.03 179.67,117.03 179.87,117.03 180.07,117.02 180.27,117.01 180.47,117.00 180.67,116.99 180.87,116.97 181.07,116.94 181.27,116.90 181.45,116.82 181.63,116.75 181.80,116.64 181.97,116.53 182.13,116.41 182.29,116.28 182.43,116.15 182.57,116.01 182.69,115.87 182.82,115.72 182.90,115.56 182.97,115.39 183.01,115.21 183.04,115.03 183.04,114.84 183.03,114.65 183.02,114.46 183.00,114.27 182.98,114.08 182.96,113.88 182.95,113.70 182.94,113.51 182.94,113.33 182.93,113.15 182.93,112.97 182.93,112.79 182.93,112.60 182.93,112.42 182.93,112.24 182.93,112.06 182.93,111.88 182.93,111.70 182.92,111.52 182.91,111.34 182.91,111.16 182.90,110.98 182.90,110.80 182.89,110.62 182.89,110.44 182.88,110.27 182.87,110.09 182.86,109.90 182.85,109.72 182.83,109.54 182.82,109.36 182.81,109.18 182.81,109.01 182.80,108.84 182.81,108.67 182.82,108.50 182.83,108.33 182.84,108.15 182.85,107.98 182.85,107.80 182.84,107.61 182.84,107.43 182.83,107.25 182.82,107.06 182.82,106.88 182.81,106.70 182.80,106.52 182.80,106.34 182.80,106.16 182.80,105.99 182.80,105.82 182.80,105.65 182.80,105.47 182.80,105.30 182.80,105.12 182.80,104.94 182.80,104.75 182.79,104.56 182.79,104.37 182.79,104.19 182.79,104.01 182.79,103.83 182.79,103.65 182.79,103.47 182.79,103.29 182.79,103.11 182.79,102.94 182.78,102.77 182.78,102.60 182.77,102.43 182.76,102.25 182.75,102.08 182.74,101.90 182.72,101.72 182.70,101.54 182.67,101.36 182.64,101.18 182.61,101.00 182.58,100.83 182.55,100.65 182.51,100.48 182.47,100.30 182.44,100.13 182.40,99.96 182.37,99.79 182.33,99.61 182.31,99.44 182.28,99.27 182.26,99.10 182.24,98.93 182.23,98.75 182.22,98.58 182.21,98.41 182.20,98.25 182.20,98.08 182.19,97.91 182.20,97.74 182.20,97.56 182.20,97.39 182.20,97.22 182.20,97.05 182.20,96.88 182.20,96.71 182.19,96.54 182.19,96.37 182.19,96.20 182.19,96.02 182.19,95.84 182.18,95.65 182.18,95.47 182.18,95.28 182.17,95.10 182.17,94.91 182.16,94.72 182.16,94.53 182.15,94.34 182.14,94.14 182.14,93.94 182.13,93.73 182.13,93.53 182.13,93.33 182.13,93.13 182.14,92.93 182.15,92.73 182.16,92.53 182.17,92.33 182.18,92.14 182.19,91.94 182.19,91.75 182.19,91.57 182.17,91.39 182.15,91.22 182.13,91.08 182.11,90.94 182.09,90.86 182.06,90.77 182.03,90.72 182.01,90.66 182.01,90.60 182.02,90.55 182.04,90.47 182.05,90.39 182.06,90.27 182.07,90.14 182.06,89.95 182.05,89.76 182.04,89.54 182.03,89.31 182.01,89.05 181.98,88.79 181.96,88.54 181.94,88.29 181.92,88.07 181.90,87.85 181.89,87.64 181.88,87.44 181.87,87.24 181.86,87.04 181.86,86.84 181.86,86.64 181.86,86.45 181.87,86.26 181.87,86.07 181.86,85.88 181.86,85.69 181.85,85.50 181.84,85.32 181.83,85.13 181.83,84.95 181.83,84.77 181.83,84.59 181.83,84.41 181.83,84.23 181.82,84.04 181.81,83.86 181.80,83.67 181.79,83.48 181.78,83.29 181.77,83.11 181.77,82.92 181.75,82.74 181.74,82.55 181.73,82.38 181.72,82.20 181.71,82.03 181.70,81.86 181.69,81.69 181.69,81.52 181.68,81.35 181.67,81.18 181.66,81.00 181.66,80.83 181.64,80.64 181.63,80.46 181.62,80.29 181.60,80.11 181.59,79.94 181.58,79.76 181.58,79.58 181.58,79.40 181.58,79.23 181.59,79.05 181.60,78.88 181.60,78.70 181.61,78.53 181.61,78.36 181.62,78.19 181.62,78.03 181.62,77.85 181.62,77.68 181.61,77.50 181.60,77.32 181.59,77.14 181.58,76.95 181.57,76.76 181.56,76.57 181.55,76.38 181.53,76.19 181.51,76.00 181.48,75.81 181.45,75.63 181.42,75.45 181.39,75.26 181.36,75.08 181.32,74.91 181.29,74.73 181.25,74.56 181.22,74.39 181.17,74.22 181.13,74.05 181.09,73.89 181.04,73.72 181.00,73.55 180.95,73.39 180.92,73.23 180.88,73.07 180.85,72.91 180.82,72.76 180.79,72.61 180.77,72.46 180.75,72.31 180.72,72.16 180.70,72.02 180.68,71.88 180.66,71.74 180.65,71.61 180.64,71.47 180.64,71.32 180.64,71.15 180.65,70.99 180.66,70.80 180.67,70.62 180.68,70.43 180.70,70.25 180.70,70.07 180.70,69.89 180.69,69.71 180.67,69.54 180.64,69.37 180.61,69.20 180.59,69.05 180.56,68.90 180.54,68.77 180.52,68.64 180.51,68.55 180.49,68.45 180.48,68.36 180.47,68.28 180.48,68.19 180.48,68.10 180.50,67.98 180.52,67.86 180.53,67.72 180.54,67.57 180.54,67.41 180.53,67.24 180.52,67.07 180.51,66.89 180.51,66.71 180.50,66.53 180.50,66.35 180.50,66.16 180.50,65.98 180.50,65.79 180.49,65.61 180.49,65.42 180.48,65.24 180.46,65.06 180.45,64.88 180.44,64.69 180.44,64.51 180.44,64.34 180.44,64.16 180.45,63.98 180.45,63.80 180.46,63.62 180.47,63.44 180.47,63.26 180.47,63.08 180.47,62.90 180.45,62.71 180.44,62.52 180.44,62.33 180.43,62.14 180.44,61.96 180.45,61.79 180.46,61.61 180.47,61.44 180.48,61.27 180.49,61.10 180.50,60.94 180.51,60.77 180.52,60.60 180.53,60.43 180.54,60.26 180.55,60.09 180.57,59.91 180.58,59.74 180.59,59.57 180.60,59.40 180.59,59.23 180.59,59.06 180.54,58.91 180.49,58.75 180.37,58.64 180.25,58.52 180.06,58.46 179.87,58.39 179.65,58.36 179.42,58.34 179.19,58.33 178.95,58.32 178.72,58.33 178.49,58.33 178.27,58.35 178.05,58.36 177.84,58.38 177.62,58.40 177.41,58.42 177.20,58.44 176.99,58.46 176.78,58.49 176.58,58.53 176.38,58.57 176.18,58.63 175.98,58.68 175.80,58.75 175.61,58.82 175.43,58.90 175.24,58.97 175.07,59.06 174.89,59.14 174.72,59.23 174.55,59.33 174.38,59.43 174.21,59.52 174.05,59.63 173.89,59.73 173.73,59.84 173.57,59.95 173.41,60.06 173.25,60.17 173.09,60.28 172.92,60.40 172.76,60.52 172.59,60.64 172.43,60.75 172.27,60.87 172.10,60.98 171.93,61.08 171.76,61.18 171.59,61.27 171.41,61.35 171.23,61.43 171.05,61.51 170.87,61.58 170.69,61.65 170.51,61.71 170.32,61.76 170.13,61.81 169.93,61.85 169.74,61.88 169.54,61.92 169.33,61.95 169.13,61.97 168.93,62.00 168.73,62.02 168.53,62.05 168.32,62.06 168.12,62.07 167.91,62.07 167.71,62.06 167.50,62.05 167.30,62.04 167.10,62.02 166.90,62.01 166.70,61.98 166.50,61.96 166.31,61.92 166.12,61.89 165.93,61.84 165.75,61.79 165.56,61.72 165.37,61.66 165.19,61.58 165.00,61.51 164.83,61.42 164.65,61.34 164.48,61.25 164.31,61.16 164.14,61.06 163.97,60.95 163.81,60.84 163.65,60.72 163.49,60.58 163.34,60.44 163.22,60.30 163.09,60.15 162.99,59.99 162.88,59.83 162.80,59.67 162.72,59.50 162.66,59.33 162.59,59.16 162.53,58.98 162.48,58.80 162.44,58.63 162.39,58.45 162.37,58.27 162.34,58.10 162.33,57.92 162.32,57.74 162.32,57.56 162.33,57.38 162.34,57.19 162.36,57.01 162.38,56.82 162.40,56.63 162.42,56.44 162.43,56.25 162.45,56.07 162.47,55.89 162.49,55.70 162.50,55.52 162.52,55.34 162.54,55.16 162.57,54.99 162.59,54.81 162.63,54.64 162.66,54.47 162.70,54.30 162.75,54.12 162.79,53.94 162.84,53.76 162.89,53.59 162.93,53.42 162.98,53.25 163.03,53.08 163.09,52.91 163.15,52.75 163.21,52.59 163.27,52.42 163.33,52.26 163.39,52.10 163.45,51.94 163.50,51.77 163.56,51.60 163.62,51.42 163.67,51.25 163.73,51.07 163.79,50.90 163.84,50.72 163.90,50.55 163.96,50.38 164.02,50.21 164.09,50.03 164.15,49.86 164.21,49.68 164.28,49.51 164.35,49.33 164.41,49.16 164.48,48.98 164.54,48.81 164.60,48.64 164.66,48.46 164.73,48.29 164.79,48.12 164.85,47.95 164.90,47.77 164.96,47.60 165.01,47.44 165.06,47.27 165.11,47.10 165.16,46.94 165.21,46.77 165.26,46.61 165.30,46.44 165.34,46.27 165.38,46.10 165.42,45.93 165.46,45.76 165.50,45.59 165.53,45.41 165.56,45.24 165.58,45.06 165.61,44.88 165.64,44.70 165.66,44.52 165.68,44.35 165.70,44.17 165.72,44.00 165.73,43.83 165.74,43.65 165.75,43.48 165.76,43.30 165.77,43.12 165.78,42.94 165.80,42.76 165.80,42.58 165.81,42.41 165.82,42.23 165.83,42.05 165.83,41.87 165.83,41.69 165.82,41.51 165.82,41.32 165.81,41.14 165.80,40.96 165.79,40.78 165.77,40.60 165.77,40.42 165.76,40.24 165.76,40.06 165.76,39.88 165.75,39.70 165.75,39.53 165.74,39.35 165.73,39.17 165.72,38.99 165.71,38.81 165.69,38.64 165.68,38.46 165.66,38.28 165.64,38.10 165.63,37.92 165.61,37.75 165.61,37.58 165.60,37.41 165.59,37.23 165.58,37.06 165.57,36.89 165.56,36.71 165.55,36.54 165.54,36.36 165.52,36.18 165.50,36.00 165.49,35.82 165.47,35.65 165.42,35.48 165.38,35.31 165.34,35.15 165.30,34.98 165.28,34.81 165.26,34.64 165.26,34.46 165.25,34.29 165.24,34.11 165.24,33.93 165.22,33.75 165.20,33.57 165.17,33.38 165.15,33.20 165.12,33.02 165.10,32.84 165.07,32.65 165.04,32.47 165.01,32.28 164.97,32.09 164.93,31.90 164.90,31.71 164.86,31.52 164.83,31.34 164.79,31.16 164.76,30.97 164.73,30.80 164.70,30.62 164.67,30.45 164.63,30.27 164.59,30.09 164.54,29.92 164.49,29.75 164.44,29.58 164.38,29.41 164.32,29.24 164.26,29.07 164.20,28.90 164.15,28.72 164.10,28.55 164.06,28.37 164.02,28.19 163.98,28.01 163.94,27.83 163.91,27.65 163.88,27.47 163.85,27.29 163.83,27.11 163.81,26.93 163.79,26.75 163.76,26.58 163.73,26.40 163.70,26.23 163.67,26.06 163.65,25.89 163.62,25.72 163.60,25.55 163.57,25.38 163.54,25.22 163.51,25.06 163.48,24.89 163.46,24.72 163.43,24.55 163.41,24.38 163.39,24.21 163.37,24.03 163.33,23.85 163.30,23.67 163.26,23.49 163.22,23.32 163.18,23.16 163.14,22.99 163.10,22.82 163.07,22.65 163.05,22.48 163.02,22.31 163.01,22.13 162.99,21.96 162.97,21.79 162.96,21.61 162.94,21.44 162.93,21.27 162.90,21.10 162.87,20.93 162.84,20.75 162.81,20.58 162.79,20.40 162.78,20.22 162.76,20.04 162.75,19.85 162.73,19.67 162.72,19.49 162.70,19.31 162.69,19.13 162.67,18.95 162.66,18.77 162.64,18.59 162.62,18.41 162.60,18.24 162.59,18.06 162.58,17.88 162.57,17.70 162.57,17.52 162.56,17.34 162.55,17.16 162.54,16.98 162.53,16.79 162.52,16.61 162.52,16.43 162.51,16.25 162.51,16.07 162.50,15.89 162.50,15.71 162.50,15.53 162.49,15.36 162.49,15.19 162.49,15.02 162.48,14.85 162.47,14.69 162.47,14.52 162.46,14.35 162.46,14.18 162.46,14.01 162.46,13.83 162.46,13.65 162.47,13.48 162.49,13.30 162.50,13.13 162.52,12.95 162.54,12.78 162.57,12.60 162.59,12.43 162.62,12.25 162.65,12.08 162.69,11.90 162.72,11.73 162.76,11.55 162.79,11.38 162.83,11.20 162.88,11.03 162.92,10.86 162.97,10.69 163.02,10.52 163.08,10.34 163.14,10.17 163.20,10.00 163.26,9.83 163.32,9.66 163.37,9.50 163.43,9.33 163.49,9.16 163.55,9.00 163.61,8.84 163.67,8.68 163.73,8.52 163.79,8.37 163.86,8.21 163.92,8.05 163.99,7.89 164.06,7.73 164.14,7.56 164.21,7.39 164.29,7.22 164.36,7.05 164.45,6.88 164.53,6.71 164.62,6.55 164.71,6.39 164.81,6.24 164.91,6.08 165.02,5.94 165.14,5.79 165.25,5.65 165.37,5.51 165.50,5.37 165.63,5.24 165.76,5.11 165.89,4.99 166.03,4.87 166.17,4.75 166.33,4.63 166.48,4.52 166.63,4.41 166.79,4.30 166.95,4.20 167.11,4.10 167.28,4.01 167.45,3.93 167.63,3.85 167.80,3.77 167.98,3.70 168.16,3.63 168.34,3.57 168.52,3.50 168.71,3.44 168.90,3.38 169.09,3.32 169.28,3.26 169.47,3.22 169.67,3.18 169.87,3.15 170.07,3.13 170.27,3.13 170.48,3.12 170.67,3.13 170.87,3.13 171.07,3.14 171.26,3.14 171.45,3.15 171.65,3.16 171.84,3.19 172.04,3.21 172.23,3.25 172.42,3.29 172.61,3.34 172.80,3.39 172.99,3.45 173.17,3.51 173.36,3.57 173.54,3.63 173.72,3.69 173.91,3.74 174.09,3.81 174.27,3.87 174.46,3.93 174.64,4.00 174.83,4.06 175.02,4.12 175.21,4.18 175.41,4.23 175.60,4.29 175.80,4.34 175.99,4.39 176.19,4.43 176.38,4.48 176.57,4.54 176.76,4.59 176.95,4.65 177.15,4.70 177.34,4.76 177.53,4.81 177.72,4.87 177.91,4.92 178.10,4.97 178.29,5.03 178.48,5.08 178.67,5.13 178.87,5.18 179.06,5.21 179.26,5.25 179.45,5.28 179.65,5.31 179.85,5.34 180.05,5.37 180.25,5.39 180.44,5.41 180.64,5.42 180.84,5.44 181.04,5.45 181.24,5.46 181.44,5.48 181.64,5.49 181.85,5.50 182.05,5.52 182.25,5.52 182.46,5.53 182.66,5.53 182.86,5.52 183.05,5.52 183.25,5.52 183.44,5.53 183.62,5.55 183.80,5.59 183.97,5.64 184.12,5.74 184.27,5.83 184.38,5.99 184.48,6.14 184.56,6.32 184.64,6.50 184.70,6.69 184.76,6.88 184.83,7.05 184.89,7.23 184.95,7.40 185.01,7.57 185.07,7.74 185.13,7.91 185.19,8.08 185.24,8.24 185.29,8.40 185.34,8.55 185.39,8.71 185.43,8.86 185.46,9.02 185.50,9.18 185.54,9.34 185.58,9.51 185.62,9.68 185.65,9.84 185.69,10.01 185.74,10.18 185.77,10.34 185.81,10.51 185.84,10.68 185.87,10.85 185.90,11.02 185.93,11.19 185.97,11.37 186.00,11.54 186.04,11.71 186.08,11.88 186.11,12.06 186.15,12.24 186.18,12.41 186.21,12.59 186.24,12.76 186.26,12.94 186.29,13.11 186.32,13.29 186.34,13.47 186.37,13.64 186.40,13.82 186.42,14.00 186.44,14.18 186.45,14.36 186.46,14.55 186.46,14.73 186.47,14.92 186.47,15.11 186.48,15.29 186.48,15.48 186.48,15.65 186.48,15.83 186.48,15.99 186.48,16.16 186.48,16.32 186.48,16.49 186.47,16.65 186.47,16.82 186.47,16.99 186.47,17.16 186.46,17.33 186.46,17.50 186.45,17.67 186.44,17.85 186.42,18.02 186.41,18.19 186.38,18.37 186.36,18.54 186.34,18.71 186.32,18.88 186.30,19.05 186.27,19.22 186.25,19.39 186.22,19.56 186.19,19.72 186.15,19.88 186.10,20.04 186.06,20.20 186.01,20.35 185.96,20.51 185.92,20.66 185.87,20.82 185.83,20.98 185.78,21.15 185.74,21.31 185.69,21.47 185.66,21.64 185.63,21.80 185.60,21.97 185.58,22.14 185.55,22.31 185.52,22.48 185.49,22.66 185.46,22.83 185.42,23.01 185.39,23.19 185.35,23.37 185.31,23.55 185.27,23.73 185.22,23.90 185.18,24.08 185.14,24.25 185.09,24.43 185.04,24.61 185.00,24.79 184.96,24.98 184.91,25.16 184.87,25.35 184.83,25.53 184.79,25.71 184.74,25.89 184.69,26.07 184.64,26.25 184.58,26.43 184.52,26.60 184.47,26.78 184.42,26.96 184.36,27.13 184.32,27.30 184.28,27.47 184.29,27.63 184.29,27.78 184.37,27.92 184.45,28.05 184.60,28.16 184.75,28.27 184.94,28.37 185.12,28.47 185.33,28.56 185.53,28.65 185.73,28.73 185.94,28.81 186.14,28.89 186.34,28.96 186.54,29.03 186.74,29.10 186.94,29.17 187.13,29.23 187.32,29.30 187.51,29.37 187.70,29.41 187.89,29.45 188.07,29.42 188.25,29.40 188.41,29.32 188.57,29.23 188.71,29.10 188.84,28.97 188.97,28.81 189.09,28.66 189.18,28.48 189.26,28.30 189.27,28.11 189.28,27.92 189.19,27.74 189.10,27.56 188.95,27.42 188.79,27.27 188.60,27.16 188.42,27.04 188.22,26.94 188.03,26.84 187.83,26.76 187.62,26.67 187.43,26.59 187.24,26.51 187.06,26.43 186.89,26.34 186.72,26.25 186.55,26.17 186.37,26.08 186.20,26.00 186.03,25.92 185.85,25.83 185.68,25.75 185.52,25.66 185.38,25.55 185.25,25.44 185.18,25.30 185.10,25.16 185.10,24.99 185.11,24.83 185.15,24.66 185.19,24.49 185.25,24.31 185.31,24.14 185.37,23.97 185.43,23.80 185.48,23.63 185.54,23.46 185.59,23.29 185.64,23.12 185.68,22.96 185.73,22.79 185.78,22.63 185.82,22.47 185.88,22.31 185.93,22.14 185.98,21.98 186.03,21.82 186.07,21.65 186.11,21.49 186.15,21.32 186.19,21.15 186.23,20.98 186.28,20.80 186.32,20.62 186.36,20.44 186.39,20.25 186.43,20.06 186.45,19.88 186.48,19.70 186.50,19.51 186.53,19.33 186.56,19.15 186.59,18.96 186.62,18.78 186.65,18.60 186.68,18.41 186.70,18.23 186.74,18.03 186.77,17.82 186.81,17.63 186.85,17.43 186.88,17.25 186.91,17.06 186.93,16.88 186.95,16.70 186.96,16.52 186.97,16.34 186.98,16.16 186.98,15.98 186.98,15.81 186.98,15.64 186.97,15.47 186.96,15.29 186.95,15.13 186.93,14.96 186.92,14.79 186.90,14.61 186.89,14.45 186.87,14.28 186.86,14.11 186.85,13.94 186.83,13.76 186.82,13.59 186.79,13.41 186.77,13.23 186.74,13.06 186.72,12.88 186.68,12.71 186.65,12.53 186.62,12.35 186.59,12.18 186.56,12.00 186.53,11.82 186.49,11.64 186.46,11.46 186.42,11.28 186.38,11.10 186.33,10.92 186.29,10.74 186.25,10.56 186.21,10.37 186.17,10.19 186.13,10.00 186.08,9.82 186.04,9.63 185.98,9.45 185.93,9.27 185.87,9.09 185.81,8.92 185.75,8.74 185.69,8.56 185.63,8.39 185.57,8.21 185.52,8.03 185.46,7.84 185.41,7.66 185.35,7.48 185.30,7.30 185.24,7.12 185.18,6.94 185.12,6.77 185.06,6.60 184.99,6.43 184.92,6.26 184.85,6.09 184.79,5.92 184.74,5.75 184.76,5.59 184.77,5.43 184.89,5.30 185.01,5.16 185.21,5.08 185.40,4.99 185.62,4.95 185.85,4.91 186.08,4.89 186.31,4.87 186.53,4.85 186.75,4.84 186.96,4.81 187.17,4.78 187.37,4.75 187.58,4.71 187.79,4.66 187.99,4.62 188.20,4.57 188.40,4.52 188.61,4.48 188.81,4.43 189.01,4.39 189.20,4.35 189.40,4.30 189.60,4.25 189.79,4.20 189.98,4.15 190.17,4.10 190.36,4.05 190.55,4.00 190.74,3.95 190.93,3.89 191.12,3.84 191.32,3.78 191.51,3.73 191.70,3.68 191.90,3.63 192.09,3.59 192.29,3.56 192.48,3.53 192.67,3.51 192.85,3.48 193.04,3.45 193.22,3.41 193.40,3.37 193.59,3.32 193.77,3.28 193.96,3.24 194.14,3.20 194.33,3.16 194.52,3.12 194.71,3.08 194.90,3.04 195.08,3.00 195.27,2.97 195.46,2.93 195.64,2.90 195.83,2.86 196.01,2.83 196.18,2.80 196.35,2.77 196.50,2.75 196.65,2.73 196.77,2.73 196.90,2.73 197.02,2.74 197.14,2.76 197.28,2.78 197.42,2.80 197.58,2.82 197.75,2.84 197.92,2.86 198.10,2.89 198.27,2.93 198.44,2.96 198.60,3.02 198.76,3.08 198.89,3.15 199.01,3.21 199.11,3.27 199.21,3.32 199.30,3.35 199.40,3.39 199.53,3.43 199.66,3.46 199.83,3.50 200.01,3.55 200.20,3.60 200.39,3.66 200.58,3.74 200.76,3.81 200.94,3.90 201.11,3.99 201.29,4.09 201.46,4.19 201.63,4.30 201.80,4.41 201.96,4.52 202.13,4.63 202.29,4.74 202.45,4.85 202.60,4.96 202.76,5.08 202.90,5.20 203.05,5.32 203.19,5.46 203.32,5.60 203.45,5.75 203.58,5.89 203.69,6.05 203.81,6.21 203.90,6.37 204.00,6.54 204.09,6.71 204.17,6.87 204.25,7.05 204.33,7.23 204.41,7.41 204.48,7.59 204.55,7.77 204.62,7.96 204.68,8.15 204.74,8.34 204.79,8.52 204.84,8.71 204.88,8.89 204.92,9.07 204.96,9.23 205.00,9.40 205.03,9.57 205.06,9.74 205.09,9.92 205.11,10.09 205.13,10.28 205.14,10.46 205.16,10.66 205.18,10.86 205.21,11.06 205.23,11.26 205.24,11.44 205.26,11.63 205.27,11.82 205.29,12.00 205.30,12.19 205.32,12.38 205.33,12.57 205.34,12.76 205.35,12.95 205.37,13.14 205.37,13.32 205.37,13.51 205.36,13.68 205.34,13.85 205.32,14.03 205.29,14.20 205.26,14.37 205.23,14.55 205.21,14.72 205.18,14.89 205.16,15.07 205.14,15.24 205.12,15.42 205.09,15.59 205.06,15.78 205.04,15.96 205.01,16.14 204.98,16.32 204.95,16.50 204.92,16.68 204.90,16.86 204.87,17.03 204.84,17.21 204.81,17.38 204.78,17.55 204.76,17.71 204.72,17.88 204.69,18.04 204.66,18.21 204.63,18.38 204.59,18.55 204.55,18.72 204.51,18.88 204.48,19.03 204.44,19.18 204.41,19.34 204.37,19.49 204.33,19.65 204.29,19.81 204.24,19.98 204.19,20.15 204.13,20.32 204.07,20.49 204.01,20.66 203.96,20.83 203.92,21.00 203.87,21.17 203.83,21.34 203.79,21.51 203.76,21.68 203.72,21.85 203.69,22.03 203.65,22.21 203.61,22.39 203.57,22.57 203.52,22.75 203.48,22.93 203.44,23.11 203.40,23.29 203.37,23.47 203.33,23.66 203.30,23.84 203.27,24.02 203.24,24.20 203.20,24.38 203.17,24.55 203.15,24.72 203.13,24.89 203.11,25.06 203.10,25.24 203.09,25.42 203.09,25.61 203.09,25.80 203.08,25.99 203.09,26.18 203.10,26.36 203.11,26.54 203.13,26.72 203.16,26.90 203.19,27.08 203.23,27.25 203.27,27.43 203.31,27.61 203.35,27.78 203.39,27.96 203.43,28.14 203.46,28.31 203.50,28.49 203.54,28.67 203.58,28.84 203.63,29.02 203.68,29.20 203.73,29.37 203.78,29.55 203.83,29.72 203.87,29.89 203.92,30.05 203.97,30.22 204.02,30.38 204.07,30.55 204.12,30.72 204.18,30.88 204.24,31.05 204.29,31.22 204.35,31.40 204.40,31.57 204.46,31.74 204.52,31.91 204.57,32.08 204.63,32.25 204.68,32.42 204.72,32.59 204.77,32.75 204.82,32.91 204.86,33.08 204.90,33.25 204.94,33.43 204.98,33.61 205.01,33.80 205.04,33.98 205.06,34.17 205.08,34.36 205.08,34.55 205.09,34.73 205.07,34.91 205.05,35.10 205.02,35.27 204.98,35.45 204.92,35.62 204.86,35.79 204.78,35.94 204.71,36.10 204.62,36.25 204.54,36.40 204.44,36.54 204.34,36.69 204.24,36.82 204.13,36.96 204.02,37.10 203.91,37.24 203.79,37.38 203.68,37.52 203.55,37.67 203.43,37.81 203.30,37.94 203.16,38.08 203.02,38.21 202.88,38.34 202.73,38.46 202.58,38.58 202.42,38.69 202.27,38.79 202.11,38.88 201.94,38.97 201.77,39.05 201.60,39.13 201.42,39.21 201.24,39.29 201.05,39.37 200.87,39.45 200.68,39.52 200.50,39.59 200.32,39.64 200.13,39.70 199.95,39.75 199.76,39.79 199.59,39.82 199.41,39.86 199.23,39.88 199.06,39.91 198.88,39.92 198.70,39.94 198.52,39.94 198.34,39.95 198.16,39.95 197.97,39.95 197.79,39.95 197.61,39.95 197.42,39.95 197.23,39.94 197.04,39.93 196.85,39.92 196.66,39.91 196.47,39.89 196.28,39.87 196.09,39.85 195.90,39.82 195.71,39.80 195.52,39.77 195.33,39.75 195.14,39.72 194.95,39.69 194.76,39.66 194.58,39.62 194.39,39.58 194.20,39.54 194.00,39.49 193.81,39.44 193.62,39.39 193.42,39.33 193.22,39.27 193.02,39.22 192.83,39.16 192.63,39.10 192.44,39.04 192.25,38.99 192.06,38.93 191.87,38.88 191.69,38.82 191.51,38.76 191.33,38.70 191.15,38.64 190.98,38.59 190.81,38.53 190.63,38.48 190.45,38.43 190.26,38.39 190.08,38.35 189.90,38.31 189.71,38.27 189.52,38.24 189.33,38.21 189.14,38.18 188.96,38.15 188.76,38.13 188.57,38.10 188.37,38.08 188.17,38.07 187.97,38.06 187.78,38.06 187.58,38.06 187.39,38.07 187.20,38.07 187.01,38.08 186.83,38.08 186.64,38.09 186.46,38.10 186.27,38.11 186.08,38.13 185.89,38.15 185.71,38.17 185.53,38.19 185.34,38.22 185.15,38.25 184.96,38.28 184.76,38.32 184.57,38.35 184.38,38.39 184.19,38.42 184.00,38.45 183.81,38.49 183.62,38.53 183.42,38.58 183.23,38.63 183.04,38.70 182.85,38.77 182.70,38.88 182.54,38.99 182.43,39.14 182.31,39.29 182.25,39.45 182.18,39.62 182.14,39.80 182.11,39.98 182.09,40.16 182.07,40.34 182.06,40.53 182.05,40.72 182.04,40.91 182.03,41.10 182.02,41.28 182.02,41.47 182.01,41.65 182.00,41.83 181.98,42.01 181.96,42.19 181.93,42.37 181.91,42.54 181.89,42.72 181.87,42.89 181.85,43.06 181.83,43.23 181.81,43.40 181.79,43.57 181.77,43.75 181.75,43.93 181.74,44.12 181.73,44.31 181.72,44.50 181.72,44.69 181.71,44.87 181.71,45.05 181.71,45.23 181.72,45.40 181.72,45.57 181.73,45.74 181.74,45.91 181.75,46.08 181.77,46.26 181.79,46.44 181.81,46.61 181.83,46.79 181.84,46.97 181.85,47.14 181.86,47.32 181.87,47.50 181.89,47.67 181.90,47.85 181.91,48.02 181.92,48.20 181.93,48.37 181.94,48.55 181.95,48.72 181.97,48.89 181.98,49.07 181.99,49.24 182.01,49.41 182.02,49.58 182.03,49.75 182.03,49.92 182.04,50.08 182.04,50.24 182.05,50.41 182.05,50.58 182.05,50.75 182.05,50.92 182.05,51.09 182.04,51.26 182.03,51.42 182.02,51.59 182.01,51.75 182.00,51.91 181.98,52.08 181.97,52.24 181.95,52.40 181.93,52.57 181.92,52.74 181.90,52.91 181.88,53.08 181.87,53.25 181.85,53.43 181.83,53.61 181.81,53.79 181.78,53.97 181.76,54.14 181.73,54.32 181.71,54.49 181.69,54.66 181.66,54.83 181.63,54.99 181.60,55.16 181.57,55.32 181.55,55.49 181.52,55.66 181.50,55.83 181.47,56.00 181.46,56.17 181.44,56.34 181.42,56.51 181.40,56.68 181.39,56.85 181.37,57.02 181.36,57.19 181.34,57.36 181.33,57.53 181.31,57.69 181.30,57.86 181.28,58.02 181.27,58.18 181.26,58.35 181.25,58.51 181.24,58.68 181.22,58.85 181.21,59.02 181.19,59.19 181.17,59.36 181.16,59.53 181.14,59.70 181.12,59.87 181.10,60.04 181.09,60.22 181.07,60.40 181.06,60.58 181.05,60.76 181.04,60.95 181.03,61.13 181.02,61.32 181.01,61.50 181.00,61.68 180.99,61.87 180.99,62.05 180.98,62.22 180.97,62.40 180.96,62.58 180.96,62.76 180.96,62.94 180.97,63.11 180.97,63.29 180.98,63.47 180.99,63.64 181.00,63.81 181.00,63.99 181.00,64.16 181.00,64.34 180.98,64.51 180.97,64.68 180.96,64.85 180.95,65.02 180.95,65.20 180.94,65.37 180.94,65.54 180.94,65.71 180.94,65.88 180.94,66.05 180.95,66.21 180.95,66.37 180.96,66.52 180.98,66.68 181.00,66.83 181.02,66.98 181.04,67.12 181.06,67.26 181.08,67.38 181.09,67.50 181.10,67.60 181.11,67.70 181.12,67.79 181.13,67.89 181.13,68.00 181.14,68.10 181.14,68.24 181.15,68.38 181.15,68.54 181.16,68.70 181.17,68.85 181.18,69.00 181.19,69.12 181.20,69.24 181.22,69.34 181.23,69.44 181.24,69.55 181.25,69.67 181.26,69.80 181.27,69.94 181.28,70.09 181.29,70.25 181.29,70.41 181.29,70.58 181.29,70.75 181.29,70.92 181.28,71.09 181.28,71.26 181.28,71.44 181.28,71.61 181.28,71.79 181.29,71.97 181.30,72.15 181.31,72.32 181.32,72.50 181.33,72.68 181.36,72.85 181.38,73.03 181.41,73.20 181.44,73.37 181.48,73.54 181.52,73.71 181.56,73.88 181.60,74.05 181.64,74.21 181.69,74.38 181.73,74.55 181.78,74.72 181.82,74.89 181.86,75.06 181.90,75.24 181.94,75.41 181.98,75.58 182.02,75.75 182.05,75.92 182.08,76.09 182.10,76.26 182.13,76.42 182.15,76.60 182.17,76.77 182.19,76.94 182.20,77.12 182.20,77.29 182.21,77.46 182.21,77.64 182.21,77.82 182.22,78.00 182.23,78.17 182.24,78.35 182.24,78.53 182.25,78.70 182.25,78.87 182.24,79.04 182.24,79.21 182.24,79.38 182.23,79.55 182.23,79.73 182.22,79.91 182.21,80.09 182.20,80.27 182.19,80.45 182.18,80.63 182.17,80.81 182.17,80.99 182.16,81.17 182.14,81.36 182.14,81.54 182.13,81.72 182.13,81.90 182.13,82.09 182.14,82.27 182.14,82.44 182.16,82.62 182.17,82.80 182.17,82.98 182.18,83.16 182.19,83.34 182.19,83.52 182.20,83.70 182.21,83.87 182.22,84.05 182.23,84.23 182.23,84.40 182.24,84.58 182.24,84.76 182.24,84.93 182.24,85.11 182.23,85.29 182.24,85.47 182.24,85.65 182.25,85.83 182.25,86.01 182.26,86.20 182.26,86.38 182.27,86.56 182.27,86.74 182.27,86.91 182.28,87.09 182.28,87.27 182.28,87.45 182.29,87.63 182.30,87.82 182.31,88.00 182.32,88.18 182.33,88.36 182.34,88.53 182.35,88.71 182.35,88.88 182.36,89.04 182.36,89.20 182.36,89.35 182.36,89.51 182.35,89.65 182.35,89.80 182.34,89.94 182.33,90.08 182.32,90.21 182.31,90.34 182.31,90.48 182.31,90.61 182.30,90.79 182.29,90.97 182.29,91.17 182.29,91.37 182.31,91.57 182.33,91.76 182.36,91.95 182.39,92.14 182.42,92.33 182.45,92.53 182.47,92.74 182.49,92.95 182.50,93.14 182.50,93.34 182.49,93.53 182.49,93.71 182.50,93.88 182.50,94.04 182.50,94.21 182.51,94.37 182.52,94.54 182.52,94.71 182.53,94.87 182.53,95.04 182.53,95.20 182.53,95.37 182.54,95.53 182.55,95.70 182.56,95.86 182.57,96.02 182.58,96.18 182.59,96.34 182.61,96.51 182.62,96.68 182.62,96.86 182.63,97.03 182.64,97.21 182.65,97.38 182.66,97.56 182.67,97.73 182.68,97.90 182.68,98.07 182.69,98.24 182.69,98.41 182.70,98.59 182.70,98.76 182.72,98.92 182.73,99.08 182.75,99.25 182.76,99.41 182.79,99.58 182.81,99.74 182.83,99.91 182.86,100.08 182.90,100.24 182.93,100.41 182.98,100.58 183.02,100.74 183.06,100.92 183.10,101.09 183.13,101.26 183.16,101.44 183.18,101.61 183.20,101.79 183.22,101.97 183.23,102.14 183.24,102.32 183.25,102.49 183.26,102.66 183.26,102.82 183.26,102.98 183.27,103.14 183.26,103.30 183.26,103.47 183.25,103.63 183.24,103.79 183.22,103.96 183.20,104.13 183.18,104.31 183.16,104.48 183.16,104.65 183.15,104.82 183.16,104.99 183.16,105.15 183.16,105.31 183.17,105.47 183.18,105.64 183.20,105.80 183.21,105.97 183.23,106.13 183.24,106.31 183.26,106.48 183.27,106.65 183.27,106.83 183.28,107.01 183.28,107.18 183.29,107.35 183.29,107.52 183.29,107.68 183.30,107.84 183.30,108.00 183.30,108.17 183.31,108.33 183.32,108.49 183.32,108.65 183.33,108.80 183.34,108.96 183.35,109.13 183.36,109.29 183.37,109.46 183.38,109.62 183.39,109.79 183.40,109.96 183.41,110.12 183.41,110.29 183.42,110.45 183.43,110.61 183.43,110.78 183.44,110.93 183.45,111.08 183.47,111.23 183.49,111.38 183.52,111.53 183.54,111.69 183.56,111.84 183.59,112.00 183.61,112.16 183.63,112.33 183.66,112.50 183.69,112.67 183.72,112.85 183.76,113.02 183.80,113.19 183.84,113.36 183.89,113.53 183.93,113.69 183.98,113.85 184.03,114.02 184.08,114.19 184.14,114.36 184.19,114.53 184.24,114.70 184.28,114.87 184.32,115.04 184.35,115.21 184.38,115.37 184.37,115.54 184.37,115.71 184.31,115.87 184.25,116.03 184.14,116.16 184.02,116.30 183.86,116.40 183.70,116.50 183.52,116.58 183.34,116.66 183.16,116.71 182.98,116.77 182.80,116.80 182.61,116.84 182.43,116.87 182.24,116.90 182.06,116.94 181.87,116.98 181.67,117.01 181.48,117.04 181.28,117.07 181.08,117.10 180.88,117.11 180.69,117.13 180.50,117.14 180.31,117.15 180.13,117.15 179.95,117.15 179.77,117.14 179.59,117.13 179.41,117.12 179.24,117.11 179.06,117.10 178.88,117.09 178.69,117.08 178.51,117.08 178.32,117.08 178.13,117.08 177.94,117.09 177.74,117.10 177.55,117.11 177.36,117.12 177.18,117.14 176.99,117.15 176.81,117.17 176.62,117.18 176.45,117.20 176.27,117.22 176.09,117.24 175.91,117.25 175.72,117.26 175.53,117.27 175.34,117.28 175.15,117.28 174.97,117.28 174.78,117.27 174.60,117.27 174.41,117.26 174.23,117.26 174.05,117.26 173.87,117.25 173.69,117.25 173.50,117.26 173.32,117.26 173.13,117.27 172.93,117.27 172.74,117.28 172.55,117.29 172.36,117.30 172.18,117.32 171.99,117.33 171.81,117.35 171.63,117.35 171.45,117.35 171.28,117.36 171.11,117.36 170.94,117.36 170.76,117.36 170.59,117.37 170.41,117.37 170.23,117.38 170.05,117.38 169.86,117.39 169.68,117.39 169.49,117.40 169.31,117.40 169.12,117.41 168.94,117.42 168.75,117.42 168.55,117.43 168.36,117.43 168.16,117.44 167.97,117.44 167.78,117.44 167.59,117.43 167.41,117.43 167.23,117.43 167.05,117.43 166.87,117.44 166.69,117.44 166.51,117.45 166.32,117.46 166.14,117.48 165.96,117.49 165.77,117.50 165.59,117.52 165.41,117.52 165.23,117.53 165.04,117.54 164.86,117.55 164.66,117.56 164.47,117.56 164.27,117.56 164.08,117.56 163.89,117.55 163.70,117.55 163.51,117.55 163.33,117.55 163.14,117.56 162.96,117.56 162.78,117.56 162.59,117.56 162.41,117.56 162.24,117.56 162.05,117.56 161.87,117.57 161.68,117.57 161.49,117.57 161.30,117.57 161.11,117.57 160.92,117.58 160.73,117.58 160.54,117.58 160.35,117.57 160.17,117.57 159.99,117.56 159.82,117.56 159.64,117.56 159.46,117.56 159.28,117.56 159.08,117.57 158.89,117.58 158.69,117.59 158.49,117.60 158.30,117.61 158.10,117.61 157.91,117.62 157.72,117.62 157.54,117.61 157.35,117.61 157.16,117.61 156.98,117.61 156.80,117.61 156.62,117.61 156.44,117.61 156.26,117.62 156.08,117.62 155.90,117.63 155.71,117.63 155.52,117.64 155.33,117.64 155.14,117.65 154.95,117.66 154.76,117.67 154.58,117.69 154.39,117.70 154.21,117.71 154.04,117.72 153.86,117.72 153.68,117.73 153.50,117.73 153.32,117.73 153.13,117.73 152.94,117.73 152.75,117.73 152.55,117.74 152.36,117.73 152.17,117.73 151.97,117.72 151.78,117.72 151.58,117.72 151.39,117.72 151.20,117.72 151.01,117.73 150.82,117.74 150.63,117.74 150.45,117.75 150.26,117.75 150.07,117.75 149.88,117.75 149.69,117.74 149.50,117.74 149.32,117.74 149.14,117.74 148.96,117.74 148.78,117.74 148.60,117.75 148.42,117.75 148.24,117.75 148.06,117.75 147.88,117.75 147.69,117.74 147.52,117.74 147.35,117.74 147.18,117.75 147.01,117.75 146.83,117.76 146.64,117.77 146.46,117.78 146.27,117.78 146.09,117.79 145.92,117.79 145.74,117.79 145.57,117.79 145.39,117.79 145.22,117.78 145.05,117.76 144.88,117.75 144.70,117.74 144.53,117.73 144.35,117.73 144.16,117.72 143.98,117.72 143.79,117.73 143.61,117.73 143.43,117.74 143.25,117.74 143.07,117.74 142.89,117.75 142.71,117.75 142.53,117.75 142.36,117.76 142.18,117.76 142.00,117.76 141.82,117.77 141.63,117.77 141.45,117.78 141.27,117.79 141.09,117.80 140.92,117.80 140.73,117.81 140.55,117.82 140.37,117.83 140.18,117.83 139.99,117.84 139.80,117.84 139.62,117.85 139.43,117.85 139.25,117.85 139.08,117.85 138.91,117.85 138.74,117.85 138.57,117.85 138.39,117.85 138.21,117.86 138.03,117.86 137.85,117.86 137.66,117.87 137.48,117.87 137.29,117.87 137.11,117.87 136.93,117.86 136.75,117.86 136.57,117.86 136.40,117.86 136.23,117.85 136.07,117.84 135.90,117.84 135.73,117.84 135.56,117.84 135.40,117.85 135.23,117.86 135.07,117.87 134.90,117.87 134.73,117.88 134.57,117.88 134.40,117.89 134.23,117.90 134.06,117.90 133.89,117.91 133.71,117.91 133.53,117.92 133.35,117.92 133.17,117.92 132.99,117.92 132.81,117.92 132.63,117.92 132.45,117.92 132.27,117.93 132.09,117.94 131.90,117.94 131.71,117.95 131.52,117.96 131.32,117.97 131.13,117.98 130.93,117.99 130.74,118.00 130.55,118.00 130.36,118.01 130.17,118.01 129.99,118.02 129.81,118.02 129.62,118.03 129.43,118.04 129.24,118.05 129.05,118.06 128.86,118.07 128.68,118.07 128.50,118.07 128.32,118.07 128.15,118.07 127.97,118.06 127.80,118.05 127.62,118.04 127.44,118.04 127.26,118.03 127.08,118.03 126.90,118.02 126.73,118.03 126.55,118.03 126.37,118.04 126.18,118.05 126.00,118.05 125.81,118.06 125.62,118.06 125.43,118.06 125.24,118.06 125.05,118.06 124.87,118.06 124.69,118.06 124.52,118.06 124.35,118.06 124.19,118.06 124.02,118.06 123.86,118.05 123.69,118.05 123.53,118.04 123.36,118.04 123.18,118.03 123.01,118.03 122.84,118.02 122.67,118.02 122.51,118.01 122.34,118.01 122.18,118.01 122.02,118.02 121.86,118.03 121.70,118.04 121.54,118.05 121.38,118.06 121.22,118.06 121.06,118.07 120.91,118.08 120.75,118.08 120.59,118.09 120.42,118.09 120.26,118.10 120.10,118.11 119.93,118.12 119.76,118.13 119.58,118.14 119.40,118.16 119.22,118.16 119.03,118.17 118.85,118.17 118.67,118.17 118.49,118.17 118.32,118.16 118.14,118.15 117.96,118.14 117.78,118.13 117.59,118.12 117.41,118.12 117.23,118.12 117.06,118.12 116.88,118.12 116.71,118.11 116.53,118.10 116.36,118.11 116.18,118.11 115.99,118.11 115.81,118.11 115.61,118.12 115.42,118.12 115.22,118.12 115.02,118.12 114.83,118.12 114.64,118.12 114.46,118.13 114.27,118.13 114.09,118.15 113.91,118.16 113.74,118.20 113.56,118.23 113.41,118.30 113.25,118.36 113.12,118.47 112.99,118.58 112.89,118.72 112.80,118.86 112.74,119.02 112.68,119.18 112.63,119.35 112.58,119.52 112.52,119.68 112.46,119.85 112.41,120.02 112.35,120.19 112.30,120.36 112.25,120.54 112.21,120.71 112.17,120.88 112.13,121.05 112.09,121.21 112.06,121.36 112.03,121.52 112.01,121.67 111.99,121.82 111.98,121.98 111.97,122.14 111.98,122.31 111.99,122.49 112.01,122.66 112.03,122.84 112.05,123.01 112.06,123.18 112.08,123.35 112.09,123.52 112.09,123.69 112.09,123.87 112.08,124.05 112.07,124.23 112.06,124.41 112.05,124.59 112.03,124.76 112.02,124.94 112.01,125.11 112.00,125.28 111.99,125.45 111.99,125.61 111.99,125.78 111.99,125.94 111.99,126.11 111.99,126.27 112.00,126.44 112.01,126.61 112.02,126.78 112.03,126.96 112.04,127.12 112.04,127.29 112.04,127.45 112.04,127.62 112.04,127.78 112.04,127.95 112.05,128.11 112.06,128.27 112.07,128.42 112.08,128.57 112.10,128.72 112.11,128.87 112.12,129.03 112.14,129.18 112.14,129.33 112.15,129.49 112.14,129.66 112.14,129.82 112.14,129.99 112.15,130.17 112.16,130.35 112.18,130.53 112.19,130.71 112.20,130.90 112.21,131.07 112.21,131.25 112.22,131.42 112.22,131.59 112.23,131.77 112.23,131.94 112.25,132.11 112.26,132.29 112.27,132.46 112.29,132.63 112.31,132.80 112.32,132.97 112.33,133.15 112.34,133.32 112.34,133.50 112.35,133.67 112.36,133.85 112.37,134.03 112.38,134.19 112.40,134.36 112.41,134.53 112.43,134.69 112.44,134.84 112.46,135.00 112.47,135.15 112.48,135.29 112.50,135.44 112.52,135.59 112.53,135.76 112.54,135.92 112.55,136.08 112.56,136.25 112.57,136.41 112.57,136.57 112.57,136.74 112.57,136.90 112.57,137.07 112.57,137.23 112.56,137.40 112.56,137.56 112.55,137.72 112.55,137.88 112.54,138.04 112.52,138.20 112.50,138.36 112.47,138.52 112.44,138.68 112.42,138.84 112.38,139.00 112.34,139.16 112.30,139.33 112.25,139.50 112.21,139.66 112.16,139.83 112.11,139.99 112.05,140.15 112.00,140.31 111.94,140.47 111.89,140.63 111.84,140.80 111.79,140.95 111.74,141.11 111.69,141.26 111.64,141.41 111.59,141.56 111.54,141.71 111.48,141.87 111.43,142.02 111.39,142.18 111.34,142.34 111.30,142.50 111.27,142.67 111.24,142.84 111.22,143.01 111.21,143.19 111.20,143.37 111.19,143.55 111.19,143.73 111.18,143.91 111.17,144.09 111.16,144.26 111.15,144.42 111.13,144.58 111.11,144.74 111.09,144.89 111.07,145.04 111.04,145.18 111.02,145.33 110.99,145.48 110.96,145.62 110.94,145.77 110.91,145.92 110.88,146.08 110.84,146.24 110.80,146.39 110.75,146.55 110.71,146.70 110.66,146.84 110.62,146.98 110.59,147.12 110.57,147.27 110.55,147.41 110.55,147.56 110.55,147.70 110.57,147.86 110.59,148.01 110.62,148.17 110.65,148.34 110.68,148.52 110.70,148.69 110.73,148.88 110.76,149.07 110.79,149.25 110.83,149.44 110.88,149.61 110.94,149.79 111.01,149.95 111.08,150.11 111.16,150.27 111.24,150.42 111.33,150.57 111.42,150.71 111.53,150.85 111.63,150.99 111.75,151.12 111.87,151.24 112.01,151.34 112.14,151.43 112.30,151.48 112.45,151.52 112.62,151.50 112.80,151.49 112.98,151.43 113.16,151.38 113.35,151.30 113.53,151.23 113.72,151.16 113.90,151.08 114.07,151.01 114.25,150.94 114.42,150.89 114.59,150.84 114.77,150.80 114.94,150.76 115.13,150.73 115.31,150.71 115.50,150.69 115.68,150.67 115.87,150.64 116.06,150.62 116.25,150.60 116.44,150.58 116.63,150.57 116.82,150.55 117.02,150.55 117.22,150.54 117.42,150.53 117.61,150.52 117.81,150.51 118.00,150.51 118.19,150.51 118.39,150.50 118.58,150.50 118.77,150.50 118.95,150.51 119.14,150.51 119.33,150.51 119.53,150.52 119.73,150.52 119.94,150.53 120.14,150.53 120.35,150.54 120.54,150.54 120.73,150.54 120.91,150.54 121.09,150.54 121.27,150.55 121.45,150.56 121.63,150.57 121.81,150.58 122.00,150.60 122.19,150.62 122.39,150.64 122.58,150.66 122.77,150.68 122.97,150.71 123.16,150.75 123.35,150.79 123.54,150.83 123.73,150.87 123.92,150.91 124.11,150.94 124.30,150.98 124.49,151.02 124.68,151.06 124.87,151.10 125.05,151.15 125.23,151.20 125.40,151.25 125.57,151.31 125.73,151.37 125.89,151.43 126.05,151.50 126.22,151.57 126.38,151.64 126.55,151.72 126.72,151.80 126.89,151.87 127.07,151.95 127.25,152.03 127.43,152.11 127.61,152.20 127.78,152.28 127.96,152.37 128.13,152.46 128.31,152.56 128.48,152.66 128.64,152.76 128.81,152.87 128.98,152.98 129.15,153.09 129.31,153.21 129.48,153.32 129.65,153.43 129.81,153.54 129.96,153.64 130.12,153.74 130.27,153.84 130.42,153.96 130.57,154.07 130.72,154.19 130.87,154.31 131.01,154.43 131.16,154.55 131.29,154.68 131.42,154.80 131.55,154.92 131.68,155.05 131.80,155.18 131.92,155.31 132.04,155.45 132.16,155.59 132.27,155.74 132.38,155.89 132.49,156.04 132.60,156.18 132.71,156.32 132.81,156.47 132.92,156.60 133.02,156.74 133.12,156.88 133.22,157.02 133.32,157.16 133.42,157.31 133.50,157.47 133.59,157.62 133.66,157.78 133.74,157.93 133.81,158.09 133.88,158.24 133.95,158.39 134.01,158.55 134.08,158.70 134.15,158.86 134.21,159.02 134.27,159.18 134.32,159.36 134.37,159.53 134.40,159.71 134.43,159.89 134.44,160.08 134.45,160.26 134.45,160.45 134.44,160.64 134.43,160.83 134.41,161.03 134.37,161.22 134.34,161.40 134.29,161.59 134.25,161.77 134.20,161.95 134.14,162.14 134.08,162.31 134.01,162.49 133.93,162.66 133.85,162.83 133.75,162.99 133.66,163.16 133.56,163.31 133.46,163.47 133.34,163.61 133.23,163.76 133.11,163.90 132.99,164.05 132.87,164.19 132.74,164.32 132.61,164.46 132.48,164.60 132.35,164.74 132.21,164.88 132.08,165.02 131.94,165.16 131.79,165.30 131.65,165.44 131.50,165.56 131.35,165.69 131.20,165.81 131.05,165.92 130.90,166.04 130.74,166.15 130.59,166.27 130.44,166.38 130.28,166.49 130.12,166.60 129.96,166.70 129.79,166.81 129.61,166.90 129.44,167.00 129.26,167.10 129.09,167.19 128.91,167.28 128.73,167.37 128.55,167.45 128.37,167.54 128.19,167.62 128.01,167.70 127.83,167.79 127.66,167.87 127.49,167.96 127.32,168.04 127.15,168.13 126.98,168.21 126.80,168.30 126.62,168.38 126.43,168.45 126.25,168.53 126.05,168.59 125.85,168.66 125.66,168.71 125.46,168.76 125.26,168.80 125.07,168.84 124.87,168.88 124.68,168.91 124.49,168.93 124.29,168.96 124.10,168.98 123.91,169.00 123.73,169.02 123.54,169.03 123.35,169.03 123.16,169.04 122.98,169.03 122.79,169.03 122.59,169.02 122.40,169.02 122.20,169.01 122.01,169.00 121.81,168.98 121.62,168.96 121.43,168.93 121.24,168.89 121.05,168.85 120.87,168.80 120.69,168.74 120.51,168.68 120.33,168.62 120.15,168.55 119.97,168.49 119.80,168.42 119.62,168.36 119.44,168.30 119.26,168.25 119.08,168.20 118.90,168.15 118.73,168.10 118.55,168.05 118.38,168.00 118.20,167.95 118.03,167.90 117.86,167.85 117.68,167.80 117.50,167.75 117.31,167.71 117.12,167.67 116.93,167.63 116.74,167.59 116.54,167.54 116.35,167.50 116.16,167.45 115.98,167.40 115.80,167.35 115.62,167.30 115.44,167.24 115.26,167.19 115.08,167.14 114.90,167.09 114.72,167.05 114.54,167.00 114.36,166.96 114.18,166.92 114.00,166.88 113.83,166.84 113.65,166.80 113.48,166.77 113.30,166.73 113.13,166.70 112.95,166.67 112.78,166.65 112.60,166.62 112.41,166.60 112.23,166.58 112.04,166.56 111.86,166.54 111.67,166.53 111.48,166.52 111.29,166.51 111.10,166.50 110.92,166.49 110.73,166.49 110.55,166.49 110.36,166.50 110.18,166.50 109.99,166.51 109.81,166.52 109.62,166.52 109.44,166.53 109.26,166.53 109.07,166.54 108.89,166.54 108.70,166.54 108.52,166.54 108.33,166.53 108.15,166.53 107.97,166.52 107.78,166.52 107.60,166.52 107.41,166.52 107.22,166.53 107.02,166.54 106.84,166.53 106.66,166.53 106.49,166.52 106.32,166.51 106.15,166.50 105.98,166.49 105.80,166.49 105.62,166.49 105.44,166.49 105.25,166.48 105.07,166.49 104.88,166.49 104.70,166.49 104.52,166.49 104.33,166.50 104.14,166.50 103.96,166.51 103.77,166.51 103.58,166.51 103.39,166.51 103.21,166.51 103.02,166.51 102.83,166.51 102.64,166.51 102.46,166.52 102.28,166.52 102.10,166.53 101.92,166.54 101.73,166.55 101.55,166.55 101.36,166.56 101.17,166.56 100.97,166.57 100.77,166.57 100.57,166.58 100.36,166.58 100.16,166.59 99.96,166.59 99.77,166.59 99.58,166.59 99.41,166.59 99.23,166.59 99.06,166.59 98.88,166.58 98.71,166.59 98.53,166.59 98.34,166.60 98.16,166.61 97.97,166.62 97.78,166.63 97.60,166.63 97.42,166.63 97.25,166.63 97.08,166.62 96.91,166.61 96.74,166.60 96.56,166.58 96.39,166.57 96.20,166.55 96.02,166.53 95.83,166.50 95.64,166.46 95.45,166.43 95.26,166.39 95.08,166.36 94.89,166.32 94.71,166.27 94.53,166.22 94.36,166.17 94.18,166.12 94.00,166.07 93.82,166.02 93.64,165.98 93.45,165.94 93.27,165.90 93.08,165.85 92.91,165.81 92.73,165.77 92.55,165.73 92.38,165.69 92.22,165.67 92.05,165.64 91.91,165.64 91.77,165.63 91.66,165.68 91.55,165.74 91.49,165.87 91.42,166.00 91.40,166.19 91.37,166.37 91.38,166.57 91.38,166.77 91.40,166.97 91.42,167.17 91.46,167.37 91.49,167.57 91.51,167.76 91.52,167.94 91.53,168.12 91.54,168.30 91.55,168.47 91.55,168.65 91.58,168.83 91.61,169.01 91.63,169.19 91.66,169.36 91.69,169.53 91.71,169.70 91.73,169.87 91.75,170.04 91.75,170.20 91.75,170.36 91.76,170.52 91.76,170.69 91.80,170.86 91.83,171.02 91.93,171.16 92.02,171.29 92.18,171.39 92.34,171.48 92.53,171.52 92.73,171.57 92.96,171.59 93.19,171.61 93.43,171.62 93.66,171.64 93.90,171.65 94.13,171.66 94.37,171.66 94.60,171.66 94.84,171.66 95.08,171.65 95.31,171.64 95.55,171.63 95.78,171.62 96.00,171.61 96.22,171.60 96.44,171.59 96.65,171.60 96.87,171.60 97.08,171.61 97.30,171.62 97.52,171.62 97.74,171.63 97.96,171.63 98.19,171.63 98.41,171.64 98.63,171.64 98.84,171.64 99.06,171.64 99.28,171.63 99.49,171.63 99.81,171.64 100.13,171.65" stroke="#9c2abc" fill="none" stroke-width="10" stroke-linejoin="round" stroke-linecap="round"/>
</svg>