<svg xmlns="http://www.w3.org/2000/svg" viewBox="0 0 300 300" width="300" height="300">
<style>
      text { font-family: Arial, sans-serif; }
    </style>
<polyline points="272.60,164.55 272.60,164.44 272.61,164.31 272.61,164.16 272.61,164.00 272.62,163.84 272.63,163.66 272.65,163.48 272.66,163.28 272.68,163.08 272.69,162.88 272.69,162.67 272.70,162.46 272.71,162.24 272.70,162.03 272.70,161.82 272.68,161.60 272.66,161.38 272.64,161.17 272.62,160.96 272.61,160.76 272.59,160.56 272.58,160.37 272.57,160.19 272.57,160.01 272.56,159.83 272.58,159.66 272.59,159.48 272.60,159.30 272.60,159.12 272.60,158.95 272.60,158.77 272.59,158.58 272.58,158.39 272.57,158.19 272.55,157.99 272.53,157.79 272.52,157.60 272.51,157.40 272.50,157.20 272.50,157.01 272.50,156.81 272.51,156.62 272.51,156.42 272.52,156.22 272.53,156.02 272.53,155.81 272.53,155.60 272.53,155.40 272.52,155.19 272.51,154.99 272.50,154.78 272.49,154.58 272.48,154.38 272.47,154.18 272.47,153.98 272.46,153.78 272.46,153.58 272.45,153.39 272.45,153.19 272.44,153.00 272.43,152.80 272.41,152.60 272.40,152.40 272.39,152.20 272.37,152.00 272.36,151.79 272.34,151.59 272.34,151.39 272.33,151.20 272.32,151.01 272.32,150.83 272.32,150.64 272.32,150.46 272.32,150.27 272.32,150.08 272.31,149.88 272.30,149.69 272.29,149.49 272.27,149.29 272.26,149.10 272.24,148.90 272.23,148.71 272.22,148.52 272.22,148.33 272.22,148.14 272.23,147.95 272.23,147.77 272.24,147.58 272.24,147.39 272.23,147.21 272.23,147.03 272.22,146.84 272.21,146.66 272.19,146.47 272.18,146.29 272.17,146.10 272.16,145.91 272.15,145.72 272.14,145.53 272.14,145.35 272.14,145.16 272.14,144.98 272.13,144.80 272.12,144.62 272.10,144.44 272.09,144.25 272.08,144.07 272.07,143.89 272.06,143.70 272.05,143.51 272.04,143.33 272.04,143.14 272.04,142.96 272.03,142.77 272.02,142.58 272.00,142.39 271.98,142.20 271.97,142.01 271.95,141.82 271.93,141.62 271.92,141.43 271.91,141.23 271.90,141.04 271.89,140.84 271.88,140.65 271.88,140.45 271.88,140.26 271.88,140.07 271.88,139.88 271.87,139.69 271.85,139.50 271.84,139.29 271.83,139.09 271.83,138.90 271.82,138.71 271.83,138.52 271.84,138.33 271.85,138.15 271.86,137.97 271.87,137.78 271.88,137.59 271.88,137.38 271.87,137.18 271.86,136.97 271.85,136.77 271.83,136.56 271.81,136.36 271.78,136.16 271.76,135.96 271.73,135.76 271.70,135.56 271.66,135.37 271.63,135.19 271.57,135.03 271.50,134.88 271.37,134.79 271.24,134.70 271.06,134.67 270.87,134.64 270.66,134.64 270.45,134.64 270.24,134.65 270.02,134.67 269.80,134.68 269.58,134.70 269.36,134.71 269.14,134.72 268.91,134.74 268.68,134.75 268.45,134.78 268.22,134.80 268.00,134.82 267.78,134.84 267.56,134.85 267.35,134.86 267.14,134.86 266.93,134.87 266.72,134.87 266.51,134.88 266.30,134.89 266.08,134.90 265.87,134.92 265.67,134.94 265.46,134.96 265.26,134.99 265.05,135.01 264.85,135.03 264.65,135.03 264.45,135.03 264.25,135.02 264.05,135.01 263.85,135.01 263.65,135.01 263.45,135.01 263.24,135.01 263.03,135.00 262.82,134.99 262.61,134.98 262.40,134.98 262.20,134.98 261.99,134.98 261.79,134.98 261.59,134.99 261.38,135.00 261.17,135.02 260.96,135.03 260.75,135.04 260.54,135.06 260.32,135.07 260.11,135.08 259.90,135.09 259.69,135.10 259.49,135.11 259.28,135.11 259.07,135.11 258.85,135.11 258.64,135.12 258.43,135.12 258.21,135.12 258.00,135.12 257.78,135.12 257.55,135.12 257.33,135.13 257.10,135.14 256.87,135.15 256.65,135.16 256.42,135.17 256.20,135.17 255.97,135.17 255.75,135.18 255.53,135.18 255.31,135.18 255.10,135.18 254.88,135.18 254.66,135.18 254.44,135.18 254.22,135.18 254.01,135.19 253.80,135.19 253.58,135.21 253.37,135.22 253.15,135.23 252.93,135.25 252.72,135.27 252.50,135.29 252.28,135.30 252.06,135.32 251.86,135.32 251.65,135.33 251.45,135.32 251.24,135.32 251.03,135.32 250.82,135.33 250.61,135.34 250.39,135.35 250.18,135.36 249.97,135.37 249.78,135.33 249.59,135.29 249.42,135.20 249.26,135.11 249.09,135.03 248.91,134.96 248.71,134.93 248.51,134.90 248.28,134.91 248.06,134.91 247.84,134.91 247.62,134.92 247.42,134.92 247.21,134.92 246.99,134.92 246.78,134.92 246.56,134.92 246.35,134.92 246.13,134.93 245.92,134.93 245.71,134.94 245.50,134.94 245.30,134.95 245.09,134.95 244.88,134.95 244.66,134.94 244.45,134.93 244.23,134.93 244.01,134.92 243.79,134.92 243.56,134.92 243.34,134.92 243.12,134.91 242.89,134.91 242.67,134.91 242.44,134.90 242.22,134.90 242.00,134.91 241.77,134.91 241.55,134.92 241.31,134.93 241.07,134.94 240.83,134.95 240.59,134.97 240.34,134.98 240.10,134.99 239.87,135.00 239.63,135.00 239.41,135.00 239.18,134.99 238.97,134.98 238.76,134.97 238.54,134.97 238.33,134.97 238.11,134.98 237.90,134.99 237.68,135.00 237.46,135.02 237.24,135.03 237.02,135.05 236.79,135.06 236.56,135.07 236.32,135.08 236.09,135.08 235.86,135.08 235.63,135.08 235.41,135.07 235.19,135.07 234.98,135.06 234.77,135.06 234.56,135.06 234.34,135.06 234.13,135.06 233.92,135.07 233.72,135.08 233.51,135.09 233.29,135.10 233.08,135.10 232.85,135.11 232.63,135.12 232.40,135.12 232.18,135.12 231.96,135.12 231.73,135.12 231.51,135.10 231.28,135.10 231.06,135.08 230.83,135.07 230.62,135.06 230.40,135.06 230.20,135.06 230.00,135.05 229.79,135.05 229.59,135.05 229.38,135.06 229.16,135.07 228.94,135.08 228.71,135.09 228.47,135.11 228.24,135.12 228.00,135.13 227.76,135.15 227.51,135.16 227.26,135.18 227.02,135.19 226.77,135.21 226.54,135.21 226.31,135.21 226.10,135.20 225.88,135.19 225.66,135.18 225.44,135.17 225.21,135.17 224.98,135.16 224.74,135.16 224.50,135.16 224.26,135.17 224.02,135.18 223.78,135.20 223.55,135.21 223.33,135.23 223.11,135.25 222.90,135.25 222.69,135.26 222.48,135.26 222.27,135.27 222.06,135.27 221.84,135.27 221.62,135.27 221.39,135.27 221.16,135.27 220.93,135.27 220.70,135.27 220.47,135.27 220.24,135.26 220.01,135.25 219.78,135.25 219.56,135.24 219.33,135.23 219.10,135.23 218.86,135.23 218.63,135.23 218.40,135.23 218.17,135.23 217.95,135.23 217.73,135.24 217.51,135.27 217.29,135.30 217.08,135.37 216.87,135.45 216.65,135.53 216.43,135.62 216.20,135.69 215.96,135.75 215.72,135.78 215.48,135.81 215.25,135.83 215.02,135.84 214.79,135.84 214.56,135.85 214.34,135.85 214.12,135.85 213.89,135.85 213.66,135.85 213.42,135.86 213.18,135.86 212.93,135.88 212.69,135.89 212.45,135.92 212.22,135.94 211.99,135.95 211.77,135.97 211.56,135.96 211.35,135.96 211.14,135.95 210.93,135.93 210.71,135.92 210.49,135.91 210.25,135.91 210.02,135.91 209.77,135.92 209.53,135.93 209.28,135.95 209.04,135.96 208.79,135.97 208.54,135.98 208.31,135.98 208.07,135.98 207.85,135.98 207.63,135.97 207.41,135.97 207.19,135.96 206.97,135.96 206.74,135.95 206.52,135.96 206.29,135.96 206.07,135.97 205.84,135.99 205.61,136.01 205.37,136.03 205.12,136.05 204.87,136.07 204.63,136.09 204.38,136.11 204.15,136.12 203.92,136.13 203.69,136.13 203.46,136.13 203.23,136.13 203.00,136.13 202.77,136.14 202.54,136.15 202.32,136.15 202.10,136.16 201.88,136.17 201.65,136.18 201.43,136.18 201.20,136.19 200.98,136.20 200.75,136.21 200.53,136.22 200.31,136.22 200.09,136.23 199.87,136.24 199.65,136.26 199.43,136.27 199.21,136.29 198.99,136.32 198.77,136.33 198.55,136.34 198.33,136.33 198.11,136.32 197.89,136.30 197.66,136.28 197.43,136.26 197.20,136.24 196.96,136.24 196.73,136.24 196.50,136.24 196.28,136.24 196.06,136.24 195.84,136.24 195.62,136.25 195.41,136.25 195.18,136.26 194.95,136.26 194.73,136.27 194.50,136.28 194.27,136.30 194.05,136.31 193.81,136.32 193.58,136.32 193.35,136.33 193.12,136.33 192.89,136.33 192.66,136.33 192.43,136.33 192.20,136.33 191.97,136.33 191.73,136.33 191.50,136.34 191.27,136.35 191.04,136.37 190.81,136.38 190.58,136.39 190.35,136.40 190.11,136.40 189.87,136.40 189.64,136.40 189.41,136.39 189.17,136.39 188.94,136.38 188.72,136.38 188.49,136.38 188.27,136.38 188.04,136.38 187.81,136.39 187.58,136.40 187.37,136.40 187.15,136.40 187.01,136.32 186.87,136.24 186.82,136.07 186.76,135.91 186.76,135.70 186.76,135.50 186.78,135.28 186.79,135.06 186.80,134.84 186.80,134.63 186.80,134.42 186.81,134.21 186.80,134.00 186.80,133.80 186.79,133.60 186.78,133.40 186.76,133.20 186.74,133.00 186.73,132.80 186.72,132.60 186.72,132.39 186.72,132.19 186.72,131.98 186.71,131.77 186.72,131.56 186.72,131.35 186.71,131.14 186.71,130.92 186.69,130.71 186.67,130.50 186.65,130.29 186.62,130.08 186.61,129.87 186.60,129.66 186.60,129.45 186.60,129.24 186.59,129.04 186.57,128.84 186.56,128.65 186.54,128.45 186.53,128.25 186.52,128.05 186.51,127.84 186.51,127.63 186.51,127.41 186.51,127.19 186.53,126.97 186.54,126.75 186.54,126.53 186.55,126.32 186.55,126.10 186.55,125.89 186.54,125.67 186.54,125.46 186.52,125.24 186.51,125.03 186.50,124.82 186.49,124.60 186.48,124.39 186.48,124.18 186.46,123.98 186.45,123.77 186.44,123.56 186.43,123.35 186.41,123.14 186.39,122.92 186.37,122.71 186.35,122.49 186.35,122.27 186.34,122.06 186.35,121.84 186.35,121.63 186.35,121.42 186.35,121.20 186.35,120.99 186.35,120.77 186.34,120.55 186.34,120.33 186.33,120.12 186.33,119.90 186.33,119.69 186.32,119.47 186.32,119.27 186.32,119.06 186.32,118.86 186.32,118.66 186.32,118.46 186.32,118.26 186.31,118.06 186.30,117.86 186.28,117.66 186.27,117.46 186.26,117.25 186.25,117.04 186.25,116.82 186.25,116.61 186.25,116.39 186.25,116.17 186.25,115.96 186.24,115.75 186.24,115.55 186.23,115.34 186.22,115.13 186.20,114.92 186.19,114.71 186.17,114.50 186.15,114.29 186.14,114.08 186.13,113.88 186.11,113.67 186.10,113.47 186.09,113.26 186.08,113.06 186.07,112.85 186.07,112.65 186.06,112.45 186.06,112.24 186.06,112.04 186.06,111.83 186.06,111.62 186.06,111.41 186.06,111.19 186.06,110.99 186.06,110.78 186.05,110.58 186.05,110.38 186.04,110.17 186.04,109.96 186.04,109.74 186.03,109.53 186.04,109.31 186.04,109.10 186.04,108.87 186.04,108.65 186.01,108.44 185.99,108.23 185.90,108.09 185.82,107.95 185.68,107.96 185.54,107.96 185.40,108.10 185.26,108.24 185.15,108.45 185.04,108.66 184.99,108.89 184.94,109.12 184.95,109.35 184.95,109.58 184.97,109.80 185.00,110.02 185.03,110.23 185.06,110.45 185.10,110.66 185.13,110.87 185.16,111.07 185.18,111.28 185.17,111.47 185.17,111.67 185.16,111.87 185.15,112.07 185.15,112.27 185.15,112.47 185.15,112.67 185.16,112.87 185.18,113.07 185.19,113.27 185.20,113.47 185.22,113.67 185.23,113.87 185.24,114.07 185.25,114.26 185.26,114.46 185.27,114.65 185.27,114.84 185.27,115.04 185.27,115.24 185.28,115.45 185.28,115.65 185.29,115.87 185.30,116.08 185.31,116.29 185.32,116.50 185.32,116.69 185.33,116.88 185.33,117.07 185.32,117.25 185.33,117.43 185.33,117.62 185.34,117.82 185.34,118.01 185.34,118.21 185.34,118.41 185.34,118.62 185.33,118.82 185.33,119.02 185.32,119.23 185.31,119.43 185.30,119.64 185.30,119.83 185.29,120.03 185.29,120.22 185.28,120.42 185.29,120.62 185.29,120.81 185.30,121.01 185.30,121.20 185.30,121.40 185.29,121.59 185.29,121.79 185.29,121.99 185.30,122.20 185.31,122.41 185.32,122.61 185.33,122.82 185.34,123.03 185.35,123.24 185.36,123.45 185.37,123.67 185.38,123.88 185.39,124.10 185.41,124.30 185.44,124.51 185.47,124.72 185.51,124.93 185.54,125.13 185.57,125.34 185.59,125.54 185.60,125.74 185.60,125.94 185.61,126.14 185.61,126.34 185.62,126.53 185.63,126.72 185.64,126.90 185.66,127.09 185.67,127.27 185.68,127.46 185.69,127.64 185.69,127.83 185.68,128.02 185.67,128.23 185.66,128.43 185.66,128.63 185.65,128.83 185.65,129.03 185.65,129.23 185.66,129.43 185.66,129.63 185.66,129.83 185.66,130.03 185.65,130.23 185.64,130.43 185.63,130.63 185.62,130.82 185.62,131.01 185.61,131.19 185.62,131.38 185.63,131.56 185.65,131.75 185.66,131.94 185.68,132.14 185.70,132.33 185.72,132.54 185.74,132.74 185.76,132.95 185.78,133.16 185.79,133.37 185.81,133.57 185.82,133.77 185.83,133.98 185.85,134.17 185.87,134.37 185.89,134.57 185.91,134.76 185.92,134.96 185.94,135.16 185.94,135.36 185.94,135.56 185.93,135.77 185.92,135.97 185.92,136.18 185.91,136.39 185.89,136.59 185.87,136.78 185.78,136.90 185.69,137.02 185.51,137.05 185.34,137.08 185.11,137.06 184.88,137.04 184.62,137.01 184.36,136.98 184.11,136.92 183.86,136.86 183.66,136.74 183.45,136.63 183.34,136.45 183.22,136.27 183.16,136.06 183.10,135.85 183.06,135.63 183.02,135.42 182.97,135.22 182.93,135.02 182.87,134.82 182.81,134.63 182.74,134.43 182.67,134.23 182.61,134.02 182.56,133.82 182.51,133.61 182.46,133.41 182.42,133.20 182.37,133.00 182.32,132.81 182.27,132.61 182.22,132.42 182.16,132.23 182.10,132.04 182.03,131.84 181.97,131.65 181.90,131.46 181.83,131.27 181.77,131.09 181.70,130.91 181.64,130.72 181.59,130.54 181.53,130.35 181.48,130.17 181.42,129.99 181.36,129.81 181.30,129.63 181.25,129.43 181.19,129.23 181.15,129.02 181.11,128.80 181.07,128.59 181.03,128.37 180.98,128.17 180.93,127.98 180.86,127.79 180.80,127.60 180.73,127.41 180.66,127.22 180.61,127.03 180.55,126.84 180.50,126.64 180.45,126.44 180.41,126.24 180.36,126.03 180.31,125.82 180.26,125.60 180.21,125.38 180.16,125.16 180.08,124.97 180.01,124.77 179.94,124.59 179.86,124.42 179.79,124.23 179.72,124.05 179.65,123.85 179.58,123.65 179.51,123.44 179.44,123.24 179.37,123.03 179.29,122.82 179.20,122.62 179.12,122.42 179.04,122.22 178.96,122.02 178.88,121.83 178.80,121.64 178.73,121.46 178.65,121.28 178.58,121.10 178.51,120.92 178.43,120.74 178.35,120.56 178.27,120.37 178.19,120.18 178.11,120.00 178.03,119.81 177.96,119.63 177.89,119.44 177.82,119.26 177.75,119.08 177.69,118.89 177.62,118.71 177.55,118.53 177.49,118.34 177.42,118.16 177.35,117.97 177.28,117.79 177.22,117.60 177.16,117.41 177.09,117.22 177.03,117.03 176.96,116.84 176.89,116.64 176.82,116.44 176.76,116.23 176.69,116.03 176.62,115.82 176.55,115.61 176.48,115.41 176.41,115.20 176.35,115.00 176.29,114.80 176.23,114.61 176.17,114.41 176.12,114.22 176.06,114.03 176.01,113.84 175.95,113.65 175.89,113.45 175.83,113.26 175.77,113.06 175.71,112.86 175.66,112.66 175.60,112.47 175.55,112.27 175.50,112.08 175.45,111.89 175.41,111.69 175.35,111.50 175.30,111.32 175.25,111.12 175.19,110.93 175.14,110.74 175.08,110.54 175.02,110.34 174.96,110.14 174.89,109.94 174.82,109.74 174.76,109.54 174.69,109.35 174.62,109.15 174.54,108.95 174.48,108.75 174.41,108.55 174.35,108.35 174.30,108.14 174.24,107.96 174.18,107.78 174.09,107.66 174.01,107.54 173.89,107.53 173.77,107.51 173.66,107.61 173.55,107.70 173.49,107.89 173.44,108.07 173.46,108.31 173.47,108.54 173.53,108.79 173.59,109.04 173.68,109.29 173.76,109.53 173.84,109.76 173.92,109.99 174.01,110.22 174.09,110.44 174.16,110.65 174.24,110.86 174.31,111.06 174.38,111.26 174.46,111.46 174.53,111.66 174.60,111.85 174.67,112.05 174.75,112.24 174.82,112.44 174.88,112.63 174.95,112.83 175.01,113.02 175.07,113.22 175.13,113.42 175.20,113.62 175.28,113.83 175.35,114.04 175.43,114.25 175.50,114.45 175.58,114.65 175.65,114.86 175.72,115.06 175.79,115.26 175.86,115.47 175.93,115.68 176.00,115.89 176.08,116.09 176.14,116.30 176.21,116.51 176.26,116.70 176.32,116.90 176.36,117.10 176.40,117.29 176.42,117.48 176.44,117.67 176.43,117.86 176.42,118.06 176.41,118.25 176.41,118.44 176.42,118.63 176.43,118.82 176.46,119.00 176.49,119.19 176.53,119.37 176.58,119.55 176.64,119.74 176.70,119.93 176.77,120.14 176.84,120.34 176.91,120.55 176.98,120.76 177.06,120.97 177.13,121.18 177.19,121.38 177.26,121.59 177.32,121.79 177.39,121.99 177.45,122.18 177.51,122.37 177.56,122.56 177.61,122.76 177.65,122.95 177.69,123.14 177.74,123.34 177.79,123.54 177.85,123.74 177.90,123.94 177.97,124.15 178.03,124.35 178.09,124.55 178.16,124.75 178.22,124.95 178.28,125.15 178.34,125.35 178.40,125.55 178.47,125.76 178.54,125.96 178.62,126.16 178.69,126.35 178.77,126.55 178.84,126.74 178.90,126.94 178.96,127.13 179.02,127.33 179.07,127.52 179.14,127.72 179.20,127.92 179.26,128.12 179.32,128.31 179.38,128.50 179.44,128.69 179.49,128.88 179.55,129.07 179.61,129.27 179.67,129.46 179.73,129.65 179.80,129.85 179.87,130.04 179.93,130.23 180.00,130.43 180.06,130.62 180.13,130.83 180.20,131.03 180.26,131.23 180.32,131.43 180.37,131.63 180.43,131.82 180.49,132.02 180.55,132.23 180.62,132.43 180.69,132.64 180.76,132.84 180.84,133.05 180.89,133.25 180.95,133.45 181.00,133.65 181.06,133.85 181.11,134.05 181.16,134.26 181.22,134.46 181.27,134.66 181.33,134.85 181.38,135.04 181.45,135.23 181.51,135.41 181.58,135.59 181.65,135.77 181.72,135.95 181.79,136.13 181.85,136.31 181.90,136.49 181.94,136.65 181.97,136.81 181.91,136.90 181.86,136.99 181.69,136.97 181.53,136.96 181.32,136.91 181.10,136.85 180.89,136.81 180.68,136.76 180.47,136.74 180.26,136.71 180.03,136.71 179.81,136.71 179.59,136.71 179.36,136.71 179.13,136.71 178.89,136.71 178.65,136.70 178.41,136.70 178.18,136.69 177.95,136.69 177.73,136.69 177.51,136.70 177.30,136.71 177.08,136.71 176.86,136.72 176.64,136.73 176.41,136.74 176.19,136.74 175.97,136.75 175.75,136.76 175.54,136.76 175.32,136.77 175.12,136.76 174.92,136.76 174.72,136.75 174.52,136.74 174.32,136.73 174.12,136.71 173.90,136.71 173.69,136.71 173.46,136.71 173.23,136.72 173.00,136.74 172.76,136.76 172.52,136.78 172.28,136.80 172.07,136.80 171.85,136.79 171.71,136.72 171.57,136.66 171.52,136.52 171.46,136.39 171.45,136.19 171.45,136.00 171.45,135.79 171.45,135.58 171.45,135.36 171.45,135.14 171.46,134.93 171.47,134.71 171.47,134.48 171.48,134.26 171.48,134.05 171.47,133.83 171.47,133.62 171.47,133.42 171.47,133.22 171.48,133.02 171.48,132.82 171.49,132.62 171.50,132.42 171.51,132.23 171.51,132.04 171.52,131.84 171.52,131.65 171.52,131.46 171.51,131.26 171.51,131.07 171.50,130.86 171.49,130.65 171.47,130.44 171.45,130.23 171.44,130.01 171.42,129.80 171.41,129.59 171.40,129.38 171.40,129.18 171.40,128.98 171.39,128.79 171.39,128.60 171.37,128.41 171.36,128.23 171.34,128.04 171.33,127.85 171.32,127.66 171.31,127.46 171.32,127.27 171.32,127.07 171.33,126.86 171.33,126.66 171.33,126.45 171.34,126.25 171.33,126.06 171.32,125.87 171.31,125.68 171.30,125.48 171.29,125.29 171.27,125.09 171.26,124.89 171.26,124.69 171.25,124.49 171.24,124.28 171.25,124.07 171.25,123.86 171.26,123.65 171.27,123.43 171.27,123.22 171.27,123.01 171.27,122.80 171.27,122.59 171.26,122.37 171.25,122.16 171.25,121.95 171.24,121.74 171.24,121.53 171.23,121.32 171.22,121.12 171.21,120.92 171.19,120.72 171.17,120.52 171.14,120.32 171.12,120.11 171.09,119.91 171.07,119.70 171.06,119.49 171.05,119.27 171.04,119.05 171.04,118.83 171.03,118.62 171.02,118.41 171.01,118.21 171.00,118.01 171.00,117.82 170.99,117.63 170.97,117.45 170.96,117.27 170.95,117.08 170.94,116.89 170.94,116.69 170.94,116.49 170.94,116.30 170.94,116.10 170.94,115.89 170.94,115.69 170.93,115.48 170.93,115.28 170.93,115.08 170.92,114.88 170.92,114.69 170.91,114.50 170.90,114.31 170.89,114.13 170.89,113.93 170.88,113.74 170.88,113.54 170.88,113.33 170.88,113.13 170.88,112.93 170.88,112.74 170.88,112.54 170.87,112.34 170.86,112.15 170.84,111.94 170.83,111.72 170.82,111.51 170.81,111.29 170.80,111.07 170.78,110.85 170.77,110.63 170.75,110.41 170.74,110.20 170.72,109.98 170.70,109.77 170.68,109.55 170.66,109.34 170.64,109.13 170.63,108.93 170.62,108.72 170.62,108.52 170.62,108.32 170.63,108.12 170.63,107.93 170.64,107.73 170.64,107.54 170.64,107.34 170.64,107.15 170.63,106.95 170.63,106.76 170.64,106.57 170.64,106.38 170.62,106.23 170.60,106.08 170.50,106.01 170.40,105.94 170.24,105.99 170.07,106.05 169.91,106.22 169.75,106.39 169.64,106.62 169.52,106.85 169.47,107.09 169.42,107.33 169.40,107.57 169.39,107.81 169.40,108.04 169.42,108.27 169.46,108.49 169.50,108.72 169.53,108.93 169.57,109.15 169.60,109.36 169.62,109.57 169.64,109.78 169.66,109.99 169.67,110.18 169.68,110.38 169.69,110.58 169.70,110.78 169.70,110.99 169.71,111.19 169.71,111.40 169.71,111.60 169.71,111.80 169.71,111.99 169.72,112.19 169.72,112.39 169.73,112.59 169.74,112.79 169.77,113.00 169.79,113.21 169.80,113.42 169.82,113.62 169.83,113.82 169.84,114.02 169.86,114.22 169.88,114.42 169.90,114.62 169.91,114.83 169.93,115.04 169.95,115.25 169.97,115.46 169.98,115.66 169.99,115.87 170.00,116.07 170.00,116.26 170.01,116.45 170.00,116.64 170.00,116.82 169.99,117.00 169.98,117.19 169.98,117.37 169.98,117.56 169.99,117.76 170.00,117.96 170.02,118.16 170.03,118.36 170.04,118.56 170.06,118.76 170.06,118.96 170.07,119.15 170.06,119.34 170.06,119.53 170.06,119.72 170.07,119.91 170.07,120.12 170.08,120.33 170.09,120.54 170.10,120.76 170.11,120.97 170.13,121.17 170.15,121.38 170.16,121.58 170.18,121.78 170.20,121.98 170.22,122.18 170.23,122.38 170.23,122.59 170.24,122.79 170.22,122.99 170.20,123.20 170.18,123.40 170.16,123.60 170.15,123.80 170.14,124.00 170.14,124.20 170.13,124.40 170.13,124.60 170.14,124.81 170.15,125.02 170.16,125.24 170.18,125.45 170.20,125.66 170.23,125.87 170.25,126.08 170.28,126.29 170.31,126.49 170.33,126.69 170.35,126.89 170.36,127.09 170.38,127.29 170.39,127.49 170.39,127.69 170.39,127.89 170.38,128.09 170.37,128.28 170.35,128.47 170.32,128.66 170.30,128.84 170.28,129.05 170.26,129.25 170.26,129.46 170.25,129.68 170.27,129.90 170.28,130.13 170.31,130.36 170.33,130.59 170.35,130.80 170.38,131.02 170.40,131.22 170.42,131.42 170.43,131.62 170.44,131.81 170.45,132.00 170.45,132.19 170.45,132.38 170.45,132.57 170.46,132.76 170.47,132.96 170.48,133.16 170.50,133.36 170.51,133.57 170.52,133.77 170.53,133.98 170.54,134.18 170.54,134.39 170.54,134.59 170.54,134.78 170.53,134.97 170.51,135.15 170.48,135.34 170.42,135.52 170.37,135.69 170.31,135.87 170.24,136.05 170.20,136.22 170.15,136.40 170.13,136.58 170.11,136.76 170.08,136.91 170.05,137.06 169.94,137.14 169.83,137.22 169.66,137.23 169.48,137.24 169.28,137.21 169.07,137.19 168.86,137.15 168.65,137.11 168.44,137.08 168.22,137.05 168.01,137.02 167.79,137.00 167.57,136.99 167.36,136.99 167.14,136.99 166.93,136.99 166.72,137.00 166.50,137.02 166.29,137.02 166.09,137.03 165.88,137.03 165.67,137.03 165.46,137.03 165.25,137.03 165.03,137.03 164.82,137.03 164.60,137.04 164.38,137.04 164.16,137.06 163.95,137.07 163.73,137.08 163.51,137.09 163.32,137.05 163.12,137.02 163.00,136.92 162.88,136.83 162.83,136.67 162.78,136.51 162.77,136.31 162.76,136.11 162.76,135.89 162.76,135.67 162.75,135.44 162.75,135.22 162.74,135.01 162.73,134.80 162.72,134.61 162.71,134.42 162.70,134.23 162.69,134.04 162.68,133.85 162.68,133.66 162.67,133.48 162.66,133.29 162.64,133.10 162.63,132.90 162.61,132.71 162.59,132.51 162.58,132.31 162.56,132.10 162.56,131.90 162.56,131.70 162.56,131.50 162.56,131.30 162.56,131.12 162.56,130.93 162.57,130.74 162.57,130.55 162.57,130.35 162.57,130.16 162.57,129.97 162.57,129.78 162.58,129.60 162.59,129.41 162.60,129.22 162.60,129.03 162.60,128.84 162.59,128.64 162.59,128.43 162.59,128.22 162.58,128.01 162.58,127.80 162.56,127.59 162.55,127.39 162.53,127.19 162.51,126.99 162.50,126.79 162.48,126.59 162.46,126.38 162.44,126.18 162.42,125.98 162.39,125.77 162.37,125.57 162.35,125.36 162.34,125.17 162.33,124.97 162.33,124.77 162.32,124.58 162.31,124.39 162.31,124.20 162.29,124.02 162.26,123.84 162.24,123.66 162.21,123.48 162.19,123.30 162.18,123.11 162.17,122.92 162.15,122.72 162.14,122.52 162.12,122.32 162.11,122.11 162.09,121.91 162.07,121.70 162.06,121.50 162.05,121.30 162.04,121.10 162.02,120.91 162.01,120.72 161.99,120.54 161.97,120.35 161.96,120.16 161.94,119.98 161.93,119.79 161.92,119.60 161.92,119.42 161.91,119.24 161.91,119.06 161.91,118.88 161.90,118.69 161.90,118.50 161.89,118.30 161.88,118.11 161.88,117.91 161.88,117.71 161.88,117.51 161.89,117.30 161.89,117.10 161.90,116.90 161.90,116.69 161.90,116.49 161.90,116.28 161.91,116.07 161.91,115.87 161.92,115.66 161.92,115.45 161.92,115.25 161.92,115.04 161.93,114.83 161.93,114.60 161.93,114.38 161.93,114.16 161.92,113.93 161.92,113.72 161.92,113.50 161.91,113.30 161.90,113.09 161.89,112.90 161.89,112.71 161.88,112.52 161.88,112.33 161.88,112.15 161.89,111.98 161.90,111.80 161.90,111.62 161.90,111.44 161.90,111.25 161.89,111.05 161.88,110.85 161.87,110.64 161.86,110.44 161.84,110.22 161.83,110.01 161.82,109.81 161.81,109.61 161.79,109.43 161.76,109.26 161.67,109.13 161.57,109.01 161.40,108.99 161.23,108.98 161.05,109.09 160.87,109.21 160.74,109.41 160.61,109.62 160.53,109.87 160.45,110.12 160.43,110.37 160.40,110.62 160.40,110.85 160.40,111.08 160.42,111.30 160.44,111.52 160.46,111.73 160.48,111.94 160.50,112.15 160.53,112.35 160.55,112.56 160.57,112.76 160.58,112.97 160.60,113.17 160.60,113.38 160.61,113.59 160.60,113.80 160.60,114.00 160.59,114.21 160.58,114.41 160.57,114.60 160.56,114.79 160.55,114.99 160.55,115.18 160.55,115.38 160.56,115.58 160.58,115.77 160.60,115.97 160.62,116.17 160.64,116.36 160.66,116.56 160.68,116.75 160.70,116.95 160.71,117.15 160.73,117.34 160.75,117.53 160.77,117.73 160.78,117.92 160.79,118.11 160.80,118.29 160.80,118.48 160.80,118.66 160.80,118.85 160.79,119.04 160.79,119.22 160.78,119.41 160.77,119.60 160.76,119.78 160.75,119.98 160.75,120.17 160.75,120.37 160.75,120.57 160.75,120.77 160.76,120.96 160.76,121.16 160.76,121.36 160.76,121.55 160.77,121.75 160.79,121.94 160.82,122.14 160.84,122.32 160.87,122.51 160.88,122.70 160.89,122.89 160.90,123.08 160.91,123.26 160.92,123.45 160.92,123.64 160.93,123.84 160.93,124.03 160.94,124.22 160.95,124.42 160.96,124.62 160.97,124.82 160.98,125.01 160.99,125.21 161.00,125.40 161.01,125.59 161.02,125.79 161.03,125.97 161.04,126.17 161.04,126.36 161.04,126.55 161.05,126.74 161.05,126.94 161.05,127.13 161.06,127.34 161.06,127.54 161.07,127.74 161.08,127.95 161.09,128.15 161.10,128.35 161.11,128.55 161.12,128.74 161.13,128.95 161.14,129.15 161.15,129.35 161.16,129.55 161.17,129.76 161.17,129.96 161.18,130.16 161.18,130.35 161.19,130.55 161.19,130.75 161.19,130.94 161.20,131.14 161.20,131.33 161.21,131.51 161.21,131.70 161.21,131.88 161.21,132.07 161.21,132.26 161.22,132.46 161.22,132.66 161.22,132.85 161.22,133.05 161.22,133.24 161.22,133.43 161.22,133.62 161.23,133.82 161.24,134.02 161.25,134.22 161.27,134.43 161.28,134.63 161.30,134.84 161.32,135.05 161.35,135.25 161.38,135.46 161.40,135.66 161.42,135.85 161.43,136.05 161.43,136.24 161.44,136.43 161.45,136.63 161.47,136.83 161.49,137.03 161.49,137.22 161.48,137.41 161.40,137.53 161.31,137.66 161.14,137.69 160.96,137.73 160.73,137.71 160.49,137.69 160.24,137.66 160.00,137.63 159.76,137.62 159.52,137.60 159.29,137.59 159.06,137.58 158.84,137.58 158.62,137.58 158.40,137.59 158.19,137.61 157.97,137.62 157.75,137.64 157.52,137.65 157.29,137.66 157.06,137.66 156.83,137.66 156.61,137.66 156.38,137.65 156.15,137.65 155.92,137.64 155.68,137.65 155.45,137.66 155.22,137.66 154.99,137.66 154.77,137.64 154.55,137.63 154.35,137.59 154.14,137.55 153.98,137.51 153.82,137.47 153.66,137.45 153.50,137.42 153.31,137.41 153.13,137.40 152.92,137.41 152.71,137.42 152.49,137.45 152.27,137.48 152.06,137.51 151.84,137.55 151.62,137.57 151.41,137.59 151.20,137.61 150.99,137.63 150.77,137.64 150.56,137.66 150.34,137.68 150.12,137.70 149.89,137.73 149.66,137.75 149.43,137.79 149.19,137.82 148.96,137.86 148.72,137.89 148.49,137.92 148.25,137.95 148.02,137.95 147.78,137.96 147.54,137.95 147.31,137.94 147.08,137.92 146.85,137.91 146.63,137.90 146.41,137.89 146.19,137.88 145.97,137.88 145.74,137.88 145.52,137.88 145.29,137.89 145.06,137.90 144.84,137.90 144.62,137.90 144.39,137.90 144.17,137.90 143.95,137.90 143.72,137.91 143.50,137.91 143.28,137.91 143.07,137.92 142.85,137.92 142.63,137.92 142.41,137.92 142.19,137.93 141.97,137.94 141.76,137.94 141.55,137.94 141.34,137.93 141.13,137.93 140.92,137.92 140.71,137.91 140.51,137.91 140.31,137.91 140.11,137.90 139.91,137.89 139.71,137.87 139.51,137.86 139.30,137.86 139.10,137.86 138.90,137.87 138.70,137.87 138.49,137.88 138.29,137.88 138.09,137.88 137.88,137.89 137.67,137.88 137.46,137.88 137.25,137.88 137.05,137.88 136.84,137.89 136.63,137.89 136.41,137.91 136.18,137.94 135.94,137.95 135.69,137.96 135.45,137.95 135.21,137.93 134.97,137.92 134.74,137.91 134.51,137.91 134.28,137.90 134.06,137.91 133.83,137.92 133.61,137.93 133.38,137.95 133.16,137.97 132.93,137.98 132.71,138.00 132.49,138.02 132.27,138.03 132.05,138.04 131.82,138.04 131.60,138.04 131.39,138.04 131.18,138.04 130.97,138.04 130.76,138.04 130.56,138.05 130.35,138.05 130.15,138.06 129.95,138.07 129.74,138.07 129.53,138.07 129.32,138.06 129.10,138.05 128.88,138.05 128.66,138.04 128.43,138.05 128.21,138.05 127.98,138.07 127.75,138.08 127.52,138.10 127.30,138.12 127.07,138.13 126.85,138.14 126.64,138.15 126.43,138.15 126.23,138.14 126.03,138.14 125.83,138.14 125.62,138.13 125.42,138.13 125.22,138.13 125.02,138.12 124.82,138.12 124.62,138.12 124.42,138.11 124.22,138.11 124.01,138.11 123.79,138.11 123.58,138.11 123.36,138.11 123.14,138.12 122.93,138.12 122.72,138.12 122.51,138.12 122.31,138.12 122.09,138.12 121.88,138.12 121.67,138.13 121.45,138.14 121.23,138.14 121.01,138.14 120.79,138.14 120.58,138.14 120.36,138.14 120.15,138.15 119.94,138.15 119.73,138.16 119.51,138.17 119.30,138.19 119.09,138.20 118.87,138.22 118.64,138.24 118.42,138.26 118.19,138.27 117.97,138.29 117.73,138.30 117.50,138.31 117.27,138.33 117.04,138.35 116.81,138.36 116.59,138.38 116.37,138.38 116.15,138.38 115.95,138.38 115.75,138.38 115.54,138.38 115.33,138.38 115.11,138.38 114.89,138.38 114.67,138.39 114.46,138.39 114.24,138.40 114.02,138.41 113.80,138.42 113.58,138.43 113.36,138.44 113.14,138.44 112.93,138.44 112.71,138.44 112.50,138.43 112.29,138.42 112.09,138.41 111.89,138.40 111.70,138.39 111.50,138.38 111.30,138.38 111.10,138.37 110.90,138.37 110.70,138.37 110.48,138.38 110.26,138.39 110.05,138.40 109.85,138.41 109.64,138.43 109.43,138.44 109.22,138.44 109.01,138.45 108.80,138.45 108.59,138.45 108.38,138.45 108.17,138.46 107.95,138.46 107.73,138.46 107.51,138.47 107.29,138.48 107.07,138.49 106.84,138.51 106.61,138.52 106.38,138.52 106.17,138.52 105.96,138.51 105.74,138.50 105.53,138.50 105.30,138.50 105.07,138.51 104.83,138.52 104.59,138.53 104.35,138.53 104.11,138.54 103.89,138.55 103.67,138.56 103.46,138.57 103.25,138.58 103.04,138.58 102.84,138.58 102.63,138.59 102.42,138.59 102.20,138.60 101.98,138.60 101.75,138.62 101.53,138.63 101.30,138.64 101.07,138.65 100.84,138.65 100.62,138.65 100.40,138.65 100.18,138.66 99.96,138.66 99.73,138.66 99.50,138.67 99.27,138.68 99.05,138.69 98.83,138.69 98.62,138.69 98.41,138.69 98.21,138.69 98.00,138.69 97.80,138.70 97.60,138.71 97.40,138.71 97.20,138.72 96.99,138.72 96.78,138.72 96.56,138.73 96.35,138.74 96.14,138.74 95.92,138.74 95.72,138.74 95.51,138.74 95.32,138.73 95.12,138.73 94.92,138.72 94.73,138.71 94.52,138.71 94.31,138.71 94.09,138.72 93.88,138.73 93.65,138.75 93.43,138.76 93.20,138.76 92.97,138.77 92.75,138.77 92.53,138.77 92.31,138.77 92.10,138.77 91.89,138.78 91.67,138.78 91.46,138.80 91.24,138.81 91.02,138.82 90.80,138.83 90.58,138.83 90.35,138.84 90.12,138.85 89.88,138.86 89.65,138.87 89.41,138.88 89.18,138.88 88.95,138.88 88.72,138.90 88.49,138.91 88.27,138.96 88.05,139.00 87.84,139.06 87.63,139.11 87.42,139.15 87.20,139.18 86.99,139.19 86.77,139.20 86.55,139.21 86.33,139.21 86.10,139.22 85.88,139.22 85.65,139.23 85.43,139.23 85.20,139.23 84.97,139.24 84.75,139.24 84.53,139.25 84.31,139.26 84.10,139.27 83.89,139.28 83.68,139.29 83.47,139.29 83.26,139.30 83.05,139.31 82.84,139.32 82.63,139.33 82.41,139.34 82.19,139.36 81.96,139.38 81.74,139.40 81.51,139.42 81.29,139.43 81.07,139.44 80.85,139.45 80.62,139.45 80.39,139.46 80.16,139.47 79.92,139.47 79.69,139.47 79.47,139.44 79.25,139.41 79.04,139.38 78.83,139.34 78.63,139.31 78.43,139.28 78.21,139.26 78.00,139.25 77.78,139.25 77.56,139.25 77.33,139.26 77.11,139.26 76.87,139.27 76.64,139.27 76.41,139.27 76.17,139.28 75.95,139.28 75.72,139.28 75.51,139.28 75.30,139.28 75.10,139.28 74.89,139.27 74.69,139.27 74.48,139.26 74.27,139.26 74.06,139.26 73.83,139.27 73.60,139.28 73.38,139.30 73.16,139.32 72.94,139.33 72.71,139.35 72.49,139.36 72.27,139.37 72.04,139.38 71.82,139.39 71.59,139.40 71.36,139.41 71.12,139.41 70.88,139.42 70.65,139.42 70.41,139.43 70.17,139.44 69.93,139.45 69.70,139.46 69.47,139.46 69.25,139.47 69.02,139.47 68.80,139.48 68.58,139.48 68.36,139.48 68.14,139.48 67.93,139.47 67.71,139.47 67.50,139.47 67.29,139.47 67.08,139.48 66.88,139.48 66.67,139.48 66.46,139.48 66.25,139.48 66.04,139.48 65.84,139.48 65.63,139.48 65.41,139.48 65.20,139.49 64.98,139.50 64.76,139.52 64.53,139.53 64.30,139.55 64.07,139.56 63.84,139.58 63.62,139.59 63.40,139.60 63.17,139.61 62.95,139.63 62.71,139.64 62.48,139.66 62.26,139.66 62.03,139.67 61.81,139.67 61.60,139.66 61.39,139.67 61.17,139.68 60.96,139.70 60.74,139.71 60.53,139.72 60.31,139.73 60.10,139.73 59.88,139.74 59.66,139.74 59.45,139.74 59.23,139.74 59.01,139.74 58.79,139.75 58.57,139.75 58.34,139.76 58.12,139.77 57.89,139.78 57.66,139.79 57.43,139.79 57.20,139.81 56.97,139.82 56.74,139.84 56.51,139.85 56.29,139.87 56.07,139.88 55.85,139.90 55.64,139.90 55.43,139.91 55.22,139.91 55.01,139.91 54.80,139.91 54.59,139.92 54.38,139.93 54.16,139.95 53.94,139.96 53.72,139.97 53.49,139.98 53.27,139.99 53.04,140.00 52.81,140.00 52.59,140.00 52.36,140.01 52.15,140.03 51.94,140.05 51.74,140.09 51.54,140.13 51.34,140.18 51.15,140.23 50.94,140.29 50.74,140.35 50.53,140.41 50.32,140.47 50.12,140.53 49.91,140.59 49.71,140.64 49.51,140.70 49.30,140.75 49.10,140.81 48.89,140.87 48.69,140.92 48.48,140.98 48.27,141.04 48.06,141.10 47.86,141.16 47.65,141.21 47.45,141.27 47.25,141.32 47.04,141.37 46.83,141.43 46.62,141.48 46.41,141.54 46.20,141.60 45.99,141.66 45.78,141.72 45.57,141.78 45.35,141.83 45.14,141.88 44.92,141.94 44.69,141.99 44.47,142.05 44.25,142.10 44.03,142.16 43.81,142.22 43.59,142.28 43.37,142.34 43.16,142.39 42.95,142.45 42.74,142.51 42.53,142.57 42.32,142.63 42.11,142.68 41.91,142.74 41.70,142.80 41.50,142.85 41.29,142.91 41.09,142.97 40.88,143.02 40.68,143.07 40.48,143.13 40.27,143.18 40.07,143.23 39.87,143.28 39.67,143.33 39.47,143.38 39.27,143.43 39.07,143.48 38.87,143.53 38.67,143.58 38.46,143.64 38.26,143.69 38.06,143.75 37.86,143.81 37.66,143.87 37.46,143.93 37.26,143.98 37.07,144.04 36.87,144.09 36.67,144.14 36.48,144.20 36.29,144.25 36.09,144.31 35.90,144.37 35.70,144.42 35.50,144.47 35.30,144.52 35.10,144.57 34.90,144.61 34.70,144.66 34.49,144.70 34.28,144.74 34.07,144.78 33.85,144.83 33.64,144.88 33.42,144.93 33.21,144.98 32.99,145.04 32.79,145.10 32.58,145.16 32.38,145.22 32.19,145.28 31.99,145.35 31.79,145.41 31.59,145.47 31.40,145.54 31.20,145.60 31.00,145.66 30.80,145.72 30.60,145.78 30.40,145.84 30.20,145.90 30.01,145.95 29.81,146.00 29.62,146.05 29.43,146.09 29.24,146.15 29.05,146.20 28.85,146.26 28.66,146.31 28.47,146.36 28.28,146.41 28.09,146.47 27.91,146.52 27.74,146.57 27.57,146.63 27.46,146.69 27.35,146.75 27.31,146.87 27.27,146.99 27.39,147.25 27.51,147.52 27.63,147.78 27.87,147.81 27.93,147.80 27.99,147.78 28.11,147.75 28.24,147.71 28.43,147.67 28.61,147.62 28.83,147.56 29.05,147.50 29.28,147.43 29.51,147.37 29.74,147.30 29.97,147.23 30.19,147.16 30.41,147.09 30.63,147.02 30.85,146.96 31.07,146.89 31.29,146.82 31.51,146.76 31.72,146.70 31.95,146.66 32.17,146.61 32.39,146.56 32.62,146.51 32.84,146.46 33.07,146.40 33.30,146.35 33.53,146.29 33.75,146.24 33.98,146.18 34.20,146.13 34.42,146.08 34.64,146.03 34.86,145.98 35.08,145.92 35.29,145.87 35.50,145.81 35.72,145.75 35.93,145.70 36.14,145.64 36.36,145.58 36.58,145.52 36.79,145.47 37.00,145.42 37.21,145.36 37.42,145.31 37.62,145.27 37.83,145.22 38.04,145.17 38.25,145.12 38.46,145.07 38.68,145.01 38.90,144.96 39.12,144.90 39.34,144.83 39.55,144.77 39.76,144.71 39.98,144.66 40.19,144.61 40.40,144.56 40.62,144.51 40.83,144.46 41.04,144.40 41.26,144.34 41.47,144.28 41.67,144.21 41.88,144.16 42.09,144.10 42.30,144.05 42.51,144.00 42.72,143.95 42.93,143.90 43.15,143.85 43.36,143.80 43.57,143.75 43.79,143.69 44.00,143.64 44.22,143.58 44.43,143.52 44.64,143.46 44.85,143.40 45.05,143.33 45.25,143.26 45.46,143.19 45.67,143.12 45.87,143.05 46.08,142.98 46.29,142.92 46.49,142.85 46.70,142.79 46.90,142.73 47.10,142.66 47.31,142.60 47.51,142.54 47.72,142.48 47.93,142.42 48.14,142.36 48.35,142.31 48.57,142.25 48.78,142.19 49.00,142.14 49.21,142.09 49.43,142.04 49.65,141.99 49.86,141.94 50.08,141.90 50.30,141.84 50.52,141.79 50.74,141.73 50.96,141.67 51.17,141.61 51.39,141.54 51.60,141.48 51.82,141.43 52.03,141.38 52.25,141.33 52.49,141.30 52.72,141.27 52.96,141.26 53.19,141.25 53.42,141.25 53.65,141.26 53.87,141.26 54.09,141.27 54.31,141.27 54.52,141.27 54.73,141.27 54.95,141.27 55.16,141.26 55.38,141.25 55.61,141.25 55.83,141.24 56.06,141.22 56.29,141.21 56.51,141.19 56.74,141.16 56.97,141.14 57.19,141.12 57.41,141.10 57.63,141.09 57.84,141.08 58.05,141.07 58.26,141.06 58.47,141.05 58.69,141.04 58.90,141.04 59.11,141.04 59.32,141.04 59.52,141.04 59.72,141.05 59.92,141.05 60.13,141.06 60.33,141.06 60.54,141.07 60.76,141.07 60.98,141.06 61.21,141.06 61.44,141.06 61.67,141.05 61.90,141.05 62.13,141.06 62.36,141.06 62.58,141.07 62.79,141.09 63.01,141.09 63.23,141.09 63.44,141.08 63.66,141.08 63.86,141.08 64.07,141.07 64.27,141.07 64.47,141.06 64.67,141.05 64.87,141.04 65.07,141.02 65.28,141.00 65.49,140.99 65.70,140.98 65.92,140.97 66.14,140.95 66.36,140.94 66.57,140.93 66.79,140.91 67.00,140.90 67.22,140.89 67.44,140.88 67.65,140.86 67.87,140.84 68.07,140.83 68.28,140.82 68.49,140.81 68.70,140.80 68.91,140.79 69.12,140.78 69.33,140.77 69.54,140.76 69.76,140.76 69.97,140.76 70.20,140.76 70.42,140.76 70.64,140.76 70.87,140.75 71.08,140.75 71.29,140.74 71.50,140.74 71.70,140.73 71.91,140.72 72.12,140.72 72.32,140.71 72.53,140.70 72.73,140.70 72.93,140.70 73.14,140.70 73.34,140.71 73.55,140.72 73.76,140.72 73.98,140.73 74.19,140.74 74.41,140.73 74.63,140.73 74.84,140.72 75.06,140.71 75.27,140.70 75.48,140.68 75.70,140.67 75.91,140.65 76.14,140.64 76.36,140.62 76.58,140.61 76.79,140.60 77.00,140.60 77.22,140.60 77.43,140.59 77.64,140.58 77.85,140.57 78.06,140.56 78.27,140.55 78.48,140.53 78.70,140.53 78.91,140.53 79.13,140.52 79.36,140.50 79.59,140.49 79.82,140.48 80.04,140.47 80.26,140.46 80.48,140.45 80.69,140.45 80.90,140.45 81.12,140.45 81.33,140.45 81.55,140.46 81.77,140.46 81.98,140.46 82.20,140.46 82.41,140.46 82.63,140.45 82.84,140.44 83.06,140.42 83.27,140.41 83.49,140.40 83.71,140.39 83.93,140.39 84.16,140.38 84.37,140.38 84.59,140.38 84.81,140.38 85.02,140.38 85.23,140.38 85.44,140.37 85.65,140.36 85.86,140.35 86.07,140.34 86.27,140.33 86.48,140.32 86.69,140.31 86.90,140.30 87.12,140.29 87.33,140.29 87.54,140.28 87.76,140.27 87.98,140.27 88.21,140.26 88.44,140.25 88.67,140.23 88.91,140.22 89.14,140.20 89.37,140.18 89.59,140.16 89.81,140.14 90.01,140.15 90.21,140.15 90.41,140.15 90.60,140.15 90.80,140.14 91.00,140.13 91.21,140.11 91.42,140.09 91.63,140.07 91.85,140.06 92.06,140.04 92.28,140.02 92.49,140.00 92.70,139.98 92.90,139.97 93.11,139.97 93.31,139.98 93.51,139.99 93.71,140.01 93.91,140.02 94.12,140.03 94.32,140.03 94.55,140.04 94.77,140.04 94.99,140.04 95.21,140.05 95.42,140.05 95.63,140.05 95.84,140.04 96.05,140.04 96.27,140.04 96.48,140.03 96.71,140.04 96.93,140.05 97.15,140.05 97.38,140.06 97.61,140.05 97.83,140.04 98.05,140.02 98.27,140.00 98.48,140.00 98.69,140.00 98.90,140.00 99.11,140.00 99.33,140.00 99.54,140.00 99.76,140.00 99.97,140.00 100.18,140.02 100.38,140.04 100.57,140.06 100.76,140.09 100.94,140.11 101.13,140.13 101.32,140.14 101.51,140.15 101.72,140.16 101.93,140.16 102.15,140.15 102.37,140.15 102.60,140.12 102.82,140.09 103.05,140.06 103.27,140.02 103.51,139.98 103.74,139.94 103.98,139.89 104.22,139.85 104.45,139.79 104.68,139.73 104.90,139.66 105.12,139.59 105.33,139.54 105.54,139.50 105.74,139.48 105.95,139.47 106.16,139.46 106.36,139.46 106.57,139.46 106.78,139.47 106.99,139.47 107.20,139.48 107.42,139.47 107.63,139.46 107.86,139.44 108.08,139.43 108.31,139.41 108.53,139.40 108.76,139.39 108.99,139.38 109.22,139.37 109.45,139.36 109.69,139.35 109.92,139.34 110.15,139.34 110.38,139.34 110.61,139.35 110.83,139.36 111.04,139.36 111.26,139.36 111.47,139.36 111.68,139.35 111.89,139.35 112.11,139.35 112.32,139.37 112.52,139.40 112.73,139.45 112.93,139.50 113.14,139.55 113.34,139.60 113.55,139.63 113.75,139.66 113.96,139.66 114.17,139.67 114.39,139.67 114.60,139.67 114.83,139.66 115.05,139.66 115.28,139.66 115.50,139.67 115.72,139.67 115.93,139.67 116.14,139.67 116.34,139.67 116.55,139.65 116.76,139.63 116.99,139.60 117.21,139.57 117.44,139.54 117.67,139.51 117.89,139.50 118.11,139.49 118.33,139.48 118.54,139.48 118.76,139.47 118.98,139.47 119.19,139.45 119.41,139.44 119.62,139.44 119.84,139.43 120.06,139.42 120.29,139.42 120.52,139.41 120.75,139.41 120.97,139.41 121.20,139.41 121.41,139.40 121.63,139.40 121.83,139.40 122.03,139.40 122.21,139.41 122.40,139.42 122.58,139.44 122.76,139.45 122.94,139.47 123.13,139.47 123.32,139.47 123.52,139.47 123.72,139.46 123.92,139.46 124.13,139.46 124.33,139.46 124.53,139.44 124.74,139.42 124.94,139.40 125.15,139.37 125.36,139.35 125.57,139.32 125.79,139.30 126.00,139.27 126.21,139.26 126.43,139.24 126.63,139.23 126.83,139.22 127.02,139.23 127.20,139.23 127.40,139.23 127.59,139.24 127.80,139.26 128.01,139.27 128.23,139.28 128.45,139.30 128.69,139.31 128.92,139.32 129.14,139.34 129.36,139.35 129.57,139.36 129.78,139.37 129.99,139.37 130.19,139.37 130.39,139.36 130.60,139.36 130.81,139.34 131.02,139.33 131.24,139.32 131.46,139.31 131.69,139.30 131.91,139.30 132.12,139.30 132.34,139.30 132.54,139.30 132.75,139.30 132.95,139.29 133.16,139.29 133.36,139.28 133.57,139.27 133.78,139.27 133.98,139.26 134.18,139.26 134.38,139.26 134.57,139.24 134.77,139.23 134.96,139.22 135.15,139.22 135.35,139.21 135.56,139.21 135.76,139.20 135.96,139.20 136.17,139.20 136.38,139.19 136.59,139.19 136.80,139.18 137.00,139.18 137.20,139.18 137.40,139.17 137.59,139.17 137.79,139.16 137.99,139.15 138.19,139.14 138.39,139.13 138.59,139.12 138.80,139.11 139.00,139.10 139.21,139.08 139.43,139.08 139.65,139.07 139.88,139.06 140.11,139.06 140.33,139.06 140.56,139.06 140.78,139.06 141.00,139.06 141.22,139.05 141.43,139.04 141.65,139.03 141.86,139.01 142.07,139.00 142.28,138.99 142.49,138.99 142.70,138.99 142.91,139.00 143.12,139.00 143.34,139.01 143.55,139.01 143.77,139.01 143.99,139.02 144.21,139.02 144.43,139.02 144.64,139.02 144.85,139.02 145.06,139.01 145.27,139.01 145.48,139.00 145.69,138.99 145.89,138.98 146.09,138.97 146.29,138.96 146.48,138.95 146.68,138.95 146.87,138.94 147.07,138.93 147.26,138.93 147.47,138.91 147.67,138.89 147.88,138.88 148.08,138.87 148.29,138.88 148.49,138.88 148.70,138.89 148.91,138.90 149.11,138.91 149.31,138.92 149.51,138.93 149.70,138.94 149.89,138.95 150.08,138.96 150.27,138.95 150.45,138.95 150.64,138.95 150.83,138.94 151.03,138.93 151.22,138.92 151.54,138.92 151.86,138.92 152.18,138.91 152.26,138.81 152.34,138.80 152.43,138.78 152.59,138.76 152.74,138.74 152.95,138.74 153.16,138.73 153.40,138.74 153.63,138.75 153.86,138.76 154.09,138.77 154.33,138.78 154.56,138.79 154.78,138.79 155.00,138.80 155.22,138.80 155.44,138.80 155.68,138.79 155.91,138.78 156.14,138.77 156.37,138.76 156.61,138.76 156.84,138.75 157.07,138.75 157.31,138.74 157.53,138.74 157.76,138.74 157.98,138.74 158.20,138.75 158.42,138.74 158.64,138.74 158.86,138.73 159.08,138.72 159.31,138.71 159.54,138.70 159.77,138.70 160.00,138.70 160.23,138.69 160.45,138.68 160.68,138.67 160.91,138.65 161.12,138.64 161.33,138.63 161.50,138.69 161.66,138.74 161.75,138.89 161.84,139.03 161.86,139.23 161.88,139.44 161.87,139.66 161.86,139.87 161.83,140.10 161.81,140.32 161.79,140.53 161.78,140.74 161.77,140.95 161.77,141.16 161.77,141.36 161.78,141.56 161.78,141.77 161.78,141.97 161.78,142.17 161.77,142.37 161.77,142.56 161.77,142.75 161.77,142.94 161.77,143.13 161.77,143.32 161.77,143.52 161.77,143.71 161.77,143.91 161.76,144.11 161.75,144.30 161.75,144.50 161.74,144.71 161.74,144.90 161.73,145.10 161.73,145.30 161.72,145.49 161.71,145.68 161.70,145.88 161.69,146.08 161.69,146.27 161.67,146.48 161.66,146.68 161.65,146.88 161.64,147.08 161.63,147.28 161.63,147.47 161.62,147.67 161.62,147.87 161.63,148.07 161.64,148.26 161.65,148.46 161.67,148.66 161.68,148.86 161.70,149.06 161.71,149.25 161.72,149.44 161.73,149.62 161.73,149.80 161.74,149.97 161.74,150.14 161.75,150.32 161.76,150.49 161.78,150.67 161.80,150.86 161.82,151.06 161.83,151.26 161.83,151.46 161.84,151.67 161.84,151.88 161.84,152.08 161.85,152.29 161.87,152.49 161.89,152.69 161.90,152.89 161.92,153.08 161.94,153.28 161.96,153.47 161.98,153.66 161.99,153.85 162.01,154.05 162.02,154.24 162.03,154.43 162.04,154.61 162.05,154.80 162.05,154.99 162.06,155.18 162.07,155.37 162.08,155.56 162.09,155.75 162.11,155.94 162.12,156.14 162.14,156.33 162.14,156.52 162.15,156.71 162.16,156.91 162.16,157.09 162.16,157.29 162.15,157.48 162.15,157.67 162.14,157.87 162.13,158.07 162.13,158.27 162.12,158.47 162.11,158.68 162.11,158.87 162.10,159.07 162.10,159.27 162.10,159.46 162.10,159.66 162.11,159.85 162.12,160.05 162.13,160.24 162.14,160.43 162.16,160.62 162.17,160.81 162.18,161.00 162.19,161.19 162.20,161.38 162.20,161.58 162.20,161.77 162.20,161.96 162.20,162.15 162.19,162.34 162.19,162.53 162.18,162.72 162.18,162.90 162.18,163.09 162.19,163.27 162.20,163.45 162.21,163.63 162.22,163.81 162.24,164.00 162.27,164.19 162.31,164.37 162.37,164.56 162.43,164.74 162.49,164.93 162.55,165.12 162.58,165.32 162.61,165.51 162.61,165.71 162.61,165.90 162.61,166.09 162.60,166.29 162.59,166.48 162.59,166.68 162.58,166.87 162.57,167.06 162.57,167.25 162.57,167.44 162.59,167.64 162.61,167.84 162.62,168.05 162.64,168.25 162.67,168.46 162.69,168.68 162.72,168.90 162.75,169.11 162.77,169.33 162.79,169.54 162.80,169.74 162.81,169.94 162.81,170.13 162.81,170.33 162.80,170.52 162.79,170.71 162.79,170.90 162.80,171.09 162.81,171.29 162.82,171.49 162.83,171.69 162.84,171.88 162.84,172.08 162.85,172.28 162.84,172.47 162.83,172.67 162.83,172.87 162.82,173.07 162.81,173.27 162.80,173.48 162.80,173.67 162.80,173.87 162.81,174.07 162.82,174.26 162.83,174.46 162.83,174.65 162.83,174.85 162.82,175.05 162.82,175.24 162.82,175.44 162.81,175.63 162.81,175.82 162.81,176.01 162.81,176.21 162.81,176.40 162.81,176.60 162.82,176.80 162.83,176.99 162.85,177.19 162.87,177.39 162.89,177.59 162.91,177.78 162.92,177.97 162.94,178.16 162.95,178.35 162.96,178.54 162.95,178.74 162.93,178.93 162.89,179.13 162.85,179.32 162.79,179.52 162.74,179.72 162.70,179.92 162.66,180.12 162.65,180.31 162.64,180.51 162.64,180.71 162.65,180.91 162.66,181.10 162.67,181.29 162.68,181.48 162.69,181.67 162.70,181.85 162.71,182.04 162.71,182.23 162.71,182.42 162.70,182.60 162.69,182.79 162.69,182.97 162.68,183.15 162.68,183.34 162.69,183.53 162.71,183.72 162.73,183.92 162.75,184.11 162.77,184.30 162.78,184.49 162.79,184.67 162.79,184.87 162.80,185.07 162.80,185.27 162.80,185.47 162.80,185.68 162.80,185.89 162.81,186.09 162.81,186.30 162.82,186.50 162.83,186.70 162.84,186.90 162.85,187.10 162.86,187.31 162.87,187.51 162.88,187.72 162.88,187.92 162.89,188.11 162.89,188.30 162.89,188.49 162.89,188.68 162.88,188.88 162.87,189.07 162.87,189.27 162.86,189.47 162.86,189.67 162.85,189.87 162.86,190.07 162.86,190.27 162.87,190.49 162.89,190.70 162.91,190.92 162.94,191.13 162.96,191.34 162.98,191.55 163.00,191.76 163.01,191.97 163.02,192.17 163.02,192.37 163.02,192.56 163.01,192.75 163.01,192.94 163.00,193.13 163.00,193.32 163.00,193.50 163.02,193.66 163.03,193.82 163.11,193.93 163.19,194.04 163.33,194.05 163.47,194.06 163.61,193.96 163.76,193.85 163.86,193.65 163.96,193.45 164.01,193.21 164.06,192.97 164.08,192.73 164.09,192.48 164.08,192.26 164.07,192.04 164.06,191.83 164.05,191.62 164.03,191.41 164.02,191.20 164.01,190.99 164.00,190.78 163.98,190.57 163.95,190.36 163.93,190.15 163.91,189.95 163.90,189.75 163.89,189.55 163.89,189.36 163.88,189.17 163.88,188.99 163.88,188.81 163.88,188.64 163.88,188.47 163.87,188.29 163.86,188.11 163.86,187.92 163.86,187.73 163.86,187.54 163.86,187.36 163.86,187.18 163.86,187.00 163.86,186.82 163.86,186.63 163.85,186.42 163.84,186.22 163.83,186.00 163.83,185.79 163.83,185.58 163.82,185.37 163.82,185.17 163.82,184.97 163.82,184.77 163.82,184.57 163.81,184.37 163.81,184.17 163.81,183.97 163.81,183.76 163.81,183.57 163.82,183.37 163.82,183.18 163.82,182.99 163.82,182.81 163.82,182.62 163.81,182.43 163.81,182.24 163.80,182.04 163.79,181.84 163.78,181.64 163.77,181.43 163.76,181.22 163.76,181.01 163.76,180.79 163.77,180.58 163.78,180.36 163.80,180.15 163.81,179.95 163.83,179.74 163.83,179.54 163.83,179.34 163.81,179.14 163.79,178.94 163.75,178.74 163.71,178.54 163.69,178.34 163.67,178.14 163.68,177.95 163.69,177.75 163.71,177.57 163.73,177.37 163.74,177.19 163.76,177.00 163.77,176.82 163.77,176.63 163.77,176.45 163.76,176.27 163.76,176.09 163.75,175.90 163.73,175.70 163.71,175.50 163.69,175.29 163.67,175.08 163.66,174.86 163.64,174.65 163.61,174.43 163.58,174.21 163.54,174.00 163.51,173.79 163.50,173.58 163.48,173.38 163.48,173.19 163.47,172.99 163.48,172.80 163.48,172.62 163.48,172.43 163.49,172.24 163.48,172.05 163.48,171.85 163.48,171.66 163.47,171.46 163.48,171.26 163.49,171.06 163.53,170.87 163.58,170.68 163.63,170.50 163.69,170.32 163.73,170.14 163.76,169.96 163.77,169.77 163.79,169.57 163.79,169.38 163.79,169.18 163.78,168.97 163.78,168.77 163.76,168.56 163.75,168.35 163.73,168.14 163.71,167.93 163.71,167.73 163.70,167.53 163.70,167.32 163.69,167.12 163.69,166.92 163.68,166.72 163.68,166.52 163.67,166.32 163.67,166.12 163.66,165.92 163.65,165.72 163.64,165.51 163.63,165.31 163.62,165.10 163.61,164.89 163.60,164.68 163.59,164.47 163.58,164.27 163.58,164.06 163.57,163.86 163.57,163.66 163.58,163.46 163.58,163.27 163.59,163.07 163.59,162.88 163.60,162.69 163.60,162.51 163.60,162.32 163.60,162.14 163.59,161.95 163.59,161.76 163.59,161.57 163.59,161.39 163.59,161.20 163.59,161.02 163.59,160.83 163.59,160.64 163.59,160.45 163.59,160.26 163.60,160.07 163.60,159.89 163.60,159.70 163.60,159.51 163.60,159.32 163.60,159.13 163.59,158.94 163.59,158.74 163.58,158.54 163.58,158.34 163.57,158.14 163.56,157.94 163.56,157.74 163.55,157.54 163.55,157.33 163.54,157.12 163.53,156.91 163.52,156.71 163.50,156.50 163.49,156.29 163.48,156.08 163.48,155.89 163.47,155.69 163.47,155.49 163.47,155.30 163.47,155.10 163.47,154.90 163.46,154.71 163.45,154.51 163.45,154.31 163.44,154.11 163.44,153.92 163.44,153.73 163.43,153.55 163.42,153.36 163.40,153.17 163.39,152.99 163.37,152.81 163.36,152.63 163.34,152.46 163.31,152.28 163.30,152.11 163.28,151.93 163.28,151.75 163.28,151.57 163.28,151.38 163.27,151.20 163.27,151.00 163.27,150.81 163.27,150.62 163.27,150.42 163.27,150.22 163.27,150.02 163.26,149.82 163.25,149.63 163.25,149.43 163.24,149.23 163.23,149.03 163.22,148.83 163.22,148.63 163.21,148.42 163.20,148.22 163.19,148.01 163.18,147.80 163.17,147.60 163.15,147.39 163.14,147.18 163.14,146.98 163.13,146.78 163.13,146.58 163.13,146.39 163.14,146.20 163.14,146.01 163.14,145.82 163.14,145.63 163.14,145.44 163.15,145.25 163.15,145.06 163.15,144.87 163.16,144.68 163.16,144.50 163.16,144.31 163.16,144.13 163.16,143.96 163.15,143.79 163.14,143.62 163.12,143.45 163.11,143.27 163.10,143.10 163.09,142.92 163.08,142.75 163.07,142.57 163.05,142.39 163.04,142.21 163.03,142.04 163.02,141.85 163.01,141.66 163.01,141.47 163.01,141.28 163.01,141.08 163.01,140.89 163.01,140.70 163.01,140.51 163.01,140.32 163.01,140.13 163.02,139.94 163.02,139.74 163.03,139.55 163.04,139.36 163.06,139.19 163.08,139.02 163.14,138.89 163.20,138.77 163.34,138.72 163.47,138.66 163.66,138.66 163.84,138.66 164.04,138.67 164.24,138.69 164.45,138.69 164.65,138.70 164.85,138.71 165.05,138.71 165.24,138.71 165.44,138.71 165.64,138.70 165.84,138.69 166.04,138.69 166.25,138.68 166.47,138.67 166.69,138.67 166.91,138.66 167.13,138.65 167.36,138.64 167.58,138.63 167.80,138.62 168.03,138.60 168.24,138.60 168.46,138.60 168.68,138.61 168.90,138.62 169.12,138.62 169.34,138.62 169.55,138.61 169.77,138.59 169.95,138.60 170.14,138.60 170.26,138.68 170.37,138.76 170.42,138.92 170.46,139.08 170.46,139.28 170.46,139.47 170.46,139.67 170.45,139.87 170.45,140.09 170.44,140.30 170.44,140.52 170.43,140.74 170.43,140.96 170.43,141.18 170.44,141.39 170.45,141.60 170.47,141.80 170.48,142.00 170.49,142.19 170.49,142.39 170.49,142.59 170.49,142.80 170.48,142.99 170.47,143.19 170.46,143.38 170.45,143.58 170.45,143.77 170.44,143.96 170.44,144.15 170.44,144.33 170.45,144.51 170.45,144.69 170.45,144.87 170.44,145.04 170.44,145.22 170.43,145.39 170.42,145.57 170.41,145.75 170.40,145.93 170.40,146.11 170.40,146.29 170.41,146.46 170.42,146.65 170.43,146.83 170.45,147.01 170.47,147.19 170.48,147.37 170.50,147.55 170.51,147.74 170.52,147.93 170.54,148.12 170.56,148.31 170.57,148.49 170.57,148.67 170.57,148.84 170.57,149.00 170.55,149.17 170.53,149.34 170.49,149.51 170.46,149.69 170.44,149.86 170.43,150.03 170.43,150.20 170.44,150.36 170.48,150.51 170.51,150.65 170.54,150.80 170.58,150.95 170.58,151.12 170.59,151.29 170.58,151.48 170.57,151.66 170.55,151.85 170.54,152.04 170.52,152.23 170.50,152.42 170.49,152.60 170.48,152.78 170.49,152.97 170.50,153.15 170.51,153.34 170.52,153.53 170.53,153.72 170.54,153.91 170.55,154.09 170.56,154.28 170.58,154.47 170.59,154.66 170.61,154.85 170.62,155.04 170.62,155.23 170.61,155.41 170.59,155.59 170.58,155.77 170.58,155.95 170.57,156.14 170.58,156.32 170.59,156.51 170.61,156.69 170.63,156.88 170.65,157.07 170.67,157.26 170.68,157.46 170.69,157.65 170.71,157.85 170.73,158.05 170.74,158.24 170.76,158.43 170.77,158.62 170.79,158.80 170.81,159.00 170.83,159.19 170.85,159.39 170.87,159.59 170.89,159.79 170.91,159.99 170.93,160.19 170.95,160.38 170.97,160.58 170.99,160.77 171.00,160.96 171.00,161.15 171.00,161.34 171.00,161.53 171.00,161.72 171.00,161.91 171.00,162.10 171.00,162.29 170.99,162.47 170.99,162.65 170.98,162.83 170.97,163.02 170.97,163.20 170.97,163.39 170.98,163.58 170.99,163.77 171.01,163.96 171.03,164.15 171.08,164.33 171.13,164.52 171.20,164.69 171.26,164.87 171.31,165.05 171.36,165.23 171.38,165.42 171.40,165.60 171.41,165.79 171.42,165.98 171.43,166.16 171.44,166.35 171.45,166.53 171.47,166.72 171.48,166.92 171.50,167.11 171.52,167.31 171.54,167.51 171.56,167.71 171.58,167.91 171.59,168.11 171.60,168.31 171.61,168.51 171.63,168.72 171.64,168.92 171.65,169.12 171.66,169.32 171.67,169.53 171.68,169.73 171.69,169.94 171.71,170.14 171.72,170.34 171.73,170.54 171.74,170.74 171.74,170.94 171.74,171.14 171.74,171.33 171.73,171.53 171.73,171.72 171.72,171.92 171.72,172.10 171.71,172.29 171.71,172.47 171.72,172.65 171.72,172.84 171.73,173.02 171.74,173.20 171.76,173.38 171.77,173.57 171.79,173.75 171.80,173.94 171.81,174.13 171.83,174.32 171.84,174.52 171.85,174.72 171.86,174.92 171.87,175.12 171.87,175.31 171.86,175.51 171.86,175.70 171.85,175.89 171.84,176.09 171.83,176.28 171.82,176.48 171.82,176.67 171.81,176.86 171.81,177.05 171.81,177.24 171.81,177.43 171.80,177.61 171.81,177.81 171.81,178.00 171.82,178.19 171.83,178.38 171.84,178.58 171.85,178.78 171.86,178.98 171.86,179.18 171.87,179.38 171.88,179.57 171.89,179.78 171.89,179.98 171.90,180.18 171.91,180.37 171.91,180.56 171.92,180.75 171.93,180.94 171.93,181.13 171.94,181.32 171.94,181.52 171.94,181.72 171.94,181.93 171.95,182.13 171.95,182.33 171.95,182.53 171.94,182.73 171.94,182.92 171.93,183.12 171.92,183.32 171.91,183.52 171.89,183.71 171.88,183.91 171.87,184.10 171.86,184.29 171.87,184.48 171.87,184.67 171.88,184.86 171.89,185.05 171.91,185.24 171.92,185.43 171.94,185.62 171.96,185.80 171.98,185.99 172.00,186.18 172.02,186.38 172.03,186.57 172.04,186.77 172.06,186.97 172.05,187.17 172.05,187.38 172.05,187.57 172.05,187.77 172.06,187.97 172.08,188.16 172.10,188.35 172.12,188.55 172.14,188.75 172.17,188.95 172.18,189.15 172.20,189.35 172.21,189.56 172.21,189.76 172.22,189.97 172.22,190.17 172.23,190.38 172.23,190.58 172.23,190.77 172.22,190.97 172.22,191.15 172.21,191.34 172.21,191.53 172.21,191.72 172.22,191.92 172.23,192.11 172.24,192.31 172.25,192.50 172.26,192.69 172.27,192.89 172.27,193.08 172.27,193.28 172.27,193.46 172.27,193.65 172.33,193.77 172.38,193.90 172.51,193.95 172.65,193.99 172.80,193.95 172.96,193.90 173.06,193.75 173.17,193.61 173.21,193.40 173.26,193.20 173.26,192.97 173.27,192.75 173.25,192.51 173.23,192.28 173.21,192.06 173.19,191.84 173.17,191.62 173.15,191.41 173.13,191.20 173.12,190.99 173.11,190.79 173.10,190.60 173.09,190.40 173.08,190.20 173.08,190.00 173.07,189.80 173.07,189.59 173.06,189.38 173.06,189.18 173.05,188.97 173.04,188.77 173.03,188.57 173.02,188.37 173.01,188.18 173.00,188.00 172.99,187.81 172.99,187.63 172.98,187.45 172.98,187.26 172.97,187.07 172.96,186.88 172.94,186.70 172.93,186.51 172.92,186.32 172.92,186.14 172.92,185.95 172.94,185.77 172.96,185.58 172.97,185.39 172.98,185.19 172.98,185.00 172.97,184.80 172.97,184.60 172.97,184.41 172.97,184.22 172.96,184.02 172.95,183.84 172.94,183.65 172.92,183.47 172.91,183.29 172.89,183.12 172.86,182.95 172.84,182.78 172.83,182.61 172.82,182.43 172.81,182.26 172.81,182.07 172.81,181.89 172.82,181.71 172.82,181.52 172.82,181.32 172.82,181.12 172.82,180.92 172.82,180.71 172.81,180.51 172.79,180.31 172.78,180.11 172.76,179.92 172.75,179.72 172.74,179.53 172.73,179.34 172.73,179.15 172.72,178.96 172.72,178.77 172.73,178.59 172.73,178.40 172.74,178.21 172.75,178.03 172.76,177.84 172.77,177.65 172.77,177.46 172.77,177.27 172.77,177.08 172.77,176.88 172.76,176.69 172.75,176.49 172.74,176.30 172.74,176.11 172.74,175.92 172.74,175.73 172.74,175.54 172.73,175.36 172.73,175.17 172.73,174.98 172.73,174.78 172.72,174.58 172.72,174.39 172.72,174.19 172.73,174.00 172.73,173.80 172.74,173.62 172.75,173.43 172.75,173.25 172.75,173.06 172.75,172.88 172.75,172.70 172.75,172.52 172.75,172.34 172.75,172.16 172.75,171.98 172.73,171.80 172.72,171.63 172.70,171.46 172.69,171.29 172.68,171.12 172.67,170.95 172.67,170.78 172.66,170.62 172.65,170.45 172.65,170.29 172.64,170.12 172.63,169.95 172.61,169.77 172.60,169.59 172.59,169.41 172.58,169.22 172.58,169.03 172.57,168.83 172.57,168.64 172.56,168.44 172.55,168.25 172.54,168.05 172.53,167.86 172.52,167.66 172.51,167.48 172.51,167.29 172.51,167.11 172.51,166.93 172.51,166.76 172.52,166.58 172.51,166.40 172.51,166.22 172.49,166.03 172.48,165.84 172.47,165.65 172.45,165.47 172.43,165.28 172.41,165.09 172.39,164.89 172.36,164.70 172.35,164.51 172.33,164.32 172.32,164.13 172.31,163.94 172.31,163.75 172.31,163.56 172.31,163.37 172.31,163.17 172.31,162.97 172.31,162.77 172.32,162.57 172.32,162.36 172.32,162.19 172.32,162.01 172.32,161.83 172.32,161.65 172.32,161.46 172.32,161.26 172.32,161.06 172.32,160.86 172.32,160.66 172.31,160.46 172.30,160.28 172.30,160.09 172.30,159.90 172.29,159.72 172.30,159.53 172.30,159.35 172.30,159.15 172.31,158.95 172.31,158.75 172.31,158.54 172.31,158.33 172.31,158.12 172.31,157.92 172.31,157.71 172.29,157.49 172.27,157.28 172.26,157.07 172.24,156.86 172.23,156.65 172.21,156.44 172.21,156.24 172.20,156.04 172.19,155.84 172.18,155.64 172.17,155.45 172.15,155.25 172.14,155.05 172.12,154.85 172.12,154.66 172.11,154.46 172.11,154.26 172.11,154.07 172.10,153.87 172.09,153.67 172.08,153.48 172.07,153.28 172.07,153.09 172.06,152.89 172.04,152.69 172.03,152.50 172.02,152.30 172.01,152.10 171.99,151.90 171.98,151.71 171.97,151.51 171.95,151.31 171.95,151.11 171.94,150.90 171.94,150.69 171.94,150.48 171.95,150.28 171.96,150.07 171.96,149.89 171.97,149.70 171.97,149.53 171.97,149.35 171.97,149.18 171.97,149.01 171.97,148.83 171.97,148.66 171.96,148.47 171.95,148.28 171.94,148.09 171.94,147.90 171.94,147.72 171.94,147.54 171.94,147.35 171.94,147.17 171.94,146.98 171.93,146.80 171.92,146.60 171.91,146.41 171.90,146.22 171.89,146.02 171.89,145.84 171.88,145.65 171.87,145.47 171.87,145.30 171.86,145.11 171.85,144.93 171.83,144.73 171.82,144.54 171.80,144.35 171.79,144.16 171.79,143.98 171.78,143.80 171.78,143.62 171.77,143.43 171.77,143.25 171.76,143.06 171.75,142.86 171.74,142.67 171.73,142.47 171.72,142.28 171.71,142.08 171.69,141.89 171.69,141.68 171.68,141.48 171.68,141.27 171.68,141.06 171.69,140.87 171.69,140.68 171.69,140.50 171.69,140.32 171.68,140.15 171.68,139.99 171.67,139.81 171.67,139.64 171.66,139.44 171.64,139.25 171.63,139.04 171.62,138.84 171.64,138.68 171.65,138.51 171.72,138.44 171.79,138.36 171.94,138.36 172.10,138.35 172.31,138.36 172.52,138.38 172.76,138.39 173.00,138.41 173.25,138.42 173.49,138.43 173.74,138.43 173.98,138.43 174.20,138.43 174.43,138.43 174.65,138.43 174.88,138.43 175.10,138.43 175.33,138.43 175.56,138.43 175.79,138.42 176.02,138.42 176.25,138.41 176.48,138.41 176.72,138.40 176.94,138.39 177.16,138.38 177.38,138.37 177.60,138.35 177.82,138.34 178.04,138.32 178.22,138.34 178.41,138.35 178.50,138.45 178.59,138.55 178.61,138.72 178.62,138.89 178.59,139.10 178.57,139.30 178.54,139.52 178.51,139.74 178.49,139.95 178.46,140.16 178.45,140.37 178.44,140.57 178.44,140.77 178.44,140.97 178.44,141.15 178.44,141.33 178.46,141.51 178.48,141.70 178.51,141.89 178.53,142.09 178.54,142.30 178.56,142.51 178.56,142.70 178.55,142.90 178.55,143.09 178.54,143.28 178.55,143.48 178.55,143.67 178.56,143.86 178.57,144.05 178.59,144.24 178.61,144.43 178.62,144.62 178.63,144.81 178.63,145.00 178.64,145.20 178.64,145.40 178.65,145.59 178.66,145.79 178.67,145.99 178.68,146.17 178.69,146.36 178.69,146.54 178.70,146.73 178.70,146.92 178.71,147.11 178.71,147.30 178.71,147.49 178.74,147.67 178.76,147.85 178.81,148.03 178.87,148.21 178.91,148.41 178.96,148.61 179.00,148.81 179.04,149.02 179.07,149.23 179.11,149.44 179.14,149.64 179.16,149.84 179.16,150.03 179.16,150.22 179.14,150.41 179.12,150.60 179.11,150.80 179.09,150.99 179.09,151.19 179.08,151.39 179.09,151.58 179.09,151.78 179.11,151.97 179.12,152.16 179.14,152.36 179.15,152.55 179.16,152.74 179.17,152.93 179.18,153.11 179.19,153.30 179.20,153.47 179.21,153.65 179.22,153.83 179.23,154.01 179.23,154.20 179.23,154.39 179.24,154.59 179.24,154.79 179.24,154.99 179.24,155.20 179.21,155.40 179.17,155.59 179.10,155.79 179.04,155.98 178.97,156.18 178.91,156.37 178.88,156.57 178.85,156.76 178.85,156.95 178.84,157.14 178.85,157.33 178.86,157.52 178.88,157.71 178.90,157.89 178.92,158.08 178.94,158.26 178.96,158.45 178.98,158.65 179.00,158.84 179.01,159.04 179.02,159.23 179.02,159.43 179.02,159.62 179.02,159.81 179.03,160.00 179.03,160.20 179.03,160.39 179.03,160.58 179.03,160.78 179.03,160.98 179.02,161.18 179.02,161.38 178.99,161.57 178.96,161.77 178.94,161.95 178.91,162.13 178.90,162.32 178.88,162.50 178.89,162.69 178.89,162.87 178.90,163.06 178.92,163.25 178.94,163.45 178.97,163.64 179.00,163.85 179.03,164.05 179.06,164.26 179.09,164.47 179.12,164.68 179.15,164.89 179.19,165.09 179.22,165.30 179.24,165.49 179.27,165.69 179.28,165.88 179.29,166.08 179.29,166.27 179.29,166.47 179.29,166.66 179.29,166.86 179.30,167.05 179.30,167.24 179.31,167.43 179.32,167.62 179.33,167.80 179.35,167.98 179.35,168.15 179.36,168.33 179.37,168.50 179.37,168.67 179.38,168.86 179.38,169.04 179.38,169.23 179.38,169.43 179.38,169.62 179.39,169.82 179.39,170.01 179.39,170.20 179.39,170.40 179.40,170.59 179.42,170.79 179.43,170.98 179.45,171.17 179.47,171.36 179.50,171.55 179.53,171.74 179.56,171.92 179.58,172.10 179.57,172.27 179.56,172.44 179.54,172.60 179.51,172.77 179.50,172.94 179.48,173.12 179.49,173.30 179.49,173.49 179.50,173.69 179.52,173.89 179.53,174.09 179.54,174.29 179.54,174.50 179.55,174.70 179.55,174.90 179.55,175.11 179.54,175.30 179.54,175.50 179.53,175.70 179.52,175.89 179.51,176.09 179.50,176.28 179.49,176.49 179.49,176.69 179.48,176.89 179.48,177.10 179.48,177.31 179.48,177.52 179.48,177.72 179.48,177.92 179.48,178.11 179.48,178.29 179.48,178.48 179.48,178.67 179.50,178.86 179.51,179.06 179.54,179.26 179.57,179.46 179.59,179.66 179.60,179.85 179.60,180.04 179.60,180.23 179.60,180.41 179.59,180.59 179.60,180.77 179.60,180.95 179.61,181.14 179.62,181.32 179.64,181.51 179.66,181.69 179.69,181.88 179.72,182.06 179.73,182.25 179.75,182.43 179.76,182.61 179.77,182.78 179.77,182.97 179.77,183.15 179.77,183.35 179.77,183.55 179.77,183.76 179.78,183.97 179.79,184.18 179.79,184.39 179.81,184.60 179.82,184.80 179.83,184.99 179.83,185.19 179.84,185.37 179.84,185.55 179.85,185.74 179.86,185.93 179.87,186.13 179.88,186.32 179.88,186.52 179.89,186.71 179.91,186.92 179.93,187.12 179.96,187.32 179.99,187.53 180.01,187.73 180.04,187.93 180.05,188.13 180.06,188.33 180.07,188.53 180.07,188.72 180.06,188.92 180.06,189.10 180.06,189.31 180.05,189.52 180.05,189.73 180.05,189.95 180.05,190.17 180.04,190.38 180.04,190.59 180.04,190.81 180.04,191.01 180.04,191.22 180.05,191.43 180.05,191.64 180.06,191.84 180.07,192.05 180.09,192.26 180.11,192.47 180.13,192.67 180.14,192.88 180.15,193.08 180.15,193.28 180.16,193.44 180.16,193.61 180.21,193.71 180.26,193.81 180.39,193.84 180.52,193.87 180.70,193.85 180.89,193.82 181.08,193.76 181.27,193.69 181.40,193.56 181.54,193.43 181.61,193.24 181.68,193.05 181.69,192.83 181.71,192.61 181.69,192.37 181.67,192.14 181.64,191.90 181.61,191.67 181.59,191.44 181.56,191.22 181.54,191.00 181.51,190.77 181.49,190.56 181.46,190.34 181.45,190.13 181.43,189.92 181.43,189.72 181.42,189.52 181.42,189.31 181.41,189.11 181.41,188.91 181.40,188.71 181.39,188.51 181.37,188.32 181.35,188.12 181.33,187.92 181.31,187.72 181.30,187.52 181.29,187.32 181.28,187.11 181.27,186.91 181.25,186.70 181.24,186.50 181.23,186.29 181.22,186.10 181.20,185.91 181.19,185.71 181.18,185.52 181.18,185.32 181.17,185.13 181.16,184.94 181.15,184.75 181.14,184.58 181.12,184.40 181.11,184.22 181.10,184.03 181.10,183.85 181.10,183.67 181.09,183.48 181.08,183.29 181.07,183.09 181.05,182.90 181.05,182.71 181.04,182.51 181.04,182.31 181.04,182.11 181.04,181.92 181.04,181.72 181.05,181.52 181.05,181.32 181.05,181.13 181.06,180.93 181.05,180.73 181.04,180.53 181.03,180.33 181.03,180.12 181.02,179.91 181.02,179.71 181.03,179.51 181.04,179.32 181.07,179.13 181.09,178.95 181.10,178.77 181.11,178.58 181.11,178.40 181.10,178.22 181.09,178.03 181.08,177.85 181.06,177.66 181.04,177.47 181.03,177.28 181.03,177.10 181.02,176.92 181.02,176.75 181.02,176.57 181.03,176.40 181.02,176.22 181.02,176.04 181.02,175.85 181.01,175.66 181.01,175.45 181.00,175.25 180.99,175.03 180.98,174.81 180.98,174.60 180.97,174.38 180.96,174.18 180.95,173.98 180.94,173.78 180.93,173.59 180.89,173.38 180.86,173.18 180.82,172.98 180.79,172.78 180.76,172.58 180.74,172.38 180.72,172.18 180.70,171.98 180.68,171.79 180.67,171.60 180.66,171.41 180.66,171.21 180.66,171.02 180.67,170.82 180.68,170.62 180.70,170.42 180.72,170.22 180.73,170.02 180.74,169.81 180.74,169.61 180.73,169.40 180.72,169.19 180.71,168.98 180.70,168.76 180.69,168.55 180.68,168.34 180.66,168.14 180.64,167.94 180.63,167.73 180.62,167.53 180.61,167.32 180.60,167.11 180.61,166.90 180.61,166.69 180.62,166.49 180.63,166.28 180.63,166.09 180.64,165.91 180.64,165.72 180.64,165.54 180.64,165.36 180.64,165.19 180.64,165.01 180.65,164.84 180.65,164.66 180.65,164.48 180.65,164.29 180.65,164.10 180.66,163.90 180.66,163.70 180.66,163.50 180.66,163.30 180.66,163.10 180.66,162.90 180.65,162.70 180.65,162.50 180.64,162.30 180.64,162.10 180.63,161.90 180.63,161.70 180.62,161.51 180.62,161.32 180.61,161.14 180.60,160.96 180.60,160.79 180.59,160.61 180.58,160.42 180.58,160.23 180.57,160.04 180.57,159.85 180.56,159.65 180.55,159.45 180.55,159.24 180.54,159.03 180.52,158.82 180.51,158.62 180.49,158.41 180.47,158.20 180.44,158.00 180.42,157.80 180.40,157.60 180.39,157.39 180.38,157.20 180.38,157.00 180.37,156.81 180.37,156.62 180.36,156.43 180.35,156.24 180.35,156.06 180.35,155.87 180.36,155.69 180.37,155.52 180.38,155.34 180.39,155.16 180.38,154.99 180.38,154.81 180.38,154.62 180.38,154.43 180.38,154.24 180.38,154.04 180.39,153.84 180.40,153.64 180.41,153.44 180.41,153.24 180.41,153.04 180.41,152.83 180.40,152.64 180.39,152.44 180.37,152.25 180.36,152.05 180.35,151.85 180.34,151.65 180.34,151.45 180.33,151.25 180.34,151.04 180.35,150.84 180.35,150.64 180.35,150.44 180.36,150.25 180.36,150.06 180.37,149.87 180.38,149.68 180.37,149.49 180.36,149.30 180.35,149.11 180.34,148.92 180.33,148.72 180.32,148.51 180.31,148.31 180.30,148.10 180.30,147.89 180.29,147.68 180.29,147.49 180.29,147.30 180.28,147.12 180.28,146.95 180.27,146.77 180.26,146.59 180.26,146.40 180.26,146.22 180.27,146.04 180.29,145.86 180.28,145.67 180.28,145.47 180.26,145.26 180.23,145.05 180.21,144.85 180.18,144.65 180.17,144.45 180.15,144.25 180.15,144.06 180.15,143.86 180.15,143.67 180.16,143.47 180.17,143.27 180.17,143.08 180.18,142.88 180.18,142.68 180.17,142.48 180.16,142.28 180.15,142.09 180.13,141.89 180.12,141.69 180.11,141.48 180.10,141.28 180.09,141.08 180.10,140.89 180.10,140.69 180.11,140.49 180.11,140.29 180.11,140.09 180.11,139.88 180.10,139.68 180.09,139.48 180.08,139.28 180.06,139.08 180.06,138.89 180.05,138.70 180.09,138.56 180.14,138.42 180.26,138.35 180.38,138.28 180.56,138.26 180.73,138.24 180.94,138.27 181.15,138.29 181.36,138.32 181.58,138.35 181.80,138.36 182.02,138.37 182.24,138.36 182.45,138.36 182.66,138.37 182.86,138.39 183.04,138.48 183.21,138.57 183.33,138.73 183.46,138.89 183.56,139.07 183.66,139.26 183.76,139.45 183.85,139.64 183.92,139.82 184.00,140.00 184.07,140.18 184.14,140.36 184.22,140.53 184.30,140.71 184.38,140.89 184.47,141.06 184.55,141.24 184.63,141.42 184.72,141.59 184.80,141.77 184.91,141.95 185.01,142.13 185.11,142.32 185.22,142.50 185.32,142.69 185.43,142.89 185.54,143.07 185.65,143.26 185.76,143.44 185.86,143.62 185.97,143.81 186.08,143.99 186.19,144.18 186.30,144.36 186.41,144.54 186.53,144.73 186.64,144.91 186.75,145.10 186.87,145.29 186.99,145.48 187.11,145.66 187.22,145.85 187.33,146.03 187.44,146.21 187.52,146.39 187.61,146.57 187.69,146.74 187.77,146.91 187.85,147.08 187.94,147.25 188.05,147.42 188.15,147.59 188.26,147.76 188.37,147.93 188.46,148.11 188.55,148.28 188.64,148.45 188.73,148.62 188.83,148.80 188.93,148.97 189.03,149.14 189.13,149.31 189.23,149.48 189.33,149.65 189.41,149.83 189.48,150.01 189.45,150.17 189.43,150.33 189.28,150.43 189.13,150.53 188.91,150.57 188.69,150.61 188.46,150.64 188.23,150.67 188.03,150.75 187.83,150.84 187.70,150.98 187.57,151.13 187.51,151.32 187.44,151.51 187.43,151.72 187.42,151.93 187.43,152.15 187.44,152.36 187.46,152.56 187.48,152.77 187.50,152.97 187.51,153.16 187.54,153.36 187.56,153.56 187.58,153.76 187.60,153.96 187.62,154.16 187.64,154.36 187.65,154.57 187.67,154.78 187.67,154.99 187.68,155.20 187.68,155.40 187.68,155.60 187.69,155.80 187.70,155.99 187.71,156.18 187.72,156.37 187.73,156.56 187.73,156.74 187.72,156.94 187.71,157.13 187.69,157.33 187.67,157.53 187.67,157.73 187.66,157.93 187.66,158.13 187.66,158.33 187.67,158.54 187.68,158.74 187.69,158.94 187.70,159.15 187.71,159.35 187.73,159.55 187.75,159.75 187.76,159.95 187.78,160.15 187.80,160.36 187.82,160.56 187.84,160.77 187.85,160.98 187.86,161.19 187.86,161.40 187.86,161.61 187.85,161.83 187.84,162.04 187.82,162.24 187.80,162.45 187.80,162.66 187.79,162.86 187.79,163.08 187.79,163.29 187.78,163.50 187.78,163.71 187.78,163.92 187.78,164.13 187.79,164.33 187.80,164.53 187.81,164.73 187.82,164.93 187.82,165.12 187.82,165.32 187.83,165.53 187.84,165.73 187.86,165.95 187.87,166.16 187.89,166.38 187.92,166.59 187.91,166.80 187.91,167.01 187.91,167.22 187.91,167.42 187.92,167.64 187.93,167.85 187.94,168.06 187.95,168.27 187.96,168.48 187.97,168.69 187.97,168.89 187.97,169.10 187.97,169.30 187.97,169.50 187.98,169.70 187.98,169.90 187.98,170.10 187.98,170.29 187.98,170.49 187.98,170.69 188.00,170.88 188.02,171.08 188.04,171.28 188.06,171.48 188.07,171.70 188.08,171.91 188.09,172.11 188.09,172.32 188.10,172.52 188.11,172.72 188.12,172.93 188.13,173.13 188.15,173.34 188.17,173.54 188.18,173.74 188.20,173.94 188.22,174.15 188.24,174.35 188.25,174.55 188.27,174.76 188.27,174.96 188.28,175.17 188.27,175.37 188.27,175.57 188.27,175.77 188.26,175.97 188.25,176.17 188.25,176.38 188.24,176.59 188.23,176.80 188.23,177.01 188.22,177.22 188.22,177.43 188.22,177.64 188.23,177.85 188.24,178.06 188.24,178.28 188.24,178.49 188.24,178.71 188.24,178.94 188.24,179.16 188.25,179.38 188.25,179.60 188.25,179.82 188.25,180.04 188.25,180.26 188.25,180.47 188.25,180.69 188.25,180.90 188.25,181.11 188.26,181.31 188.26,181.52 188.27,181.72 188.27,181.93 188.28,182.13 188.29,182.34 188.30,182.55 188.31,182.76 188.33,182.96 188.34,183.17 188.37,183.38 188.40,183.59 188.43,183.80 188.45,184.01 188.48,184.22 188.50,184.42 188.52,184.62 188.53,184.83 188.54,185.03 188.56,185.23 188.57,185.43 188.57,185.63 188.58,185.83 188.58,186.04 188.59,186.25 188.59,186.46 188.60,186.67 188.60,186.88 188.60,187.09 188.60,187.30 188.59,187.50 188.58,187.71 188.57,187.91 188.56,188.12 188.54,188.33 188.53,188.53 188.52,188.74 188.52,188.95 188.52,189.16 188.52,189.37 188.52,189.58 188.52,189.79 188.53,190.00 188.54,190.21 188.53,190.42 188.53,190.62 188.53,190.84 188.53,191.05 188.53,191.26 188.53,191.47 188.54,191.67 188.54,191.87 188.55,192.07 188.55,192.26 188.56,192.46 188.57,192.66 188.59,192.86 188.61,193.05 188.66,193.24 188.71,193.43 188.82,193.56 188.92,193.68 189.09,193.73 189.26,193.78 189.48,193.77 189.70,193.77 189.94,193.74 190.18,193.71 190.43,193.67 190.68,193.63 190.93,193.58 191.17,193.53 191.42,193.50 191.66,193.46 191.90,193.44 192.14,193.42 192.38,193.41 192.61,193.40 192.84,193.39 193.06,193.38 193.28,193.37 193.49,193.36 193.71,193.35 193.93,193.34 194.16,193.33 194.38,193.33 194.61,193.32 194.85,193.31 195.07,193.30 195.29,193.29 195.51,193.28 195.72,193.27 195.95,193.26 196.18,193.25 196.41,193.22 196.64,193.19 196.87,193.17 197.10,193.15 197.33,193.16 197.55,193.16 197.78,193.17 198.01,193.17 198.24,193.17 198.46,193.17 198.69,193.17 198.91,193.17 199.12,193.15 199.34,193.13 199.56,193.11 199.77,193.09 199.99,193.08 200.21,193.07 200.43,193.07 200.65,193.06 200.87,193.06 201.10,193.06 201.32,193.06 201.55,193.05 201.78,193.05 202.00,193.05 202.22,193.06 202.43,193.06 202.65,193.07 202.87,193.07 203.09,193.07 203.31,193.08 203.53,193.08 203.76,193.08 203.99,193.08 204.21,193.08 204.43,193.06 204.65,193.05 204.87,193.01 205.08,192.98 205.27,192.90 205.45,192.83 205.56,192.70 205.67,192.57 205.68,192.38 205.69,192.20 205.64,191.98 205.58,191.76 205.51,191.55 205.44,191.33 205.37,191.12 205.30,190.91 205.22,190.70 205.14,190.50 205.06,190.29 204.99,190.09 204.91,189.88 204.84,189.68 204.78,189.48 204.72,189.27 204.67,189.07 204.62,188.87 204.57,188.66 204.52,188.45 204.47,188.25 204.42,188.04 204.37,187.84 204.32,187.65 204.27,187.45 204.21,187.26 204.15,187.07 204.10,186.87 204.04,186.68 203.99,186.49 203.94,186.30 203.89,186.11 203.84,185.92 203.80,185.72 203.75,185.53 203.71,185.34 203.67,185.14 203.63,184.95 203.59,184.76 203.54,184.57 203.49,184.38 203.45,184.19 203.39,183.99 203.33,183.80 203.27,183.60 203.20,183.41 203.15,183.22 203.10,183.03 203.06,182.84 203.02,182.65 202.97,182.46 202.93,182.27 202.89,182.08 202.84,181.89 202.77,181.70 202.70,181.51 202.61,181.32 202.52,181.14 202.43,180.97 202.34,180.80 202.29,180.65 202.25,180.50 202.25,180.36 202.25,180.21 202.28,180.05 202.32,179.89 202.39,179.71 202.47,179.53 202.55,179.33 202.64,179.13 202.71,178.93 202.78,178.73 202.85,178.53 202.92,178.34 203.03,178.17 203.13,177.99 203.22,177.82 203.32,177.64 203.36,177.46 203.41,177.28 203.40,177.09 203.40,176.90 203.37,176.70 203.33,176.51 203.27,176.32 203.21,176.13 203.15,175.94 203.09,175.75 203.03,175.57 202.97,175.38 202.91,175.18 202.86,174.99 202.80,174.79 202.75,174.59 202.70,174.39 202.64,174.20 202.58,174.01 202.53,173.81 202.47,173.62 202.42,173.42 202.36,173.22 202.31,173.02 202.26,172.83 202.21,172.64 202.16,172.45 202.12,172.26 202.08,172.08 202.04,171.89 202.00,171.70 201.95,171.51 201.90,171.31 201.85,171.12 201.82,170.93 201.78,170.73 201.75,170.54 201.71,170.35 201.68,170.15 201.65,169.96 201.61,169.76 201.57,169.56 201.53,169.35 201.49,169.15 201.45,168.94 201.41,168.74 201.37,168.54 201.33,168.35 201.29,168.16 201.26,167.97 201.23,167.77 201.20,167.58 201.18,167.38 201.15,167.18 201.14,166.98 201.12,166.79 201.11,166.59 201.10,166.39 201.09,166.19 201.08,165.98 201.05,165.78 201.03,165.57 200.98,165.37 200.94,165.17 200.88,164.97 200.83,164.78 200.76,164.59 200.70,164.40 200.64,164.20 200.58,164.01 200.51,163.82 200.44,163.63 200.36,163.44 200.28,163.24 200.19,163.05 200.10,162.86 199.99,162.68 199.88,162.50 199.76,162.33 199.64,162.15 199.52,161.99 199.40,161.82 199.28,161.67 199.16,161.51 199.04,161.35 198.92,161.19 198.80,161.02 198.68,160.86 198.57,160.69 198.46,160.52 198.35,160.35 198.24,160.18 198.13,160.01 198.01,159.84 197.90,159.66 197.79,159.48 197.66,159.31 197.54,159.13 197.41,158.97 197.28,158.81 197.15,158.65 197.01,158.49 196.88,158.33 196.74,158.17 196.61,158.00 196.48,157.83 196.36,157.66 196.24,157.49 196.11,157.32 195.99,157.15 195.86,156.98 195.73,156.81 195.60,156.64 195.47,156.47 195.34,156.30 195.21,156.13 195.08,155.97 194.96,155.80 194.84,155.63 194.72,155.46 194.61,155.30 194.50,155.13 194.40,154.95 194.30,154.78 194.19,154.61 194.09,154.44 193.98,154.27 193.87,154.10 193.76,153.93 193.65,153.76 193.54,153.60 193.44,153.44 193.33,153.28 193.22,153.12 193.10,152.95 192.98,152.78 192.86,152.61 192.73,152.44 192.60,152.27 192.46,152.10 192.33,151.93 192.19,151.76 192.06,151.59 191.93,151.42 191.81,151.24 191.69,151.07 191.57,150.90 191.46,150.72 191.34,150.54 191.23,150.36 191.12,150.18 191.00,149.99 190.90,149.80 190.80,149.61 190.71,149.43 190.62,149.25 190.52,149.09 190.43,148.92 190.33,148.75 190.23,148.59 190.12,148.41 190.02,148.24 189.91,148.07 189.80,147.89 189.69,147.71 189.58,147.53 189.48,147.36 189.37,147.18 189.28,147.02 189.19,146.86 189.11,146.69 189.03,146.52 188.94,146.34 188.86,146.17 188.77,145.99 188.69,145.81 188.62,145.63 188.54,145.45 188.47,145.28 188.40,145.10 188.33,144.92 188.25,144.73 188.17,144.54 188.09,144.34 188.00,144.15 187.92,143.96 187.82,143.77 187.72,143.59 187.61,143.41 187.51,143.24 187.39,143.07 187.28,142.89 187.16,142.73 187.04,142.56 186.92,142.39 186.80,142.22 186.67,142.05 186.54,141.88 186.40,141.72 186.26,141.55 186.13,141.39 186.00,141.22 185.89,141.05 185.77,140.89 185.66,140.72 185.55,140.54 185.44,140.36 185.34,140.19 185.24,140.01 185.14,139.83 185.06,139.65 184.99,139.47 184.90,139.30 184.82,139.12 184.72,138.95 184.61,138.78 184.52,138.61 184.42,138.44 184.42,138.31 184.43,138.18 184.58,138.12 184.73,138.06 184.98,138.05 185.22,138.04 185.51,138.06 185.79,138.07 186.07,138.08 186.36,138.09 186.62,138.09 186.88,138.08 187.13,138.08 187.37,138.08 187.61,138.08 187.84,138.08 188.07,138.09 188.29,138.10 188.51,138.10 188.72,138.11 188.94,138.11 189.16,138.11 189.38,138.10 189.60,138.10 189.83,138.09 190.05,138.09 190.28,138.08 190.50,138.08 190.72,138.07 190.94,138.06 191.15,138.05 191.37,138.04 191.59,138.04 191.80,138.03 192.02,138.01 192.24,138.00 192.46,137.98 192.67,137.97 192.90,137.95 193.12,137.93 193.35,137.91 193.58,137.89 193.81,137.88 194.04,137.87 194.26,137.88 194.48,137.88 194.70,137.88 194.91,137.88 195.13,137.87 195.35,137.86 195.57,137.83 195.79,137.81 196.01,137.80 196.23,137.78 196.46,137.78 196.68,137.79 196.90,137.79 197.13,137.80 197.35,137.81 197.57,137.82 197.80,137.82 198.03,137.82 198.25,137.82 198.47,137.82 198.69,137.82 198.92,137.82 199.13,137.83 199.35,137.83 199.56,137.84 199.78,137.84 199.99,137.84 200.21,137.84 200.43,137.84 200.65,137.83 200.88,137.83 201.10,137.83 201.32,137.83 201.55,137.83 201.77,137.83 201.98,137.83 202.20,137.82 202.42,137.81 202.65,137.80 202.87,137.78 203.10,137.77 203.33,137.76 203.56,137.76 203.79,137.75 204.02,137.75 204.25,137.75 204.47,137.75 204.70,137.75 204.93,137.76 205.15,137.76 205.38,137.76 205.61,137.75 205.84,137.74 206.07,137.72 206.29,137.70 206.52,137.69 206.74,137.67 206.96,137.66 207.17,137.64 207.39,137.63 207.61,137.61 207.83,137.60 208.04,137.57 208.24,137.54 208.43,137.49 208.62,137.43 208.78,137.33 208.94,137.23 209.09,137.09 209.23,136.96 209.38,136.82 209.53,136.67 209.70,136.55 209.87,136.42 210.07,136.35 210.26,136.27 210.47,136.24 210.68,136.21 210.89,136.21 211.10,136.20 211.31,136.20 211.53,136.20 211.75,136.20 211.97,136.20 212.18,136.20 212.40,136.20 212.62,136.20 212.84,136.19 213.07,136.20 213.29,136.20 213.52,136.20 213.75,136.21 213.98,136.21 214.21,136.22 214.43,136.22 214.66,136.22 214.88,136.21 215.11,136.19 215.33,136.18 215.56,136.16 215.78,136.14 216.01,136.12 216.24,136.09 216.46,136.07 216.67,136.01 216.88,135.95 217.09,135.87 217.30,135.79 217.53,135.71 217.75,135.64 217.97,135.60 218.20,135.57 218.42,135.56 218.64,135.56 218.86,135.56 219.09,135.57 219.32,135.57 219.55,135.57 219.78,135.56 220.01,135.56 220.24,135.55 220.46,135.54 220.69,135.52 220.92,135.51 221.14,135.49 221.37,135.48 221.59,135.46 221.82,135.45 222.05,135.45 222.28,135.44 222.51,135.44 222.74,135.45 222.96,135.45 223.18,135.46 223.39,135.46 223.60,135.47 223.82,135.47 224.03,135.47 224.26,135.47 224.49,135.47 224.74,135.47 224.98,135.46 225.22,135.45 225.46,135.44 225.70,135.43 225.94,135.42 226.18,135.41 226.42,135.40 226.65,135.39 226.89,135.39 227.11,135.38 227.33,135.38 227.55,135.37 227.77,135.36 227.98,135.35 228.19,135.34 228.41,135.33 228.62,135.32 228.85,135.31 229.08,135.31 229.30,135.32 229.53,135.33 229.74,135.34 229.96,135.35 230.16,135.36 230.36,135.36 230.55,135.36 230.74,135.35 230.94,135.33 231.14,135.32 231.36,135.30 231.57,135.29 231.79,135.28 232.02,135.28 232.25,135.28 232.48,135.28 232.71,135.29 232.94,135.30 233.17,135.30 233.39,135.30 233.61,135.30 233.83,135.30 234.04,135.31 234.26,135.31 234.46,135.32 234.67,135.32 234.87,135.32 235.06,135.32 235.26,135.33 235.45,135.33 235.65,135.34 235.84,135.35 236.05,135.36 236.25,135.37 236.46,135.37 236.68,135.36 236.89,135.35 237.10,135.33 237.31,135.32 237.52,135.31 237.74,135.31 237.95,135.30 238.16,135.29 238.37,135.28 238.58,135.25 238.80,135.22 239.01,135.19 239.22,135.16 239.42,135.15 239.62,135.14 239.82,135.15 240.03,135.15 240.23,135.16 240.44,135.17 240.65,135.17 240.86,135.18 241.08,135.18 241.30,135.19 241.51,135.20 241.71,135.21 241.92,135.21 242.12,135.21 242.32,135.21 242.53,135.20 242.73,135.19 242.94,135.18 243.14,135.17 243.35,135.16 243.55,135.15 243.76,135.14 243.96,135.13 244.17,135.12 244.38,135.12 244.60,135.11 244.82,135.10 245.04,135.10 245.25,135.09 245.47,135.09 245.68,135.09 245.89,135.09 246.10,135.09 246.31,135.09 246.51,135.08 246.71,135.08 246.92,135.07 247.12,135.06 247.33,135.05 247.53,135.05 247.73,135.06 247.94,135.06 248.15,135.07 248.36,135.07 248.58,135.07 248.79,135.07 248.99,135.09 249.18,135.11 249.35,135.16 249.52,135.22 249.68,135.28 249.83,135.34 250.02,135.37 250.20,135.39 250.39,135.39 250.58,135.39 250.77,135.38 250.96,135.37 251.16,135.35 251.37,135.33 251.57,135.33 251.78,135.32 252.00,135.33 252.21,135.33 252.43,135.34 252.66,135.36 252.88,135.36 253.11,135.37 253.33,135.37 253.55,135.38 253.76,135.37 253.98,135.37 254.19,135.36 254.41,135.36 254.62,135.35 254.84,135.35 255.06,135.34 255.28,135.34 255.51,135.32 255.73,135.31 255.96,135.29 256.19,135.28 256.43,135.26 256.66,135.25 256.89,135.24 257.11,135.23 257.33,135.23 257.54,135.23 257.75,135.24 257.96,135.24 258.17,135.24 258.37,135.24 258.58,135.23 258.78,135.22 258.98,135.22 259.18,135.21 259.39,135.22 259.60,135.22 259.81,135.21 260.03,135.21 260.24,135.19 260.46,135.18 260.68,135.16 260.89,135.14 261.10,135.12 261.31,135.10 261.52,135.09 261.72,135.08 261.94,135.08 262.15,135.09 262.38,135.09 262.60,135.09 262.83,135.08 263.06,135.07 263.28,135.05 263.50,135.03 263.72,135.00 263.94,134.98 264.16,134.97 264.38,134.95 264.59,134.94 264.81,134.94 265.02,134.93 265.23,134.93 265.44,134.93 265.65,134.93 265.85,134.93 266.05,134.92 266.25,134.92 266.45,134.91 266.67,134.90 266.88,134.89 267.10,134.88 267.31,134.88 267.52,134.87 267.74,134.87 267.95,134.87 268.17,134.87 268.38,134.86 268.60,134.85 268.81,134.84 269.03,134.82 269.24,134.81 269.45,134.80 269.66,134.79 269.87,134.79 270.09,134.79 270.30,134.79 270.51,134.80 270.72,134.81 270.92,134.83 271.11,134.84 271.27,134.92 271.44,134.99 271.54,135.14 271.65,135.28 271.70,135.47 271.76,135.65 271.79,135.85 271.81,136.04 271.83,136.24 271.84,136.43 271.83,136.62 271.83,136.81 271.82,136.99 271.82,137.17 271.82,137.35 271.82,137.53 271.83,137.72 271.84,137.90 271.84,138.08 271.83,138.27 271.82,138.45 271.80,138.64 271.79,138.82 271.79,139.01 271.79,139.19 271.79,139.37 271.79,139.55 271.80,139.73 271.81,139.91 271.83,140.10 271.84,140.28 271.86,140.47 271.88,140.66 271.90,140.84 271.92,141.03 271.94,141.22 271.94,141.41 271.95,141.60 271.95,141.79 271.95,141.98 271.95,142.17 271.96,142.36 271.96,142.54 271.96,142.73 271.96,142.91 271.97,143.09 271.97,143.27 271.97,143.45 271.97,143.64 271.98,143.82 271.99,144.01 272.00,144.19 272.02,144.38 272.03,144.56 272.05,144.75 272.07,144.93 272.09,145.11 272.10,145.29 272.11,145.47 272.12,145.65 272.12,145.83 272.12,146.02 272.13,146.21 272.13,146.39 272.13,146.58 272.14,146.77 272.14,146.95 272.15,147.13 272.17,147.32 272.18,147.50 272.20,147.68 272.22,147.87 272.24,148.06 272.25,148.26 272.25,148.45 272.26,148.64 272.26,148.83 272.26,149.02 272.26,149.21 272.26,149.41 272.27,149.60 272.28,149.80 272.29,149.99 272.30,150.18 272.31,150.36 272.31,150.54 272.32,150.71 272.32,150.89 272.32,151.06 272.32,151.23 272.33,151.41 272.33,151.58 272.32,151.76 272.32,151.94 272.32,152.12 272.32,152.30 272.33,152.48 272.33,152.66 272.35,152.84 272.36,153.02 272.37,153.21 272.39,153.40 272.39,153.59 272.39,153.78 272.38,153.96 272.38,154.14 272.37,154.32 272.37,154.51 272.37,154.69 272.38,154.88 272.39,155.06 272.40,155.25 272.42,155.43 272.44,155.61 272.45,155.80 272.47,155.98 272.48,156.17 272.50,156.35 272.50,156.53 272.50,156.72 272.50,156.91 272.50,157.10 272.50,157.30 272.50,157.50 272.50,157.69 272.51,157.89 272.52,158.09 272.52,158.29 272.54,158.48 272.55,158.68 272.55,158.87 272.56,159.06 272.56,159.25 272.56,159.45 272.57,159.63 272.58,159.82 272.59,160.01 272.61,160.19 272.62,160.38 272.64,160.56 272.65,160.75 272.67,160.93 272.68,161.12 272.69,161.31 272.70,161.51 272.71,161.70 272.71,161.90 272.72,162.10 272.72,162.30 272.73,162.50 272.73,162.69 272.72,162.88 272.72,163.06 272.72,163.25 272.71,163.55 272.70,163.85 272.68,164.16" stroke="#3b55ff" fill="none" stroke-width="10" stroke-linejoin="round" stroke-linecap="round"/>
</svg>