<svg xmlns="http://www.w3.org/2000/svg" viewBox="0 0 300 300" width="300" height="300">
<style>
      text { font-family: Arial, sans-serif; }
    </style>
<polyline points="29.85,226.44 30.47,226.34 31.21,226.06 31.95,225.78 32.80,225.34 33.66,224.91 34.57,224.37 35.47,223.83 36.47,223.17 37.45,222.51 38.44,221.78 39.43,221.05 40.49,220.51 41.54,219.98 42.68,219.72 43.81,219.47 44.97,219.39 46.14,219.32 47.32,219.33 48.51,219.34 49.71,219.39 50.90,219.44 52.09,219.50 53.27,219.55 54.46,219.58 55.64,219.60 56.86,219.58 58.07,219.56 59.30,219.48 60.54,219.41 61.77,219.33 62.99,219.24 64.19,219.19 65.38,219.13 66.55,219.11 67.73,219.09 68.93,219.10 70.12,219.11 71.29,219.15 72.47,219.18 73.62,219.21 74.78,219.24 75.93,219.26 77.08,219.28 78.24,219.29 79.41,219.29 80.61,219.25 81.82,219.21 83.03,219.15 84.24,219.10 85.43,219.06 86.62,219.02 87.88,219.07 89.13,219.12 90.41,219.16 91.68,219.19 92.95,219.24 94.21,219.28 95.45,219.32 96.68,219.36 97.86,219.35 99.03,219.35 100.18,219.31 101.32,219.26 102.48,219.24 103.63,219.21 104.78,219.19 105.93,219.17 107.09,219.13 108.26,219.08 109.45,219.02 110.65,218.95 111.83,218.91 113.02,218.87 114.18,218.86 115.34,218.84 116.44,218.82 117.55,218.79 118.63,218.74 119.72,218.69 120.83,218.65 121.94,218.61 123.11,218.67 124.27,218.72 125.44,218.83 126.60,218.93 127.76,219.00 128.92,219.06 130.08,219.10 131.23,219.12 132.36,219.14 133.49,219.15 134.61,219.16 135.73,219.17 136.83,219.21 137.93,219.26 139.01,219.27 140.10,219.27 141.27,219.21 142.44,219.14 143.69,219.00 144.94,218.85 146.19,218.69 147.43,218.52 148.63,218.28 149.83,218.04 151.01,217.84 152.18,217.65 153.32,217.55 154.45,217.44 155.56,217.42 156.66,217.40 157.79,217.40 158.91,217.41 160.06,217.42 161.21,217.42 162.38,217.43 163.55,217.44 164.75,217.43 165.95,217.42 167.18,217.38 168.41,217.33 169.64,217.26 170.87,217.19 172.05,217.10 173.23,217.01 174.38,216.93 175.54,216.84 176.69,216.79 177.85,216.73 179.02,216.71 180.18,216.68 181.34,216.63 182.50,216.58 183.64,216.52 184.78,216.46 185.90,216.40 187.02,216.35 188.14,216.30 189.26,216.25 190.40,216.19 191.54,216.12 192.75,216.07 193.95,216.01 195.20,215.97 196.46,215.94 197.72,215.91 198.98,215.87 200.18,215.85 201.39,215.82 202.57,215.80 203.74,215.78 204.88,215.76 206.03,215.73 207.15,215.72 208.27,215.70 209.36,215.67 210.45,215.63 211.57,215.61 212.69,215.58 213.83,215.57 214.97,215.56 216.10,215.53 217.24,215.50 218.41,215.45 219.57,215.39 220.72,215.37 221.87,215.34 222.97,215.36 224.06,215.38 225.15,215.36 226.25,215.34 227.35,215.29 228.46,215.24 229.58,215.20 230.69,215.14 231.84,215.13 233.00,215.11 234.18,215.10 235.37,215.09 236.51,215.08 237.65,215.08 238.78,215.07 239.92,215.05 241.08,214.99 242.25,214.92 243.37,214.85 244.50,214.79 245.56,214.75 246.62,214.71 247.68,214.67 248.73,214.62 249.79,214.62 250.86,214.62 251.95,214.70 253.03,214.77 254.11,214.88 255.18,214.98 256.28,215.06 257.38,215.13 258.45,215.14 259.52,215.14 260.63,215.08 261.75,215.02 262.88,214.93 264.01,214.83 265.09,214.75 266.17,214.67 267.23,214.62 268.29,214.58 269.27,214.49 270.23,214.41 270.90,214.07 271.56,213.73 271.88,213.05 272.21,212.37 272.25,211.43 272.30,210.49 272.23,209.44 272.16,208.39 272.06,207.32 271.96,206.24 271.84,205.16 271.72,204.07 271.61,203.00 271.51,201.92 271.46,200.83 271.40,199.75 271.36,198.70 271.32,197.65 271.28,196.62 271.24,195.59 271.21,194.55 271.18,193.51 271.16,192.46 271.13,191.41 271.11,190.37 271.10,189.32 271.12,188.29 271.14,187.26 271.14,186.27 271.15,185.27 271.11,184.27 271.07,183.26 270.98,182.21 270.89,181.17 270.80,180.09 270.71,179.01 270.67,177.92 270.62,176.83 270.59,175.75 270.54,174.67 270.51,173.61 270.47,172.56 270.45,171.53 270.42,170.50 270.41,169.48 270.41,168.47 270.36,167.44 270.31,166.42 270.26,165.36 270.20,164.29 270.13,163.25 270.06,162.21 270.00,161.19 269.93,160.17 269.88,159.14 269.83,158.12 269.81,157.06 269.79,156.01 269.79,154.95 269.78,153.88 269.78,152.86 269.78,151.84 269.76,150.83 269.74,149.81 269.73,148.81 269.72,147.80 269.75,146.78 269.78,145.76 269.84,144.72 269.90,143.69 269.94,142.64 269.97,141.59 269.96,140.55 269.96,139.50 269.94,138.49 269.92,137.47 269.92,136.49 269.91,135.50 269.96,134.54 270.01,133.58 270.03,132.62 270.05,131.65 270.02,130.65 269.99,129.65 269.91,128.60 269.83,127.55 269.76,126.53 269.68,125.50 269.63,124.47 269.57,123.43 269.54,122.39 269.51,121.35 269.50,120.31 269.48,119.27 269.49,118.25 269.50,117.22 269.50,116.21 269.49,115.20 269.47,114.22 269.45,113.24 269.40,112.29 269.35,111.34 269.26,110.40 269.17,109.46 269.10,108.52 269.04,107.57 269.00,106.62 268.96,105.67 268.93,104.70 268.90,103.73 268.88,102.76 268.85,101.78 268.84,100.81 268.83,99.84 268.81,98.84 268.79,97.84 268.75,96.82 268.72,95.79 268.73,94.77 268.74,93.75 268.78,92.73 268.81,91.70 268.87,90.67 268.92,89.63 268.94,88.63 268.96,87.63 268.97,86.64 268.98,85.66 269.00,84.69 269.02,83.72 269.02,82.74 269.01,81.75 268.98,80.76 268.94,79.77 268.94,78.79 268.94,77.81 268.77,76.82 268.60,75.84 267.96,75.10 267.31,74.36 266.09,74.04 264.87,73.72 263.29,73.64 261.72,73.56 260.07,73.61 258.42,73.65 256.80,73.72 255.19,73.79 253.62,73.90 252.05,74.01 250.51,74.15 248.96,74.27 247.41,74.39 245.86,74.51 244.29,74.62 242.72,74.72 241.13,74.78 239.55,74.83 237.91,74.86 236.28,74.88 234.62,74.95 232.96,75.01 231.35,75.09 229.73,75.15 228.18,75.20 226.63,75.25 225.12,75.32 223.61,75.39 222.11,75.49 220.61,75.59 219.10,75.72 217.58,75.85 216.06,75.94 214.54,76.02 213.02,76.09 211.50,76.15 210.00,76.22 208.49,76.28 206.99,76.32 205.50,76.36 204.00,76.37 202.50,76.39 200.95,76.41 199.40,76.44 197.83,76.45 196.27,76.47 194.72,76.49 193.18,76.52 191.64,76.55 190.10,76.59 188.56,76.59 187.02,76.60 185.50,76.56 183.97,76.53 182.45,76.51 180.94,76.48 179.39,76.49 177.83,76.49 176.24,76.54 174.65,76.58 173.07,76.62 171.48,76.67 169.95,76.70 168.41,76.73 166.89,76.80 165.38,76.86 163.90,76.93 162.41,77.00 160.95,77.06 159.48,77.11 158.03,77.14 156.58,77.17 155.12,77.19 153.64,77.22 152.16,77.23 150.67,77.24 149.19,77.26 147.69,77.28 146.20,77.32 144.72,77.37 143.27,77.45 141.83,77.52 140.43,77.64 139.02,77.74 137.66,77.84 136.30,77.94 134.96,77.98 133.62,78.01 132.26,77.94 130.89,77.86 129.47,77.76 128.04,77.66 126.55,77.63 125.05,77.60 123.54,77.59 122.04,77.58 120.54,77.59 119.05,77.60 117.56,77.64 116.08,77.68 114.57,77.75 113.07,77.81 111.55,77.89 110.03,77.97 108.53,78.06 107.04,78.15 105.59,78.19 104.14,78.23 102.71,78.22 101.28,78.22 99.83,78.20 98.39,78.19 96.93,78.19 95.46,78.19 93.94,78.24 92.43,78.29 90.85,78.34 89.27,78.39 87.69,78.38 86.11,78.36 84.56,78.32 83.01,78.28 81.47,78.26 79.94,78.24 78.40,78.30 76.86,78.35 75.37,78.46 73.86,78.57 72.61,78.81 71.35,79.05 70.57,79.44 69.79,79.83 69.50,80.35 69.21,80.86 69.26,81.45 69.31,82.04 69.51,82.67 69.71,83.30 69.93,83.93 70.15,84.56 70.33,85.13 70.52,85.70 70.67,86.24 70.81,86.76 70.90,87.30 71.00,87.83 71.05,88.34 71.11,88.85 71.12,89.39 71.13,89.91 71.16,90.44 71.19,90.95 71.25,91.47 71.30,91.99 71.36,92.55 71.41,93.10 71.45,93.64 71.48,94.19 71.51,94.70 71.54,95.22 71.57,95.72 71.59,96.22 71.59,96.76 71.58,97.29 71.57,97.88 71.56,98.47 71.57,99.10 71.59,99.74 71.60,100.37 71.62,100.99 71.62,101.61 71.62,102.22 71.62,102.86 71.63,103.51 71.64,104.16 71.64,104.82 71.67,105.49 71.70,106.17 71.74,106.79 71.78,107.41 71.81,107.96 71.85,108.52 71.88,109.05 71.92,109.59 71.97,110.13 72.02,110.67 72.07,111.23 72.12,111.79 72.20,112.38 72.28,112.97 72.41,113.60 72.54,114.24 72.64,114.87 72.74,115.50 72.77,116.08 72.80,116.67 72.80,117.25 72.78,117.82 72.78,118.41 72.78,118.99 72.79,119.55 72.79,120.10 72.79,120.66 72.79,121.21 72.79,121.81 72.80,122.41 72.79,123.07 72.78,123.72 72.78,124.40 72.78,125.07 72.77,125.71 72.75,126.34 72.72,126.93 72.69,127.53 72.69,128.10 72.68,128.66 72.73,129.19 72.77,129.72 72.84,130.23 72.92,130.73 72.99,131.25 73.07,131.76 73.13,132.29 73.20,132.82 73.25,133.38 73.30,133.95 73.36,134.54 73.41,135.13 73.45,135.73 73.49,136.32 73.48,136.91 73.46,137.51 73.43,138.13 73.39,138.75 73.38,139.34 73.37,139.93 73.39,140.51 73.40,141.08 73.42,141.66 73.43,142.23 73.44,142.80 73.45,143.37 73.46,143.94 73.47,144.50 73.49,145.09 73.50,145.68 73.51,146.28 73.52,146.88 73.56,147.45 73.60,148.01 73.65,148.57 73.69,149.13 73.72,149.79 73.74,150.43 73.75,151.26 73.76,152.09 73.76,153.07 73.75,154.05 73.74,155.10 73.73,156.15 73.73,157.24 73.73,158.32 73.73,159.40 73.73,160.48 73.72,161.53 73.70,162.58 73.67,163.60 73.65,164.61 73.65,165.59 73.65,166.56 73.68,167.56 73.72,168.54 73.70,169.60 73.69,170.65 73.65,171.73 73.61,172.81 73.60,173.89 73.59,174.96 73.62,176.01 73.64,177.06 73.65,178.07 73.66,179.08 73.64,180.11 73.61,181.12 73.55,182.14 73.48,183.16 73.41,184.17 73.33,185.18 73.31,186.20 73.29,187.22 73.34,188.24 73.39,189.26 73.47,190.29 73.54,191.31 73.59,192.35 73.64,193.39 73.60,194.44 73.57,195.48 73.44,196.52 73.31,197.56 73.18,198.61 73.04,199.67 73.01,200.72 72.98,201.77 73.09,202.83 73.20,203.88 73.33,204.94 73.46,206.00 73.55,207.05 73.65,208.09 73.71,209.13 73.76,210.16 73.82,211.22 73.88,212.29 73.93,213.36 73.99,214.44 74.06,215.49 74.12,216.55 74.33,217.49 74.53,218.43 75.15,219.06 75.77,219.69 76.97,219.91 78.17,220.13 79.78,220.08 81.40,220.03 83.16,219.89 84.93,219.75 86.69,219.64 88.45,219.53 90.19,219.45 91.92,219.38 93.61,219.30 95.30,219.22 96.94,219.12 98.58,219.02 100.20,218.91 101.82,218.81 103.39,218.75 104.97,218.68 106.51,218.66 108.05,218.63 109.55,218.65 111.05,218.67 112.55,218.70 114.04,218.73 115.54,218.71 117.04,218.69 118.57,218.64 120.10,218.58 121.67,218.57 123.24,218.56 124.83,218.60 126.41,218.65 127.97,218.66 129.54,218.68 131.06,218.65 132.57,218.62 134.06,218.59 135.55,218.55 137.06,218.53 138.57,218.50 140.08,218.46 141.60,218.41 143.14,218.27 144.68,218.12 146.25,217.88 147.83,217.64 149.41,217.36 151.00,217.09 152.58,216.89 154.15,216.69 155.72,216.60 157.30,216.50 158.86,216.45 160.42,216.41 161.98,216.37 163.53,216.33 165.09,216.32 166.65,216.32 168.19,216.35 169.73,216.38 171.25,216.43 172.76,216.49 174.24,216.53 175.71,216.57 177.17,216.59 178.62,216.61 180.06,216.61 181.50,216.61 182.94,216.59 184.38,216.56 185.86,216.52 187.33,216.48 188.85,216.43 190.37,216.39 191.92,216.34 193.47,216.30 195.05,216.23 196.63,216.16 198.21,216.08 199.79,216.00 201.40,215.91 203.01,215.81 204.62,215.72 206.24,215.63 207.83,215.55 209.43,215.47 211.00,215.39 212.58,215.31 214.14,215.24 215.70,215.17 217.25,215.09 218.79,215.00 220.31,214.94 221.84,214.88 223.36,214.87 224.87,214.86 226.39,214.82 227.91,214.79 229.41,214.72 230.91,214.66 232.45,214.61 233.99,214.56 235.56,214.56 237.13,214.55 238.70,214.55 240.25,214.55 241.81,214.52 243.36,214.49 244.90,214.43 246.45,214.37 248.00,214.29 249.55,214.21 251.09,214.12 252.62,214.02 254.12,213.96 255.62,213.89 257.11,213.85 258.61,213.79 260.11,213.79 261.61,213.77 263.10,213.78 264.60,213.78 266.11,213.74 267.62,213.70 268.98,213.58 270.33,213.46 271.23,213.18 272.13,212.89 272.42,212.47 272.71,212.06 272.61,211.58 272.50,211.10 272.28,210.60 272.06,210.11 271.89,209.61 271.71,209.10 271.56,208.57 271.40,208.04 271.28,207.48 271.17,206.91 271.10,206.33 271.03,205.74 271.00,205.14 270.97,204.53 270.97,203.97 270.97,203.41 270.98,202.91 271.00,202.41 271.05,201.94 271.11,201.47 271.15,200.98 271.19,200.50 271.19,199.99 271.18,199.47 271.15,198.88 271.11,198.29 271.09,197.68 271.07,197.08 271.09,196.53 271.10,195.97 271.13,195.44 271.15,194.90 271.16,194.39 271.16,193.87 271.17,193.36 271.17,192.84 271.16,192.32 271.15,191.80 271.11,191.28 271.07,190.76 270.99,190.22 270.90,189.68 270.80,189.15 270.71,188.62 270.65,188.05 270.60,187.48 270.58,186.93 270.55,186.37 270.54,185.84 270.52,185.31 270.49,184.78 270.45,184.25 270.38,183.70 270.29,183.15 270.20,182.57 270.11,182.00 270.03,181.40 269.95,180.80 269.92,180.22 269.89,179.63 269.90,179.05 269.91,178.48 269.96,177.92 270.01,177.36 270.07,176.82 270.13,176.27 270.20,175.73 270.26,175.17 270.33,174.62 270.39,174.06 270.41,173.50 270.42,172.95 270.38,172.40 270.33,171.85 270.27,171.30 270.20,170.74 270.15,170.15 270.10,169.56 270.09,168.96 270.07,168.36 270.12,167.78 270.16,167.20 270.21,166.64 270.26,166.08 270.23,165.55 270.20,165.01 270.16,164.44 270.11,163.87 270.06,163.27 270.01,162.68 269.95,162.12 269.88,161.56 269.83,161.02 269.78,160.48 269.75,159.95 269.71,159.41 269.69,158.88 269.67,158.35 269.66,157.84 269.65,157.32 269.65,156.79 269.65,156.26 269.67,155.72 269.69,155.18 269.70,154.66 269.70,154.12 269.69,153.62 269.68,153.11 269.67,152.60 269.66,152.09 269.66,151.55 269.65,151.02 269.63,150.44 269.61,149.86 269.58,149.25 269.56,148.65 269.53,148.03 269.51,147.42 269.48,146.82 269.45,146.22 269.42,145.66 269.39,145.09 269.37,144.51 269.34,143.94 269.37,143.21 269.39,142.49 269.43,141.58 269.46,140.67 269.49,139.63 269.52,138.59 269.53,137.48 269.53,136.36 269.51,135.22 269.49,134.08 269.45,132.94 269.42,131.80 269.38,130.69 269.33,129.59 269.29,128.50 269.24,127.40 269.19,126.30 269.13,125.20 269.10,124.11 269.07,123.00 269.08,121.92 269.09,120.83 269.11,119.75 269.13,118.67 269.19,117.58 269.24,116.48 269.31,115.40 269.38,114.31 269.45,113.22 269.52,112.12 269.57,111.03 269.62,109.93 269.63,108.83 269.64,107.73 269.62,106.64 269.59,105.55 269.55,104.48 269.51,103.41 269.48,102.35 269.45,101.30 269.42,100.25 269.40,99.21 269.37,98.14 269.33,97.08 269.25,95.99 269.17,94.89 269.07,93.79 268.97,92.68 268.89,91.57 268.81,90.46 268.79,89.35 268.76,88.23 268.76,87.14 268.77,86.04 268.78,85.00 268.80,83.94 268.79,82.92 268.78,81.89 268.74,80.84 268.72,79.80 268.65,78.75 268.57,77.70 268.24,76.75 267.91,75.81 267.04,75.18 266.17,74.55 264.80,74.35 263.43,74.15 261.82,74.21 260.21,74.28 258.61,74.42 257.02,74.55 255.49,74.63 253.96,74.70 252.52,74.79 251.08,74.87 249.64,74.94 248.19,75.00 246.69,75.09 245.19,75.17 243.63,75.28 242.08,75.38 240.52,75.47 238.96,75.56 237.43,75.67 235.90,75.76 234.42,75.86 232.95,75.96 231.46,76.02 229.98,76.08 228.49,76.10 227.00,76.11 225.48,76.12 223.97,76.12 222.44,76.15 220.92,76.18 219.41,76.24 217.90,76.29 216.42,76.36 214.93,76.42 213.48,76.49 212.03,76.55 210.56,76.62 209.10,76.68 207.59,76.75 206.07,76.82 204.51,76.90 202.96,76.98 201.40,77.06 199.85,77.14 198.31,77.20 196.77,77.27 195.28,77.32 193.79,77.38 192.36,77.41 190.92,77.44 189.49,77.46 188.05,77.47 186.59,77.49 185.12,77.51 183.67,77.54 182.22,77.57 180.76,77.60 179.31,77.62 177.83,77.63 176.36,77.64 174.88,77.66 173.40,77.66 171.95,77.67 170.50,77.67 169.08,77.66 167.65,77.66 166.22,77.67 164.79,77.68 163.35,77.71 161.92,77.73 160.49,77.76 159.06,77.80 157.64,77.84 156.23,77.87 154.82,77.92 153.41,77.97 151.99,78.03 150.56,78.09 149.14,78.17 147.71,78.24 146.30,78.31 144.88,78.38 143.48,78.46 142.07,78.53 140.67,78.61 139.26,78.67 137.87,78.71 136.48,78.75 135.11,78.75 133.72,78.75 132.34,78.74 130.96,78.72 129.60,78.71 128.23,78.71 126.86,78.71 125.50,78.71 124.15,78.71 122.78,78.71 121.44,78.76 120.08,78.80 118.79,78.93 117.49,79.06 116.20,79.21 114.91,79.35 113.57,79.37 112.24,79.40 110.82,79.35 109.40,79.30 107.94,79.27 106.47,79.25 105.01,79.28 103.54,79.30 102.07,79.36 100.59,79.42 99.13,79.51 97.66,79.59 96.20,79.68 94.74,79.76 93.31,79.82 91.88,79.87 90.50,79.92 89.10,79.96 87.74,79.99 86.37,80.02 85.00,80.00 83.63,79.98 82.29,79.94 80.94,79.90 79.61,79.87 78.26,79.83 76.91,79.83 75.56,79.82 74.30,79.93 73.04,80.04 72.19,80.34 71.33,80.64 70.98,81.13 70.64,81.62 70.73,82.23 70.81,82.84 71.05,83.44 71.28,84.05 71.49,84.60 71.69,85.14 71.82,85.67 71.94,86.20 72.03,86.74 72.12,87.28 72.19,87.85 72.25,88.42 72.33,88.98 72.40,89.52 72.45,90.06 72.49,90.60 72.47,91.16 72.45,91.72 72.40,92.30 72.35,92.88 72.32,93.46 72.29,94.04 72.29,94.62 72.28,95.19 72.32,95.75 72.35,96.31 72.38,96.86 72.42,97.40 72.44,97.92 72.46,98.43 72.49,98.94 72.52,99.45 72.54,99.98 72.56,100.51 72.59,101.05 72.61,101.60 72.64,102.20 72.66,102.80 72.67,103.44 72.68,104.08 72.67,104.70 72.66,105.32 72.67,105.90 72.67,106.48 72.71,107.06 72.74,107.63 72.80,108.20 72.86,108.76 72.91,109.31 72.97,109.86 73.01,110.41 73.05,110.97 73.08,111.54 73.12,112.12 73.17,112.71 73.22,113.29 73.30,113.91 73.38,114.52 73.46,115.16 73.55,115.80 73.61,116.44 73.67,117.08 73.69,117.70 73.72,118.30 73.71,118.88 73.69,119.46 73.65,120.00 73.61,120.54 73.55,121.08 73.50,121.61 73.46,122.15 73.42,122.70 73.40,123.28 73.37,123.86 73.35,124.45 73.33,125.04 73.35,125.63 73.37,126.23 73.42,126.82 73.47,127.41 73.53,128.02 73.59,128.62 73.64,129.22 73.70,129.83 73.75,130.46 73.80,131.08 73.81,131.71 73.83,132.33 73.82,132.92 73.82,133.51 73.80,134.08 73.78,134.65 73.76,135.21 73.74,135.78 73.73,136.36 73.73,136.95 73.72,137.53 73.72,138.12 73.69,138.71 73.66,139.29 73.66,139.87 73.66,140.44 73.69,141.00 73.72,141.56 73.79,142.11 73.87,142.66 73.91,143.22 73.96,143.79 73.96,144.36 73.96,144.93 73.97,145.51 73.98,146.09 73.98,146.68 73.97,147.27 73.95,147.84 73.93,148.42 73.94,148.98 73.95,149.54 74.00,150.11 74.06,150.68 74.12,151.26 74.18,151.84 74.23,152.44 74.27,153.04 74.30,153.77 74.32,154.50 74.35,155.47 74.37,156.42 74.42,157.52 74.46,158.61 74.52,159.75 74.57,160.88 74.61,161.98 74.65,163.08 74.66,164.14 74.68,165.20 74.68,166.24 74.69,167.29 74.69,168.35 74.70,169.41 74.67,170.49 74.64,171.57 74.56,172.63 74.49,173.69 74.42,174.74 74.36,175.79 74.35,176.86 74.33,177.93 74.35,179.00 74.38,180.07 74.42,181.11 74.46,182.16 74.52,183.20 74.58,184.24 74.63,185.27 74.68,186.29 74.72,187.29 74.76,188.30 74.81,189.33 74.86,190.34 74.89,191.37 74.92,192.40 74.92,193.43 74.93,194.45 74.92,195.48 74.90,196.50 74.88,197.51 74.86,198.51 74.82,199.50 74.78,200.48 74.75,201.46 74.72,202.44 74.73,203.46 74.73,204.48 74.77,205.52 74.80,206.57 74.84,207.64 74.88,208.70 74.94,209.81 75.00,210.91 75.10,212.02 75.19,213.13 75.29,214.24 75.39,215.35 75.50,216.45 75.61,217.55 76.02,218.39 76.43,219.23 77.35,219.58 78.26,219.93 79.62,219.92 80.98,219.91 82.56,219.79 84.15,219.67 85.77,219.53 87.39,219.39 88.96,219.24 90.53,219.08 92.07,218.95 93.61,218.82 95.16,218.75 96.70,218.69 98.25,218.66 99.79,218.64 101.33,218.66 102.86,218.67 104.36,218.71 105.86,218.74 107.31,218.77 108.76,218.79 110.20,218.78 111.64,218.76 113.12,218.72 114.59,218.68 116.10,218.65 117.60,218.61 119.14,218.60 120.67,218.59 122.24,218.65 123.81,218.70 125.37,218.78 126.93,218.86 128.47,218.90 130.02,218.94 131.56,218.93 133.09,218.91 134.61,218.88 136.13,218.85 137.64,218.80 139.14,218.75 140.63,218.68 142.12,218.61 143.61,218.50 145.11,218.37 146.59,218.20 148.07,218.02 149.56,217.80 151.03,217.59 152.53,217.44 154.02,217.29 155.50,217.24 156.97,217.19 158.42,217.19 159.86,217.19 161.31,217.21 162.75,217.24 164.23,217.28 165.70,217.32 167.20,217.36 168.71,217.40 170.23,217.40 171.75,217.40 173.26,217.36 174.77,217.32 176.25,217.27 177.74,217.21 179.21,217.16 180.68,217.11 182.17,217.05 183.65,216.98 185.12,216.92 186.59,216.86 188.06,216.84 189.52,216.81 190.98,216.78 192.44,216.76 193.92,216.66 195.39,216.57 196.86,216.46 198.33,216.35 199.83,216.23 201.33,216.11 202.84,216.00 204.34,215.89 205.83,215.83 207.33,215.77 208.78,215.78 210.24,215.78 211.67,215.74 213.09,215.70 214.50,215.64 215.92,215.58 217.37,215.51 218.81,215.44 220.26,215.36 221.71,215.29 223.14,215.22 224.56,215.16 225.99,215.13 227.42,215.10 228.83,215.10 230.24,215.11 231.67,215.14 233.10,215.16 234.57,215.20 236.04,215.23 237.50,215.23 238.97,215.23 240.43,215.21 241.89,215.18 243.39,215.16 244.89,215.12 246.42,215.12 247.95,215.12 249.48,215.15 251.01,215.19 252.55,215.21 254.07,215.23 255.58,215.22 257.09,215.20 258.58,215.13 260.08,215.06 261.59,214.96 263.10,214.86 264.64,214.77 266.18,214.68 267.68,214.62 269.18,214.56 270.31,214.40 271.44,214.24 271.99,213.90 272.54,213.55 272.63,213.07 272.73,212.59 272.55,212.03 272.37,211.49 272.09,210.91 271.81,210.32 271.57,209.75 271.32,209.17 271.13,208.61 270.94,208.05 270.78,207.46 270.62,206.87 270.49,206.23 270.36,205.59 270.27,204.97 270.19,204.35 270.11,203.80 270.04,203.26 270.04,202.75 270.03,202.24 270.07,201.75 270.10,201.26 270.15,200.77 270.19,200.29 270.24,199.80 270.28,199.30 270.31,198.80 270.34,198.30 270.40,197.82 270.45,197.34 270.49,196.85 270.54,196.37 270.57,195.83 270.60,195.30 270.61,194.74 270.61,194.18 270.60,193.59 270.59,193.00 270.60,192.41 270.60,191.83 270.60,191.25 270.60,190.67 270.62,190.09 270.64,189.50 270.65,188.91 270.66,188.32 270.65,187.75 270.64,187.18 270.61,186.63 270.59,186.07 270.57,185.52 270.55,184.96 270.53,184.39 270.52,183.82 270.48,183.26 270.45,182.69 270.39,182.12 270.34,181.55 270.32,180.99 270.30,180.42 270.28,179.85 270.26,179.28 270.25,178.67 270.24,178.06 270.26,177.43 270.27,176.81 270.28,176.21 270.30,175.60 270.28,175.02 270.27,174.44 270.24,173.88 270.20,173.33 270.16,172.77 270.12,172.22 270.09,171.69 270.05,171.17 270.01,170.63 269.97,170.09 269.92,169.51 269.87,168.93 269.82,168.33 269.77,167.71 269.75,167.13 269.72,166.53 269.72,165.97 269.72,165.40 269.72,164.85 269.73,164.29 269.72,163.73 269.71,163.17 269.70,162.61 269.69,162.05 269.69,161.48 269.69,160.91 269.69,160.32 269.69,159.73 269.70,159.14 269.70,158.55 269.71,157.98 269.72,157.42 269.72,156.86 269.72,156.30 269.71,155.72 269.69,155.14 269.65,154.54 269.60,153.94 269.55,153.36 269.50,152.78 269.45,152.22 269.40,151.66 269.38,151.10 269.36,150.54 269.35,149.99 269.34,149.44 269.33,148.89 269.32,148.34 269.28,147.78 269.25,147.20 269.23,146.62 269.20,146.04 269.24,145.45 269.27,144.85 269.29,144.22 269.31,143.59 269.29,142.80 269.27,142.02 269.28,141.07 269.29,140.12 269.30,139.07 269.30,138.03 269.29,136.94 269.28,135.85 269.27,134.75 269.26,133.65 269.28,132.56 269.30,131.47 269.32,130.41 269.34,129.35 269.36,128.32 269.37,127.28 269.37,126.25 269.37,125.21 269.34,124.18 269.31,123.15 269.29,122.13 269.27,121.10 269.27,120.05 269.27,119.01 269.26,117.94 269.25,116.87 269.23,115.77 269.21,114.68 269.16,113.58 269.11,112.48 269.07,111.39 269.03,110.30 269.00,109.22 268.98,108.14 268.99,107.08 269.01,106.02 269.04,105.01 269.07,103.99 269.11,102.98 269.14,101.97 269.14,100.93 269.13,99.88 269.07,98.81 269.00,97.73 268.90,96.64 268.79,95.54 268.66,94.46 268.52,93.37 268.42,92.30 268.33,91.23 268.31,90.15 268.29,89.07 268.30,87.96 268.32,86.85 268.33,85.73 268.34,84.61 268.32,83.51 268.29,82.40 268.22,81.33 268.15,80.25 268.14,79.20 268.11,78.15 267.92,77.21 267.73,76.28 266.94,75.76 266.15,75.23 264.78,75.19 263.41,75.14 261.74,75.27 260.08,75.40 258.36,75.53 256.64,75.67 254.98,75.81 253.31,75.95 251.72,76.06 250.13,76.18 248.56,76.23 246.98,76.28 245.43,76.32 243.88,76.36 242.33,76.42 240.77,76.47 239.23,76.52 237.70,76.56 236.21,76.58 234.73,76.58 233.24,76.59 231.75,76.59 230.26,76.60 228.77,76.61 227.29,76.62 225.80,76.64 224.29,76.65 222.79,76.66 221.26,76.69 219.74,76.72 218.23,76.76 216.72,76.80 215.25,76.87 213.78,76.93 212.35,77.01 210.92,77.08 209.51,77.14 208.09,77.19 206.65,77.23 205.22,77.27 203.76,77.32 202.30,77.38 200.82,77.43 199.35,77.48 197.87,77.52 196.39,77.57 194.93,77.61 193.47,77.64 192.02,77.67 190.58,77.70 189.14,77.72 187.70,77.73 186.26,77.76 184.82,77.80 183.38,77.87 181.95,77.95 180.49,78.05 179.04,78.15 177.56,78.21 176.08,78.27 174.58,78.30 173.08,78.32 171.59,78.34 170.10,78.36 168.60,78.38 167.10,78.40 165.60,78.43 164.10,78.46 162.62,78.50 161.13,78.53 159.65,78.58 158.17,78.63 156.71,78.65 155.25,78.68 153.83,78.68 152.41,78.69 151.00,78.67 149.59,78.66 148.17,78.67 146.74,78.67 145.32,78.68 143.91,78.69 142.49,78.73 141.07,78.76 139.65,78.80 138.22,78.85 136.77,78.91 135.33,78.96 133.89,79.02 132.46,79.07 131.04,79.11 129.63,79.14 128.25,79.15 126.87,79.15 125.50,79.16 124.13,79.16 122.74,79.18 121.34,79.20 119.91,79.21 118.48,79.23 117.03,79.25 115.58,79.27 114.13,79.27 112.67,79.27 111.21,79.29 109.74,79.31 108.27,79.38 106.79,79.45 105.34,79.52 103.89,79.59 102.44,79.64 100.99,79.69 99.52,79.75 98.05,79.80 96.55,79.86 95.05,79.92 93.55,79.97 92.05,80.02 90.61,80.05 89.15,80.07 87.72,80.08 86.29,80.10 84.84,80.10 83.40,80.10 81.97,80.10 80.54,80.09 79.09,80.07 77.65,80.05 76.21,80.08 74.77,80.11 73.57,80.26 72.37,80.42 71.74,80.75 71.12,81.08 70.98,81.55 70.84,82.02 70.94,82.55 71.04,83.07 71.20,83.59 71.35,84.11 71.51,84.62 71.66,85.12 71.77,85.60 71.88,86.09 71.97,86.64 72.05,87.18 72.12,87.76 72.19,88.34 72.24,88.94 72.30,89.53 72.33,90.15 72.35,90.77 72.35,91.40 72.34,92.03 72.35,92.61 72.37,93.18 72.41,93.70 72.45,94.22 72.49,94.72 72.53,95.21 72.57,95.72 72.61,96.24 72.67,96.76 72.73,97.29 72.78,97.83 72.83,98.37 72.86,98.93 72.89,99.49 72.92,100.06 72.94,100.63 72.96,101.21 72.98,101.78 73.00,102.33 73.02,102.88 73.03,103.44 73.04,104.00 73.04,104.60 73.03,105.19 72.99,105.82 72.95,106.45 72.89,107.09 72.83,107.72 72.78,108.34 72.73,108.96 72.75,109.55 72.76,110.14 72.80,110.72 72.85,111.30 72.89,111.89 72.92,112.47 72.99,113.06 73.06,113.66 73.17,114.25 73.29,114.85 73.40,115.42 73.50,115.98 73.58,116.53 73.65,117.07 73.69,117.60 73.72,118.14 73.72,118.70 73.72,119.26 73.72,119.80 73.72,120.34 73.74,120.86 73.75,121.38 73.74,121.91 73.73,122.44 73.69,122.99 73.65,123.55 73.62,124.12 73.60,124.69 73.63,125.27 73.66,125.85 73.70,126.42 73.73,126.99 73.75,127.55 73.77,128.10 73.76,128.65 73.74,129.20 73.70,129.76 73.66,130.32 73.63,130.89 73.60,131.46 73.61,132.02 73.62,132.57 73.67,133.13 73.72,133.69 73.79,134.26 73.86,134.83 73.90,135.42 73.95,136.00 73.98,136.60 74.02,137.19 74.05,137.78 74.08,138.36 74.11,138.94 74.13,139.52 74.16,140.09 74.18,140.67 74.20,141.26 74.21,141.84 74.24,142.41 74.26,142.97 74.27,143.55 74.28,144.12 74.28,144.70 74.27,145.28 74.26,145.87 74.24,146.46 74.23,147.07 74.22,147.67 74.23,148.28 74.24,148.88 74.28,149.46 74.32,150.05 74.35,150.64 74.38,151.23 74.40,151.97 74.41,152.70 74.42,153.64 74.43,154.58 74.42,155.64 74.42,156.70 74.42,157.78 74.43,158.87 74.47,159.96 74.50,161.05 74.53,162.14 74.55,163.21 74.56,164.27 74.57,165.32 74.56,166.35 74.54,167.38 74.49,168.41 74.44,169.44 74.37,170.46 74.30,171.48 74.24,172.51 74.18,173.53 74.11,174.56 74.05,175.58 74.02,176.62 73.99,177.65 73.98,178.69 73.98,179.73 73.97,180.75 73.95,181.76 73.96,182.78 73.96,183.80 73.99,184.84 74.01,185.87 74.04,186.91 74.07,187.96 74.09,189.01 74.11,190.05 74.12,191.10 74.12,192.14 74.11,193.18 74.08,194.22 74.06,195.27 74.04,196.30 74.05,197.36 74.06,198.42 74.10,199.47 74.14,200.52 74.19,201.58 74.24,202.63 74.23,203.66 74.21,204.68 74.17,205.70 74.14,206.72 74.13,207.76 74.12,208.79 74.11,209.83 74.11,210.85 74.12,211.87 74.13,212.88 74.18,213.91 74.23,214.93 74.29,215.94 74.35,216.95 74.59,217.82 74.84,218.69 75.49,219.23 76.14,219.76 77.16,219.92 78.19,220.08 79.38,220.03 80.57,219.98 81.80,219.87 83.03,219.76 84.25,219.64 85.47,219.53 86.66,219.42 87.86,219.32 89.06,219.25 90.27,219.18 91.47,219.15 92.67,219.12 93.85,219.09 95.03,219.07 96.19,219.04 97.35,219.01 98.49,218.99 99.62,218.97 100.76,218.96 101.90,218.95 103.02,218.98 104.15,219.01 105.29,218.99 106.43,218.96 107.56,218.91 108.70,218.86 109.81,218.80 110.92,218.74 112.04,218.69 113.16,218.63 114.30,218.58 115.44,218.52 116.57,218.48 117.70,218.45 118.80,218.36 119.89,218.27 120.78,217.91 121.66,217.55 122.29,216.89 122.91,216.22 123.36,215.33 123.80,214.43 124.04,213.40 124.28,212.37 124.32,211.32 124.35,210.26 124.48,209.29 124.59,208.32 125.05,207.76 125.51,207.19 126.33,207.03 127.14,206.87 128.25,206.97 129.35,207.06 130.61,207.26 131.86,207.46 133.09,207.64 134.32,207.82 135.49,207.92 136.66,208.01 137.79,208.03 138.91,208.05 140.00,207.99 141.10,207.93 142.17,207.84 143.24,207.74 144.34,207.64 145.43,207.53 146.55,207.45 147.66,207.36 148.77,207.30 149.88,207.24 150.95,207.26 152.02,207.26 153.08,207.32 154.14,207.37 155.24,207.43 156.32,207.48 157.42,207.52 158.51,207.55 159.60,207.55 160.69,207.54 161.76,207.52 162.83,207.50 163.90,207.45 164.97,207.41 166.05,207.34 167.12,207.26 168.21,207.17 169.29,207.07 170.36,206.95 171.43,206.82 172.42,206.57 173.42,206.32 174.30,205.86 175.19,205.40 175.98,204.76 176.78,204.12 177.46,203.36 178.14,202.61 178.60,201.77 179.06,200.94 179.24,200.05 179.43,199.15 179.45,198.22 179.47,197.28 179.42,196.32 179.38,195.36 179.31,194.41 179.23,193.46 179.08,192.54 178.93,191.62 178.64,190.71 178.34,189.79 177.91,188.90 177.47,188.00 176.92,187.13 176.36,186.26 175.68,185.48 175.00,184.69 174.17,184.03 173.34,183.36 172.40,182.85 171.47,182.33 170.50,181.92 169.52,181.51 168.57,181.09 167.62,180.68 166.73,180.19 165.83,179.69 165.04,179.08 164.25,178.47 163.65,177.71 163.05,176.94 162.58,176.11 162.12,175.26 161.66,174.42 161.19,173.58 160.68,172.76 160.17,171.94 159.70,171.11 159.23,170.27 158.86,169.41 158.48,168.56 158.24,167.71 157.99,166.85 157.91,165.97 157.83,165.09 157.88,164.18 157.92,163.27 158.01,162.34 158.10,161.41 158.19,160.49 158.28,159.57 158.34,158.66 158.39,157.75 158.38,156.88 158.36,156.00 158.28,155.12 158.20,154.25 158.11,153.35 158.01,152.45 157.92,151.54 157.83,150.62 157.58,149.81 157.32,148.99 156.71,148.52 156.10,148.04 155.19,147.93 154.28,147.81 153.23,147.89 152.18,147.97 151.08,148.11 149.97,148.24 148.87,148.36 147.77,148.48 146.68,148.57 145.59,148.66 144.51,148.74 143.43,148.83 142.35,148.89 141.27,148.96 140.20,149.01 139.12,149.06 138.06,149.10 136.99,149.15 135.92,149.21 134.86,149.27 133.82,149.41 132.78,149.55 131.79,149.83 130.80,150.09 129.85,150.44 128.91,150.79 127.97,151.15 127.04,151.52 126.07,151.78 125.10,152.05 124.09,152.17 123.08,152.29 122.07,152.31 121.05,152.32 120.08,152.36 119.10,152.38 118.25,152.64 117.40,152.90 116.83,153.47 116.26,154.04 115.99,154.86 115.72,155.68 115.67,156.63 115.62,157.57 115.68,158.54 115.73,159.50 115.82,160.47 115.91,161.42 116.03,162.37 116.14,163.32 116.27,164.28 116.40,165.24 116.52,166.20 116.64,167.15 116.80,168.13 116.96,169.10 117.11,170.06 117.25,171.01 117.31,171.93 117.37,172.85 117.37,173.73 117.38,174.61 117.39,175.49 117.39,176.36 117.39,177.25 117.40,178.13 117.42,179.03 117.45,179.93 117.48,180.84 117.51,181.75 117.53,182.66 117.56,183.57 117.56,184.47 117.57,185.38 117.58,186.29 117.59,187.20 117.61,188.09 117.63,188.97 117.63,189.85 117.65,190.71 117.67,191.60 117.70,192.48 117.75,193.37 117.81,194.26 117.85,195.14 117.90,196.02 117.90,196.87 117.90,197.72 117.89,198.57 117.89,199.41 117.88,200.26 117.87,201.10 117.87,201.97 117.86,202.85 117.87,203.75 117.87,204.65 117.89,205.56 117.92,206.47 117.99,207.39 118.07,208.31 118.24,209.21 118.42,210.10 118.77,210.91 119.11,211.72 119.62,212.46 120.13,213.19 120.57,213.95 121.01,214.71 121.29,215.57 121.56,216.42 121.57,217.31 121.57,218.19 121.07,218.80 120.57,219.40 119.65,219.58 118.73,219.75 117.63,219.70 116.52,219.65 115.35,219.55 114.18,219.44 113.03,219.38 111.87,219.31 110.79,219.31 109.72,219.31 108.69,219.33 107.66,219.35 106.66,219.38 105.65,219.41 104.65,219.45 103.65,219.48 102.66,219.50 101.66,219.52 100.65,219.55 99.64,219.57 98.64,219.59 97.64,219.61 96.65,219.63 95.67,219.65 94.69,219.67 93.72,219.69 92.74,219.72 91.77,219.75 90.80,219.78 89.82,219.81 88.86,219.83 87.89,219.85 86.94,219.85 85.98,219.85 85.04,219.83 84.10,219.81 83.15,219.81 82.20,219.81 81.23,219.82 80.26,219.83 79.29,219.83 78.32,219.83 77.37,219.81 76.42,219.80 75.47,219.79 74.51,219.78 73.53,219.79 72.54,219.80 71.56,219.83 70.58,219.85 69.61,219.85 68.63,219.85 67.71,219.83 66.78,219.80 65.88,219.77 64.98,219.74 64.10,219.73 63.22,219.72 62.33,219.70 61.44,219.67 60.51,219.65 59.59,219.62 58.62,219.63 57.66,219.63 56.68,219.67 55.70,219.70 54.72,219.75 53.74,219.80 52.76,219.86 51.78,219.91 50.84,219.98 49.89,220.03 48.95,220.08 48.01,220.14 47.07,220.20 46.13,220.26 45.21,220.29 44.30,220.33 43.36,220.33 42.41,220.32 41.45,220.33 40.48,220.33 39.51,220.35 38.55,220.37 37.61,220.42 36.67,220.47 35.73,220.54 34.78,220.60 33.77,220.70 32.75,220.80 31.72,220.88 30.68,220.95 29.76,221.15 28.83,221.35 28.21,221.84 27.59,222.34 27.43,223.80 27.27,225.27" stroke="#e8a631" fill="none" stroke-width="10" stroke-linejoin="round" stroke-linecap="round"/>
</svg>