<svg xmlns="http://www.w3.org/2000/svg" viewBox="0 0 300 300" width="300" height="300">
<style>
      text { font-family: Arial, sans-serif; }
    </style>
<polyline points="36.77,187.57 36.78,187.62 36.78,187.75 36.78,187.87 36.75,188.08 36.72,188.29 36.70,188.57 36.69,188.85 36.79,189.11 36.89,189.36 37.14,189.56 37.39,189.75 37.72,189.93 38.04,190.11 38.27,190.31 38.50,190.50 38.47,190.68 38.43,190.85 38.15,190.99 37.87,191.13 37.49,191.30 37.11,191.47 36.79,191.74 36.48,192.02 36.28,192.36 36.08,192.70 35.97,193.08 35.87,193.47 35.83,193.87 35.79,194.27 35.79,194.67 35.78,195.07 35.78,195.47 35.78,195.87 35.79,196.27 35.79,196.67 35.80,197.05 35.81,197.44 35.84,197.80 35.86,198.16 35.90,198.52 35.93,198.87 35.97,199.22 36.01,199.57 36.05,199.92 36.10,200.28 36.15,200.64 36.21,200.99 36.26,201.34 36.32,201.69 36.38,202.03 36.44,202.38 36.50,202.72 36.56,203.06 36.64,203.40 36.71,203.73 36.86,204.02 37.01,204.32 37.26,204.55 37.51,204.79 37.84,204.96 38.17,205.13 38.57,205.21 38.96,205.29 39.38,205.28 39.80,205.27 40.25,205.20 40.70,205.14 41.14,205.05 41.58,204.96 42.00,204.90 42.42,204.83 42.83,204.80 43.23,204.77 43.62,204.76 44.02,204.76 44.42,204.74 44.81,204.73 45.22,204.69 45.63,204.65 46.04,204.61 46.45,204.58 46.86,204.55 47.27,204.53 47.67,204.49 48.07,204.45 48.46,204.39 48.85,204.34 49.25,204.29 49.65,204.24 50.05,204.23 50.45,204.21 50.85,204.23 51.24,204.26 51.64,204.33 52.04,204.40 52.43,204.51 52.83,204.62 53.21,204.73 53.60,204.84 53.98,204.92 54.37,205.00 54.75,205.01 55.14,205.02 55.53,204.96 55.91,204.91 56.30,204.81 56.69,204.72 57.09,204.63 57.49,204.54 57.87,204.58 58.25,204.61 58.55,204.82 58.85,205.03 59.09,205.33 59.32,205.63 59.53,205.93 59.75,206.23 60.01,206.50 60.26,206.77 60.54,206.98 60.81,207.18 61.32,207.22 61.83,207.27 62.59,207.11 62.71,207.14 62.82,207.16 63.06,207.16 63.30,207.16 63.67,207.14 64.04,207.13 64.46,207.08 64.88,207.04 65.25,206.92 65.62,206.79 65.86,206.53 66.09,206.26 66.19,205.87 66.29,205.48 66.33,205.03 66.37,204.57 66.40,204.11 66.43,203.65 66.48,203.22 66.53,202.80 66.61,202.41 66.69,202.02 66.81,201.64 66.93,201.26 67.12,200.91 67.31,200.56 67.57,200.23 67.83,199.90 68.10,199.59 68.38,199.28 68.63,198.98 68.87,198.69 69.09,198.41 69.31,198.13 69.53,197.87 69.75,197.62 69.99,197.36 70.23,197.11 70.42,196.85 70.61,196.58 70.71,196.30 70.81,196.01 70.86,195.72 70.89,195.42 70.90,195.09 70.91,194.76 70.89,194.38 70.86,194.01 70.82,193.60 70.77,193.19 70.67,192.75 70.57,192.30 70.40,191.84 70.22,191.38 69.98,190.96 69.73,190.54 69.44,190.20 69.15,189.86 68.83,189.59 68.52,189.32 68.21,189.04 67.90,188.76 67.64,188.42 67.39,188.08 67.25,187.70 67.11,187.32 67.04,186.95 66.97,186.58 66.94,186.23 66.90,185.87 66.90,185.52 66.91,185.17 66.94,184.80 66.97,184.43 67.02,184.05 67.06,183.67 67.08,183.26 67.10,182.86 67.10,182.45 67.10,182.04 67.09,181.64 67.07,181.24 67.05,180.86 67.03,180.47 67.01,180.10 67.00,179.72 66.99,179.35 66.98,178.98 66.99,178.61 66.99,178.23 67.02,177.86 67.04,177.49 67.08,177.13 67.13,176.78 67.16,176.42 67.19,176.06 67.21,175.70 67.23,175.34 67.28,174.98 67.34,174.62 67.42,174.25 67.50,173.88 67.59,173.51 67.68,173.14 67.76,172.76 67.84,172.38 67.92,172.01 68.00,171.64 68.04,171.27 68.09,170.90 68.08,170.51 68.07,170.12 68.01,169.71 67.95,169.29 67.85,168.88 67.75,168.47 67.64,168.09 67.52,167.71 67.39,167.34 67.25,166.97 67.10,166.59 66.95,166.22 66.81,165.86 66.67,165.51 66.54,165.16 66.41,164.82 66.29,164.47 66.17,164.12 66.07,163.75 65.97,163.38 65.91,163.00 65.85,162.63 65.84,162.27 65.83,161.91 65.85,161.55 65.86,161.20 65.88,160.86 65.90,160.51 65.91,160.18 65.93,159.84 65.93,159.49 65.94,159.15 65.93,158.79 65.91,158.43 65.90,158.06 65.89,157.69 65.90,157.31 65.90,156.94 65.90,156.56 65.89,156.18 65.88,155.81 65.88,155.43 65.86,155.05 65.85,154.66 65.83,154.30 65.81,153.93 65.76,153.58 65.70,153.24 65.59,152.90 65.48,152.57 65.33,152.23 65.19,151.90 65.02,151.55 64.86,151.20 64.71,150.85 64.56,150.50 64.46,150.15 64.36,149.80 64.31,149.45 64.26,149.09 64.22,148.74 64.19,148.39 64.16,148.03 64.14,147.68 64.12,147.33 64.10,146.97 64.10,146.60 64.09,146.24 64.08,145.87 64.06,145.50 64.03,145.14 64.00,144.78 63.97,144.43 63.93,144.08 63.90,143.73 63.87,143.39 63.86,143.05 63.84,142.70 63.83,142.35 63.83,142.00 63.83,141.64 63.83,141.28 63.82,140.92 63.82,140.57 63.81,140.21 63.80,139.84 63.80,139.48 63.80,139.12 63.80,138.75 63.80,138.39 63.80,138.02 63.79,137.65 63.78,137.26 63.77,136.88 63.75,136.48 63.74,136.09 63.73,135.70 63.73,135.32 63.74,134.94 63.74,134.57 63.74,134.21 63.74,133.85 63.74,133.50 63.73,133.15 63.71,132.80 63.69,132.44 63.67,132.08 63.66,131.72 63.64,131.36 63.62,131.00 63.60,130.64 63.58,130.28 63.56,129.92 63.55,129.56 63.53,129.19 63.51,128.83 63.48,128.45 63.45,128.07 63.44,127.70 63.42,127.33 63.40,126.96 63.38,126.59 63.38,126.23 63.37,125.86 63.37,125.48 63.37,125.10 63.36,124.71 63.35,124.32 63.35,123.94 63.36,123.55 63.36,123.18 63.35,122.80 63.36,122.43 63.36,122.06 63.36,121.69 63.36,121.32 63.36,120.95 63.36,120.58 63.36,120.20 63.36,119.83 63.36,119.46 63.37,119.09 63.40,118.74 63.44,118.39 63.48,118.05 63.52,117.71 63.58,117.37 63.64,117.04 63.73,116.72 63.82,116.40 63.95,116.09 64.08,115.78 64.24,115.47 64.40,115.16 64.57,114.84 64.74,114.53 64.94,114.23 65.13,113.93 65.36,113.65 65.58,113.37 65.82,113.11 66.06,112.84 66.32,112.56 66.58,112.29 66.87,112.03 67.15,111.76 67.44,111.50 67.72,111.23 68.01,110.99 68.29,110.74 68.59,110.53 68.89,110.31 69.20,110.12 69.52,109.92 69.87,109.75 70.21,109.58 70.58,109.48 70.94,109.37 71.32,109.30 71.69,109.22 72.07,109.18 72.44,109.14 72.81,109.10 73.18,109.07 73.55,109.06 73.93,109.04 74.30,109.04 74.68,109.03 75.05,109.04 75.43,109.04 75.81,109.04 76.18,109.05 76.56,109.05 76.94,109.06 77.30,109.06 77.67,109.06 78.04,109.06 78.40,109.05 78.78,109.04 79.15,109.04 79.51,109.03 79.87,109.03 80.23,109.04 80.58,109.06 80.95,109.13 81.32,109.20 81.67,109.31 82.02,109.42 82.38,109.53 82.73,109.64 83.14,109.71 83.55,109.78 83.96,109.80 84.38,109.81 84.80,109.81 85.21,109.81 85.63,109.80 86.05,109.78 86.46,109.76 86.87,109.74 87.26,109.73 87.66,109.72 88.04,109.71 88.42,109.70 88.80,109.69 89.19,109.68 89.57,109.65 89.96,109.63 90.34,109.60 90.73,109.58 91.11,109.57 91.49,109.55 91.87,109.54 92.26,109.52 92.65,109.50 93.04,109.48 93.46,109.46 93.87,109.44 94.28,109.41 94.69,109.38 95.09,109.34 95.49,109.31 95.88,109.28 96.28,109.24 96.68,109.22 97.07,109.19 97.46,109.19 97.85,109.19 98.24,109.21 98.64,109.23 99.05,109.24 99.45,109.26 99.87,109.27 100.30,109.28 100.72,109.25 101.15,109.23 101.58,109.19 102.01,109.15 102.44,109.12 102.87,109.08 103.29,109.08 103.70,109.07 104.11,109.06 104.51,109.06 104.92,109.05 105.33,109.03 105.76,109.01 106.18,108.98 106.61,108.94 107.04,108.90 107.46,108.87 107.88,108.84 108.28,108.82 108.68,108.79 109.05,108.78 109.42,108.77 109.79,108.76 110.15,108.75 110.53,108.75 110.90,108.76 111.28,108.77 111.66,108.78 112.06,108.80 112.46,108.82 112.85,108.84 113.24,108.85 113.61,108.87 113.98,108.88 114.36,108.91 114.74,108.93 115.12,108.93 115.49,108.94 115.87,108.92 116.24,108.91 116.62,108.85 116.99,108.80 117.36,108.68 117.73,108.57 118.10,108.44 118.47,108.31 118.83,108.20 119.19,108.10 119.55,108.04 119.90,107.97 120.25,107.90 120.61,107.84 120.97,107.77 121.32,107.70 121.70,107.66 122.08,107.61 122.46,107.59 122.85,107.57 123.24,107.56 123.63,107.55 124.00,107.53 124.38,107.51 124.76,107.51 125.15,107.50 125.55,107.50 125.94,107.49 126.35,107.49 126.76,107.48 127.17,107.46 127.57,107.45 127.96,107.42 128.34,107.40 128.71,107.38 129.08,107.36 129.47,107.35 129.85,107.33 130.24,107.32 130.63,107.30 131.02,107.29 131.40,107.28 131.79,107.28 132.18,107.27 132.57,107.26 132.96,107.25 133.34,107.24 133.72,107.23 134.10,107.21 134.48,107.20 134.85,107.19 135.23,107.18 135.60,107.17 135.97,107.16 136.34,107.15 136.72,107.14 137.11,107.13 137.50,107.12 137.90,107.11 138.30,107.10 138.70,107.10 139.10,107.09 139.51,107.09 139.92,107.09 140.33,107.07 140.74,107.06 141.14,107.04 141.55,107.02 141.95,106.99 142.35,106.96 142.74,106.93 143.14,106.90 143.53,106.87 143.93,106.84 144.33,106.82 144.72,106.80 145.12,106.78 145.51,106.76 145.90,106.73 146.29,106.70 146.67,106.68 147.05,106.66 147.43,106.66 147.81,106.66 148.19,106.65 148.57,106.65 148.95,106.63 149.33,106.62 149.72,106.61 150.10,106.59 150.48,106.57 150.87,106.55 151.25,106.53 151.63,106.51 152.00,106.49 152.37,106.47 152.74,106.45 153.10,106.43 153.47,106.40 153.83,106.37 154.20,106.31 154.56,106.25 154.92,106.17 155.29,106.10 155.65,106.02 156.02,105.95 156.38,105.87 156.74,105.79 157.10,105.69 157.46,105.59 157.82,105.48 158.18,105.37 158.54,105.24 158.90,105.12 159.26,104.96 159.62,104.81 159.96,104.63 160.31,104.45 160.65,104.26 160.98,104.07 161.32,103.86 161.65,103.66 161.98,103.45 162.31,103.23 162.62,103.02 162.93,102.80 163.23,102.57 163.54,102.35 163.84,102.11 164.14,101.87 164.43,101.63 164.73,101.38 165.01,101.13 165.29,100.88 165.56,100.62 165.83,100.36 166.10,100.10 166.36,99.84 166.60,99.58 166.84,99.31 167.07,99.05 167.30,98.79 167.52,98.51 167.74,98.23 167.95,97.94 168.15,97.65 168.35,97.35 168.55,97.06 168.74,96.75 168.92,96.44 169.08,96.12 169.24,95.81 169.38,95.48 169.52,95.15 169.65,94.82 169.79,94.48 169.94,94.14 170.09,93.80 170.23,93.48 170.36,93.15 170.46,92.82 170.56,92.49 170.64,92.16 170.71,91.83 170.78,91.49 170.86,91.15 170.92,90.81 170.98,90.46 171.02,90.11 171.06,89.77 171.09,89.40 171.13,89.04 171.16,88.68 171.20,88.31 171.22,87.96 171.25,87.60 171.26,87.25 171.26,86.89 171.27,86.53 171.28,86.17 171.28,85.81 171.28,85.45 171.28,85.10 171.27,84.75 171.27,84.39 171.26,84.04 171.26,83.67 171.25,83.31 171.24,82.94 171.23,82.58 171.21,82.20 171.20,81.83 171.18,81.46 171.16,81.09 171.15,80.73 171.14,80.36 171.14,80.01 171.13,79.65 171.12,79.29 171.11,78.93 171.10,78.58 171.09,78.22 171.06,77.87 171.03,77.52 171.01,77.16 170.98,76.80 170.96,76.44 170.93,76.08 170.95,75.72 170.96,75.36 170.99,75.00 171.01,74.64 171.01,74.28 171.02,73.91 170.98,73.56 170.94,73.21 170.89,72.87 170.84,72.52 170.79,72.17 170.74,71.82 170.71,71.46 170.68,71.10 170.66,70.73 170.64,70.37 170.62,70.01 170.60,69.65 170.57,69.28 170.53,68.91 170.49,68.55 170.45,68.18 170.42,67.81 170.39,67.45 170.37,67.09 170.35,66.72 170.32,66.36 170.29,66.00 170.25,65.63 170.20,65.26 170.18,64.92 170.16,64.58 170.24,64.31 170.33,64.05 170.51,63.82 170.69,63.58 170.94,63.37 171.19,63.16 171.52,62.99 171.84,62.83 172.21,62.72 172.58,62.61 172.98,62.57 173.39,62.53 173.80,62.53 174.21,62.54 174.60,62.54 174.99,62.54 175.37,62.53 175.75,62.53 176.13,62.52 176.51,62.50 176.89,62.48 177.28,62.46 177.69,62.43 178.09,62.40 178.50,62.37 178.91,62.34 179.32,62.31 179.73,62.28 180.13,62.25 180.53,62.23 180.93,62.19 181.32,62.16 181.72,62.12 182.11,62.07 182.51,62.03 182.90,62.00 183.31,61.96 183.71,61.92 184.12,61.87 184.53,61.83 184.95,61.78 185.37,61.72 185.81,61.67 186.24,61.62 186.68,61.59 187.11,61.55 187.54,61.52 187.98,61.50 188.41,61.48 188.83,61.45 189.25,61.42 189.67,61.38 190.10,61.33 190.52,61.28 190.94,61.23 191.37,61.17 191.80,61.12 192.22,61.07 192.65,61.04 193.07,61.01 193.50,61.00 193.92,60.99 194.33,60.97 194.75,60.96 195.16,60.94 195.57,60.93 195.97,60.91 196.38,60.90 196.78,60.88 197.18,60.87 197.58,60.86 197.98,60.85 198.38,60.83 198.78,60.82 199.17,60.80 199.57,60.77 199.96,60.75 200.36,60.73 200.75,60.71 201.15,60.70 201.55,60.68 201.95,60.66 202.36,60.67 202.77,60.67 203.18,60.69 203.58,60.72 203.99,60.76 204.40,60.81 204.82,60.85 205.23,60.89 205.65,60.92 206.08,60.95 206.50,60.99 206.93,61.02 207.34,61.04 207.76,61.06 208.16,61.06 208.57,61.06 208.97,61.04 209.38,61.02 209.79,60.99 210.20,60.96 210.61,60.94 211.02,60.91 211.43,60.89 211.84,60.87 212.25,60.84 212.66,60.82 213.08,60.81 213.50,60.80 213.91,60.79 214.32,60.79 214.71,60.78 215.10,60.76 215.48,60.74 215.87,60.72 216.24,60.70 216.62,60.68 217.00,60.67 217.38,60.65 217.77,60.63 218.16,60.61 218.54,60.59 218.93,60.58 219.31,60.56 219.69,60.54 220.07,60.51 220.46,60.49 220.84,60.45 221.22,60.41 221.62,60.37 222.02,60.33 222.42,60.30 222.82,60.28 223.22,60.28 223.62,60.28 224.01,60.29 224.40,60.30 224.79,60.31 225.17,60.33 225.55,60.34 225.93,60.35 226.32,60.34 226.71,60.34 227.10,60.32 227.49,60.31 227.87,60.30 228.25,60.28 228.63,60.26 229.01,60.25 229.39,60.23 229.76,60.21 230.14,60.21 230.51,60.21 230.88,60.22 231.25,60.23 231.63,60.22 232.01,60.21 232.39,60.21 232.78,60.21 233.17,60.22 233.55,60.24 233.94,60.25 234.33,60.26 234.73,60.24 235.12,60.23 235.51,60.21 235.91,60.18 236.30,60.18 236.70,60.17 237.08,60.19 237.47,60.21 237.87,60.24 238.26,60.26 238.65,60.28 239.05,60.31 239.44,60.32 239.83,60.34 240.22,60.35 240.62,60.36 241.01,60.38 241.40,60.39 241.79,60.39 242.17,60.40 242.56,60.41 242.95,60.41 243.35,60.42 243.75,60.42 244.15,60.42 244.56,60.42 244.96,60.42 245.36,60.42 245.75,60.42 246.14,60.42 246.52,60.43 246.90,60.44 247.29,60.46 247.67,60.47 248.05,60.47 248.44,60.47 248.83,60.47 249.22,60.47 249.62,60.46 250.02,60.45 250.41,60.44 250.81,60.42 251.20,60.40 251.59,60.38 251.98,60.36 252.37,60.33 252.76,60.29 253.15,60.25 253.55,60.22 253.94,60.18 254.34,60.15 254.73,60.12 255.12,60.10 255.51,60.08 255.90,60.06 256.30,60.05 256.69,60.04 257.08,60.02 257.47,60.01 257.86,60.00 258.26,59.98 258.66,59.96 259.06,59.93 259.46,59.90 259.86,59.86 260.25,59.83 260.64,59.79 261.03,59.76 261.42,59.75 261.81,59.75 262.22,59.75 262.63,59.75 263.05,59.77 263.47,59.80 263.87,59.88 264.27,59.96 264.63,60.13 264.98,60.30 265.24,60.57 265.51,60.83 265.67,61.17 265.83,61.51 265.92,61.88 266.01,62.26 266.04,62.64 266.06,63.02 266.06,63.39 266.05,63.75 266.04,64.11 266.03,64.45 266.04,64.80 266.04,65.14 266.05,65.49 266.07,65.83 266.08,66.17 266.10,66.51 266.13,66.84 266.15,67.17 266.17,67.50 266.19,67.83 266.20,68.17 266.22,68.50 266.22,68.84 266.23,69.17 266.23,69.50 266.24,69.82 266.24,70.15 266.24,70.47 266.24,70.80 266.24,71.13 266.23,71.46 266.22,71.79 266.23,72.12 266.23,72.44 266.25,72.77 266.26,73.09 266.29,73.43 266.31,73.76 266.34,74.09 266.36,74.42 266.38,74.74 266.40,75.06 266.40,75.37 266.41,75.69 266.41,76.00 266.41,76.32 266.40,76.64 266.40,76.97 266.40,77.30 266.41,77.64 266.42,77.98 266.43,78.31 266.44,78.65 266.44,78.99 266.45,79.31 266.45,79.64 266.46,79.96 266.47,80.28 266.49,80.61 266.51,80.93 266.53,81.25 266.55,81.58 266.55,81.90 266.55,82.23 266.55,82.56 266.54,82.88 266.56,83.20 266.58,83.52 266.60,83.84 266.61,84.17 266.62,84.50 266.63,84.83 266.63,85.17 266.63,85.50 266.64,85.84 266.64,86.19 266.64,86.53 266.65,86.87 266.64,87.21 266.64,87.54 266.63,87.89 266.63,88.23 266.62,88.56 266.61,88.90 266.61,89.23 266.62,89.55 266.64,89.87 266.66,90.19 266.70,90.50 266.74,90.82 266.79,91.15 266.83,91.47 266.87,91.80 266.90,92.13 266.91,92.46 266.92,92.80 266.92,93.13 266.91,93.46 266.92,93.80 266.92,94.13 266.92,94.46 266.93,94.78 266.94,95.11 266.95,95.43 266.97,95.77 266.99,96.12 267.01,96.46 267.03,96.81 267.05,97.16 267.07,97.51 267.08,97.87 267.09,98.22 267.10,98.58 267.10,98.93 267.12,99.28 267.13,99.62 267.15,99.97 267.17,100.31 267.18,100.64 267.19,100.98 267.19,101.32 267.19,101.65 267.19,102.00 267.18,102.34 267.17,102.69 267.16,103.04 267.16,103.39 267.15,103.73 267.17,104.08 267.19,104.43 267.21,104.78 267.23,105.12 267.25,105.45 267.27,105.78 267.28,106.11 267.29,106.43 267.30,106.75 267.31,107.08 267.33,107.40 267.34,107.73 267.35,108.04 267.36,108.36 267.36,108.69 267.37,109.01 267.38,109.33 267.40,109.65 267.44,109.96 267.47,110.28 267.52,110.60 267.57,110.92 267.61,111.24 267.65,111.56 267.68,111.88 267.70,112.20 267.71,112.52 267.71,112.84 267.72,113.17 267.72,113.49 267.74,113.82 267.76,114.15 267.78,114.49 267.81,114.82 267.84,115.16 267.87,115.49 267.91,115.82 267.94,116.14 267.98,116.47 268.02,116.80 268.06,117.13 268.10,117.47 268.13,117.82 268.16,118.17 268.19,118.52 268.21,118.88 268.24,119.23 268.26,119.58 268.28,119.92 268.30,120.27 268.31,120.59 268.31,120.92 268.31,121.23 268.30,121.55 268.30,121.86 268.29,122.17 268.29,122.48 268.29,122.79 268.32,123.12 268.34,123.45 268.41,123.79 268.48,124.13 268.57,124.46 268.67,124.80 268.78,125.13 268.88,125.46 268.97,125.79 269.06,126.12 269.13,126.46 269.20,126.80 269.24,127.15 269.28,127.50 269.29,127.86 269.29,128.23 269.27,128.58 269.25,128.93 269.22,129.26 269.20,129.60 269.20,129.92 269.20,130.25 269.21,130.57 269.23,130.89 269.27,131.21 269.30,131.54 269.33,131.86 269.37,132.18 269.39,132.51 269.42,132.83 269.44,133.17 269.46,133.52 269.48,133.86 269.49,134.21 269.51,134.56 269.53,134.90 269.55,135.25 269.57,135.59 269.55,135.94 269.53,136.28 269.48,136.62 269.42,136.96 269.37,137.28 269.32,137.61 269.29,137.93 269.26,138.25 269.21,138.58 269.16,138.91 269.06,139.23 268.96,139.56 268.80,139.87 268.64,140.19 268.46,140.48 268.29,140.78 268.13,141.07 267.97,141.36 267.83,141.65 267.69,141.94 267.55,142.24 267.40,142.53 267.20,142.80 267.00,143.07 266.71,143.28 266.42,143.49 266.07,143.62 265.72,143.75 265.35,143.82 264.98,143.89 264.62,143.96 264.26,144.03 263.95,144.18 263.65,144.32 263.44,144.55 263.24,144.79 263.14,145.08 263.03,145.37 263.02,145.71 263.01,146.05 263.10,146.40 263.19,146.74 263.42,147.03 263.64,147.31 263.99,147.49 264.34,147.66 264.77,147.73 265.20,147.81 265.64,147.84 266.09,147.87 266.52,147.92 266.95,147.96 267.36,148.04 267.77,148.11 268.16,148.18 268.54,148.26 268.90,148.35 269.25,148.43 269.55,148.57 269.85,148.72 270.01,148.96 270.17,149.20 270.19,149.51 270.22,149.83 270.19,150.17 270.16,150.51 270.15,150.85 270.14,151.18 270.17,151.51 270.20,151.84 270.25,152.18 270.30,152.52 270.36,152.86 270.42,153.20 270.47,153.53 270.53,153.86 270.59,154.18 270.66,154.50 270.73,154.82 270.80,155.13 270.86,155.46 270.92,155.78 270.97,156.12 271.02,156.45 271.06,156.79 271.10,157.13 271.13,157.48 271.15,157.82 271.17,158.16 271.19,158.50 271.20,158.84 271.20,159.18 271.20,159.51 271.19,159.84 271.17,160.17 271.16,160.50 271.14,160.83 271.12,161.16 271.08,161.50 271.03,161.84 270.96,162.17 270.88,162.50 270.80,162.84 270.71,163.17 270.64,163.50 270.57,163.84 270.53,164.19 270.48,164.53 270.45,164.87 270.42,165.21 270.41,165.54 270.39,165.86 270.41,166.19 270.43,166.52 270.48,166.84 270.52,167.16 270.57,167.47 270.61,167.77 270.65,168.09 270.69,168.40 270.71,168.72 270.73,169.04 270.75,169.36 270.76,169.68 270.78,170.01 270.80,170.34 270.82,170.68 270.84,171.01 270.84,171.35 270.84,171.68 270.85,172.01 270.85,172.34 270.87,172.68 270.88,173.01 270.90,173.36 270.92,173.71 270.92,174.07 270.92,174.42 270.88,174.78 270.83,175.14 270.75,175.50 270.67,175.85 270.60,176.18 270.53,176.52 270.49,176.82 270.45,177.12 270.48,177.42 270.51,177.72 270.63,178.03 270.74,178.34 270.90,178.66 271.07,178.98 271.21,179.32 271.35,179.65 271.43,179.99 271.52,180.33 271.56,180.67 271.61,181.01 271.63,181.35 271.65,181.69 271.66,182.03 271.66,182.37 271.65,182.70 271.64,183.03 271.64,183.36 271.63,183.69 271.64,184.03 271.64,184.36 271.65,184.70 271.66,185.04 271.67,185.39 271.68,185.74 271.69,186.09 271.70,186.44 271.72,186.80 271.74,187.17 271.77,187.53 271.80,187.89 271.84,188.24 271.87,188.59 271.90,188.93 271.92,189.27 271.92,189.61 271.92,189.94 271.93,190.27 271.93,190.61 271.95,190.94 271.96,191.26 272.00,191.60 272.03,191.93 272.05,192.25 272.07,192.58 272.02,192.90 271.97,193.22 271.86,193.53 271.74,193.83 271.65,194.13 271.55,194.43 271.49,194.74 271.43,195.05 271.40,195.36 271.37,195.67 271.37,195.99 271.38,196.31 271.39,196.64 271.40,196.97 271.41,197.29 271.41,197.62 271.42,197.95 271.43,198.28 271.44,198.63 271.45,198.97 271.46,199.34 271.47,199.71 271.47,200.09 271.48,200.46 271.48,200.84 271.49,201.21 271.48,201.57 271.48,201.93 271.48,202.28 271.47,202.63 271.49,202.99 271.50,203.34 271.51,203.70 271.52,204.06 271.51,204.41 271.50,204.77 271.46,205.10 271.41,205.44 271.35,205.77 271.28,206.10 271.22,206.43 271.16,206.75 271.13,207.09 271.09,207.42 271.10,207.75 271.10,208.08 271.13,208.39 271.16,208.70 271.20,209.01 271.25,209.33 271.28,209.67 271.32,210.00 271.34,210.35 271.35,210.70 271.33,211.06 271.30,211.41 271.25,211.77 271.20,212.14 271.16,212.51 271.12,212.88 271.16,213.24 271.20,213.60 271.34,213.95 271.47,214.29 271.68,214.64 271.88,214.98 272.07,215.34 272.26,215.70 272.38,216.07 272.50,216.43 272.55,216.81 272.60,217.18 272.61,217.54 272.61,217.91 272.63,218.27 272.64,218.63 272.66,218.98 272.69,219.33 272.71,219.68 272.73,220.03 272.71,220.39 272.68,220.74 272.63,221.10 272.58,221.46 272.52,221.83 272.47,222.19 272.42,222.56 272.37,222.92 272.33,223.30 272.29,223.67 272.24,224.05 272.20,224.42 272.15,224.77 272.09,225.12 272.04,225.46 271.99,225.80 271.94,226.15 271.90,226.49 271.88,226.84 271.86,227.19 271.86,227.54 271.86,227.90 271.87,228.25 271.88,228.60 271.90,228.94 271.92,229.27 271.96,229.61 272.01,229.96 272.05,230.30 272.09,230.65 272.13,231.01 272.16,231.37 272.20,231.73 272.23,232.10 272.25,232.48 272.27,232.86 272.29,233.24 272.32,233.62 272.33,233.98 272.35,234.35 272.33,234.69 272.31,235.04 272.20,235.35 272.08,235.65 271.97,235.95 272.32,235.91 272.27,235.96 272.23,236.02 272.08,236.11 271.94,236.20 271.64,236.30 271.34,236.40 270.94,236.46 270.53,236.52 270.07,236.55 269.61,236.57 269.15,236.59 268.68,236.60 268.23,236.61 267.77,236.62 267.32,236.63 266.87,236.64 266.43,236.66 265.99,236.67 265.55,236.69 265.12,236.71 264.69,236.72 264.25,236.74 263.82,236.75 263.39,236.77 262.97,236.77 262.54,236.78 262.12,236.76 261.69,236.75 261.28,236.73 260.86,236.71 260.46,236.72 260.05,236.72 259.66,236.73 259.26,236.75 258.87,236.76 258.47,236.78 258.07,236.81 257.68,236.85 257.30,236.88 256.91,236.90 256.53,236.93 256.15,236.95 255.78,236.98 255.40,237.01 255.00,237.05 254.60,237.09 254.20,237.13 253.80,237.16 253.39,237.19 252.99,237.22 252.59,237.24 252.20,237.27 251.80,237.29 251.41,237.31 251.01,237.32 250.61,237.32 250.21,237.31 249.81,237.30 249.41,237.29 249.01,237.28 248.61,237.26 248.21,237.25 247.81,237.24 247.41,237.23 247.02,237.24 246.62,237.25 246.22,237.27 245.82,237.29 245.43,237.32 245.04,237.35 244.64,237.39 244.25,237.43 243.85,237.46 243.45,237.50 243.05,237.50 242.65,237.51 242.26,237.51 241.87,237.51 241.48,237.52 241.09,237.52 240.69,237.53 240.29,237.54 239.89,237.56 239.48,237.58 239.06,237.58 238.65,237.59 238.24,237.57 237.82,237.55 237.42,237.52 237.02,237.48 236.64,237.40 236.25,237.32 235.88,237.19 235.52,237.06 235.15,236.90 234.79,236.75 234.42,236.62 234.04,236.49 233.67,236.41 233.29,236.33 232.92,236.29 232.54,236.24 232.16,236.22 231.78,236.20 231.41,236.18 231.03,236.16 230.66,236.12 230.28,236.09 229.91,236.06 229.53,236.02 229.16,236.02 228.79,236.02 228.43,236.08 228.07,236.15 227.72,236.25 227.37,236.36 227.01,236.47 226.65,236.57 226.27,236.66 225.90,236.74 225.51,236.77 225.12,236.80 224.73,236.73 224.35,236.67 223.98,236.52 223.60,236.38 223.23,236.23 222.87,236.08 222.50,235.97 222.13,235.86 221.75,235.79 221.37,235.71 220.98,235.68 220.58,235.65 220.18,235.64 219.77,235.64 219.36,235.65 218.95,235.66 218.55,235.67 218.15,235.68 217.76,235.68 217.38,235.68 217.00,235.67 216.62,235.65 216.24,235.64 215.86,235.62 215.49,235.61 215.11,235.59 214.74,235.59 214.37,235.58 214.01,235.58 213.66,235.58 213.31,235.60 212.95,235.61 212.59,235.65 212.23,235.69 211.86,235.74 211.49,235.78 211.11,235.82 210.74,235.86 210.35,235.87 209.97,235.89 209.58,235.88 209.19,235.86 208.80,235.85 208.41,235.83 208.02,235.81 207.64,235.79 207.27,235.76 206.89,235.73 206.53,235.70 206.16,235.67 205.79,235.65 205.41,235.63 205.03,235.61 204.65,235.60 204.27,235.59 203.88,235.58 203.49,235.59 203.10,235.59 202.72,235.60 202.34,235.61 201.95,235.62 201.55,235.63 201.15,235.64 200.74,235.64 200.34,235.64 199.93,235.64 199.53,235.64 199.13,235.64 198.74,235.65 198.35,235.65 197.97,235.67 197.59,235.68 197.21,235.71 196.84,235.73 196.46,235.77 196.07,235.81 195.69,235.85 195.31,235.89 194.94,235.92 194.57,235.94 194.21,235.95 193.86,235.95 193.52,235.93 193.18,235.92 192.83,235.92 192.47,235.92 192.10,235.94 191.72,235.96 191.34,235.97 190.97,235.99 190.59,236.02 190.22,236.04 189.83,236.07 189.44,236.11 189.06,236.13 188.68,236.15 188.31,236.15 187.95,236.15 187.60,236.15 187.25,236.15 186.92,236.14 186.59,236.13 186.26,236.12 185.93,236.11 185.59,236.12 185.25,236.13 184.89,236.15 184.52,236.17 184.14,236.20 183.76,236.22 183.38,236.28 183.00,236.34 182.64,236.47 182.28,236.60 181.91,236.79 181.54,236.98 181.14,237.19 180.74,237.40 180.30,237.54 179.86,237.68 179.40,237.75 178.93,237.82 178.48,237.85 178.03,237.87 177.61,237.89 177.20,237.90 176.82,237.91 176.44,237.92 176.07,237.94 175.69,237.95 175.28,237.98 174.87,238.01 174.45,238.05 174.03,238.08 173.61,238.10 173.20,238.13 172.80,238.16 172.39,238.19 171.98,238.24 171.57,238.28 171.15,238.31 170.73,238.35 170.30,238.37 169.87,238.38 169.44,238.38 169.01,238.38 168.59,238.38 168.17,238.39 167.77,238.40 167.36,238.41 166.95,238.40 166.55,238.40 166.14,238.37 165.74,238.35 165.34,238.32 164.93,238.30 164.53,238.28 164.13,238.27 163.73,238.27 163.33,238.27 162.92,238.28 162.52,238.29 162.11,238.30 161.70,238.31 161.29,238.31 160.88,238.32 160.50,238.28 160.11,238.25 159.76,238.14 159.41,238.03 159.09,237.84 158.78,237.66 158.49,237.43 158.21,237.20 157.97,236.93 157.73,236.66 157.55,236.36 157.38,236.05 157.25,235.71 157.12,235.37 157.00,235.02 156.88,234.67 156.71,234.34 156.53,234.02 156.28,233.76 156.02,233.50 155.71,233.33 155.39,233.17 155.04,233.08 154.69,233.00 154.33,233.01 153.98,233.01 153.62,233.09 153.27,233.17 152.90,233.29 152.53,233.41 152.16,233.52 151.78,233.63 151.40,233.71 151.02,233.78 150.60,233.83 150.19,233.87 149.76,233.89 149.33,233.92 148.92,234.01 148.50,234.11 148.19,234.30 147.87,234.50 147.67,234.78 147.47,235.06 147.32,235.39 147.17,235.73 147.03,236.11 146.90,236.48 146.80,236.89 146.70,237.30 146.63,237.73 146.56,238.15 146.45,238.54 146.34,238.94 146.11,239.23 145.88,239.52 145.54,239.68 145.20,239.84 144.79,239.90 144.38,239.96 143.94,239.97 143.50,239.97 143.07,239.96 142.64,239.95 142.23,239.94 141.81,239.92 141.40,239.91 140.98,239.90 140.57,239.90 140.16,239.89 139.76,239.90 139.35,239.91 138.96,239.93 138.57,239.95 138.18,239.98 137.79,240.01 137.40,240.03 137.01,240.06 136.61,240.08 136.21,240.11 135.80,240.13 135.38,240.16 134.97,240.18 134.55,240.20 134.14,240.22 133.72,240.23 133.31,240.24 132.89,240.25 132.47,240.25 132.06,240.25 131.64,240.24 131.23,240.23 130.82,240.20 130.41,240.17 130.02,240.15 129.63,240.12 129.23,240.09 128.84,240.06 128.44,240.04 128.04,240.02 127.64,240.01 127.24,239.99 126.83,239.98 126.42,239.96 126.00,239.94 125.59,239.92 125.19,239.88 124.79,239.85 124.39,239.80 124.00,239.75 123.61,239.68 123.21,239.62 122.82,239.53 122.42,239.45 122.03,239.34 121.65,239.23 121.29,239.12 120.94,239.00 120.60,238.87 120.27,238.75 119.94,238.62 119.61,238.50 119.27,238.37 118.93,238.24 118.59,238.10 118.24,237.96 117.90,237.80 117.55,237.65 117.21,237.49 116.87,237.34 116.52,237.21 116.18,237.09 115.83,237.01 115.48,236.92 115.14,236.87 114.79,236.82 114.46,236.82 114.13,236.83 113.87,236.89 113.60,236.95 113.41,237.04 113.21,237.13 113.07,237.23 112.93,237.33 112.82,237.41 112.71,237.50 112.59,237.58 112.47,237.65 112.33,237.70 112.19,237.75 112.04,237.80 111.90,237.84 111.75,237.89 111.60,237.93 111.45,237.99 111.30,238.05 111.15,238.11 110.99,238.17 110.84,238.24 110.69,238.31 110.54,238.41 110.40,238.50 110.25,238.60 110.10,238.70 109.94,238.81 109.78,238.91 109.62,238.99 109.45,239.08 109.28,239.15 109.11,239.22 108.93,239.28 108.75,239.34 108.57,239.39 108.38,239.44 108.21,239.48 108.03,239.53 107.85,239.55 107.68,239.57 107.50,239.56 107.33,239.55 107.15,239.54 106.96,239.53 106.78,239.52 106.59,239.50 106.40,239.48 106.21,239.47 106.01,239.44 105.82,239.41 105.62,239.38 105.41,239.35 105.22,239.31 105.02,239.27 104.83,239.21 104.63,239.16 104.44,239.08 104.24,239.00 104.06,238.90 103.87,238.80 103.70,238.71 103.52,238.62 103.35,238.53 103.18,238.45 103.00,238.36 102.82,238.28 102.64,238.18 102.46,238.08 102.28,237.99 102.09,237.89 101.91,237.80 101.72,237.72 101.54,237.65 101.36,237.58 101.16,237.48 100.96,237.38 100.76,237.17 100.56,236.96 100.42,236.65 100.28,236.33 100.20,235.94 100.13,235.55 100.05,235.14 99.96,234.74 99.83,234.38 99.69,234.01 99.57,233.67 99.44,233.32 99.36,232.96 99.28,232.60 99.23,232.24 99.17,231.87 99.14,231.50 99.11,231.13 99.09,230.76 99.07,230.40 99.05,230.04 99.04,229.68 99.01,229.33 98.98,228.98 98.92,228.62 98.86,228.26 98.77,227.90 98.67,227.54 98.51,227.20 98.35,226.85 98.14,226.53 97.93,226.22 97.67,225.93 97.42,225.64 97.12,225.38 96.83,225.12 96.51,224.89 96.19,224.67 95.84,224.49 95.49,224.32 95.12,224.21 94.75,224.09 94.37,224.04 93.99,223.99 93.58,223.99 93.18,223.99 92.75,224.02 92.32,224.05 91.89,224.09 91.46,224.13 91.05,224.17 90.65,224.21 90.25,224.24 89.86,224.27 89.47,224.30 89.07,224.32 88.68,224.33 88.28,224.33 87.88,224.34 87.49,224.34 87.10,224.35 86.70,224.36 86.32,224.38 85.93,224.39 85.56,224.39 85.19,224.39 84.83,224.33 84.47,224.27 84.09,224.17 83.72,224.07 83.34,223.97 82.96,223.87 82.59,223.79 82.22,223.71 81.84,223.66 81.47,223.62 81.09,223.60 80.71,223.57 80.32,223.55 79.93,223.52 79.55,223.49 79.17,223.46 78.80,223.42 78.44,223.39 78.07,223.36 77.71,223.32 77.33,223.30 76.95,223.27 76.57,223.24 76.18,223.20 75.80,223.16 75.42,223.12 75.04,223.05 74.67,222.98 74.29,222.89 73.91,222.80 73.55,222.69 73.18,222.59 72.83,222.49 72.47,222.39 72.12,222.29 71.76,222.19 71.40,222.07 71.04,221.95 70.71,221.78 70.37,221.60 70.05,221.37 69.73,221.15 69.42,220.90 69.12,220.65 68.85,220.38 68.57,220.11 68.34,219.82 68.11,219.52 67.96,219.20 67.81,218.87 67.72,218.53 67.63,218.19 67.58,217.83 67.52,217.48 67.47,217.13 67.42,216.78 67.36,216.43 67.31,216.09 67.25,215.74 67.19,215.40 67.13,215.05 67.07,214.71 67.00,214.36 66.93,214.01 66.84,213.67 66.74,213.32 66.63,212.98 66.52,212.64 66.44,212.30 66.36,211.96 66.32,211.62 66.27,211.28 66.26,210.95 66.25,210.61 66.24,210.28 66.22,209.95 66.20,209.61 66.17,209.28 66.15,208.93 66.12,208.59 66.10,208.23 66.08,207.88 66.09,207.33 65.96,207.00 65.83,207.01 65.71,207.02 65.50,207.02 65.29,207.01 64.97,206.99 64.64,206.97 64.21,206.95 63.79,206.93 63.33,206.93 62.88,206.93 62.43,206.93 61.98,206.92 61.56,206.86 61.14,206.80 60.77,206.64 60.40,206.49 60.08,206.26 59.76,206.03 59.49,205.74 59.21,205.46 58.98,205.14 58.74,204.81 58.56,204.46 58.38,204.11 58.26,203.74 58.15,203.37 58.11,202.99 58.07,202.61 58.09,202.22 58.11,201.84 58.21,201.47 58.31,201.10 58.47,200.74 58.64,200.39 58.86,200.07 59.08,199.75 59.30,199.44 59.53,199.13 59.74,198.82 59.95,198.51 60.12,198.19 60.30,197.87 60.42,197.54 60.53,197.21 60.61,196.86 60.68,196.52 60.72,196.17 60.76,195.83 60.73,195.49 60.71,195.16 60.59,194.83 60.48,194.50 60.28,194.18 60.08,193.86 59.82,193.55 59.56,193.24 59.28,192.93 59.00,192.63 58.76,192.32 58.52,192.02 58.33,191.70 58.14,191.39 57.99,191.04 57.83,190.69 57.70,190.33 57.57,189.96 57.49,189.59 57.42,189.21 57.43,188.84 57.44,188.46 57.56,188.10 57.68,187.73 57.88,187.39 58.08,187.05 58.32,186.73 58.55,186.41 58.81,186.11 59.07,185.81 59.31,185.51 59.54,185.21 59.72,184.89 59.89,184.57 60.01,184.23 60.13,183.89 60.21,183.55 60.29,183.20 60.34,182.85 60.39,182.49 60.40,182.12 60.42,181.75 60.38,181.38 60.35,181.01 60.26,180.66 60.17,180.30 60.06,179.97 59.94,179.63 59.81,179.32 59.68,179.00 59.56,178.68 59.43,178.36 59.26,178.03 59.10,177.70 58.86,177.40 58.62,177.09 58.30,176.86 57.98,176.64 57.62,176.46 57.26,176.29 56.90,176.11 56.54,175.92 56.25,175.68 55.97,175.43 55.82,175.11 55.67,174.79 55.70,174.44 55.73,174.10 55.92,173.78 56.11,173.45 56.38,173.15 56.64,172.84 56.94,172.55 57.23,172.25 57.49,171.94 57.76,171.63 57.96,171.29 58.17,170.95 58.27,170.58 58.38,170.21 58.38,169.83 58.37,169.46 58.26,169.10 58.14,168.74 57.94,168.43 57.74,168.12 57.45,167.89 57.16,167.65 56.81,167.48 56.46,167.30 56.07,167.16 55.67,167.02 55.26,166.89 54.84,166.76 54.40,166.65 53.96,166.53 53.52,166.44 53.07,166.35 52.63,166.30 52.19,166.25 51.76,166.24 51.32,166.23 50.88,166.25 50.44,166.26 50.00,166.29 49.56,166.31 49.12,166.32 48.69,166.32 48.27,166.28 47.85,166.24 47.44,166.15 47.04,166.05 46.64,165.91 46.25,165.76 45.87,165.58 45.49,165.41 45.11,165.23 44.74,165.04 44.35,164.87 43.97,164.71 43.57,164.57 43.17,164.44 42.75,164.33 42.33,164.23 41.91,164.15 41.48,164.08 41.05,164.01 40.62,163.94 40.21,163.86 39.79,163.79 39.38,163.70 38.97,163.61 38.56,163.52 38.15,163.43 37.75,163.31 37.35,163.19 36.97,163.04 36.59,162.88 36.23,162.69 35.87,162.50 35.52,162.28 35.16,162.06 34.80,161.83 34.44,161.60 34.05,161.41 33.66,161.23 33.25,161.11 32.84,161.00 32.41,160.97 31.97,160.93 31.53,160.97 31.08,161.00 30.65,161.10 30.21,161.20 29.79,161.36 29.37,161.52 28.99,161.75 28.61,161.97 28.29,162.25 27.97,162.53 27.73,162.84 27.49,163.15 27.38,163.46 27.27,163.76 27.31,164.09 27.35,164.41 27.45,164.78 27.56,165.15 27.66,165.56 27.77,165.96 27.84,166.38 27.92,166.79 27.94,167.22 27.96,167.66 27.96,168.10 27.97,168.54 27.96,168.97 27.96,169.41 27.97,169.84 27.98,170.26 28.01,170.67 28.04,171.07 28.08,171.46 28.12,171.86 28.17,172.24 28.22,172.63 28.26,173.02 28.31,173.41 28.34,173.80 28.37,174.20 28.39,174.60 28.40,174.99 28.40,175.38 28.39,175.77 28.33,176.15 28.27,176.52 28.16,176.89 28.05,177.25 27.95,177.61 27.86,177.97 27.86,178.33 27.86,178.69 28.00,179.04 28.14,179.38 28.40,179.67 28.67,179.96 29.02,180.19 29.37,180.41 29.76,180.59 30.14,180.78 30.52,180.96 30.90,181.14 31.25,181.34 31.60,181.53 31.90,181.74 32.20,181.95 32.45,182.19 32.70,182.43 32.92,182.71 33.13,182.99 33.32,183.29 33.51,183.60 33.67,183.93 33.83,184.26 33.97,184.61 34.10,184.96 34.21,185.32 34.33,185.68" stroke="#e8a631" fill="none" stroke-width="10" stroke-linejoin="round" stroke-linecap="round"/>
</svg>